<?xml version="1.0" standalone="no"?>
 <!DOCTYPE svg PUBLIC "-//W3C//DTD SVG 1.1//EN" 
 "http://www.w3.org/Graphics/SVG/1.1/DTD/svg11.dtd"> 
<svg
  xmlns:svg="http://www.w3.org/2000/svg"
  xmlns="http://www.w3.org/2000/svg"
  xmlns:xlink="http://www.w3.org/1999/xlink"
  version="1.1"
  width="8.699500cm" height="5.316220cm" viewBox="0 0 34250 20930">
<title>SVG Picture created as s88iso-F_Paste.svg date 2020/11/27 17:12:44 </title>
  <desc>Picture generated by PCBNEW </desc>
<g style="fill:#000000; fill-opacity:1;stroke:#000000; stroke-opacity:1;
stroke-linecap:round; stroke-linejoin:round;"
 transform="translate(0 0) scale(1 1)">
</g>
<g style="fill:#000000; fill-opacity:0.0; 
stroke:#000000; stroke-width:-0.000393701; stroke-opacity:1; 
stroke-linecap:round; stroke-linejoin:round;">
<g >
</g>
<g >
</g>
<g >
</g>
<g style="fill:#000000; fill-opacity:0.0; 
stroke:#000000; stroke-width:-0.000393701; stroke-opacity:1; 
stroke-linecap:round; stroke-linejoin:round;">
</g>
<g style="fill:#000000; fill-opacity:0.0; 
stroke:#000000; stroke-width:0; stroke-opacity:1; 
stroke-linecap:round; stroke-linejoin:round;">
</g>
<g style="fill:#000000; fill-opacity:1.0; 
stroke:#000000; stroke-width:0; stroke-opacity:1; 
stroke-linecap:round; stroke-linejoin:round;">
<path style="fill:#000000; fill-opacity:1.0; 
stroke:#000000; stroke-width:0; stroke-opacity:1; 
stroke-linecap:round; stroke-linejoin:round;fill-rule:evenodd;"
d="M 10718.3,15409.8
10729.8,15411.5
10741,15414.3
10751.9,15418.2
10762.4,15423.2
10772.3,15429.1
10781.6,15436
10790.2,15443.8
10798,15452.4
10804.9,15461.7
10810.9,15471.7
10815.8,15482.1
10819.7,15493.1
10822.6,15504.3
10824.3,15515.8
10824.8,15527.3
10824.8,15842.3
10824.3,15853.9
10822.6,15865.3
10819.7,15876.6
10815.8,15887.5
10810.9,15898
10804.9,15907.9
10798,15917.2
10790.2,15925.8
10781.6,15933.6
10772.3,15940.5
10762.4,15946.5
10751.9,15951.4
10741,15955.3
10729.8,15958.1
10718.3,15959.8
10706.7,15960.4
10470.5,15960.4
10458.9,15959.8
10447.5,15958.1
10436.2,15955.3
10425.3,15951.4
10414.8,15946.5
10404.9,15940.5
10395.6,15933.6
10387,15925.8
10379.2,15917.2
10372.3,15907.9
10366.3,15898
10361.4,15887.5
10357.5,15876.6
10354.7,15865.3
10353,15853.9
10352.4,15842.3
10352.4,15527.3
10353,15515.8
10354.7,15504.3
10357.5,15493.1
10361.4,15482.1
10366.3,15471.7
10372.3,15461.7
10379.2,15452.4
10387,15443.8
10395.6,15436
10404.9,15429.1
10414.8,15423.2
10425.3,15418.2
10436.2,15414.3
10447.5,15411.5
10458.9,15409.8
10470.5,15409.2
10706.7,15409.2
Z" /> 
<path style="fill:#000000; fill-opacity:1.0; 
stroke:#000000; stroke-width:0; stroke-opacity:1; 
stroke-linecap:round; stroke-linejoin:round;fill-rule:evenodd;"
d="M 11456.5,15409.8
11468,15411.5
11479.2,15414.3
11490.1,15418.2
11500.6,15423.2
11510.5,15429.1
11519.8,15436
11528.4,15443.8
11536.2,15452.4
11543.1,15461.7
11549.1,15471.7
11554,15482.1
11557.9,15493.1
11560.8,15504.3
11562.5,15515.8
11563,15527.3
11563,15842.3
11562.5,15853.9
11560.8,15865.3
11557.9,15876.6
11554,15887.5
11549.1,15898
11543.1,15907.9
11536.2,15917.2
11528.4,15925.8
11519.8,15933.6
11510.5,15940.5
11500.6,15946.5
11490.1,15951.4
11479.2,15955.3
11468,15958.1
11456.5,15959.8
11444.9,15960.4
11208.7,15960.4
11197.1,15959.8
11185.6,15958.1
11174.4,15955.3
11163.5,15951.4
11153,15946.5
11143.1,15940.5
11133.8,15933.6
11125.2,15925.8
11117.4,15917.2
11110.5,15907.9
11104.5,15898
11099.6,15887.5
11095.7,15876.6
11092.8,15865.3
11091.1,15853.9
11090.6,15842.3
11090.6,15527.3
11091.1,15515.8
11092.8,15504.3
11095.7,15493.1
11099.6,15482.1
11104.5,15471.7
11110.5,15461.7
11117.4,15452.4
11125.2,15443.8
11133.8,15436
11143.1,15429.1
11153,15423.2
11163.5,15418.2
11174.4,15414.3
11185.6,15411.5
11197.1,15409.8
11208.7,15409.2
11444.9,15409.2
Z" /> 
</g>
<g >
</g>
<g style="fill:#000000; fill-opacity:1.0; 
stroke:#000000; stroke-width:0; stroke-opacity:1; 
stroke-linecap:round; stroke-linejoin:round;">
<path style="fill:#000000; fill-opacity:1.0; 
stroke:#000000; stroke-width:0; stroke-opacity:1; 
stroke-linecap:round; stroke-linejoin:round;fill-rule:evenodd;"
d="M 13534.3,12566.4
14321.3,12566.4
14321.3,12802.4
13534.3,12802.4
Z" /> 
<path style="fill:#000000; fill-opacity:1.0; 
stroke:#000000; stroke-width:0; stroke-opacity:1; 
stroke-linecap:round; stroke-linejoin:round;fill-rule:evenodd;"
d="M 13534.3,13066.4
14321.3,13066.4
14321.3,13302.4
13534.3,13302.4
Z" /> 
<path style="fill:#000000; fill-opacity:1.0; 
stroke:#000000; stroke-width:0; stroke-opacity:1; 
stroke-linecap:round; stroke-linejoin:round;fill-rule:evenodd;"
d="M 13534.3,13566.4
14321.3,13566.4
14321.3,13802.4
13534.3,13802.4
Z" /> 
<path style="fill:#000000; fill-opacity:1.0; 
stroke:#000000; stroke-width:0; stroke-opacity:1; 
stroke-linecap:round; stroke-linejoin:round;fill-rule:evenodd;"
d="M 13534.3,14066.4
14321.3,14066.4
14321.3,14302.4
13534.3,14302.4
Z" /> 
<path style="fill:#000000; fill-opacity:1.0; 
stroke:#000000; stroke-width:0; stroke-opacity:1; 
stroke-linecap:round; stroke-linejoin:round;fill-rule:evenodd;"
d="M 13534.3,14566.4
14321.3,14566.4
14321.3,14802.4
13534.3,14802.4
Z" /> 
<path style="fill:#000000; fill-opacity:1.0; 
stroke:#000000; stroke-width:0; stroke-opacity:1; 
stroke-linecap:round; stroke-linejoin:round;fill-rule:evenodd;"
d="M 13534.3,15066.4
14321.3,15066.4
14321.3,15302.4
13534.3,15302.4
Z" /> 
<path style="fill:#000000; fill-opacity:1.0; 
stroke:#000000; stroke-width:0; stroke-opacity:1; 
stroke-linecap:round; stroke-linejoin:round;fill-rule:evenodd;"
d="M 13534.3,15566.4
14321.3,15566.4
14321.3,15802.4
13534.3,15802.4
Z" /> 
<path style="fill:#000000; fill-opacity:1.0; 
stroke:#000000; stroke-width:0; stroke-opacity:1; 
stroke-linecap:round; stroke-linejoin:round;fill-rule:evenodd;"
d="M 13534.3,16066.4
14321.3,16066.4
14321.3,16302.4
13534.3,16302.4
Z" /> 
<path style="fill:#000000; fill-opacity:1.0; 
stroke:#000000; stroke-width:0; stroke-opacity:1; 
stroke-linecap:round; stroke-linejoin:round;fill-rule:evenodd;"
d="M 15734.3,16066.4
16521.3,16066.4
16521.3,16302.4
15734.3,16302.4
Z" /> 
<path style="fill:#000000; fill-opacity:1.0; 
stroke:#000000; stroke-width:0; stroke-opacity:1; 
stroke-linecap:round; stroke-linejoin:round;fill-rule:evenodd;"
d="M 15734.3,15566.4
16521.3,15566.4
16521.3,15802.4
15734.3,15802.4
Z" /> 
<path style="fill:#000000; fill-opacity:1.0; 
stroke:#000000; stroke-width:0; stroke-opacity:1; 
stroke-linecap:round; stroke-linejoin:round;fill-rule:evenodd;"
d="M 15734.3,15066.4
16521.3,15066.4
16521.3,15302.4
15734.3,15302.4
Z" /> 
<path style="fill:#000000; fill-opacity:1.0; 
stroke:#000000; stroke-width:0; stroke-opacity:1; 
stroke-linecap:round; stroke-linejoin:round;fill-rule:evenodd;"
d="M 15734.3,14566.4
16521.3,14566.4
16521.3,14802.4
15734.3,14802.4
Z" /> 
<path style="fill:#000000; fill-opacity:1.0; 
stroke:#000000; stroke-width:0; stroke-opacity:1; 
stroke-linecap:round; stroke-linejoin:round;fill-rule:evenodd;"
d="M 15734.3,14066.4
16521.3,14066.4
16521.3,14302.4
15734.3,14302.4
Z" /> 
<path style="fill:#000000; fill-opacity:1.0; 
stroke:#000000; stroke-width:0; stroke-opacity:1; 
stroke-linecap:round; stroke-linejoin:round;fill-rule:evenodd;"
d="M 15734.3,13566.4
16521.3,13566.4
16521.3,13802.4
15734.3,13802.4
Z" /> 
<path style="fill:#000000; fill-opacity:1.0; 
stroke:#000000; stroke-width:0; stroke-opacity:1; 
stroke-linecap:round; stroke-linejoin:round;fill-rule:evenodd;"
d="M 15734.3,13066.4
16521.3,13066.4
16521.3,13302.4
15734.3,13302.4
Z" /> 
<path style="fill:#000000; fill-opacity:1.0; 
stroke:#000000; stroke-width:0; stroke-opacity:1; 
stroke-linecap:round; stroke-linejoin:round;fill-rule:evenodd;"
d="M 15734.3,12566.4
16521.3,12566.4
16521.3,12802.4
15734.3,12802.4
Z" /> 
</g>
<g >
</g>
<g >
</g>
<g >
</g>
<g >
</g>
<g >
</g>
<g >
</g>
<g style="fill:#000000; fill-opacity:1.0; 
stroke:#000000; stroke-width:0; stroke-opacity:1; 
stroke-linecap:round; stroke-linejoin:round;">
<path style="fill:#000000; fill-opacity:1.0; 
stroke:#000000; stroke-width:0; stroke-opacity:1; 
stroke-linecap:round; stroke-linejoin:round;fill-rule:evenodd;"
d="M 17346.8,5648.78
17358.3,5650.48
17369.5,5653.3
17380.5,5657.2
17390.9,5662.16
17400.9,5668.12
17410.2,5675.02
17418.8,5682.81
17426.6,5691.39
17433.5,5700.7
17439.4,5710.65
17444.4,5721.12
17448.3,5732.04
17451.1,5743.28
17452.8,5754.75
17453.4,5766.32
17453.4,6002.54
17452.8,6014.12
17451.1,6025.59
17448.3,6036.83
17444.4,6047.74
17439.4,6058.22
17433.5,6068.16
17426.6,6077.47
17418.8,6086.06
17410.2,6093.84
17400.9,6100.75
17390.9,6106.71
17380.5,6111.66
17369.5,6115.57
17358.3,6118.38
17346.8,6120.09
17335.3,6120.65
17020.3,6120.65
17008.7,6120.09
16997.3,6118.38
16986,6115.57
16975.1,6111.66
16964.6,6106.71
16954.7,6100.75
16945.4,6093.84
16936.8,6086.06
16929,6077.47
16922.1,6068.16
16916.1,6058.22
16911.2,6047.74
16907.3,6036.83
16904.5,6025.59
16902.8,6014.12
16902.2,6002.54
16902.2,5766.32
16902.8,5754.75
16904.5,5743.28
16907.3,5732.04
16911.2,5721.12
16916.1,5710.65
16922.1,5700.7
16929,5691.39
16936.8,5682.81
16945.4,5675.02
16954.7,5668.12
16964.6,5662.16
16975.1,5657.2
16986,5653.3
16997.3,5650.48
17008.7,5648.78
17020.3,5648.21
17335.3,5648.21
Z" /> 
<path style="fill:#000000; fill-opacity:1.0; 
stroke:#000000; stroke-width:0; stroke-opacity:1; 
stroke-linecap:round; stroke-linejoin:round;fill-rule:evenodd;"
d="M 17346.8,4910.59
17358.3,4912.29
17369.5,4915.11
17380.5,4919.01
17390.9,4923.97
17400.9,4929.93
17410.2,4936.83
17418.8,4944.62
17426.6,4953.21
17433.5,4962.52
17439.4,4972.46
17444.4,4982.94
17448.3,4993.85
17451.1,5005.09
17452.8,5016.56
17453.4,5028.13
17453.4,5264.35
17452.8,5275.93
17451.1,5287.4
17448.3,5298.64
17444.4,5309.55
17439.4,5320.03
17433.5,5329.97
17426.6,5339.28
17418.8,5347.87
17410.2,5355.66
17400.9,5362.56
17390.9,5368.52
17380.5,5373.47
17369.5,5377.38
17358.3,5380.2
17346.8,5381.9
17335.3,5382.46
17020.3,5382.46
17008.7,5381.9
16997.3,5380.2
16986,5377.38
16975.1,5373.47
16964.6,5368.52
16954.7,5362.56
16945.4,5355.66
16936.8,5347.87
16929,5339.28
16922.1,5329.97
16916.1,5320.03
16911.2,5309.55
16907.3,5298.64
16904.5,5287.4
16902.8,5275.93
16902.2,5264.35
16902.2,5028.13
16902.8,5016.56
16904.5,5005.09
16907.3,4993.85
16911.2,4982.94
16916.1,4972.46
16922.1,4962.52
16929,4953.21
16936.8,4944.62
16945.4,4936.83
16954.7,4929.93
16964.6,4923.97
16975.1,4919.01
16986,4915.11
16997.3,4912.29
17008.7,4910.59
17020.3,4910.02
17335.3,4910.02
Z" /> 
</g>
<g >
</g>
<g style="fill:#000000; fill-opacity:1.0; 
stroke:#000000; stroke-width:0; stroke-opacity:1; 
stroke-linecap:round; stroke-linejoin:round;">
<path style="fill:#000000; fill-opacity:1.0; 
stroke:#000000; stroke-width:0; stroke-opacity:1; 
stroke-linecap:round; stroke-linejoin:round;fill-rule:evenodd;"
d="M 13546.8,4879.69
13558.3,4881.39
13569.5,4884.2
13580.5,4888.11
13590.9,4893.06
13600.9,4899.02
13610.2,4905.93
13618.8,4913.71
13626.6,4922.3
13633.5,4931.61
13639.4,4941.55
13644.4,4952.03
13648.3,4962.94
13651.1,4974.19
13652.8,4985.65
13653.4,4997.23
13653.4,5233.45
13652.8,5245.03
13651.1,5256.49
13648.3,5267.73
13644.4,5278.65
13639.4,5289.13
13633.5,5299.07
13626.6,5308.38
13618.8,5316.97
13610.2,5324.75
13600.9,5331.65
13590.9,5337.61
13580.5,5342.57
13569.5,5346.47
13558.3,5349.29
13546.8,5350.99
13535.3,5351.56
13220.3,5351.56
13208.7,5350.99
13197.3,5349.29
13186,5346.47
13175.1,5342.57
13164.6,5337.61
13154.7,5331.65
13145.4,5324.75
13136.8,5316.97
13129,5308.38
13122.1,5299.07
13116.1,5289.13
13111.2,5278.65
13107.3,5267.73
13104.5,5256.49
13102.8,5245.03
13102.2,5233.45
13102.2,4997.23
13102.8,4985.65
13104.5,4974.19
13107.3,4962.94
13111.2,4952.03
13116.1,4941.55
13122.1,4931.61
13129,4922.3
13136.8,4913.71
13145.4,4905.93
13154.7,4899.02
13164.6,4893.06
13175.1,4888.11
13186,4884.2
13197.3,4881.39
13208.7,4879.69
13220.3,4879.12
13535.3,4879.12
Z" /> 
<path style="fill:#000000; fill-opacity:1.0; 
stroke:#000000; stroke-width:0; stroke-opacity:1; 
stroke-linecap:round; stroke-linejoin:round;fill-rule:evenodd;"
d="M 13546.8,5617.88
13558.3,5619.58
13569.5,5622.39
13580.5,5626.3
13590.9,5631.25
13600.9,5637.21
13610.2,5644.12
13618.8,5651.9
13626.6,5660.49
13633.5,5669.8
13639.4,5679.74
13644.4,5690.22
13648.3,5701.13
13651.1,5712.38
13652.8,5723.84
13653.4,5735.42
13653.4,5971.64
13652.8,5983.21
13651.1,5994.68
13648.3,6005.92
13644.4,6016.84
13639.4,6027.31
13633.5,6037.26
13626.6,6046.57
13618.8,6055.15
13610.2,6062.94
13600.9,6069.84
13590.9,6075.8
13580.5,6080.76
13569.5,6084.66
13558.3,6087.48
13546.8,6089.18
13535.3,6089.75
13220.3,6089.75
13208.7,6089.18
13197.3,6087.48
13186,6084.66
13175.1,6080.76
13164.6,6075.8
13154.7,6069.84
13145.4,6062.94
13136.8,6055.15
13129,6046.57
13122.1,6037.26
13116.1,6027.31
13111.2,6016.84
13107.3,6005.92
13104.5,5994.68
13102.8,5983.21
13102.2,5971.64
13102.2,5735.42
13102.8,5723.84
13104.5,5712.38
13107.3,5701.13
13111.2,5690.22
13116.1,5679.74
13122.1,5669.8
13129,5660.49
13136.8,5651.9
13145.4,5644.12
13154.7,5637.21
13164.6,5631.25
13175.1,5626.3
13186,5622.39
13197.3,5619.58
13208.7,5617.88
13220.3,5617.31
13535.3,5617.31
Z" /> 
</g>
<g >
</g>
<g style="fill:#000000; fill-opacity:1.0; 
stroke:#000000; stroke-width:0; stroke-opacity:1; 
stroke-linecap:round; stroke-linejoin:round;">
<path style="fill:#000000; fill-opacity:1.0; 
stroke:#000000; stroke-width:0; stroke-opacity:1; 
stroke-linecap:round; stroke-linejoin:round;fill-rule:evenodd;"
d="M 19046.8,11767.9
19058.3,11769.6
19069.5,11772.4
19080.5,11776.3
19090.9,11781.3
19100.9,11787.2
19110.2,11794.1
19118.8,11801.9
19126.6,11810.5
19133.5,11819.8
19139.4,11829.7
19144.4,11840.2
19148.3,11851.1
19151.1,11862.4
19152.8,11873.8
19153.4,11885.4
19153.4,12121.6
19152.8,12133.2
19151.1,12144.7
19148.3,12155.9
19144.4,12166.8
19139.4,12177.3
19133.5,12187.3
19126.6,12196.6
19118.8,12205.2
19110.2,12212.9
19100.9,12219.8
19090.9,12225.8
19080.5,12230.8
19069.5,12234.7
19058.3,12237.5
19046.8,12239.2
19035.3,12239.7
18720.3,12239.7
18708.7,12239.2
18697.3,12237.5
18686,12234.7
18675.1,12230.8
18664.6,12225.8
18654.7,12219.8
18645.4,12212.9
18636.8,12205.2
18629,12196.6
18622.1,12187.3
18616.1,12177.3
18611.2,12166.8
18607.3,12155.9
18604.5,12144.7
18602.8,12133.2
18602.2,12121.6
18602.2,11885.4
18602.8,11873.8
18604.5,11862.4
18607.3,11851.1
18611.2,11840.2
18616.1,11829.7
18622.1,11819.8
18629,11810.5
18636.8,11801.9
18645.4,11794.1
18654.7,11787.2
18664.6,11781.3
18675.1,11776.3
18686,11772.4
18697.3,11769.6
18708.7,11767.9
18720.3,11767.3
19035.3,11767.3
Z" /> 
<path style="fill:#000000; fill-opacity:1.0; 
stroke:#000000; stroke-width:0; stroke-opacity:1; 
stroke-linecap:round; stroke-linejoin:round;fill-rule:evenodd;"
d="M 19046.8,11029.7
19058.3,11031.4
19069.5,11034.2
19080.5,11038.1
19090.9,11043.1
19100.9,11049
19110.2,11055.9
19118.8,11063.7
19126.6,11072.3
19133.5,11081.6
19139.4,11091.6
19144.4,11102
19148.3,11112.9
19151.1,11124.2
19152.8,11135.7
19153.4,11147.2
19153.4,11383.4
19152.8,11395
19151.1,11406.5
19148.3,11417.7
19144.4,11428.6
19139.4,11439.1
19133.5,11449.1
19126.6,11458.4
19118.8,11467
19110.2,11474.7
19100.9,11481.7
19090.9,11487.6
19080.5,11492.6
19069.5,11496.5
19058.3,11499.3
19046.8,11501
19035.3,11501.6
18720.3,11501.6
18708.7,11501
18697.3,11499.3
18686,11496.5
18675.1,11492.6
18664.6,11487.6
18654.7,11481.7
18645.4,11474.7
18636.8,11467
18629,11458.4
18622.1,11449.1
18616.1,11439.1
18611.2,11428.6
18607.3,11417.7
18604.5,11406.5
18602.8,11395
18602.2,11383.4
18602.2,11147.2
18602.8,11135.7
18604.5,11124.2
18607.3,11112.9
18611.2,11102
18616.1,11091.6
18622.1,11081.6
18629,11072.3
18636.8,11063.7
18645.4,11055.9
18654.7,11049
18664.6,11043.1
18675.1,11038.1
18686,11034.2
18697.3,11031.4
18708.7,11029.7
18720.3,11029.1
19035.3,11029.1
Z" /> 
</g>
<g >
</g>
<g style="fill:#000000; fill-opacity:1.0; 
stroke:#000000; stroke-width:0; stroke-opacity:1; 
stroke-linecap:round; stroke-linejoin:round;">
<path style="fill:#000000; fill-opacity:1.0; 
stroke:#000000; stroke-width:0; stroke-opacity:1; 
stroke-linecap:round; stroke-linejoin:round;fill-rule:evenodd;"
d="M 14096.8,11767.9
14108.3,11769.6
14119.5,11772.4
14130.5,11776.3
14140.9,11781.3
14150.9,11787.2
14160.2,11794.1
14168.8,11801.9
14176.6,11810.5
14183.5,11819.8
14189.4,11829.7
14194.4,11840.2
14198.3,11851.1
14201.1,11862.4
14202.8,11873.8
14203.4,11885.4
14203.4,12121.6
14202.8,12133.2
14201.1,12144.7
14198.3,12155.9
14194.4,12166.8
14189.4,12177.3
14183.5,12187.3
14176.6,12196.6
14168.8,12205.2
14160.2,12212.9
14150.9,12219.8
14140.9,12225.8
14130.5,12230.8
14119.5,12234.7
14108.3,12237.5
14096.8,12239.2
14085.3,12239.7
13770.3,12239.7
13758.7,12239.2
13747.3,12237.5
13736,12234.7
13725.1,12230.8
13714.6,12225.8
13704.7,12219.8
13695.4,12212.9
13686.8,12205.2
13679,12196.6
13672.1,12187.3
13666.1,12177.3
13661.2,12166.8
13657.3,12155.9
13654.5,12144.7
13652.8,12133.2
13652.2,12121.6
13652.2,11885.4
13652.8,11873.8
13654.5,11862.4
13657.3,11851.1
13661.2,11840.2
13666.1,11829.7
13672.1,11819.8
13679,11810.5
13686.8,11801.9
13695.4,11794.1
13704.7,11787.2
13714.6,11781.3
13725.1,11776.3
13736,11772.4
13747.3,11769.6
13758.7,11767.9
13770.3,11767.3
14085.3,11767.3
Z" /> 
<path style="fill:#000000; fill-opacity:1.0; 
stroke:#000000; stroke-width:0; stroke-opacity:1; 
stroke-linecap:round; stroke-linejoin:round;fill-rule:evenodd;"
d="M 14096.8,11029.7
14108.3,11031.4
14119.5,11034.2
14130.5,11038.1
14140.9,11043.1
14150.9,11049
14160.2,11055.9
14168.8,11063.7
14176.6,11072.3
14183.5,11081.6
14189.4,11091.6
14194.4,11102
14198.3,11112.9
14201.1,11124.2
14202.8,11135.7
14203.4,11147.2
14203.4,11383.4
14202.8,11395
14201.1,11406.5
14198.3,11417.7
14194.4,11428.6
14189.4,11439.1
14183.5,11449.1
14176.6,11458.4
14168.8,11467
14160.2,11474.7
14150.9,11481.7
14140.9,11487.6
14130.5,11492.6
14119.5,11496.5
14108.3,11499.3
14096.8,11501
14085.3,11501.6
13770.3,11501.6
13758.7,11501
13747.3,11499.3
13736,11496.5
13725.1,11492.6
13714.6,11487.6
13704.7,11481.7
13695.4,11474.7
13686.8,11467
13679,11458.4
13672.1,11449.1
13666.1,11439.1
13661.2,11428.6
13657.3,11417.7
13654.5,11406.5
13652.8,11395
13652.2,11383.4
13652.2,11147.2
13652.8,11135.7
13654.5,11124.2
13657.3,11112.9
13661.2,11102
13666.1,11091.6
13672.1,11081.6
13679,11072.3
13686.8,11063.7
13695.4,11055.9
13704.7,11049
13714.6,11043.1
13725.1,11038.1
13736,11034.2
13747.3,11031.4
13758.7,11029.7
13770.3,11029.1
14085.3,11029.1
Z" /> 
</g>
<g >
</g>
<g style="fill:#000000; fill-opacity:1.0; 
stroke:#000000; stroke-width:0; stroke-opacity:1; 
stroke-linecap:round; stroke-linejoin:round;">
<path style="fill:#000000; fill-opacity:1.0; 
stroke:#000000; stroke-width:0; stroke-opacity:1; 
stroke-linecap:round; stroke-linejoin:round;fill-rule:evenodd;"
d="M 17776.6,16809.4
17788,16811.1
17799.3,16813.9
17810.2,16817.8
17820.7,16822.8
17830.6,16828.7
17839.9,16835.7
17848.5,16843.4
17856.3,16852
17863.2,16861.3
17869.2,16871.3
17874.1,16881.8
17878,16892.7
17880.8,16903.9
17882.5,16915.4
17883.1,16927
17883.1,17241.9
17882.5,17253.5
17880.8,17265
17878,17276.2
17874.1,17287.1
17869.2,17297.6
17863.2,17307.5
17856.3,17316.8
17848.5,17325.4
17839.9,17333.2
17830.6,17340.1
17820.7,17346.1
17810.2,17351
17799.3,17354.9
17788,17357.8
17776.6,17359.5
17765,17360
17528.8,17360
17517.2,17359.5
17505.7,17357.8
17494.5,17354.9
17483.6,17351
17473.1,17346.1
17463.1,17340.1
17453.8,17333.2
17445.3,17325.4
17437.5,17316.8
17430.6,17307.5
17424.6,17297.6
17419.6,17287.1
17415.7,17276.2
17412.9,17265
17411.2,17253.5
17410.7,17241.9
17410.7,16927
17411.2,16915.4
17412.9,16903.9
17415.7,16892.7
17419.6,16881.8
17424.6,16871.3
17430.6,16861.3
17437.5,16852
17445.3,16843.4
17453.8,16835.7
17463.1,16828.7
17473.1,16822.8
17483.6,16817.8
17494.5,16813.9
17505.7,16811.1
17517.2,16809.4
17528.8,16808.8
17765,16808.8
Z" /> 
<path style="fill:#000000; fill-opacity:1.0; 
stroke:#000000; stroke-width:0; stroke-opacity:1; 
stroke-linecap:round; stroke-linejoin:round;fill-rule:evenodd;"
d="M 17038.4,16809.4
17049.8,16811.1
17061.1,16813.9
17072,16817.8
17082.5,16822.8
17092.4,16828.7
17101.7,16835.7
17110.3,16843.4
17118.1,16852
17125,16861.3
17131,16871.3
17135.9,16881.8
17139.8,16892.7
17142.6,16903.9
17144.3,16915.4
17144.9,16927
17144.9,17241.9
17144.3,17253.5
17142.6,17265
17139.8,17276.2
17135.9,17287.1
17131,17297.6
17125,17307.5
17118.1,17316.8
17110.3,17325.4
17101.7,17333.2
17092.4,17340.1
17082.5,17346.1
17072,17351
17061.1,17354.9
17049.8,17357.8
17038.4,17359.5
17026.8,17360
16790.6,17360
16779,17359.5
16767.5,17357.8
16756.3,17354.9
16745.4,17351
16734.9,17346.1
16725,17340.1
16715.7,17333.2
16707.1,17325.4
16699.3,17316.8
16692.4,17307.5
16686.4,17297.6
16681.5,17287.1
16677.6,17276.2
16674.7,17265
16673,17253.5
16672.5,17241.9
16672.5,16927
16673,16915.4
16674.7,16903.9
16677.6,16892.7
16681.5,16881.8
16686.4,16871.3
16692.4,16861.3
16699.3,16852
16707.1,16843.4
16715.7,16835.7
16725,16828.7
16734.9,16822.8
16745.4,16817.8
16756.3,16813.9
16767.5,16811.1
16779,16809.4
16790.6,16808.8
17026.8,16808.8
Z" /> 
</g>
<g >
</g>
<g >
</g>
<g >
</g>
<g style="fill:#000000; fill-opacity:1.0; 
stroke:#000000; stroke-width:0; stroke-opacity:1; 
stroke-linecap:round; stroke-linejoin:round;">
<path style="fill:#000000; fill-opacity:1.0; 
stroke:#000000; stroke-width:0; stroke-opacity:1; 
stroke-linecap:round; stroke-linejoin:round;fill-rule:evenodd;"
d="M 24126.6,12459.4
24138,12461.1
24149.3,12463.9
24160.2,12467.8
24170.7,12472.8
24180.6,12478.7
24189.9,12485.7
24198.5,12493.4
24206.3,12502
24213.2,12511.3
24219.2,12521.3
24224.1,12531.8
24228,12542.7
24230.8,12553.9
24232.5,12565.4
24233.1,12577
24233.1,12891.9
24232.5,12903.5
24230.8,12915
24228,12926.2
24224.1,12937.1
24219.2,12947.6
24213.2,12957.5
24206.3,12966.8
24198.5,12975.4
24189.9,12983.2
24180.6,12990.1
24170.7,12996.1
24160.2,13001
24149.3,13004.9
24138,13007.8
24126.6,13009.5
24115,13010
23878.8,13010
23867.2,13009.5
23855.7,13007.8
23844.5,13004.9
23833.6,13001
23823.1,12996.1
23813.1,12990.1
23803.8,12983.2
23795.3,12975.4
23787.5,12966.8
23780.6,12957.5
23774.6,12947.6
23769.6,12937.1
23765.7,12926.2
23762.9,12915
23761.2,12903.5
23760.7,12891.9
23760.7,12577
23761.2,12565.4
23762.9,12553.9
23765.7,12542.7
23769.6,12531.8
23774.6,12521.3
23780.6,12511.3
23787.5,12502
23795.3,12493.4
23803.8,12485.7
23813.1,12478.7
23823.1,12472.8
23833.6,12467.8
23844.5,12463.9
23855.7,12461.1
23867.2,12459.4
23878.8,12458.8
24115,12458.8
Z" /> 
<path style="fill:#000000; fill-opacity:1.0; 
stroke:#000000; stroke-width:0; stroke-opacity:1; 
stroke-linecap:round; stroke-linejoin:round;fill-rule:evenodd;"
d="M 23388.4,12459.4
23399.8,12461.1
23411.1,12463.9
23422,12467.8
23432.5,12472.8
23442.4,12478.7
23451.7,12485.7
23460.3,12493.4
23468.1,12502
23475,12511.3
23481,12521.3
23485.9,12531.8
23489.8,12542.7
23492.6,12553.9
23494.3,12565.4
23494.9,12577
23494.9,12891.9
23494.3,12903.5
23492.6,12915
23489.8,12926.2
23485.9,12937.1
23481,12947.6
23475,12957.5
23468.1,12966.8
23460.3,12975.4
23451.7,12983.2
23442.4,12990.1
23432.5,12996.1
23422,13001
23411.1,13004.9
23399.8,13007.8
23388.4,13009.5
23376.8,13010
23140.6,13010
23129,13009.5
23117.5,13007.8
23106.3,13004.9
23095.4,13001
23084.9,12996.1
23075,12990.1
23065.7,12983.2
23057.1,12975.4
23049.3,12966.8
23042.4,12957.5
23036.4,12947.6
23031.5,12937.1
23027.6,12926.2
23024.7,12915
23023,12903.5
23022.5,12891.9
23022.5,12577
23023,12565.4
23024.7,12553.9
23027.6,12542.7
23031.5,12531.8
23036.4,12521.3
23042.4,12511.3
23049.3,12502
23057.1,12493.4
23065.7,12485.7
23075,12478.7
23084.9,12472.8
23095.4,12467.8
23106.3,12463.9
23117.5,12461.1
23129,12459.4
23140.6,12458.8
23376.8,12458.8
Z" /> 
</g>
<g >
</g>
<g style="fill:#000000; fill-opacity:1.0; 
stroke:#000000; stroke-width:0; stroke-opacity:1; 
stroke-linecap:round; stroke-linejoin:round;">
<path style="fill:#000000; fill-opacity:1.0; 
stroke:#000000; stroke-width:0; stroke-opacity:1; 
stroke-linecap:round; stroke-linejoin:round;fill-rule:evenodd;"
d="M 23388.4,13759.4
23399.8,13761.1
23411.1,13763.9
23422,13767.8
23432.5,13772.8
23442.4,13778.7
23451.7,13785.7
23460.3,13793.4
23468.1,13802
23475,13811.3
23481,13821.3
23485.9,13831.8
23489.8,13842.7
23492.6,13853.9
23494.3,13865.4
23494.9,13877
23494.9,14191.9
23494.3,14203.5
23492.6,14215
23489.8,14226.2
23485.9,14237.1
23481,14247.6
23475,14257.5
23468.1,14266.8
23460.3,14275.4
23451.7,14283.2
23442.4,14290.1
23432.5,14296.1
23422,14301
23411.1,14304.9
23399.8,14307.8
23388.4,14309.5
23376.8,14310
23140.6,14310
23129,14309.5
23117.5,14307.8
23106.3,14304.9
23095.4,14301
23084.9,14296.1
23075,14290.1
23065.7,14283.2
23057.1,14275.4
23049.3,14266.8
23042.4,14257.5
23036.4,14247.6
23031.5,14237.1
23027.6,14226.2
23024.7,14215
23023,14203.5
23022.5,14191.9
23022.5,13877
23023,13865.4
23024.7,13853.9
23027.6,13842.7
23031.5,13831.8
23036.4,13821.3
23042.4,13811.3
23049.3,13802
23057.1,13793.4
23065.7,13785.7
23075,13778.7
23084.9,13772.8
23095.4,13767.8
23106.3,13763.9
23117.5,13761.1
23129,13759.4
23140.6,13758.8
23376.8,13758.8
Z" /> 
<path style="fill:#000000; fill-opacity:1.0; 
stroke:#000000; stroke-width:0; stroke-opacity:1; 
stroke-linecap:round; stroke-linejoin:round;fill-rule:evenodd;"
d="M 24126.6,13759.4
24138,13761.1
24149.3,13763.9
24160.2,13767.8
24170.7,13772.8
24180.6,13778.7
24189.9,13785.7
24198.5,13793.4
24206.3,13802
24213.2,13811.3
24219.2,13821.3
24224.1,13831.8
24228,13842.7
24230.8,13853.9
24232.5,13865.4
24233.1,13877
24233.1,14191.9
24232.5,14203.5
24230.8,14215
24228,14226.2
24224.1,14237.1
24219.2,14247.6
24213.2,14257.5
24206.3,14266.8
24198.5,14275.4
24189.9,14283.2
24180.6,14290.1
24170.7,14296.1
24160.2,14301
24149.3,14304.9
24138,14307.8
24126.6,14309.5
24115,14310
23878.8,14310
23867.2,14309.5
23855.7,14307.8
23844.5,14304.9
23833.6,14301
23823.1,14296.1
23813.1,14290.1
23803.8,14283.2
23795.3,14275.4
23787.5,14266.8
23780.6,14257.5
23774.6,14247.6
23769.6,14237.1
23765.7,14226.2
23762.9,14215
23761.2,14203.5
23760.7,14191.9
23760.7,13877
23761.2,13865.4
23762.9,13853.9
23765.7,13842.7
23769.6,13831.8
23774.6,13821.3
23780.6,13811.3
23787.5,13802
23795.3,13793.4
23803.8,13785.7
23813.1,13778.7
23823.1,13772.8
23833.6,13767.8
23844.5,13763.9
23855.7,13761.1
23867.2,13759.4
23878.8,13758.8
24115,13758.8
Z" /> 
</g>
<g >
</g>
<g style="fill:#000000; fill-opacity:1.0; 
stroke:#000000; stroke-width:0; stroke-opacity:1; 
stroke-linecap:round; stroke-linejoin:round;">
<path style="fill:#000000; fill-opacity:1.0; 
stroke:#000000; stroke-width:0; stroke-opacity:1; 
stroke-linecap:round; stroke-linejoin:round;fill-rule:evenodd;"
d="M 24126.6,15085.8
24138,15087.5
24149.3,15090.3
24160.2,15094.2
24170.7,15099.2
24180.6,15105.1
24189.9,15112
24198.5,15119.8
24206.3,15128.4
24213.2,15137.7
24219.2,15147.7
24224.1,15158.1
24228,15169
24230.8,15180.3
24232.5,15191.8
24233.1,15203.3
24233.1,15518.3
24232.5,15529.9
24230.8,15541.3
24228,15552.6
24224.1,15563.5
24219.2,15574
24213.2,15583.9
24206.3,15593.2
24198.5,15601.8
24189.9,15609.6
24180.6,15616.5
24170.7,15622.5
24160.2,15627.4
24149.3,15631.3
24138,15634.1
24126.6,15635.8
24115,15636.4
23878.8,15636.4
23867.2,15635.8
23855.7,15634.1
23844.5,15631.3
23833.6,15627.4
23823.1,15622.5
23813.1,15616.5
23803.8,15609.6
23795.3,15601.8
23787.5,15593.2
23780.6,15583.9
23774.6,15574
23769.6,15563.5
23765.7,15552.6
23762.9,15541.3
23761.2,15529.9
23760.7,15518.3
23760.7,15203.3
23761.2,15191.8
23762.9,15180.3
23765.7,15169
23769.6,15158.1
23774.6,15147.7
23780.6,15137.7
23787.5,15128.4
23795.3,15119.8
23803.8,15112
23813.1,15105.1
23823.1,15099.2
23833.6,15094.2
23844.5,15090.3
23855.7,15087.5
23867.2,15085.8
23878.8,15085.2
24115,15085.2
Z" /> 
<path style="fill:#000000; fill-opacity:1.0; 
stroke:#000000; stroke-width:0; stroke-opacity:1; 
stroke-linecap:round; stroke-linejoin:round;fill-rule:evenodd;"
d="M 23388.4,15085.8
23399.8,15087.5
23411.1,15090.3
23422,15094.2
23432.5,15099.2
23442.4,15105.1
23451.7,15112
23460.3,15119.8
23468.1,15128.4
23475,15137.7
23481,15147.7
23485.9,15158.1
23489.8,15169
23492.6,15180.3
23494.3,15191.8
23494.9,15203.3
23494.9,15518.3
23494.3,15529.9
23492.6,15541.3
23489.8,15552.6
23485.9,15563.5
23481,15574
23475,15583.9
23468.1,15593.2
23460.3,15601.8
23451.7,15609.6
23442.4,15616.5
23432.5,15622.5
23422,15627.4
23411.1,15631.3
23399.8,15634.1
23388.4,15635.8
23376.8,15636.4
23140.6,15636.4
23129,15635.8
23117.5,15634.1
23106.3,15631.3
23095.4,15627.4
23084.9,15622.5
23075,15616.5
23065.7,15609.6
23057.1,15601.8
23049.3,15593.2
23042.4,15583.9
23036.4,15574
23031.5,15563.5
23027.6,15552.6
23024.7,15541.3
23023,15529.9
23022.5,15518.3
23022.5,15203.3
23023,15191.8
23024.7,15180.3
23027.6,15169
23031.5,15158.1
23036.4,15147.7
23042.4,15137.7
23049.3,15128.4
23057.1,15119.8
23065.7,15112
23075,15105.1
23084.9,15099.2
23095.4,15094.2
23106.3,15090.3
23117.5,15087.5
23129,15085.8
23140.6,15085.2
23376.8,15085.2
Z" /> 
</g>
<g >
</g>
<g style="fill:#000000; fill-opacity:1.0; 
stroke:#000000; stroke-width:0; stroke-opacity:1; 
stroke-linecap:round; stroke-linejoin:round;">
<path style="fill:#000000; fill-opacity:1.0; 
stroke:#000000; stroke-width:0; stroke-opacity:1; 
stroke-linecap:round; stroke-linejoin:round;fill-rule:evenodd;"
d="M 24126.6,16359.4
24138,16361.1
24149.3,16363.9
24160.2,16367.8
24170.7,16372.8
24180.6,16378.7
24189.9,16385.7
24198.5,16393.4
24206.3,16402
24213.2,16411.3
24219.2,16421.3
24224.1,16431.8
24228,16442.7
24230.8,16453.9
24232.5,16465.4
24233.1,16477
24233.1,16791.9
24232.5,16803.5
24230.8,16815
24228,16826.2
24224.1,16837.1
24219.2,16847.6
24213.2,16857.5
24206.3,16866.8
24198.5,16875.4
24189.9,16883.2
24180.6,16890.1
24170.7,16896.1
24160.2,16901
24149.3,16904.9
24138,16907.8
24126.6,16909.5
24115,16910
23878.8,16910
23867.2,16909.5
23855.7,16907.8
23844.5,16904.9
23833.6,16901
23823.1,16896.1
23813.1,16890.1
23803.8,16883.2
23795.3,16875.4
23787.5,16866.8
23780.6,16857.5
23774.6,16847.6
23769.6,16837.1
23765.7,16826.2
23762.9,16815
23761.2,16803.5
23760.7,16791.9
23760.7,16477
23761.2,16465.4
23762.9,16453.9
23765.7,16442.7
23769.6,16431.8
23774.6,16421.3
23780.6,16411.3
23787.5,16402
23795.3,16393.4
23803.8,16385.7
23813.1,16378.7
23823.1,16372.8
23833.6,16367.8
23844.5,16363.9
23855.7,16361.1
23867.2,16359.4
23878.8,16358.8
24115,16358.8
Z" /> 
<path style="fill:#000000; fill-opacity:1.0; 
stroke:#000000; stroke-width:0; stroke-opacity:1; 
stroke-linecap:round; stroke-linejoin:round;fill-rule:evenodd;"
d="M 23388.4,16359.4
23399.8,16361.1
23411.1,16363.9
23422,16367.8
23432.5,16372.8
23442.4,16378.7
23451.7,16385.7
23460.3,16393.4
23468.1,16402
23475,16411.3
23481,16421.3
23485.9,16431.8
23489.8,16442.7
23492.6,16453.9
23494.3,16465.4
23494.9,16477
23494.9,16791.9
23494.3,16803.5
23492.6,16815
23489.8,16826.2
23485.9,16837.1
23481,16847.6
23475,16857.5
23468.1,16866.8
23460.3,16875.4
23451.7,16883.2
23442.4,16890.1
23432.5,16896.1
23422,16901
23411.1,16904.9
23399.8,16907.8
23388.4,16909.5
23376.8,16910
23140.6,16910
23129,16909.5
23117.5,16907.8
23106.3,16904.9
23095.4,16901
23084.9,16896.1
23075,16890.1
23065.7,16883.2
23057.1,16875.4
23049.3,16866.8
23042.4,16857.5
23036.4,16847.6
23031.5,16837.1
23027.6,16826.2
23024.7,16815
23023,16803.5
23022.5,16791.9
23022.5,16477
23023,16465.4
23024.7,16453.9
23027.6,16442.7
23031.5,16431.8
23036.4,16421.3
23042.4,16411.3
23049.3,16402
23057.1,16393.4
23065.7,16385.7
23075,16378.7
23084.9,16372.8
23095.4,16367.8
23106.3,16363.9
23117.5,16361.1
23129,16359.4
23140.6,16358.8
23376.8,16358.8
Z" /> 
</g>
<g >
</g>
<g style="fill:#000000; fill-opacity:1.0; 
stroke:#000000; stroke-width:0; stroke-opacity:1; 
stroke-linecap:round; stroke-linejoin:round;">
<path style="fill:#000000; fill-opacity:1.0; 
stroke:#000000; stroke-width:0; stroke-opacity:1; 
stroke-linecap:round; stroke-linejoin:round;fill-rule:evenodd;"
d="M 20616.6,16809.4
20628,16811.1
20639.3,16813.9
20650.2,16817.8
20660.7,16822.8
20670.6,16828.7
20679.9,16835.7
20688.5,16843.4
20696.3,16852
20703.2,16861.3
20709.2,16871.3
20714.1,16881.8
20718,16892.7
20720.8,16903.9
20722.5,16915.4
20723.1,16927
20723.1,17241.9
20722.5,17253.5
20720.8,17265
20718,17276.2
20714.1,17287.1
20709.2,17297.6
20703.2,17307.5
20696.3,17316.8
20688.5,17325.4
20679.9,17333.2
20670.6,17340.1
20660.7,17346.1
20650.2,17351
20639.3,17354.9
20628,17357.8
20616.6,17359.5
20605,17360
20368.8,17360
20357.2,17359.5
20345.7,17357.8
20334.5,17354.9
20323.6,17351
20313.1,17346.1
20303.1,17340.1
20293.8,17333.2
20285.3,17325.4
20277.5,17316.8
20270.6,17307.5
20264.6,17297.6
20259.6,17287.1
20255.7,17276.2
20252.9,17265
20251.2,17253.5
20250.7,17241.9
20250.7,16927
20251.2,16915.4
20252.9,16903.9
20255.7,16892.7
20259.6,16881.8
20264.6,16871.3
20270.6,16861.3
20277.5,16852
20285.3,16843.4
20293.8,16835.7
20303.1,16828.7
20313.1,16822.8
20323.6,16817.8
20334.5,16813.9
20345.7,16811.1
20357.2,16809.4
20368.8,16808.8
20605,16808.8
Z" /> 
<path style="fill:#000000; fill-opacity:1.0; 
stroke:#000000; stroke-width:0; stroke-opacity:1; 
stroke-linecap:round; stroke-linejoin:round;fill-rule:evenodd;"
d="M 19878.4,16809.4
19889.8,16811.1
19901.1,16813.9
19912,16817.8
19922.5,16822.8
19932.4,16828.7
19941.7,16835.7
19950.3,16843.4
19958.1,16852
19965,16861.3
19971,16871.3
19975.9,16881.8
19979.8,16892.7
19982.6,16903.9
19984.3,16915.4
19984.9,16927
19984.9,17241.9
19984.3,17253.5
19982.6,17265
19979.8,17276.2
19975.9,17287.1
19971,17297.6
19965,17307.5
19958.1,17316.8
19950.3,17325.4
19941.7,17333.2
19932.4,17340.1
19922.5,17346.1
19912,17351
19901.1,17354.9
19889.8,17357.8
19878.4,17359.5
19866.8,17360
19630.6,17360
19619,17359.5
19607.5,17357.8
19596.3,17354.9
19585.4,17351
19574.9,17346.1
19565,17340.1
19555.7,17333.2
19547.1,17325.4
19539.3,17316.8
19532.4,17307.5
19526.4,17297.6
19521.5,17287.1
19517.6,17276.2
19514.7,17265
19513,17253.5
19512.5,17241.9
19512.5,16927
19513,16915.4
19514.7,16903.9
19517.6,16892.7
19521.5,16881.8
19526.4,16871.3
19532.4,16861.3
19539.3,16852
19547.1,16843.4
19555.7,16835.7
19565,16828.7
19574.9,16822.8
19585.4,16817.8
19596.3,16813.9
19607.5,16811.1
19619,16809.4
19630.6,16808.8
19866.8,16808.8
Z" /> 
</g>
<g >
</g>
<g style="fill:#000000; fill-opacity:1.0; 
stroke:#000000; stroke-width:0; stroke-opacity:1; 
stroke-linecap:round; stroke-linejoin:round;">
<path style="fill:#000000; fill-opacity:1.0; 
stroke:#000000; stroke-width:0; stroke-opacity:1; 
stroke-linecap:round; stroke-linejoin:round;fill-rule:evenodd;"
d="M 10718.3,12417.7
10729.8,12419.4
10741,12422.2
10751.9,12426.1
10762.4,12431.1
10772.3,12437
10781.6,12443.9
10790.2,12451.7
10798,12460.3
10804.9,12469.6
10810.9,12479.5
10815.8,12490
10819.7,12500.9
10822.6,12512.2
10824.3,12523.6
10824.8,12535.2
10824.8,12850.2
10824.3,12861.8
10822.6,12873.2
10819.7,12884.5
10815.8,12895.4
10810.9,12905.9
10804.9,12915.8
10798,12925.1
10790.2,12933.7
10781.6,12941.5
10772.3,12948.4
10762.4,12954.3
10751.9,12959.3
10741,12963.2
10729.8,12966
10718.3,12967.7
10706.7,12968.3
10470.5,12968.3
10458.9,12967.7
10447.5,12966
10436.2,12963.2
10425.3,12959.3
10414.8,12954.3
10404.9,12948.4
10395.6,12941.5
10387,12933.7
10379.2,12925.1
10372.3,12915.8
10366.3,12905.9
10361.4,12895.4
10357.5,12884.5
10354.7,12873.2
10353,12861.8
10352.4,12850.2
10352.4,12535.2
10353,12523.6
10354.7,12512.2
10357.5,12500.9
10361.4,12490
10366.3,12479.5
10372.3,12469.6
10379.2,12460.3
10387,12451.7
10395.6,12443.9
10404.9,12437
10414.8,12431.1
10425.3,12426.1
10436.2,12422.2
10447.5,12419.4
10458.9,12417.7
10470.5,12417.1
10706.7,12417.1
Z" /> 
<path style="fill:#000000; fill-opacity:1.0; 
stroke:#000000; stroke-width:0; stroke-opacity:1; 
stroke-linecap:round; stroke-linejoin:round;fill-rule:evenodd;"
d="M 11456.5,12417.7
11468,12419.4
11479.2,12422.2
11490.1,12426.1
11500.6,12431.1
11510.5,12437
11519.8,12443.9
11528.4,12451.7
11536.2,12460.3
11543.1,12469.6
11549.1,12479.5
11554,12490
11557.9,12500.9
11560.8,12512.2
11562.5,12523.6
11563,12535.2
11563,12850.2
11562.5,12861.8
11560.8,12873.2
11557.9,12884.5
11554,12895.4
11549.1,12905.9
11543.1,12915.8
11536.2,12925.1
11528.4,12933.7
11519.8,12941.5
11510.5,12948.4
11500.6,12954.3
11490.1,12959.3
11479.2,12963.2
11468,12966
11456.5,12967.7
11444.9,12968.3
11208.7,12968.3
11197.1,12967.7
11185.6,12966
11174.4,12963.2
11163.5,12959.3
11153,12954.3
11143.1,12948.4
11133.8,12941.5
11125.2,12933.7
11117.4,12925.1
11110.5,12915.8
11104.5,12905.9
11099.6,12895.4
11095.7,12884.5
11092.8,12873.2
11091.1,12861.8
11090.6,12850.2
11090.6,12535.2
11091.1,12523.6
11092.8,12512.2
11095.7,12500.9
11099.6,12490
11104.5,12479.5
11110.5,12469.6
11117.4,12460.3
11125.2,12451.7
11133.8,12443.9
11143.1,12437
11153,12431.1
11163.5,12426.1
11174.4,12422.2
11185.6,12419.4
11197.1,12417.7
11208.7,12417.1
11444.9,12417.1
Z" /> 
</g>
<g >
</g>
<g style="fill:#000000; fill-opacity:1.0; 
stroke:#000000; stroke-width:0; stroke-opacity:1; 
stroke-linecap:round; stroke-linejoin:round;">
<path style="fill:#000000; fill-opacity:1.0; 
stroke:#000000; stroke-width:0; stroke-opacity:1; 
stroke-linecap:round; stroke-linejoin:round;fill-rule:evenodd;"
d="M 11456.5,13441.3
11468,13443
11479.2,13445.8
11490.1,13449.7
11500.6,13454.7
11510.5,13460.6
11519.8,13467.5
11528.4,13475.3
11536.2,13483.9
11543.1,13493.2
11549.1,13503.2
11554,13513.6
11557.9,13524.6
11560.8,13535.8
11562.5,13547.3
11563,13558.8
11563,13873.8
11562.5,13885.4
11560.8,13896.8
11557.9,13908.1
11554,13919
11549.1,13929.5
11543.1,13939.4
11536.2,13948.7
11528.4,13957.3
11519.8,13965.1
11510.5,13972
11500.6,13978
11490.1,13982.9
11479.2,13986.8
11468,13989.6
11456.5,13991.3
11444.9,13991.9
11208.7,13991.9
11197.1,13991.3
11185.6,13989.6
11174.4,13986.8
11163.5,13982.9
11153,13978
11143.1,13972
11133.8,13965.1
11125.2,13957.3
11117.4,13948.7
11110.5,13939.4
11104.5,13929.5
11099.6,13919
11095.7,13908.1
11092.8,13896.8
11091.1,13885.4
11090.6,13873.8
11090.6,13558.8
11091.1,13547.3
11092.8,13535.8
11095.7,13524.6
11099.6,13513.6
11104.5,13503.2
11110.5,13493.2
11117.4,13483.9
11125.2,13475.3
11133.8,13467.5
11143.1,13460.6
11153,13454.7
11163.5,13449.7
11174.4,13445.8
11185.6,13443
11197.1,13441.3
11208.7,13440.7
11444.9,13440.7
Z" /> 
<path style="fill:#000000; fill-opacity:1.0; 
stroke:#000000; stroke-width:0; stroke-opacity:1; 
stroke-linecap:round; stroke-linejoin:round;fill-rule:evenodd;"
d="M 10718.3,13441.3
10729.8,13443
10741,13445.8
10751.9,13449.7
10762.4,13454.7
10772.3,13460.6
10781.6,13467.5
10790.2,13475.3
10798,13483.9
10804.9,13493.2
10810.9,13503.2
10815.8,13513.6
10819.7,13524.6
10822.6,13535.8
10824.3,13547.3
10824.8,13558.8
10824.8,13873.8
10824.3,13885.4
10822.6,13896.8
10819.7,13908.1
10815.8,13919
10810.9,13929.5
10804.9,13939.4
10798,13948.7
10790.2,13957.3
10781.6,13965.1
10772.3,13972
10762.4,13978
10751.9,13982.9
10741,13986.8
10729.8,13989.6
10718.3,13991.3
10706.7,13991.9
10470.5,13991.9
10458.9,13991.3
10447.5,13989.6
10436.2,13986.8
10425.3,13982.9
10414.8,13978
10404.9,13972
10395.6,13965.1
10387,13957.3
10379.2,13948.7
10372.3,13939.4
10366.3,13929.5
10361.4,13919
10357.5,13908.1
10354.7,13896.8
10353,13885.4
10352.4,13873.8
10352.4,13558.8
10353,13547.3
10354.7,13535.8
10357.5,13524.6
10361.4,13513.6
10366.3,13503.2
10372.3,13493.2
10379.2,13483.9
10387,13475.3
10395.6,13467.5
10404.9,13460.6
10414.8,13454.7
10425.3,13449.7
10436.2,13445.8
10447.5,13443
10458.9,13441.3
10470.5,13440.7
10706.7,13440.7
Z" /> 
</g>
<g >
</g>
<g style="fill:#000000; fill-opacity:1.0; 
stroke:#000000; stroke-width:0; stroke-opacity:1; 
stroke-linecap:round; stroke-linejoin:round;">
<path style="fill:#000000; fill-opacity:1.0; 
stroke:#000000; stroke-width:0; stroke-opacity:1; 
stroke-linecap:round; stroke-linejoin:round;fill-rule:evenodd;"
d="M 11456.5,14389.4
11468,14391.1
11479.2,14393.9
11490.1,14397.8
11500.6,14402.8
11510.5,14408.7
11519.8,14415.7
11528.4,14423.4
11536.2,14432
11543.1,14441.3
11549.1,14451.3
11554,14461.8
11557.9,14472.7
11560.8,14483.9
11562.5,14495.4
11563,14507
11563,14821.9
11562.5,14833.5
11560.8,14845
11557.9,14856.2
11554,14867.1
11549.1,14877.6
11543.1,14887.5
11536.2,14896.8
11528.4,14905.4
11519.8,14913.2
11510.5,14920.1
11500.6,14926.1
11490.1,14931
11479.2,14934.9
11468,14937.8
11456.5,14939.5
11444.9,14940
11208.7,14940
11197.1,14939.5
11185.6,14937.8
11174.4,14934.9
11163.5,14931
11153,14926.1
11143.1,14920.1
11133.8,14913.2
11125.2,14905.4
11117.4,14896.8
11110.5,14887.5
11104.5,14877.6
11099.6,14867.1
11095.7,14856.2
11092.8,14845
11091.1,14833.5
11090.6,14821.9
11090.6,14507
11091.1,14495.4
11092.8,14483.9
11095.7,14472.7
11099.6,14461.8
11104.5,14451.3
11110.5,14441.3
11117.4,14432
11125.2,14423.4
11133.8,14415.7
11143.1,14408.7
11153,14402.8
11163.5,14397.8
11174.4,14393.9
11185.6,14391.1
11197.1,14389.4
11208.7,14388.8
11444.9,14388.8
Z" /> 
<path style="fill:#000000; fill-opacity:1.0; 
stroke:#000000; stroke-width:0; stroke-opacity:1; 
stroke-linecap:round; stroke-linejoin:round;fill-rule:evenodd;"
d="M 10718.3,14389.4
10729.8,14391.1
10741,14393.9
10751.9,14397.8
10762.4,14402.8
10772.3,14408.7
10781.6,14415.7
10790.2,14423.4
10798,14432
10804.9,14441.3
10810.9,14451.3
10815.8,14461.8
10819.7,14472.7
10822.6,14483.9
10824.3,14495.4
10824.8,14507
10824.8,14821.9
10824.3,14833.5
10822.6,14845
10819.7,14856.2
10815.8,14867.1
10810.9,14877.6
10804.9,14887.5
10798,14896.8
10790.2,14905.4
10781.6,14913.2
10772.3,14920.1
10762.4,14926.1
10751.9,14931
10741,14934.9
10729.8,14937.8
10718.3,14939.5
10706.7,14940
10470.5,14940
10458.9,14939.5
10447.5,14937.8
10436.2,14934.9
10425.3,14931
10414.8,14926.1
10404.9,14920.1
10395.6,14913.2
10387,14905.4
10379.2,14896.8
10372.3,14887.5
10366.3,14877.6
10361.4,14867.1
10357.5,14856.2
10354.7,14845
10353,14833.5
10352.4,14821.9
10352.4,14507
10353,14495.4
10354.7,14483.9
10357.5,14472.7
10361.4,14461.8
10366.3,14451.3
10372.3,14441.3
10379.2,14432
10387,14423.4
10395.6,14415.7
10404.9,14408.7
10414.8,14402.8
10425.3,14397.8
10436.2,14393.9
10447.5,14391.1
10458.9,14389.4
10470.5,14388.8
10706.7,14388.8
Z" /> 
</g>
<g >
</g>
<g >
</g>
<g style="fill:#000000; fill-opacity:1.0; 
stroke:#000000; stroke-width:0; stroke-opacity:1; 
stroke-linecap:round; stroke-linejoin:round;">
<path style="fill:#000000; fill-opacity:1.0; 
stroke:#000000; stroke-width:0; stroke-opacity:1; 
stroke-linecap:round; stroke-linejoin:round;fill-rule:evenodd;"
d="M 15939.2,4897.82
16411.6,4897.82
16411.6,5763.96
15939.2,5763.96
Z" /> 
<path style="fill:#000000; fill-opacity:1.0; 
stroke:#000000; stroke-width:0; stroke-opacity:1; 
stroke-linecap:round; stroke-linejoin:round;fill-rule:evenodd;"
d="M 14143.9,4897.82
14616.4,4897.82
14616.4,5763.96
14143.9,5763.96
Z" /> 
<path style="fill:#000000; fill-opacity:1.0; 
stroke:#000000; stroke-width:0; stroke-opacity:1; 
stroke-linecap:round; stroke-linejoin:round;fill-rule:evenodd;"
d="M 14136.1,7870.26
15218.7,7870.26
15218.7,9071.05
14136.1,9071.05
Z" /> 
<path style="fill:#000000; fill-opacity:1.0; 
stroke:#000000; stroke-width:0; stroke-opacity:1; 
stroke-linecap:round; stroke-linejoin:round;fill-rule:evenodd;"
d="M 15336.8,6551.36
16419.5,6551.36
16419.5,7752.15
15336.8,7752.15
Z" /> 
<path style="fill:#000000; fill-opacity:1.0; 
stroke:#000000; stroke-width:0; stroke-opacity:1; 
stroke-linecap:round; stroke-linejoin:round;fill-rule:evenodd;"
d="M 15336.8,7870.26
16419.5,7870.26
16419.5,9071.05
15336.8,9071.05
Z" /> 
<path style="fill:#000000; fill-opacity:1.0; 
stroke:#000000; stroke-width:0; stroke-opacity:1; 
stroke-linecap:round; stroke-linejoin:round;fill-rule:evenodd;"
d="M 14136.1,6551.36
15218.7,6551.36
15218.7,7752.15
14136.1,7752.15
Z" /> 
</g>
<g >
</g>
<g style="fill:#000000; fill-opacity:1.0; 
stroke:#000000; stroke-width:0; stroke-opacity:1; 
stroke-linecap:round; stroke-linejoin:round;">
<path style="fill:#000000; fill-opacity:1.0; 
stroke:#000000; stroke-width:0; stroke-opacity:1; 
stroke-linecap:round; stroke-linejoin:round;fill-rule:evenodd;"
d="M 18484.3,12566.4
19271.3,12566.4
19271.3,12802.4
18484.3,12802.4
Z" /> 
<path style="fill:#000000; fill-opacity:1.0; 
stroke:#000000; stroke-width:0; stroke-opacity:1; 
stroke-linecap:round; stroke-linejoin:round;fill-rule:evenodd;"
d="M 18484.3,13066.4
19271.3,13066.4
19271.3,13302.4
18484.3,13302.4
Z" /> 
<path style="fill:#000000; fill-opacity:1.0; 
stroke:#000000; stroke-width:0; stroke-opacity:1; 
stroke-linecap:round; stroke-linejoin:round;fill-rule:evenodd;"
d="M 18484.3,13566.4
19271.3,13566.4
19271.3,13802.4
18484.3,13802.4
Z" /> 
<path style="fill:#000000; fill-opacity:1.0; 
stroke:#000000; stroke-width:0; stroke-opacity:1; 
stroke-linecap:round; stroke-linejoin:round;fill-rule:evenodd;"
d="M 18484.3,14066.4
19271.3,14066.4
19271.3,14302.4
18484.3,14302.4
Z" /> 
<path style="fill:#000000; fill-opacity:1.0; 
stroke:#000000; stroke-width:0; stroke-opacity:1; 
stroke-linecap:round; stroke-linejoin:round;fill-rule:evenodd;"
d="M 18484.3,14566.4
19271.3,14566.4
19271.3,14802.4
18484.3,14802.4
Z" /> 
<path style="fill:#000000; fill-opacity:1.0; 
stroke:#000000; stroke-width:0; stroke-opacity:1; 
stroke-linecap:round; stroke-linejoin:round;fill-rule:evenodd;"
d="M 18484.3,15066.4
19271.3,15066.4
19271.3,15302.4
18484.3,15302.4
Z" /> 
<path style="fill:#000000; fill-opacity:1.0; 
stroke:#000000; stroke-width:0; stroke-opacity:1; 
stroke-linecap:round; stroke-linejoin:round;fill-rule:evenodd;"
d="M 18484.3,15566.4
19271.3,15566.4
19271.3,15802.4
18484.3,15802.4
Z" /> 
<path style="fill:#000000; fill-opacity:1.0; 
stroke:#000000; stroke-width:0; stroke-opacity:1; 
stroke-linecap:round; stroke-linejoin:round;fill-rule:evenodd;"
d="M 18484.3,16066.4
19271.3,16066.4
19271.3,16302.4
18484.3,16302.4
Z" /> 
<path style="fill:#000000; fill-opacity:1.0; 
stroke:#000000; stroke-width:0; stroke-opacity:1; 
stroke-linecap:round; stroke-linejoin:round;fill-rule:evenodd;"
d="M 20684.3,16066.4
21471.3,16066.4
21471.3,16302.4
20684.3,16302.4
Z" /> 
<path style="fill:#000000; fill-opacity:1.0; 
stroke:#000000; stroke-width:0; stroke-opacity:1; 
stroke-linecap:round; stroke-linejoin:round;fill-rule:evenodd;"
d="M 20684.3,15566.4
21471.3,15566.4
21471.3,15802.4
20684.3,15802.4
Z" /> 
<path style="fill:#000000; fill-opacity:1.0; 
stroke:#000000; stroke-width:0; stroke-opacity:1; 
stroke-linecap:round; stroke-linejoin:round;fill-rule:evenodd;"
d="M 20684.3,15066.4
21471.3,15066.4
21471.3,15302.4
20684.3,15302.4
Z" /> 
<path style="fill:#000000; fill-opacity:1.0; 
stroke:#000000; stroke-width:0; stroke-opacity:1; 
stroke-linecap:round; stroke-linejoin:round;fill-rule:evenodd;"
d="M 20684.3,14566.4
21471.3,14566.4
21471.3,14802.4
20684.3,14802.4
Z" /> 
<path style="fill:#000000; fill-opacity:1.0; 
stroke:#000000; stroke-width:0; stroke-opacity:1; 
stroke-linecap:round; stroke-linejoin:round;fill-rule:evenodd;"
d="M 20684.3,14066.4
21471.3,14066.4
21471.3,14302.4
20684.3,14302.4
Z" /> 
<path style="fill:#000000; fill-opacity:1.0; 
stroke:#000000; stroke-width:0; stroke-opacity:1; 
stroke-linecap:round; stroke-linejoin:round;fill-rule:evenodd;"
d="M 20684.3,13566.4
21471.3,13566.4
21471.3,13802.4
20684.3,13802.4
Z" /> 
<path style="fill:#000000; fill-opacity:1.0; 
stroke:#000000; stroke-width:0; stroke-opacity:1; 
stroke-linecap:round; stroke-linejoin:round;fill-rule:evenodd;"
d="M 20684.3,13066.4
21471.3,13066.4
21471.3,13302.4
20684.3,13302.4
Z" /> 
<path style="fill:#000000; fill-opacity:1.0; 
stroke:#000000; stroke-width:0; stroke-opacity:1; 
stroke-linecap:round; stroke-linejoin:round;fill-rule:evenodd;"
d="M 20684.3,12566.4
21471.3,12566.4
21471.3,12802.4
20684.3,12802.4
Z" /> 
</g>
<g >
</g>
<g style="fill:#000000; fill-opacity:1.0; 
stroke:#000000; stroke-width:0; stroke-opacity:1; 
stroke-linecap:round; stroke-linejoin:round;">
<path style="fill:#000000; fill-opacity:1.0; 
stroke:#000000; stroke-width:0; stroke-opacity:1; 
stroke-linecap:round; stroke-linejoin:round;fill-rule:evenodd;"
d="M 21246.8,11767.9
21258.3,11769.6
21269.5,11772.4
21280.5,11776.3
21290.9,11781.3
21300.9,11787.2
21310.2,11794.1
21318.8,11801.9
21326.6,11810.5
21333.5,11819.8
21339.4,11829.7
21344.4,11840.2
21348.3,11851.1
21351.1,11862.4
21352.8,11873.8
21353.4,11885.4
21353.4,12121.6
21352.8,12133.2
21351.1,12144.7
21348.3,12155.9
21344.4,12166.8
21339.4,12177.3
21333.5,12187.3
21326.6,12196.6
21318.8,12205.2
21310.2,12212.9
21300.9,12219.8
21290.9,12225.8
21280.5,12230.8
21269.5,12234.7
21258.3,12237.5
21246.8,12239.2
21235.3,12239.7
20920.3,12239.7
20908.7,12239.2
20897.3,12237.5
20886,12234.7
20875.1,12230.8
20864.6,12225.8
20854.7,12219.8
20845.4,12212.9
20836.8,12205.2
20829,12196.6
20822.1,12187.3
20816.1,12177.3
20811.2,12166.8
20807.3,12155.9
20804.5,12144.7
20802.8,12133.2
20802.2,12121.6
20802.2,11885.4
20802.8,11873.8
20804.5,11862.4
20807.3,11851.1
20811.2,11840.2
20816.1,11829.7
20822.1,11819.8
20829,11810.5
20836.8,11801.9
20845.4,11794.1
20854.7,11787.2
20864.6,11781.3
20875.1,11776.3
20886,11772.4
20897.3,11769.6
20908.7,11767.9
20920.3,11767.3
21235.3,11767.3
Z" /> 
<path style="fill:#000000; fill-opacity:1.0; 
stroke:#000000; stroke-width:0; stroke-opacity:1; 
stroke-linecap:round; stroke-linejoin:round;fill-rule:evenodd;"
d="M 21246.8,11029.7
21258.3,11031.4
21269.5,11034.2
21280.5,11038.1
21290.9,11043.1
21300.9,11049
21310.2,11055.9
21318.8,11063.7
21326.6,11072.3
21333.5,11081.6
21339.4,11091.6
21344.4,11102
21348.3,11112.9
21351.1,11124.2
21352.8,11135.7
21353.4,11147.2
21353.4,11383.4
21352.8,11395
21351.1,11406.5
21348.3,11417.7
21344.4,11428.6
21339.4,11439.1
21333.5,11449.1
21326.6,11458.4
21318.8,11467
21310.2,11474.7
21300.9,11481.7
21290.9,11487.6
21280.5,11492.6
21269.5,11496.5
21258.3,11499.3
21246.8,11501
21235.3,11501.6
20920.3,11501.6
20908.7,11501
20897.3,11499.3
20886,11496.5
20875.1,11492.6
20864.6,11487.6
20854.7,11481.7
20845.4,11474.7
20836.8,11467
20829,11458.4
20822.1,11449.1
20816.1,11439.1
20811.2,11428.6
20807.3,11417.7
20804.5,11406.5
20802.8,11395
20802.2,11383.4
20802.2,11147.2
20802.8,11135.7
20804.5,11124.2
20807.3,11112.9
20811.2,11102
20816.1,11091.6
20822.1,11081.6
20829,11072.3
20836.8,11063.7
20845.4,11055.9
20854.7,11049
20864.6,11043.1
20875.1,11038.1
20886,11034.2
20897.3,11031.4
20908.7,11029.7
20920.3,11029.1
21235.3,11029.1
Z" /> 
</g>
<g >
</g>
<g style="fill:#000000; fill-opacity:1.0; 
stroke:#000000; stroke-width:0; stroke-opacity:1; 
stroke-linecap:round; stroke-linejoin:round;">
<path style="fill:#000000; fill-opacity:1.0; 
stroke:#000000; stroke-width:0; stroke-opacity:1; 
stroke-linecap:round; stroke-linejoin:round;fill-rule:evenodd;"
d="M 16296.8,11029.7
16308.3,11031.4
16319.5,11034.2
16330.5,11038.1
16340.9,11043.1
16350.9,11049
16360.2,11055.9
16368.8,11063.7
16376.6,11072.3
16383.5,11081.6
16389.4,11091.6
16394.4,11102
16398.3,11112.9
16401.1,11124.2
16402.8,11135.7
16403.4,11147.2
16403.4,11383.4
16402.8,11395
16401.1,11406.5
16398.3,11417.7
16394.4,11428.6
16389.4,11439.1
16383.5,11449.1
16376.6,11458.4
16368.8,11467
16360.2,11474.7
16350.9,11481.7
16340.9,11487.6
16330.5,11492.6
16319.5,11496.5
16308.3,11499.3
16296.8,11501
16285.3,11501.6
15970.3,11501.6
15958.7,11501
15947.3,11499.3
15936,11496.5
15925.1,11492.6
15914.6,11487.6
15904.7,11481.7
15895.4,11474.7
15886.8,11467
15879,11458.4
15872.1,11449.1
15866.1,11439.1
15861.2,11428.6
15857.3,11417.7
15854.5,11406.5
15852.8,11395
15852.2,11383.4
15852.2,11147.2
15852.8,11135.7
15854.5,11124.2
15857.3,11112.9
15861.2,11102
15866.1,11091.6
15872.1,11081.6
15879,11072.3
15886.8,11063.7
15895.4,11055.9
15904.7,11049
15914.6,11043.1
15925.1,11038.1
15936,11034.2
15947.3,11031.4
15958.7,11029.7
15970.3,11029.1
16285.3,11029.1
Z" /> 
<path style="fill:#000000; fill-opacity:1.0; 
stroke:#000000; stroke-width:0; stroke-opacity:1; 
stroke-linecap:round; stroke-linejoin:round;fill-rule:evenodd;"
d="M 16296.8,11767.9
16308.3,11769.6
16319.5,11772.4
16330.5,11776.3
16340.9,11781.3
16350.9,11787.2
16360.2,11794.1
16368.8,11801.9
16376.6,11810.5
16383.5,11819.8
16389.4,11829.7
16394.4,11840.2
16398.3,11851.1
16401.1,11862.4
16402.8,11873.8
16403.4,11885.4
16403.4,12121.6
16402.8,12133.2
16401.1,12144.7
16398.3,12155.9
16394.4,12166.8
16389.4,12177.3
16383.5,12187.3
16376.6,12196.6
16368.8,12205.2
16360.2,12212.9
16350.9,12219.8
16340.9,12225.8
16330.5,12230.8
16319.5,12234.7
16308.3,12237.5
16296.8,12239.2
16285.3,12239.7
15970.3,12239.7
15958.7,12239.2
15947.3,12237.5
15936,12234.7
15925.1,12230.8
15914.6,12225.8
15904.7,12219.8
15895.4,12212.9
15886.8,12205.2
15879,12196.6
15872.1,12187.3
15866.1,12177.3
15861.2,12166.8
15857.3,12155.9
15854.5,12144.7
15852.8,12133.2
15852.2,12121.6
15852.2,11885.4
15852.8,11873.8
15854.5,11862.4
15857.3,11851.1
15861.2,11840.2
15866.1,11829.7
15872.1,11819.8
15879,11810.5
15886.8,11801.9
15895.4,11794.1
15904.7,11787.2
15914.6,11781.3
15925.1,11776.3
15936,11772.4
15947.3,11769.6
15958.7,11767.9
15970.3,11767.3
16285.3,11767.3
Z" /> 
</g>
<g >
</g>
<g >
</g>
<g >
</g>
<g >
</g>
</g>
<g style="fill:#000000; fill-opacity:1.0; 
stroke:#000000; stroke-width:0; stroke-opacity:1; 
stroke-linecap:round; stroke-linejoin:round;">
</g>
<g style="fill:#000000; fill-opacity:1.0; 
stroke:#000000; stroke-width:19.685; stroke-opacity:1; 
stroke-linecap:round; stroke-linejoin:round;">
</g>
<g style="fill:#000000; fill-opacity:0.0; 
stroke:#000000; stroke-width:19.685; stroke-opacity:1; 
stroke-linecap:round; stroke-linejoin:round;">
<path d="M3347 19878
L3347 1767
" />
<path d="M30119 20665
L4135 20665
" />
<path d="M30906 1767
L30906 19878
" />
<path d="M30119 980
L4135 980
" />
<path d="M4135.26 980.496 A787.402 787.402 0.0 0 0 3347.86 1767.9" />
<path d="M30906.9 1767.9 A787.402 787.402 0.0 0 0 30119.5 980.496" />
<path d="M30119.5 20665.5 A787.402 787.402 0.0 0 0 30906.9 19878.1" />
<path d="M3347.86 19878.1 A787.402 787.402 0.0 0 0 4135.26 20665.5" />
<g >
</g>
<g >
</g>
<g >
</g>
<g >
</g>
<g >
</g>
<g >
</g>
<g >
</g>
<g >
</g>
<g >
</g>
<g >
</g>
<g >
</g>
<g >
</g>
<g >
</g>
<g >
</g>
<g >
</g>
<g >
</g>
<g >
</g>
<g >
</g>
<g >
</g>
<g >
</g>
<g >
</g>
<g >
</g>
<g >
</g>
<g >
</g>
<g >
</g>
<g >
</g>
<g >
</g>
<g >
</g>
<g >
</g>
<g >
</g>
<g >
</g>
</g> 
</svg>
