  0
SECTION
  2
HEADER
  9
$ACADVER
  1
AC1006
  9
$EXTMIN
 10
0.000000
 20
0.000000
 30
0.000000
  9
$EXTMAX
 10
1028.000000
 20
628.000000
 30
0.000000
  0
ENDSEC
  0
SECTION
  2
ENTITIES
  0
POLYLINE
  8
0
 66
1
 70
1
  0
VERTEX
  8
0
 10
316.750000
 20
598.250014
 42
0.000204
  0
VERTEX
  8
0
 10
406.544055
 20
598.170514
 42
0.000120
  0
VERTEX
  8
0
 10
514.000000
 20
598.144831
 42
0.000120
  0
VERTEX
  8
0
 10
621.455945
 20
598.170514
 42
0.000204
  0
VERTEX
  8
0
 10
711.250000
 20
598.250014
 42
0.001330
  0
VERTEX
  8
0
 10
734.673670
 20
598.342603
 42
0.996055
  0
VERTEX
  8
0
 10
734.673438
 20
598.430100
 42
0.000269
  0
VERTEX
  8
0
 10
655.468378
 20
598.489805
 42
0.000054
  0
VERTEX
  8
0
 10
514.000000
 20
598.505003
 42
0.000054
  0
VERTEX
  8
0
 10
372.531622
 20
598.489805
 42
0.000269
  0
VERTEX
  8
0
 10
293.326563
 20
598.430100
 42
0.996055
  0
VERTEX
  8
0
 10
293.326330
 20
598.342603
 42
0.001330
  0
SEQEND
  0
POLYLINE
  8
0
 66
1
 70
1
  0
VERTEX
  8
0
 10
106.946167
 20
591.250000
 42
0.000000
  0
VERTEX
  8
0
 10
103.500000
 20
587.500000
 42
0.000000
  0
VERTEX
  8
0
 10
107.250000
 20
590.946167
 42
0.004107
  0
VERTEX
  8
0
 10
108.687395
 20
592.289043
 42
0.006442
  0
VERTEX
  8
0
 10
109.898438
 20
593.469273
 42
0.002230
  0
VERTEX
  8
0
 10
110.919596
 20
594.499580
 42
0.196596
  0
VERTEX
  8
0
 10
111.000000
 20
594.696167
 42
0.503731
  0
VERTEX
  8
0
 10
110.749449
 20
594.881757
 42
0.102567
  0
VERTEX
  8
0
 10
110.175940
 20
594.568348
 42
0.026699
  0
VERTEX
  8
0
 10
109.052752
 20
593.505211
 42
0.004068
  0
SEQEND
  0
POLYLINE
  8
0
 66
1
 70
1
  0
VERTEX
  8
0
 10
920.000000
 20
591.500000
 42
0.006872
  0
VERTEX
  8
0
 10
921.336189
 20
590.158789
 42
0.010289
  0
VERTEX
  8
0
 10
922.542711
 20
589.028125
 42
0.005603
  0
VERTEX
  8
0
 10
923.580837
 20
588.115467
 42
0.179379
  0
VERTEX
  8
0
 10
923.892334
 20
588.000000
 42
0.621612
  0
VERTEX
  8
0
 10
923.959280
 20
588.135642
 42
0.009195
  0
VERTEX
  8
0
 10
923.248961
 20
589.028125
 42
0.012869
  0
VERTEX
  8
0
 10
922.266168
 20
590.156936
 42
0.006921
  0
VERTEX
  8
0
 10
921.000000
 20
591.500000
 42
0.006872
  0
VERTEX
  8
0
 10
919.663811
 20
592.841211
 42
0.010289
  0
VERTEX
  8
0
 10
918.457289
 20
593.971875
 42
0.005603
  0
VERTEX
  8
0
 10
917.419163
 20
594.884533
 42
0.179379
  0
VERTEX
  8
0
 10
917.107666
 20
595.000000
 42
0.621612
  0
VERTEX
  8
0
 10
917.040720
 20
594.864358
 42
0.009195
  0
VERTEX
  8
0
 10
917.751039
 20
593.971875
 42
0.012869
  0
VERTEX
  8
0
 10
918.733832
 20
592.843064
 42
0.006921
  0
SEQEND
  0
POLYLINE
  8
0
 66
1
 70
1
  0
VERTEX
  8
0
 10
100.492889
 20
303.500000
 42
0.000077
  0
VERTEX
  8
0
 10
100.508201
 20
204.530742
 42
0.000390
  0
VERTEX
  8
0
 10
100.568414
 20
149.209632
 42
0.994393
  0
VERTEX
  8
0
 10
100.656594
 20
149.209301
 42
0.001880
  0
VERTEX
  8
0
 10
100.749977
 20
165.830662
 42
0.000292
  0
VERTEX
  8
0
 10
100.830119
 20
228.757332
 42
0.000172
  0
VERTEX
  8
0
 10
100.856018
 20
303.967060
 42
0.000172
  0
VERTEX
  8
0
 10
100.830129
 20
379.113975
 42
0.000295
  0
VERTEX
  8
0
 10
100.749965
 20
441.830662
 42
0.001954
  0
VERTEX
  8
0
 10
100.656651
 20
457.984977
 42
0.994245
  0
VERTEX
  8
0
 10
100.568399
 20
457.984632
 42
0.000387
  0
VERTEX
  8
0
 10
100.508223
 20
402.478975
 42
0.000077
  0
SEQEND
  0
POLYLINE
  8
0
 66
1
 70
1
  0
VERTEX
  8
0
 10
927.492901
 20
303.000000
 42
0.000077
  0
VERTEX
  8
0
 10
927.508224
 20
203.846631
 42
0.000388
  0
VERTEX
  8
0
 10
927.568416
 20
148.332813
 42
0.994331
  0
VERTEX
  8
0
 10
927.656627
 20
148.332475
 42
0.001913
  0
VERTEX
  8
0
 10
927.749971
 20
164.750000
 42
0.000293
  0
VERTEX
  8
0
 10
927.830120
 20
227.685505
 42
0.000172
  0
VERTEX
  8
0
 10
927.856013
 20
303.000000
 42
0.000172
  0
VERTEX
  8
0
 10
927.830120
 20
378.314495
 42
0.000293
  0
VERTEX
  8
0
 10
927.749971
 20
441.250000
 42
0.001913
  0
VERTEX
  8
0
 10
927.656627
 20
457.667525
 42
0.994331
  0
VERTEX
  8
0
 10
927.568416
 20
457.667188
 42
0.000388
  0
VERTEX
  8
0
 10
927.508224
 20
402.153369
 42
0.000077
  0
SEQEND
  0
POLYLINE
  8
0
 66
1
 70
1
  0
VERTEX
  8
0
 10
394.571429
 20
480.428571
 42
0.090804
  0
VERTEX
  8
0
 10
393.928414
 20
479.497273
 42
0.041042
  0
VERTEX
  8
0
 10
393.430328
 20
478.094289
 42
0.036289
  0
VERTEX
  8
0
 10
393.107514
 20
476.384017
 42
0.028510
  0
VERTEX
  8
0
 10
393.000000
 20
474.500000
 42
0.055724
  0
VERTEX
  8
0
 10
393.417558
 20
470.764968
 42
0.157573
  0
VERTEX
  8
0
 10
394.739809
 20
468.535126
 42
0.140594
  0
VERTEX
  8
0
 10
397.230654
 20
467.351443
 42
0.041089
  0
VERTEX
  8
0
 10
401.500000
 20
467.000000
 42
0.041089
  0
VERTEX
  8
0
 10
405.769346
 20
467.351443
 42
0.140594
  0
VERTEX
  8
0
 10
408.260191
 20
468.535126
 42
0.157573
  0
VERTEX
  8
0
 10
409.582442
 20
470.764968
 42
0.055724
  0
VERTEX
  8
0
 10
410.000000
 20
474.500000
 42
0.055724
  0
VERTEX
  8
0
 10
409.582442
 20
478.235032
 42
0.157573
  0
VERTEX
  8
0
 10
408.260191
 20
480.464874
 42
0.140594
  0
VERTEX
  8
0
 10
405.769346
 20
481.648557
 42
0.041089
  0
VERTEX
  8
0
 10
401.500000
 20
482.000000
 42
0.019853
  0
VERTEX
  8
0
 10
399.067521
 20
481.903378
 42
0.035923
  0
VERTEX
  8
0
 10
397.098463
 20
481.603333
 42
0.044994
  0
VERTEX
  8
0
 10
395.585787
 20
481.113843
 42
0.095921
  0
SEQEND
  0
POLYLINE
  8
0
 66
1
 70
1
  0
VERTEX
  8
0
 10
425.000000
 20
468.000000
 42
0.000000
  0
VERTEX
  8
0
 10
425.000000
 20
455.000000
 42
0.000000
  0
VERTEX
  8
0
 10
432.000000
 20
455.000000
 42
0.000000
  0
VERTEX
  8
0
 10
439.000000
 20
455.000000
 42
0.000000
  0
VERTEX
  8
0
 10
439.000000
 20
468.000000
 42
0.000000
  0
VERTEX
  8
0
 10
439.000000
 20
481.000000
 42
0.000000
  0
VERTEX
  8
0
 10
432.000000
 20
481.000000
 42
0.000000
  0
VERTEX
  8
0
 10
425.000000
 20
481.000000
 42
0.000000
  0
SEQEND
  0
POLYLINE
  8
0
 66
1
 70
1
  0
VERTEX
  8
0
 10
478.000000
 20
468.000000
 42
0.000000
  0
VERTEX
  8
0
 10
478.000000
 20
455.000000
 42
0.000000
  0
VERTEX
  8
0
 10
485.500000
 20
455.000000
 42
0.000000
  0
VERTEX
  8
0
 10
493.000000
 20
455.000000
 42
0.000000
  0
VERTEX
  8
0
 10
493.000000
 20
468.000000
 42
0.000000
  0
VERTEX
  8
0
 10
493.000000
 20
481.000000
 42
0.000000
  0
VERTEX
  8
0
 10
485.500000
 20
481.000000
 42
0.000000
  0
VERTEX
  8
0
 10
478.000000
 20
481.000000
 42
0.000000
  0
SEQEND
  0
POLYLINE
  8
0
 66
1
 70
1
  0
VERTEX
  8
0
 10
508.571429
 20
479.428571
 42
0.144752
  0
VERTEX
  8
0
 10
507.510269
 20
477.476358
 42
0.039666
  0
VERTEX
  8
0
 10
507.047552
 20
473.966960
 42
0.040386
  0
VERTEX
  8
0
 10
507.151823
 20
470.362823
 42
0.114007
  0
VERTEX
  8
0
 10
507.978838
 20
468.000000
 42
0.147199
  0
VERTEX
  8
0
 10
508.785211
 20
467.300171
 42
0.056466
  0
VERTEX
  8
0
 10
510.213679
 20
466.843117
 42
0.036830
  0
VERTEX
  8
0
 10
512.353863
 20
466.578043
 42
0.012401
  0
VERTEX
  8
0
 10
515.500000
 20
466.500000
 42
0.025156
  0
VERTEX
  8
0
 10
520.374657
 20
466.745406
 42
0.160689
  0
VERTEX
  8
0
 10
522.604713
 20
467.739297
 42
0.177223
  0
VERTEX
  8
0
 10
523.687912
 20
469.809387
 42
0.032019
  0
VERTEX
  8
0
 10
523.984687
 20
474.214816
 42
0.019076
  0
VERTEX
  8
0
 10
523.901156
 20
476.607342
 42
0.062346
  0
VERTEX
  8
0
 10
523.590851
 20
478.157403
 42
0.094996
  0
VERTEX
  8
0
 10
523.001607
 20
479.207058
 42
0.094895
  0
VERTEX
  8
0
 10
522.065741
 20
479.964816
 42
0.097524
  0
VERTEX
  8
0
 10
519.168942
 20
480.851276
 42
0.035577
  0
VERTEX
  8
0
 10
514.862093
 20
480.986586
 42
0.033778
  0
VERTEX
  8
0
 10
510.703687
 20
480.538887
 42
0.153852
  0
SEQEND
  0
POLYLINE
  8
0
 66
1
 70
1
  0
VERTEX
  8
0
 10
393.606989
 20
457.418213
 42
0.074822
  0
VERTEX
  8
0
 10
393.029149
 20
454.797793
 42
0.039109
  0
VERTEX
  8
0
 10
393.064331
 20
451.448354
 42
0.038209
  0
VERTEX
  8
0
 10
393.585429
 20
448.320095
 42
0.136833
  0
VERTEX
  8
0
 10
394.571429
 20
446.571429
 42
0.153852
  0
VERTEX
  8
0
 10
396.703687
 20
445.461113
 42
0.033778
  0
VERTEX
  8
0
 10
400.862093
 20
445.013414
 42
0.035577
  0
VERTEX
  8
0
 10
405.168942
 20
445.148724
 42
0.097524
  0
VERTEX
  8
0
 10
408.065741
 20
446.035184
 42
0.092603
  0
VERTEX
  8
0
 10
408.986359
 20
446.773696
 42
0.092046
  0
VERTEX
  8
0
 10
409.580628
 20
447.796222
 42
0.063745
  0
VERTEX
  8
0
 10
409.903653
 20
449.271393
 42
0.022067
  0
VERTEX
  8
0
 10
410.000000
 20
451.453396
 42
0.023876
  0
VERTEX
  8
0
 10
409.778812
 20
456.082727
 42
0.189536
  0
VERTEX
  8
0
 10
408.826089
 20
457.957760
 42
0.165710
  0
VERTEX
  8
0
 10
406.779511
 20
458.817300
 42
0.017298
  0
VERTEX
  8
0
 10
401.500000
 20
459.000000
 42
0.009141
  0
VERTEX
  8
0
 10
397.768973
 20
458.931780
 42
0.040327
  0
VERTEX
  8
0
 10
395.586707
 20
458.674898
 42
0.077160
  0
VERTEX
  8
0
 10
394.283831
 20
458.196655
 42
0.176442
  0
SEQEND
  0
POLYLINE
  8
0
 66
1
 70
1
  0
VERTEX
  8
0
 10
510.000000
 20
458.271109
 42
0.087353
  0
VERTEX
  8
0
 10
508.554783
 20
457.408746
 42
0.113709
  0
VERTEX
  8
0
 10
507.647055
 20
456.169242
 42
0.077423
  0
VERTEX
  8
0
 10
507.164038
 20
454.286342
 42
0.023232
  0
VERTEX
  8
0
 10
507.015313
 20
451.321429
 42
0.058780
  0
VERTEX
  8
0
 10
507.422772
 20
447.755158
 42
0.152669
  0
VERTEX
  8
0
 10
508.724487
 20
445.554645
 42
0.138878
  0
VERTEX
  8
0
 10
511.142530
 20
444.363778
 42
0.045439
  0
VERTEX
  8
0
 10
515.137170
 20
444.000000
 42
0.028589
  0
VERTEX
  8
0
 10
519.888281
 20
444.271882
 42
0.138794
  0
VERTEX
  8
0
 10
522.360217
 20
445.288420
 42
0.175637
  0
VERTEX
  8
0
 10
523.615431
 20
447.303512
 42
0.052389
  0
VERTEX
  8
0
 10
524.000000
 20
450.963755
 42
0.046565
  0
VERTEX
  8
0
 10
523.624044
 20
454.991875
 42
0.148748
  0
VERTEX
  8
0
 10
522.387677
 20
457.358288
 42
0.153414
  0
VERTEX
  8
0
 10
520.070522
 20
458.592908
 42
0.050537
  0
VERTEX
  8
0
 10
516.178571
 20
458.921053
 42
0.010530
  0
VERTEX
  8
0
 10
514.277396
 20
458.848902
 42
0.011455
  0
VERTEX
  8
0
 10
512.433705
 20
458.697566
 42
0.010986
  0
VERTEX
  8
0
 10
510.864073
 20
458.497495
 42
0.053796
  0
SEQEND
  0
POLYLINE
  8
0
 66
1
 70
1
  0
VERTEX
  8
0
 10
424.226926
 20
413.250000
 42
0.000000
  0
VERTEX
  8
0
 10
424.500000
 20
395.500000
 42
0.000000
  0
VERTEX
  8
0
 10
440.500000
 20
395.500000
 42
0.000000
  0
VERTEX
  8
0
 10
456.500000
 20
395.500000
 42
0.000000
  0
VERTEX
  8
0
 10
456.773074
 20
413.250000
 42
0.000000
  0
VERTEX
  8
0
 10
457.046149
 20
431.000000
 42
0.000000
  0
VERTEX
  8
0
 10
440.500000
 20
431.000000
 42
0.000000
  0
VERTEX
  8
0
 10
423.953851
 20
431.000000
 42
0.000000
  0
SEQEND
  0
POLYLINE
  8
0
 66
1
 70
1
  0
VERTEX
  8
0
 10
460.226926
 20
413.250000
 42
0.000000
  0
VERTEX
  8
0
 10
460.500000
 20
395.500000
 42
0.000000
  0
VERTEX
  8
0
 10
476.500000
 20
395.500000
 42
0.000000
  0
VERTEX
  8
0
 10
492.500000
 20
395.500000
 42
0.000000
  0
VERTEX
  8
0
 10
492.773074
 20
413.250000
 42
0.000000
  0
VERTEX
  8
0
 10
493.046149
 20
431.000000
 42
0.000000
  0
VERTEX
  8
0
 10
476.500000
 20
431.000000
 42
0.000000
  0
VERTEX
  8
0
 10
459.953851
 20
431.000000
 42
0.000000
  0
SEQEND
  0
POLYLINE
  8
0
 66
1
 70
1
  0
VERTEX
  8
0
 10
424.000000
 20
374.000000
 42
0.000000
  0
VERTEX
  8
0
 10
424.000000
 20
356.000000
 42
0.000000
  0
VERTEX
  8
0
 10
440.500000
 20
356.000000
 42
0.000000
  0
VERTEX
  8
0
 10
457.000000
 20
356.000000
 42
0.000000
  0
VERTEX
  8
0
 10
457.000000
 20
374.000000
 42
0.000000
  0
VERTEX
  8
0
 10
457.000000
 20
392.000000
 42
0.000000
  0
VERTEX
  8
0
 10
440.500000
 20
392.000000
 42
0.000000
  0
VERTEX
  8
0
 10
424.000000
 20
392.000000
 42
0.000000
  0
SEQEND
  0
POLYLINE
  8
0
 66
1
 70
1
  0
VERTEX
  8
0
 10
460.000000
 20
374.000000
 42
0.000000
  0
VERTEX
  8
0
 10
460.000000
 20
356.000000
 42
0.000000
  0
VERTEX
  8
0
 10
476.500000
 20
356.000000
 42
0.000000
  0
VERTEX
  8
0
 10
493.000000
 20
356.000000
 42
0.000000
  0
VERTEX
  8
0
 10
493.000000
 20
374.000000
 42
0.000000
  0
VERTEX
  8
0
 10
493.000000
 20
392.000000
 42
0.000000
  0
VERTEX
  8
0
 10
476.500000
 20
392.000000
 42
0.000000
  0
VERTEX
  8
0
 10
460.000000
 20
392.000000
 42
0.000000
  0
SEQEND
  0
POLYLINE
  8
0
 66
1
 70
1
  0
VERTEX
  8
0
 10
410.428743
 20
295.674902
 42
0.071734
  0
VERTEX
  8
0
 10
410.234751
 20
294.820184
 42
0.011328
  0
VERTEX
  8
0
 10
410.135840
 20
293.096148
 42
0.012372
  0
VERTEX
  8
0
 10
410.115507
 20
291.044519
 42
0.010531
  0
VERTEX
  8
0
 10
410.193204
 20
288.880801
 42
0.000000
  0
VERTEX
  8
0
 10
410.500000
 20
283.500000
 42
0.000000
  0
VERTEX
  8
0
 10
418.000000
 20
283.500000
 42
0.000000
  0
VERTEX
  8
0
 10
425.500000
 20
283.500000
 42
0.000000
  0
VERTEX
  8
0
 10
425.500000
 20
290.000000
 42
0.000000
  0
VERTEX
  8
0
 10
425.500000
 20
296.500000
 42
0.000000
  0
VERTEX
  8
0
 10
418.235539
 20
296.794101
 42
0.009055
  0
VERTEX
  8
0
 10
414.611813
 20
296.875121
 42
0.036676
  0
VERTEX
  8
0
 10
412.409777
 20
296.722777
 42
0.066578
  0
VERTEX
  8
0
 10
411.070844
 20
296.344490
 42
0.201689
  0
SEQEND
  0
POLYLINE
  8
0
 66
1
 70
1
  0
VERTEX
  8
0
 10
476.428743
 20
295.674902
 42
0.071734
  0
VERTEX
  8
0
 10
476.234751
 20
294.820184
 42
0.011328
  0
VERTEX
  8
0
 10
476.135840
 20
293.096148
 42
0.012372
  0
VERTEX
  8
0
 10
476.115507
 20
291.044519
 42
0.010531
  0
VERTEX
  8
0
 10
476.193204
 20
288.880801
 42
0.000000
  0
VERTEX
  8
0
 10
476.500000
 20
283.500000
 42
0.000000
  0
VERTEX
  8
0
 10
484.000000
 20
283.500000
 42
0.000000
  0
VERTEX
  8
0
 10
491.500000
 20
283.500000
 42
0.000000
  0
VERTEX
  8
0
 10
491.500000
 20
290.000000
 42
0.000000
  0
VERTEX
  8
0
 10
491.500000
 20
296.500000
 42
0.000000
  0
VERTEX
  8
0
 10
484.235539
 20
296.794101
 42
0.009055
  0
VERTEX
  8
0
 10
480.611813
 20
296.875121
 42
0.036676
  0
VERTEX
  8
0
 10
478.409777
 20
296.722777
 42
0.066578
  0
VERTEX
  8
0
 10
477.070844
 20
296.344490
 42
0.201689
  0
SEQEND
  0
POLYLINE
  8
0
 66
1
 70
1
  0
VERTEX
  8
0
 10
559.200000
 20
295.800000
 42
0.118024
  0
VERTEX
  8
0
 10
558.735813
 20
295.043632
 42
0.027871
  0
VERTEX
  8
0
 10
558.352500
 20
293.601250
 42
0.027171
  0
VERTEX
  8
0
 10
558.088229
 20
291.849005
 42
0.023845
  0
VERTEX
  8
0
 10
558.000000
 20
290.000000
 42
0.023845
  0
VERTEX
  8
0
 10
558.088229
 20
288.150995
 42
0.027171
  0
VERTEX
  8
0
 10
558.352500
 20
286.398750
 42
0.027871
  0
VERTEX
  8
0
 10
558.735813
 20
284.956368
 42
0.118024
  0
VERTEX
  8
0
 10
559.200000
 20
284.200000
 42
0.133817
  0
VERTEX
  8
0
 10
560.026181
 20
283.727678
 42
0.022595
  0
VERTEX
  8
0
 10
561.822473
 20
283.348361
 42
0.023035
  0
VERTEX
  8
0
 10
564.051002
 20
283.086733
 42
0.017702
  0
VERTEX
  8
0
 10
566.500000
 20
283.000000
 42
0.017702
  0
VERTEX
  8
0
 10
568.948998
 20
283.086733
 42
0.023035
  0
VERTEX
  8
0
 10
571.177527
 20
283.348361
 42
0.022595
  0
VERTEX
  8
0
 10
572.973819
 20
283.727678
 42
0.133817
  0
VERTEX
  8
0
 10
573.800000
 20
284.200000
 42
0.118024
  0
VERTEX
  8
0
 10
574.264187
 20
284.956368
 42
0.027871
  0
VERTEX
  8
0
 10
574.647500
 20
286.398750
 42
0.027171
  0
VERTEX
  8
0
 10
574.911771
 20
288.150995
 42
0.023845
  0
VERTEX
  8
0
 10
575.000000
 20
290.000000
 42
0.023845
  0
VERTEX
  8
0
 10
574.911771
 20
291.849005
 42
0.027171
  0
VERTEX
  8
0
 10
574.647500
 20
293.601250
 42
0.027871
  0
VERTEX
  8
0
 10
574.264187
 20
295.043632
 42
0.118024
  0
VERTEX
  8
0
 10
573.800000
 20
295.800000
 42
0.177737
  0
VERTEX
  8
0
 10
571.724348
 20
296.760989
 42
0.020452
  0
VERTEX
  8
0
 10
566.500000
 20
296.974773
 42
0.020452
  0
VERTEX
  8
0
 10
561.275652
 20
296.760989
 42
0.177737
  0
SEQEND
  0
POLYLINE
  8
0
 66
1
 70
1
  0
VERTEX
  8
0
 10
625.035184
 20
295.065741
 42
0.049868
  0
VERTEX
  8
0
 10
624.637517
 20
294.103092
 42
0.022633
  0
VERTEX
  8
0
 10
624.304085
 20
292.779798
 42
0.022144
  0
VERTEX
  8
0
 10
624.075839
 20
291.340700
 42
0.028261
  0
VERTEX
  8
0
 10
624.000000
 20
290.000000
 42
0.048672
  0
VERTEX
  8
0
 10
624.359005
 20
286.320757
 42
0.171068
  0
VERTEX
  8
0
 10
625.550811
 20
284.302392
 42
0.144236
  0
VERTEX
  8
0
 10
627.891496
 20
283.279336
 42
0.031400
  0
VERTEX
  8
0
 10
632.335184
 20
283.000000
 42
0.016985
  0
VERTEX
  8
0
 10
634.864500
 20
283.085946
 42
0.022868
  0
VERTEX
  8
0
 10
637.140603
 20
283.345773
 42
0.022579
  0
VERTEX
  8
0
 10
638.963891
 20
283.723999
 42
0.134733
  0
VERTEX
  8
0
 10
639.800000
 20
284.200000
 42
0.118024
  0
VERTEX
  8
0
 10
640.264187
 20
284.956368
 42
0.027871
  0
VERTEX
  8
0
 10
640.647500
 20
286.398750
 42
0.027171
  0
VERTEX
  8
0
 10
640.911771
 20
288.150995
 42
0.023845
  0
VERTEX
  8
0
 10
641.000000
 20
290.000000
 42
0.023845
  0
VERTEX
  8
0
 10
640.911771
 20
291.849005
 42
0.027171
  0
VERTEX
  8
0
 10
640.647500
 20
293.601250
 42
0.027871
  0
VERTEX
  8
0
 10
640.264187
 20
295.043632
 42
0.118024
  0
VERTEX
  8
0
 10
639.800000
 20
295.800000
 42
0.134733
  0
VERTEX
  8
0
 10
638.963891
 20
296.276001
 42
0.022579
  0
VERTEX
  8
0
 10
637.140603
 20
296.654227
 42
0.022868
  0
VERTEX
  8
0
 10
634.864500
 20
296.914054
 42
0.016985
  0
VERTEX
  8
0
 10
632.335184
 20
297.000000
 42
0.011337
  0
VERTEX
  8
0
 10
628.972120
 20
296.923736
 42
0.053468
  0
VERTEX
  8
0
 10
627.066668
 20
296.631503
 42
0.098221
  0
VERTEX
  8
0
 10
625.871415
 20
296.046994
 42
0.107601
  0
SEQEND
  0
POLYLINE
  8
0
 66
1
 70
1
  0
VERTEX
  8
0
 10
411.195404
 20
274.141928
 42
0.165508
  0
VERTEX
  8
0
 10
410.624938
 20
273.432906
 42
0.050563
  0
VERTEX
  8
0
 10
410.281788
 20
272.080263
 42
0.035668
  0
VERTEX
  8
0
 10
410.132093
 20
270.117047
 42
0.014080
  0
VERTEX
  8
0
 10
410.195404
 20
267.407241
 42
0.000000
  0
VERTEX
  8
0
 10
410.500000
 20
261.500000
 42
0.000000
  0
VERTEX
  8
0
 10
418.000000
 20
261.500000
 42
0.000000
  0
VERTEX
  8
0
 10
425.500000
 20
261.500000
 42
0.000000
  0
VERTEX
  8
0
 10
425.804596
 20
267.407241
 42
0.027498
  0
VERTEX
  8
0
 10
425.789166
 20
271.861746
 42
0.187846
  0
VERTEX
  8
0
 10
424.891015
 20
273.821100
 42
0.171819
  0
VERTEX
  8
0
 10
422.854871
 20
274.753210
 42
0.022252
  0
VERTEX
  8
0
 10
418.000000
 20
274.969374
 42
0.013775
  0
VERTEX
  8
0
 10
415.798606
 20
274.908716
 42
0.016479
  0
VERTEX
  8
0
 10
413.732400
 20
274.726312
 42
0.015320
  0
VERTEX
  8
0
 10
412.017071
 20
274.464178
 42
0.096029
  0
SEQEND
  0
POLYLINE
  8
0
 66
1
 70
1
  0
VERTEX
  8
0
 10
477.067370
 20
273.581176
 42
0.113567
  0
VERTEX
  8
0
 10
476.615513
 20
272.684002
 42
0.027972
  0
VERTEX
  8
0
 10
476.310875
 20
271.051329
 42
0.026293
  0
VERTEX
  8
0
 10
476.157655
 20
269.038225
 42
0.020141
  0
VERTEX
  8
0
 10
476.194925
 20
266.831176
 42
0.000000
  0
VERTEX
  8
0
 10
476.500000
 20
261.500000
 42
0.000000
  0
VERTEX
  8
0
 10
484.000000
 20
261.500000
 42
0.000000
  0
VERTEX
  8
0
 10
491.500000
 20
261.500000
 42
0.000000
  0
VERTEX
  8
0
 10
491.804596
 20
267.407241
 42
0.014080
  0
VERTEX
  8
0
 10
491.867907
 20
270.117047
 42
0.035668
  0
VERTEX
  8
0
 10
491.718212
 20
272.080263
 42
0.050563
  0
VERTEX
  8
0
 10
491.375062
 20
273.432906
 42
0.165508
  0
VERTEX
  8
0
 10
490.804596
 20
274.141928
 42
0.127465
  0
VERTEX
  8
0
 10
488.325657
 20
274.940551
 42
0.024730
  0
VERTEX
  8
0
 10
483.583007
 20
274.981585
 42
0.022105
  0
VERTEX
  8
0
 10
478.881851
 20
274.581019
 42
0.189436
  0
SEQEND
  0
POLYLINE
  8
0
 66
1
 70
1
  0
VERTEX
  8
0
 10
559.035184
 20
273.065741
 42
0.089000
  0
VERTEX
  8
0
 10
558.244787
 20
270.630708
 42
0.037893
  0
VERTEX
  8
0
 10
558.036505
 20
267.196912
 42
0.036114
  0
VERTEX
  8
0
 10
558.324059
 20
263.913870
 42
0.157748
  0
VERTEX
  8
0
 10
559.200000
 20
262.200000
 42
0.133817
  0
VERTEX
  8
0
 10
560.026181
 20
261.727678
 42
0.022595
  0
VERTEX
  8
0
 10
561.822473
 20
261.348361
 42
0.023035
  0
VERTEX
  8
0
 10
564.051002
 20
261.086733
 42
0.017702
  0
VERTEX
  8
0
 10
566.500000
 20
261.000000
 42
0.017702
  0
VERTEX
  8
0
 10
568.948998
 20
261.086733
 42
0.023035
  0
VERTEX
  8
0
 10
571.177527
 20
261.348361
 42
0.022595
  0
VERTEX
  8
0
 10
572.973819
 20
261.727678
 42
0.133817
  0
VERTEX
  8
0
 10
573.800000
 20
262.200000
 42
0.118024
  0
VERTEX
  8
0
 10
574.264187
 20
262.956368
 42
0.027871
  0
VERTEX
  8
0
 10
574.647500
 20
264.398750
 42
0.027171
  0
VERTEX
  8
0
 10
574.911771
 20
266.150995
 42
0.023845
  0
VERTEX
  8
0
 10
575.000000
 20
268.000000
 42
0.023845
  0
VERTEX
  8
0
 10
574.911771
 20
269.849005
 42
0.027171
  0
VERTEX
  8
0
 10
574.647500
 20
271.601250
 42
0.027871
  0
VERTEX
  8
0
 10
574.264187
 20
273.043632
 42
0.118024
  0
VERTEX
  8
0
 10
573.800000
 20
273.800000
 42
0.134733
  0
VERTEX
  8
0
 10
572.963891
 20
274.276001
 42
0.022579
  0
VERTEX
  8
0
 10
571.140603
 20
274.654227
 42
0.022868
  0
VERTEX
  8
0
 10
568.864500
 20
274.914054
 42
0.016985
  0
VERTEX
  8
0
 10
566.335184
 20
275.000000
 42
0.011337
  0
VERTEX
  8
0
 10
562.972120
 20
274.923736
 42
0.053468
  0
VERTEX
  8
0
 10
561.066668
 20
274.631503
 42
0.098221
  0
VERTEX
  8
0
 10
559.871415
 20
274.046994
 42
0.107601
  0
SEQEND
  0
POLYLINE
  8
0
 66
1
 70
1
  0
VERTEX
  8
0
 10
625.035184
 20
273.065741
 42
0.089000
  0
VERTEX
  8
0
 10
624.244787
 20
270.630708
 42
0.037893
  0
VERTEX
  8
0
 10
624.036505
 20
267.196912
 42
0.036114
  0
VERTEX
  8
0
 10
624.324059
 20
263.913870
 42
0.157748
  0
VERTEX
  8
0
 10
625.200000
 20
262.200000
 42
0.137047
  0
VERTEX
  8
0
 10
626.060611
 20
261.715212
 42
0.022436
  0
VERTEX
  8
0
 10
627.954732
 20
261.339646
 42
0.022386
  0
VERTEX
  8
0
 10
630.354571
 20
261.084029
 42
0.015339
  0
VERTEX
  8
0
 10
633.093011
 20
261.000000
 42
0.010464
  0
VERTEX
  8
0
 10
636.475978
 20
261.070810
 42
0.042908
  0
VERTEX
  8
0
 10
638.509571
 20
261.331756
 42
0.079591
  0
VERTEX
  8
0
 10
639.741074
 20
261.812575
 42
0.169936
  0
VERTEX
  8
0
 10
640.393011
 20
262.581787
 42
0.076276
  0
VERTEX
  8
0
 10
640.942720
 20
265.109360
 42
0.028684
  0
VERTEX
  8
0
 10
640.959210
 20
268.741418
 42
0.025246
  0
VERTEX
  8
0
 10
640.597806
 20
272.227797
 42
0.159232
  0
VERTEX
  8
0
 10
639.800000
 20
273.800000
 42
0.134733
  0
VERTEX
  8
0
 10
638.963891
 20
274.276001
 42
0.022579
  0
VERTEX
  8
0
 10
637.140603
 20
274.654227
 42
0.022868
  0
VERTEX
  8
0
 10
634.864500
 20
274.914054
 42
0.016985
  0
VERTEX
  8
0
 10
632.335184
 20
275.000000
 42
0.011337
  0
VERTEX
  8
0
 10
628.972120
 20
274.923736
 42
0.053468
  0
VERTEX
  8
0
 10
627.066668
 20
274.631503
 42
0.098221
  0
VERTEX
  8
0
 10
625.871415
 20
274.046994
 42
0.107601
  0
SEQEND
  0
POLYLINE
  8
0
 66
1
 70
1
  0
VERTEX
  8
0
 10
311.417143
 20
253.644673
 42
0.075851
  0
VERTEX
  8
0
 10
311.229058
 20
252.783366
 42
0.008846
  0
VERTEX
  8
0
 10
311.138388
 20
250.809038
 42
0.010456
  0
VERTEX
  8
0
 10
311.121137
 20
248.442504
 42
0.008372
  0
VERTEX
  8
0
 10
311.198527
 20
245.894673
 42
0.000000
  0
VERTEX
  8
0
 10
311.500000
 20
239.500000
 42
0.000000
  0
VERTEX
  8
0
 10
316.831176
 20
239.194925
 42
0.034583
  0
VERTEX
  8
0
 10
321.234811
 20
239.247670
 42
0.164274
  0
VERTEX
  8
0
 10
323.516985
 20
240.230783
 42
0.172365
  0
VERTEX
  8
0
 10
324.674320
 20
242.364330
 42
0.038932
  0
VERTEX
  8
0
 10
325.000000
 20
246.540657
 42
0.017184
  0
VERTEX
  8
0
 10
324.821188
 20
251.742119
 42
0.159375
  0
VERTEX
  8
0
 10
323.987614
 20
253.800270
 42
0.192665
  0
VERTEX
  8
0
 10
322.174244
 20
254.765688
 42
0.027146
  0
VERTEX
  8
0
 10
317.861626
 20
255.000000
 42
0.014084
  0
VERTEX
  8
0
 10
315.157676
 20
254.923821
 42
0.037757
  0
VERTEX
  8
0
 10
313.249660
 20
254.670861
 42
0.055779
  0
VERTEX
  8
0
 10
311.989897
 20
254.255164
 42
0.196008
  0
SEQEND
  0
POLYLINE
  8
0
 66
1
 70
1
  0
VERTEX
  8
0
 10
333.435582
 20
253.692726
 42
0.074949
  0
VERTEX
  8
0
 10
333.240697
 20
252.807889
 42
0.009195
  0
VERTEX
  8
0
 10
333.143805
 20
250.823154
 42
0.010715
  0
VERTEX
  8
0
 10
333.122504
 20
248.445989
 42
0.008660
  0
VERTEX
  8
0
 10
333.198527
 20
245.894673
 42
0.000000
  0
VERTEX
  8
0
 10
333.500000
 20
239.500000
 42
0.000000
  0
VERTEX
  8
0
 10
339.090098
 20
239.204867
 42
0.037566
  0
VERTEX
  8
0
 10
343.607470
 20
239.305850
 42
0.193015
  0
VERTEX
  8
0
 10
345.787822
 20
240.437611
 42
0.165046
  0
VERTEX
  8
0
 10
346.776034
 20
242.886693
 42
0.025926
  0
VERTEX
  8
0
 10
346.799984
 20
248.162690
 42
0.000000
  0
VERTEX
  8
0
 10
346.500000
 20
254.500000
 42
0.000000
  0
VERTEX
  8
0
 10
340.237055
 20
254.798053
 42
0.011286
  0
VERTEX
  8
0
 10
337.177558
 20
254.874505
 42
0.040902
  0
VERTEX
  8
0
 10
335.238434
 20
254.720319
 42
0.071700
  0
VERTEX
  8
0
 10
334.034546
 20
254.342287
 42
0.191536
  0
SEQEND
  0
POLYLINE
  8
0
 66
1
 70
1
  0
VERTEX
  8
0
 10
692.109918
 20
252.632443
 42
0.115721
  0
VERTEX
  8
0
 10
691.618904
 20
251.647116
 42
0.028930
  0
VERTEX
  8
0
 10
691.305458
 20
249.864396
 42
0.025460
  0
VERTEX
  8
0
 10
691.155116
 20
247.565055
 42
0.015422
  0
VERTEX
  8
0
 10
691.200016
 20
244.837310
 42
0.000000
  0
VERTEX
  8
0
 10
691.500000
 20
238.500000
 42
0.000000
  0
VERTEX
  8
0
 10
698.000000
 20
238.500000
 42
0.000000
  0
VERTEX
  8
0
 10
704.500000
 20
238.500000
 42
0.000000
  0
VERTEX
  8
0
 10
704.500000
 20
246.000000
 42
0.000000
  0
VERTEX
  8
0
 10
704.500000
 20
253.500000
 42
0.000000
  0
VERTEX
  8
0
 10
698.909902
 20
253.795133
 42
0.015652
  0
VERTEX
  8
0
 10
696.258794
 20
253.851994
 42
0.039894
  0
VERTEX
  8
0
 10
694.344855
 20
253.680041
 42
0.057435
  0
VERTEX
  8
0
 10
692.987449
 20
253.283695
 42
0.120386
  0
SEQEND
  0
POLYLINE
  8
0
 66
1
 70
1
  0
VERTEX
  8
0
 10
714.242663
 20
252.842663
 42
0.171740
  0
VERTEX
  8
0
 10
713.359320
 20
250.991537
 42
0.019227
  0
VERTEX
  8
0
 10
713.043792
 20
246.262554
 42
0.021189
  0
VERTEX
  8
0
 10
713.111130
 20
241.520026
 42
0.127854
  0
VERTEX
  8
0
 10
713.858072
 20
239.195404
 42
0.165508
  0
VERTEX
  8
0
 10
714.567094
 20
238.624938
 42
0.050563
  0
VERTEX
  8
0
 10
715.919737
 20
238.281788
 42
0.035668
  0
VERTEX
  8
0
 10
717.882953
 20
238.132093
 42
0.014080
  0
VERTEX
  8
0
 10
720.592759
 20
238.195404
 42
0.000000
  0
VERTEX
  8
0
 10
726.500000
 20
238.500000
 42
0.000000
  0
VERTEX
  8
0
 10
726.500000
 20
246.000000
 42
0.000000
  0
VERTEX
  8
0
 10
726.500000
 20
253.500000
 42
0.000000
  0
VERTEX
  8
0
 10
720.992663
 20
253.792663
 42
0.017980
  0
VERTEX
  8
0
 10
718.614044
 20
253.833423
 42
0.030259
  0
VERTEX
  8
0
 10
716.624356
 20
253.675264
 42
0.035647
  0
VERTEX
  8
0
 10
715.097777
 20
253.348150
 42
0.126429
  0
SEQEND
  0
POLYLINE
  8
0
 66
1
 70
1
  0
VERTEX
  8
0
 10
406.000000
 20
247.500000
 42
0.000000
  0
VERTEX
  8
0
 10
406.000000
 20
244.000000
 42
0.000000
  0
VERTEX
  8
0
 10
418.000000
 20
244.000000
 42
0.000000
  0
VERTEX
  8
0
 10
430.000000
 20
244.000000
 42
0.000000
  0
VERTEX
  8
0
 10
430.000000
 20
247.500000
 42
0.000000
  0
VERTEX
  8
0
 10
430.000000
 20
251.000000
 42
0.000000
  0
VERTEX
  8
0
 10
418.000000
 20
251.000000
 42
0.000000
  0
VERTEX
  8
0
 10
406.000000
 20
251.000000
 42
0.000000
  0
SEQEND
  0
POLYLINE
  8
0
 66
1
 70
1
  0
VERTEX
  8
0
 10
472.000000
 20
247.500000
 42
0.000000
  0
VERTEX
  8
0
 10
472.000000
 20
244.000000
 42
0.000000
  0
VERTEX
  8
0
 10
484.000000
 20
244.000000
 42
0.000000
  0
VERTEX
  8
0
 10
496.000000
 20
244.000000
 42
0.000000
  0
VERTEX
  8
0
 10
496.000000
 20
247.500000
 42
0.000000
  0
VERTEX
  8
0
 10
496.000000
 20
251.000000
 42
0.000000
  0
VERTEX
  8
0
 10
484.000000
 20
251.000000
 42
0.000000
  0
VERTEX
  8
0
 10
472.000000
 20
251.000000
 42
0.000000
  0
SEQEND
  0
POLYLINE
  8
0
 66
1
 70
1
  0
VERTEX
  8
0
 10
555.000000
 20
247.500000
 42
0.000000
  0
VERTEX
  8
0
 10
555.000000
 20
244.000000
 42
0.000000
  0
VERTEX
  8
0
 10
566.500000
 20
244.000000
 42
0.000000
  0
VERTEX
  8
0
 10
578.000000
 20
244.000000
 42
0.000000
  0
VERTEX
  8
0
 10
578.000000
 20
247.500000
 42
0.000000
  0
VERTEX
  8
0
 10
578.000000
 20
251.000000
 42
0.000000
  0
VERTEX
  8
0
 10
566.500000
 20
251.000000
 42
0.000000
  0
VERTEX
  8
0
 10
555.000000
 20
251.000000
 42
0.000000
  0
SEQEND
  0
POLYLINE
  8
0
 66
1
 70
1
  0
VERTEX
  8
0
 10
621.000000
 20
247.500000
 42
0.000000
  0
VERTEX
  8
0
 10
621.000000
 20
244.000000
 42
0.000000
  0
VERTEX
  8
0
 10
632.500000
 20
244.000000
 42
0.000000
  0
VERTEX
  8
0
 10
644.000000
 20
244.000000
 42
0.000000
  0
VERTEX
  8
0
 10
644.000000
 20
247.500000
 42
0.000000
  0
VERTEX
  8
0
 10
644.000000
 20
251.000000
 42
0.000000
  0
VERTEX
  8
0
 10
632.500000
 20
251.000000
 42
0.000000
  0
VERTEX
  8
0
 10
621.000000
 20
251.000000
 42
0.000000
  0
SEQEND
  0
POLYLINE
  8
0
 66
1
 70
1
  0
VERTEX
  8
0
 10
406.000000
 20
232.500000
 42
0.000000
  0
VERTEX
  8
0
 10
406.000000
 20
229.000000
 42
0.000000
  0
VERTEX
  8
0
 10
418.000000
 20
229.000000
 42
0.000000
  0
VERTEX
  8
0
 10
430.000000
 20
229.000000
 42
0.000000
  0
VERTEX
  8
0
 10
430.000000
 20
232.500000
 42
0.000000
  0
VERTEX
  8
0
 10
430.000000
 20
236.000000
 42
0.000000
  0
VERTEX
  8
0
 10
418.000000
 20
236.000000
 42
0.000000
  0
VERTEX
  8
0
 10
406.000000
 20
236.000000
 42
0.000000
  0
SEQEND
  0
POLYLINE
  8
0
 66
1
 70
1
  0
VERTEX
  8
0
 10
472.000000
 20
232.500000
 42
0.000000
  0
VERTEX
  8
0
 10
472.000000
 20
229.000000
 42
0.000000
  0
VERTEX
  8
0
 10
484.000000
 20
229.000000
 42
0.000000
  0
VERTEX
  8
0
 10
496.000000
 20
229.000000
 42
0.000000
  0
VERTEX
  8
0
 10
496.000000
 20
232.500000
 42
0.000000
  0
VERTEX
  8
0
 10
496.000000
 20
236.000000
 42
0.000000
  0
VERTEX
  8
0
 10
484.000000
 20
236.000000
 42
0.000000
  0
VERTEX
  8
0
 10
472.000000
 20
236.000000
 42
0.000000
  0
SEQEND
  0
POLYLINE
  8
0
 66
1
 70
1
  0
VERTEX
  8
0
 10
555.000000
 20
232.500000
 42
0.000000
  0
VERTEX
  8
0
 10
555.000000
 20
229.000000
 42
0.000000
  0
VERTEX
  8
0
 10
566.500000
 20
229.000000
 42
0.000000
  0
VERTEX
  8
0
 10
578.000000
 20
229.000000
 42
0.000000
  0
VERTEX
  8
0
 10
578.000000
 20
232.500000
 42
0.000000
  0
VERTEX
  8
0
 10
578.000000
 20
236.000000
 42
0.000000
  0
VERTEX
  8
0
 10
566.500000
 20
236.000000
 42
0.000000
  0
VERTEX
  8
0
 10
555.000000
 20
236.000000
 42
0.000000
  0
SEQEND
  0
POLYLINE
  8
0
 66
1
 70
1
  0
VERTEX
  8
0
 10
621.000000
 20
232.500000
 42
0.000000
  0
VERTEX
  8
0
 10
621.000000
 20
229.000000
 42
0.000000
  0
VERTEX
  8
0
 10
632.500000
 20
229.000000
 42
0.000000
  0
VERTEX
  8
0
 10
644.000000
 20
229.000000
 42
0.000000
  0
VERTEX
  8
0
 10
644.000000
 20
232.500000
 42
0.000000
  0
VERTEX
  8
0
 10
644.000000
 20
236.000000
 42
0.000000
  0
VERTEX
  8
0
 10
632.500000
 20
236.000000
 42
0.000000
  0
VERTEX
  8
0
 10
621.000000
 20
236.000000
 42
0.000000
  0
SEQEND
  0
POLYLINE
  8
0
 66
1
 70
1
  0
VERTEX
  8
0
 10
312.200000
 20
223.800000
 42
0.177737
  0
VERTEX
  8
0
 10
311.239011
 20
221.724348
 42
0.020452
  0
VERTEX
  8
0
 10
311.025227
 20
216.500000
 42
0.020452
  0
VERTEX
  8
0
 10
311.239011
 20
211.275652
 42
0.177737
  0
VERTEX
  8
0
 10
312.200000
 20
209.200000
 42
0.118024
  0
VERTEX
  8
0
 10
312.956368
 20
208.735813
 42
0.027871
  0
VERTEX
  8
0
 10
314.398750
 20
208.352500
 42
0.027171
  0
VERTEX
  8
0
 10
316.150995
 20
208.088229
 42
0.023845
  0
VERTEX
  8
0
 10
318.000000
 20
208.000000
 42
0.023845
  0
VERTEX
  8
0
 10
319.849005
 20
208.088229
 42
0.027171
  0
VERTEX
  8
0
 10
321.601250
 20
208.352500
 42
0.027871
  0
VERTEX
  8
0
 10
323.043632
 20
208.735813
 42
0.118024
  0
VERTEX
  8
0
 10
323.800000
 20
209.200000
 42
0.133817
  0
VERTEX
  8
0
 10
324.272322
 20
210.026181
 42
0.022595
  0
VERTEX
  8
0
 10
324.651639
 20
211.822473
 42
0.023035
  0
VERTEX
  8
0
 10
324.913267
 20
214.051002
 42
0.017702
  0
VERTEX
  8
0
 10
325.000000
 20
216.500000
 42
0.017702
  0
VERTEX
  8
0
 10
324.913267
 20
218.948998
 42
0.023035
  0
VERTEX
  8
0
 10
324.651639
 20
221.177527
 42
0.022595
  0
VERTEX
  8
0
 10
324.272322
 20
222.973819
 42
0.133817
  0
VERTEX
  8
0
 10
323.800000
 20
223.800000
 42
0.118024
  0
VERTEX
  8
0
 10
323.043632
 20
224.264187
 42
0.027871
  0
VERTEX
  8
0
 10
321.601250
 20
224.647500
 42
0.027171
  0
VERTEX
  8
0
 10
319.849005
 20
224.911771
 42
0.023845
  0
VERTEX
  8
0
 10
318.000000
 20
225.000000
 42
0.023845
  0
VERTEX
  8
0
 10
316.150995
 20
224.911771
 42
0.027171
  0
VERTEX
  8
0
 10
314.398750
 20
224.647500
 42
0.027871
  0
VERTEX
  8
0
 10
312.956368
 20
224.264187
 42
0.118024
  0
SEQEND
  0
POLYLINE
  8
0
 66
1
 70
1
  0
VERTEX
  8
0
 10
334.200000
 20
223.800000
 42
0.177737
  0
VERTEX
  8
0
 10
333.239011
 20
221.724348
 42
0.020452
  0
VERTEX
  8
0
 10
333.025227
 20
216.500000
 42
0.020452
  0
VERTEX
  8
0
 10
333.239011
 20
211.275652
 42
0.177737
  0
VERTEX
  8
0
 10
334.200000
 20
209.200000
 42
0.118024
  0
VERTEX
  8
0
 10
334.956368
 20
208.735813
 42
0.027871
  0
VERTEX
  8
0
 10
336.398750
 20
208.352500
 42
0.027171
  0
VERTEX
  8
0
 10
338.150995
 20
208.088229
 42
0.023845
  0
VERTEX
  8
0
 10
340.000000
 20
208.000000
 42
0.023845
  0
VERTEX
  8
0
 10
341.849005
 20
208.088229
 42
0.027171
  0
VERTEX
  8
0
 10
343.601250
 20
208.352500
 42
0.027871
  0
VERTEX
  8
0
 10
345.043632
 20
208.735813
 42
0.118024
  0
VERTEX
  8
0
 10
345.800000
 20
209.200000
 42
0.133817
  0
VERTEX
  8
0
 10
346.272322
 20
210.026181
 42
0.022595
  0
VERTEX
  8
0
 10
346.651639
 20
211.822473
 42
0.023035
  0
VERTEX
  8
0
 10
346.913267
 20
214.051002
 42
0.017702
  0
VERTEX
  8
0
 10
347.000000
 20
216.500000
 42
0.017702
  0
VERTEX
  8
0
 10
346.913267
 20
218.948998
 42
0.023035
  0
VERTEX
  8
0
 10
346.651639
 20
221.177527
 42
0.022595
  0
VERTEX
  8
0
 10
346.272322
 20
222.973819
 42
0.133817
  0
VERTEX
  8
0
 10
345.800000
 20
223.800000
 42
0.118024
  0
VERTEX
  8
0
 10
345.043632
 20
224.264187
 42
0.027871
  0
VERTEX
  8
0
 10
343.601250
 20
224.647500
 42
0.027171
  0
VERTEX
  8
0
 10
341.849005
 20
224.911771
 42
0.023845
  0
VERTEX
  8
0
 10
340.000000
 20
225.000000
 42
0.023845
  0
VERTEX
  8
0
 10
338.150995
 20
224.911771
 42
0.027171
  0
VERTEX
  8
0
 10
336.398750
 20
224.647500
 42
0.027871
  0
VERTEX
  8
0
 10
334.956368
 20
224.264187
 42
0.118024
  0
SEQEND
  0
POLYLINE
  8
0
 66
1
 70
1
  0
VERTEX
  8
0
 10
406.000000
 20
217.500000
 42
0.000000
  0
VERTEX
  8
0
 10
406.000000
 20
214.000000
 42
0.000000
  0
VERTEX
  8
0
 10
418.000000
 20
214.000000
 42
0.000000
  0
VERTEX
  8
0
 10
430.000000
 20
214.000000
 42
0.000000
  0
VERTEX
  8
0
 10
430.000000
 20
217.500000
 42
0.000000
  0
VERTEX
  8
0
 10
430.000000
 20
221.000000
 42
0.000000
  0
VERTEX
  8
0
 10
418.000000
 20
221.000000
 42
0.000000
  0
VERTEX
  8
0
 10
406.000000
 20
221.000000
 42
0.000000
  0
SEQEND
  0
POLYLINE
  8
0
 66
1
 70
1
  0
VERTEX
  8
0
 10
472.000000
 20
217.500000
 42
0.000000
  0
VERTEX
  8
0
 10
472.000000
 20
214.000000
 42
0.000000
  0
VERTEX
  8
0
 10
484.000000
 20
214.000000
 42
0.000000
  0
VERTEX
  8
0
 10
496.000000
 20
214.000000
 42
0.000000
  0
VERTEX
  8
0
 10
496.000000
 20
217.500000
 42
0.000000
  0
VERTEX
  8
0
 10
496.000000
 20
221.000000
 42
0.000000
  0
VERTEX
  8
0
 10
484.000000
 20
221.000000
 42
0.000000
  0
VERTEX
  8
0
 10
472.000000
 20
221.000000
 42
0.000000
  0
SEQEND
  0
POLYLINE
  8
0
 66
1
 70
1
  0
VERTEX
  8
0
 10
555.000000
 20
217.500000
 42
0.000000
  0
VERTEX
  8
0
 10
555.000000
 20
214.000000
 42
0.000000
  0
VERTEX
  8
0
 10
566.500000
 20
214.000000
 42
0.000000
  0
VERTEX
  8
0
 10
578.000000
 20
214.000000
 42
0.000000
  0
VERTEX
  8
0
 10
578.000000
 20
217.500000
 42
0.000000
  0
VERTEX
  8
0
 10
578.000000
 20
221.000000
 42
0.000000
  0
VERTEX
  8
0
 10
566.500000
 20
221.000000
 42
0.000000
  0
VERTEX
  8
0
 10
555.000000
 20
221.000000
 42
0.000000
  0
SEQEND
  0
POLYLINE
  8
0
 66
1
 70
1
  0
VERTEX
  8
0
 10
621.000000
 20
217.500000
 42
0.000000
  0
VERTEX
  8
0
 10
621.000000
 20
214.000000
 42
0.000000
  0
VERTEX
  8
0
 10
632.500000
 20
214.000000
 42
0.000000
  0
VERTEX
  8
0
 10
644.000000
 20
214.000000
 42
0.000000
  0
VERTEX
  8
0
 10
644.000000
 20
217.500000
 42
0.000000
  0
VERTEX
  8
0
 10
644.000000
 20
221.000000
 42
0.000000
  0
VERTEX
  8
0
 10
632.500000
 20
221.000000
 42
0.000000
  0
VERTEX
  8
0
 10
621.000000
 20
221.000000
 42
0.000000
  0
SEQEND
  0
POLYLINE
  8
0
 66
1
 70
1
  0
VERTEX
  8
0
 10
692.109918
 20
213.632443
 42
0.115721
  0
VERTEX
  8
0
 10
691.618904
 20
212.647116
 42
0.028930
  0
VERTEX
  8
0
 10
691.305458
 20
210.864396
 42
0.025460
  0
VERTEX
  8
0
 10
691.155116
 20
208.565055
 42
0.015422
  0
VERTEX
  8
0
 10
691.200016
 20
205.837310
 42
0.000000
  0
VERTEX
  8
0
 10
691.500000
 20
199.500000
 42
0.000000
  0
VERTEX
  8
0
 10
698.000000
 20
199.500000
 42
0.000000
  0
VERTEX
  8
0
 10
704.500000
 20
199.500000
 42
0.000000
  0
VERTEX
  8
0
 10
704.500000
 20
207.000000
 42
0.000000
  0
VERTEX
  8
0
 10
704.500000
 20
214.500000
 42
0.000000
  0
VERTEX
  8
0
 10
698.909902
 20
214.795133
 42
0.015652
  0
VERTEX
  8
0
 10
696.258794
 20
214.851994
 42
0.039894
  0
VERTEX
  8
0
 10
694.344855
 20
214.680041
 42
0.057435
  0
VERTEX
  8
0
 10
692.987449
 20
214.283695
 42
0.120386
  0
SEQEND
  0
POLYLINE
  8
0
 66
1
 70
1
  0
VERTEX
  8
0
 10
714.242663
 20
213.842663
 42
0.171740
  0
VERTEX
  8
0
 10
713.359320
 20
211.991537
 42
0.019227
  0
VERTEX
  8
0
 10
713.043792
 20
207.262554
 42
0.021189
  0
VERTEX
  8
0
 10
713.111130
 20
202.520026
 42
0.127854
  0
VERTEX
  8
0
 10
713.858072
 20
200.195404
 42
0.165508
  0
VERTEX
  8
0
 10
714.567094
 20
199.624938
 42
0.050563
  0
VERTEX
  8
0
 10
715.919737
 20
199.281788
 42
0.035668
  0
VERTEX
  8
0
 10
717.882953
 20
199.132093
 42
0.014080
  0
VERTEX
  8
0
 10
720.592759
 20
199.195404
 42
0.000000
  0
VERTEX
  8
0
 10
726.500000
 20
199.500000
 42
0.000000
  0
VERTEX
  8
0
 10
726.500000
 20
207.000000
 42
0.000000
  0
VERTEX
  8
0
 10
726.500000
 20
214.500000
 42
0.000000
  0
VERTEX
  8
0
 10
720.992663
 20
214.792663
 42
0.017980
  0
VERTEX
  8
0
 10
718.614044
 20
214.833423
 42
0.030259
  0
VERTEX
  8
0
 10
716.624356
 20
214.675264
 42
0.035647
  0
VERTEX
  8
0
 10
715.097777
 20
214.348150
 42
0.126429
  0
SEQEND
  0
POLYLINE
  8
0
 66
1
 70
1
  0
VERTEX
  8
0
 10
406.000000
 20
202.500000
 42
0.000000
  0
VERTEX
  8
0
 10
406.000000
 20
199.000000
 42
0.000000
  0
VERTEX
  8
0
 10
418.000000
 20
199.000000
 42
0.000000
  0
VERTEX
  8
0
 10
430.000000
 20
199.000000
 42
0.000000
  0
VERTEX
  8
0
 10
430.000000
 20
202.500000
 42
0.000000
  0
VERTEX
  8
0
 10
430.000000
 20
206.000000
 42
0.000000
  0
VERTEX
  8
0
 10
418.000000
 20
206.000000
 42
0.000000
  0
VERTEX
  8
0
 10
406.000000
 20
206.000000
 42
0.000000
  0
SEQEND
  0
POLYLINE
  8
0
 66
1
 70
1
  0
VERTEX
  8
0
 10
472.000000
 20
202.500000
 42
0.000000
  0
VERTEX
  8
0
 10
472.000000
 20
199.000000
 42
0.000000
  0
VERTEX
  8
0
 10
484.000000
 20
199.000000
 42
0.000000
  0
VERTEX
  8
0
 10
496.000000
 20
199.000000
 42
0.000000
  0
VERTEX
  8
0
 10
496.000000
 20
202.500000
 42
0.000000
  0
VERTEX
  8
0
 10
496.000000
 20
206.000000
 42
0.000000
  0
VERTEX
  8
0
 10
484.000000
 20
206.000000
 42
0.000000
  0
VERTEX
  8
0
 10
472.000000
 20
206.000000
 42
0.000000
  0
SEQEND
  0
POLYLINE
  8
0
 66
1
 70
1
  0
VERTEX
  8
0
 10
555.000000
 20
202.500000
 42
0.000000
  0
VERTEX
  8
0
 10
555.000000
 20
199.000000
 42
0.000000
  0
VERTEX
  8
0
 10
566.500000
 20
199.000000
 42
0.000000
  0
VERTEX
  8
0
 10
578.000000
 20
199.000000
 42
0.000000
  0
VERTEX
  8
0
 10
578.000000
 20
202.500000
 42
0.000000
  0
VERTEX
  8
0
 10
578.000000
 20
206.000000
 42
0.000000
  0
VERTEX
  8
0
 10
566.500000
 20
206.000000
 42
0.000000
  0
VERTEX
  8
0
 10
555.000000
 20
206.000000
 42
0.000000
  0
SEQEND
  0
POLYLINE
  8
0
 66
1
 70
1
  0
VERTEX
  8
0
 10
621.000000
 20
202.500000
 42
0.000000
  0
VERTEX
  8
0
 10
621.000000
 20
199.000000
 42
0.000000
  0
VERTEX
  8
0
 10
632.500000
 20
199.000000
 42
0.000000
  0
VERTEX
  8
0
 10
644.000000
 20
199.000000
 42
0.000000
  0
VERTEX
  8
0
 10
644.000000
 20
202.500000
 42
0.000000
  0
VERTEX
  8
0
 10
644.000000
 20
206.000000
 42
0.000000
  0
VERTEX
  8
0
 10
632.500000
 20
206.000000
 42
0.000000
  0
VERTEX
  8
0
 10
621.000000
 20
206.000000
 42
0.000000
  0
SEQEND
  0
POLYLINE
  8
0
 66
1
 70
1
  0
VERTEX
  8
0
 10
311.417143
 20
194.644673
 42
0.075851
  0
VERTEX
  8
0
 10
311.229058
 20
193.783366
 42
0.008846
  0
VERTEX
  8
0
 10
311.138388
 20
191.809038
 42
0.010456
  0
VERTEX
  8
0
 10
311.121137
 20
189.442504
 42
0.008372
  0
VERTEX
  8
0
 10
311.198527
 20
186.894673
 42
0.000000
  0
VERTEX
  8
0
 10
311.500000
 20
180.500000
 42
0.000000
  0
VERTEX
  8
0
 10
317.407241
 20
180.195404
 42
0.014080
  0
VERTEX
  8
0
 10
320.117047
 20
180.132093
 42
0.035668
  0
VERTEX
  8
0
 10
322.080263
 20
180.281788
 42
0.050563
  0
VERTEX
  8
0
 10
323.432906
 20
180.624938
 42
0.165508
  0
VERTEX
  8
0
 10
324.141928
 20
181.195404
 42
0.123378
  0
VERTEX
  8
0
 10
324.753987
 20
183.044133
 42
0.013804
  0
VERTEX
  8
0
 10
324.962047
 20
187.506467
 42
0.016076
  0
VERTEX
  8
0
 10
324.903229
 20
191.974845
 42
0.080447
  0
VERTEX
  8
0
 10
324.393011
 20
194.418213
 42
0.272466
  0
VERTEX
  8
0
 10
322.773502
 20
195.707539
 42
0.030736
  0
VERTEX
  8
0
 10
317.901064
 20
196.092786
 42
0.030630
  0
VERTEX
  8
0
 10
313.025215
 20
195.879132
 42
0.281975
  0
SEQEND
  0
POLYLINE
  8
0
 66
1
 70
1
  0
VERTEX
  8
0
 10
333.435582
 20
194.692726
 42
0.074949
  0
VERTEX
  8
0
 10
333.240697
 20
193.807889
 42
0.009195
  0
VERTEX
  8
0
 10
333.143805
 20
191.823154
 42
0.010715
  0
VERTEX
  8
0
 10
333.122504
 20
189.445989
 42
0.008660
  0
VERTEX
  8
0
 10
333.198527
 20
186.894673
 42
0.000000
  0
VERTEX
  8
0
 10
333.500000
 20
180.500000
 42
0.000000
  0
VERTEX
  8
0
 10
340.000000
 20
180.500000
 42
0.000000
  0
VERTEX
  8
0
 10
346.500000
 20
180.500000
 42
0.000000
  0
VERTEX
  8
0
 10
346.500000
 20
188.000000
 42
0.000000
  0
VERTEX
  8
0
 10
346.500000
 20
195.500000
 42
0.000000
  0
VERTEX
  8
0
 10
340.237055
 20
195.798053
 42
0.011286
  0
VERTEX
  8
0
 10
337.177558
 20
195.874505
 42
0.040902
  0
VERTEX
  8
0
 10
335.238434
 20
195.720319
 42
0.071700
  0
VERTEX
  8
0
 10
334.034546
 20
195.342287
 42
0.191536
  0
SEQEND
  0
POLYLINE
  8
0
 66
1
 70
1
  0
VERTEX
  8
0
 10
406.000000
 20
187.500000
 42
0.000000
  0
VERTEX
  8
0
 10
406.000000
 20
184.000000
 42
0.000000
  0
VERTEX
  8
0
 10
418.000000
 20
184.000000
 42
0.000000
  0
VERTEX
  8
0
 10
430.000000
 20
184.000000
 42
0.000000
  0
VERTEX
  8
0
 10
430.000000
 20
187.500000
 42
0.000000
  0
VERTEX
  8
0
 10
430.000000
 20
191.000000
 42
0.000000
  0
VERTEX
  8
0
 10
418.000000
 20
191.000000
 42
0.000000
  0
VERTEX
  8
0
 10
406.000000
 20
191.000000
 42
0.000000
  0
SEQEND
  0
POLYLINE
  8
0
 66
1
 70
1
  0
VERTEX
  8
0
 10
472.000000
 20
187.500000
 42
0.000000
  0
VERTEX
  8
0
 10
472.000000
 20
184.000000
 42
0.000000
  0
VERTEX
  8
0
 10
484.000000
 20
184.000000
 42
0.000000
  0
VERTEX
  8
0
 10
496.000000
 20
184.000000
 42
0.000000
  0
VERTEX
  8
0
 10
496.000000
 20
187.500000
 42
0.000000
  0
VERTEX
  8
0
 10
496.000000
 20
191.000000
 42
0.000000
  0
VERTEX
  8
0
 10
484.000000
 20
191.000000
 42
0.000000
  0
VERTEX
  8
0
 10
472.000000
 20
191.000000
 42
0.000000
  0
SEQEND
  0
POLYLINE
  8
0
 66
1
 70
1
  0
VERTEX
  8
0
 10
555.000000
 20
187.500000
 42
0.000000
  0
VERTEX
  8
0
 10
555.000000
 20
184.000000
 42
0.000000
  0
VERTEX
  8
0
 10
566.500000
 20
184.000000
 42
0.000000
  0
VERTEX
  8
0
 10
578.000000
 20
184.000000
 42
0.000000
  0
VERTEX
  8
0
 10
578.000000
 20
187.500000
 42
0.000000
  0
VERTEX
  8
0
 10
578.000000
 20
191.000000
 42
0.000000
  0
VERTEX
  8
0
 10
566.500000
 20
191.000000
 42
0.000000
  0
VERTEX
  8
0
 10
555.000000
 20
191.000000
 42
0.000000
  0
SEQEND
  0
POLYLINE
  8
0
 66
1
 70
1
  0
VERTEX
  8
0
 10
621.000000
 20
187.500000
 42
0.000000
  0
VERTEX
  8
0
 10
621.000000
 20
184.000000
 42
0.000000
  0
VERTEX
  8
0
 10
632.500000
 20
184.000000
 42
0.000000
  0
VERTEX
  8
0
 10
644.000000
 20
184.000000
 42
0.000000
  0
VERTEX
  8
0
 10
644.000000
 20
187.500000
 42
0.000000
  0
VERTEX
  8
0
 10
644.000000
 20
191.000000
 42
0.000000
  0
VERTEX
  8
0
 10
632.500000
 20
191.000000
 42
0.000000
  0
VERTEX
  8
0
 10
621.000000
 20
191.000000
 42
0.000000
  0
SEQEND
  0
POLYLINE
  8
0
 66
1
 70
1
  0
VERTEX
  8
0
 10
406.000000
 20
172.500000
 42
0.000000
  0
VERTEX
  8
0
 10
406.000000
 20
169.000000
 42
0.000000
  0
VERTEX
  8
0
 10
418.000000
 20
169.000000
 42
0.000000
  0
VERTEX
  8
0
 10
430.000000
 20
169.000000
 42
0.000000
  0
VERTEX
  8
0
 10
430.000000
 20
172.500000
 42
0.000000
  0
VERTEX
  8
0
 10
430.000000
 20
176.000000
 42
0.000000
  0
VERTEX
  8
0
 10
418.000000
 20
176.000000
 42
0.000000
  0
VERTEX
  8
0
 10
406.000000
 20
176.000000
 42
0.000000
  0
SEQEND
  0
POLYLINE
  8
0
 66
1
 70
1
  0
VERTEX
  8
0
 10
472.000000
 20
172.500000
 42
0.000000
  0
VERTEX
  8
0
 10
472.000000
 20
169.000000
 42
0.000000
  0
VERTEX
  8
0
 10
484.000000
 20
169.000000
 42
0.000000
  0
VERTEX
  8
0
 10
496.000000
 20
169.000000
 42
0.000000
  0
VERTEX
  8
0
 10
496.000000
 20
172.500000
 42
0.000000
  0
VERTEX
  8
0
 10
496.000000
 20
176.000000
 42
0.000000
  0
VERTEX
  8
0
 10
484.000000
 20
176.000000
 42
0.000000
  0
VERTEX
  8
0
 10
472.000000
 20
176.000000
 42
0.000000
  0
SEQEND
  0
POLYLINE
  8
0
 66
1
 70
1
  0
VERTEX
  8
0
 10
555.000000
 20
172.500000
 42
0.000000
  0
VERTEX
  8
0
 10
555.000000
 20
169.000000
 42
0.000000
  0
VERTEX
  8
0
 10
566.500000
 20
169.000000
 42
0.000000
  0
VERTEX
  8
0
 10
578.000000
 20
169.000000
 42
0.000000
  0
VERTEX
  8
0
 10
578.000000
 20
172.500000
 42
0.000000
  0
VERTEX
  8
0
 10
578.000000
 20
176.000000
 42
0.000000
  0
VERTEX
  8
0
 10
566.500000
 20
176.000000
 42
0.000000
  0
VERTEX
  8
0
 10
555.000000
 20
176.000000
 42
0.000000
  0
SEQEND
  0
POLYLINE
  8
0
 66
1
 70
1
  0
VERTEX
  8
0
 10
621.000000
 20
172.500000
 42
0.000000
  0
VERTEX
  8
0
 10
621.000000
 20
169.000000
 42
0.000000
  0
VERTEX
  8
0
 10
632.500000
 20
169.000000
 42
0.000000
  0
VERTEX
  8
0
 10
644.000000
 20
169.000000
 42
0.000000
  0
VERTEX
  8
0
 10
644.000000
 20
172.500000
 42
0.000000
  0
VERTEX
  8
0
 10
644.000000
 20
176.000000
 42
0.000000
  0
VERTEX
  8
0
 10
632.500000
 20
176.000000
 42
0.000000
  0
VERTEX
  8
0
 10
621.000000
 20
176.000000
 42
0.000000
  0
SEQEND
  0
POLYLINE
  8
0
 66
1
 70
1
  0
VERTEX
  8
0
 10
691.708960
 20
174.375627
 42
0.161098
  0
VERTEX
  8
0
 10
691.429273
 20
173.819452
 42
0.011100
  0
VERTEX
  8
0
 10
691.208257
 20
172.050475
 42
0.014914
  0
VERTEX
  8
0
 10
691.051599
 20
169.886631
 42
0.010612
  0
VERTEX
  8
0
 10
691.000000
 20
167.455778
 42
0.029923
  0
VERTEX
  8
0
 10
691.289818
 20
162.617453
 42
0.166550
  0
VERTEX
  8
0
 10
692.404420
 20
160.308444
 42
0.178508
  0
VERTEX
  8
0
 10
694.652335
 20
159.256464
 42
0.035408
  0
VERTEX
  8
0
 10
699.168824
 20
159.194925
 42
0.000000
  0
VERTEX
  8
0
 10
704.500000
 20
159.500000
 42
0.000000
  0
VERTEX
  8
0
 10
704.500000
 20
167.000000
 42
0.000000
  0
VERTEX
  8
0
 10
704.500000
 20
174.500000
 42
0.000000
  0
VERTEX
  8
0
 10
698.458960
 20
174.792294
 42
0.011417
  0
VERTEX
  8
0
 10
696.093168
 20
174.852668
 42
0.016084
  0
VERTEX
  8
0
 10
693.984219
 20
174.790469
 42
0.012254
  0
VERTEX
  8
0
 10
692.262730
 20
174.641784
 42
0.170302
  0
SEQEND
  0
POLYLINE
  8
0
 66
1
 70
1
  0
VERTEX
  8
0
 10
713.624064
 20
173.462710
 42
0.079620
  0
VERTEX
  8
0
 10
712.997109
 20
170.484756
 42
0.026971
  0
VERTEX
  8
0
 10
713.020796
 20
166.042897
 42
0.022448
  0
VERTEX
  8
0
 10
713.469473
 20
161.750510
 42
0.184304
  0
VERTEX
  8
0
 10
714.418824
 20
160.067370
 42
0.113567
  0
VERTEX
  8
0
 10
715.315998
 20
159.615513
 42
0.027972
  0
VERTEX
  8
0
 10
716.948671
 20
159.310875
 42
0.026293
  0
VERTEX
  8
0
 10
718.961775
 20
159.157655
 42
0.020141
  0
VERTEX
  8
0
 10
721.168824
 20
159.194925
 42
0.000000
  0
VERTEX
  8
0
 10
726.500000
 20
159.500000
 42
0.000000
  0
VERTEX
  8
0
 10
726.500000
 20
167.000000
 42
0.000000
  0
VERTEX
  8
0
 10
726.500000
 20
174.500000
 42
0.000000
  0
VERTEX
  8
0
 10
720.374064
 20
174.794497
 42
0.010644
  0
VERTEX
  8
0
 10
717.172519
 20
174.880156
 42
0.050107
  0
VERTEX
  8
0
 10
715.343723
 20
174.706506
 42
0.099742
  0
VERTEX
  8
0
 10
714.253985
 20
174.253939
 42
0.154189
  0
SEQEND
  0
POLYLINE
  8
0
 66
1
 70
1
  0
VERTEX
  8
0
 10
312.200000
 20
164.800000
 42
0.137047
  0
VERTEX
  8
0
 10
311.715212
 20
163.939389
 42
0.022436
  0
VERTEX
  8
0
 10
311.339646
 20
162.045268
 42
0.022386
  0
VERTEX
  8
0
 10
311.084029
 20
159.645429
 42
0.015339
  0
VERTEX
  8
0
 10
311.000000
 20
156.906989
 42
0.010464
  0
VERTEX
  8
0
 10
311.070810
 20
153.524022
 42
0.042908
  0
VERTEX
  8
0
 10
311.331756
 20
151.490429
 42
0.079591
  0
VERTEX
  8
0
 10
311.812575
 20
150.258926
 42
0.169936
  0
VERTEX
  8
0
 10
312.581787
 20
149.606989
 42
0.076276
  0
VERTEX
  8
0
 10
315.109360
 20
149.057280
 42
0.028684
  0
VERTEX
  8
0
 10
318.741418
 20
149.040790
 42
0.025246
  0
VERTEX
  8
0
 10
322.227797
 20
149.402194
 42
0.159232
  0
VERTEX
  8
0
 10
323.800000
 20
150.200000
 42
0.134733
  0
VERTEX
  8
0
 10
324.276001
 20
151.036109
 42
0.022579
  0
VERTEX
  8
0
 10
324.654227
 20
152.859397
 42
0.022868
  0
VERTEX
  8
0
 10
324.914054
 20
155.135500
 42
0.016985
  0
VERTEX
  8
0
 10
325.000000
 20
157.664816
 42
0.011337
  0
VERTEX
  8
0
 10
324.923736
 20
161.027880
 42
0.053468
  0
VERTEX
  8
0
 10
324.631503
 20
162.933332
 42
0.098221
  0
VERTEX
  8
0
 10
324.046994
 20
164.128585
 42
0.107601
  0
VERTEX
  8
0
 10
323.065741
 20
164.964816
 42
0.089000
  0
VERTEX
  8
0
 10
320.630708
 20
165.755213
 42
0.037893
  0
VERTEX
  8
0
 10
317.196912
 20
165.963495
 42
0.036114
  0
VERTEX
  8
0
 10
313.913870
 20
165.675941
 42
0.157748
  0
SEQEND
  0
POLYLINE
  8
0
 66
1
 70
1
  0
VERTEX
  8
0
 10
334.200000
 20
164.800000
 42
0.177737
  0
VERTEX
  8
0
 10
333.239011
 20
162.724348
 42
0.020452
  0
VERTEX
  8
0
 10
333.025227
 20
157.500000
 42
0.020452
  0
VERTEX
  8
0
 10
333.239011
 20
152.275652
 42
0.177737
  0
VERTEX
  8
0
 10
334.200000
 20
150.200000
 42
0.118024
  0
VERTEX
  8
0
 10
334.956368
 20
149.735813
 42
0.027871
  0
VERTEX
  8
0
 10
336.398750
 20
149.352500
 42
0.027171
  0
VERTEX
  8
0
 10
338.150995
 20
149.088229
 42
0.023845
  0
VERTEX
  8
0
 10
340.000000
 20
149.000000
 42
0.023845
  0
VERTEX
  8
0
 10
341.849005
 20
149.088229
 42
0.027171
  0
VERTEX
  8
0
 10
343.601250
 20
149.352500
 42
0.027871
  0
VERTEX
  8
0
 10
345.043632
 20
149.735813
 42
0.118024
  0
VERTEX
  8
0
 10
345.800000
 20
150.200000
 42
0.134733
  0
VERTEX
  8
0
 10
346.276001
 20
151.036109
 42
0.022579
  0
VERTEX
  8
0
 10
346.654227
 20
152.859397
 42
0.022868
  0
VERTEX
  8
0
 10
346.914054
 20
155.135500
 42
0.016985
  0
VERTEX
  8
0
 10
347.000000
 20
157.664816
 42
0.011337
  0
VERTEX
  8
0
 10
346.923736
 20
161.027880
 42
0.053468
  0
VERTEX
  8
0
 10
346.631503
 20
162.933332
 42
0.098221
  0
VERTEX
  8
0
 10
346.046994
 20
164.128585
 42
0.107601
  0
VERTEX
  8
0
 10
345.065741
 20
164.964816
 42
0.089000
  0
VERTEX
  8
0
 10
342.630708
 20
165.755213
 42
0.037893
  0
VERTEX
  8
0
 10
339.196912
 20
165.963495
 42
0.036114
  0
VERTEX
  8
0
 10
335.913870
 20
165.675941
 42
0.157748
  0
SEQEND
  0
POLYLINE
  8
0
 66
1
 70
1
  0
VERTEX
  8
0
 10
406.000000
 20
157.500000
 42
0.000000
  0
VERTEX
  8
0
 10
406.000000
 20
154.000000
 42
0.000000
  0
VERTEX
  8
0
 10
418.000000
 20
154.000000
 42
0.000000
  0
VERTEX
  8
0
 10
430.000000
 20
154.000000
 42
0.000000
  0
VERTEX
  8
0
 10
430.000000
 20
157.500000
 42
0.000000
  0
VERTEX
  8
0
 10
430.000000
 20
161.000000
 42
0.000000
  0
VERTEX
  8
0
 10
418.000000
 20
161.000000
 42
0.000000
  0
VERTEX
  8
0
 10
406.000000
 20
161.000000
 42
0.000000
  0
SEQEND
  0
POLYLINE
  8
0
 66
1
 70
1
  0
VERTEX
  8
0
 10
472.000000
 20
157.500000
 42
0.000000
  0
VERTEX
  8
0
 10
472.000000
 20
154.000000
 42
0.000000
  0
VERTEX
  8
0
 10
484.000000
 20
154.000000
 42
0.000000
  0
VERTEX
  8
0
 10
496.000000
 20
154.000000
 42
0.000000
  0
VERTEX
  8
0
 10
496.000000
 20
157.500000
 42
0.000000
  0
VERTEX
  8
0
 10
496.000000
 20
161.000000
 42
0.000000
  0
VERTEX
  8
0
 10
484.000000
 20
161.000000
 42
0.000000
  0
VERTEX
  8
0
 10
472.000000
 20
161.000000
 42
0.000000
  0
SEQEND
  0
POLYLINE
  8
0
 66
1
 70
1
  0
VERTEX
  8
0
 10
555.000000
 20
157.500000
 42
0.000000
  0
VERTEX
  8
0
 10
555.000000
 20
154.000000
 42
0.000000
  0
VERTEX
  8
0
 10
566.500000
 20
154.000000
 42
0.000000
  0
VERTEX
  8
0
 10
578.000000
 20
154.000000
 42
0.000000
  0
VERTEX
  8
0
 10
578.000000
 20
157.500000
 42
0.000000
  0
VERTEX
  8
0
 10
578.000000
 20
161.000000
 42
0.000000
  0
VERTEX
  8
0
 10
566.500000
 20
161.000000
 42
0.000000
  0
VERTEX
  8
0
 10
555.000000
 20
161.000000
 42
0.000000
  0
SEQEND
  0
POLYLINE
  8
0
 66
1
 70
1
  0
VERTEX
  8
0
 10
621.000000
 20
157.500000
 42
0.000000
  0
VERTEX
  8
0
 10
621.000000
 20
154.000000
 42
0.000000
  0
VERTEX
  8
0
 10
632.500000
 20
154.000000
 42
0.000000
  0
VERTEX
  8
0
 10
644.000000
 20
154.000000
 42
0.000000
  0
VERTEX
  8
0
 10
644.000000
 20
157.500000
 42
0.000000
  0
VERTEX
  8
0
 10
644.000000
 20
161.000000
 42
0.000000
  0
VERTEX
  8
0
 10
632.500000
 20
161.000000
 42
0.000000
  0
VERTEX
  8
0
 10
621.000000
 20
161.000000
 42
0.000000
  0
SEQEND
  0
POLYLINE
  8
0
 66
1
 70
1
  0
VERTEX
  8
0
 10
406.000000
 20
142.500000
 42
0.000000
  0
VERTEX
  8
0
 10
406.000000
 20
139.000000
 42
0.000000
  0
VERTEX
  8
0
 10
418.000000
 20
139.000000
 42
0.000000
  0
VERTEX
  8
0
 10
430.000000
 20
139.000000
 42
0.000000
  0
VERTEX
  8
0
 10
430.000000
 20
142.500000
 42
0.000000
  0
VERTEX
  8
0
 10
430.000000
 20
146.000000
 42
0.000000
  0
VERTEX
  8
0
 10
418.000000
 20
146.000000
 42
0.000000
  0
VERTEX
  8
0
 10
406.000000
 20
146.000000
 42
0.000000
  0
SEQEND
  0
POLYLINE
  8
0
 66
1
 70
1
  0
VERTEX
  8
0
 10
472.000000
 20
142.500000
 42
0.000000
  0
VERTEX
  8
0
 10
472.000000
 20
139.000000
 42
0.000000
  0
VERTEX
  8
0
 10
484.000000
 20
139.000000
 42
0.000000
  0
VERTEX
  8
0
 10
496.000000
 20
139.000000
 42
0.000000
  0
VERTEX
  8
0
 10
496.000000
 20
142.500000
 42
0.000000
  0
VERTEX
  8
0
 10
496.000000
 20
146.000000
 42
0.000000
  0
VERTEX
  8
0
 10
484.000000
 20
146.000000
 42
0.000000
  0
VERTEX
  8
0
 10
472.000000
 20
146.000000
 42
0.000000
  0
SEQEND
  0
POLYLINE
  8
0
 66
1
 70
1
  0
VERTEX
  8
0
 10
555.000000
 20
142.500000
 42
0.000000
  0
VERTEX
  8
0
 10
555.000000
 20
139.000000
 42
0.000000
  0
VERTEX
  8
0
 10
566.500000
 20
139.000000
 42
0.000000
  0
VERTEX
  8
0
 10
578.000000
 20
139.000000
 42
0.000000
  0
VERTEX
  8
0
 10
578.000000
 20
142.500000
 42
0.000000
  0
VERTEX
  8
0
 10
578.000000
 20
146.000000
 42
0.000000
  0
VERTEX
  8
0
 10
566.500000
 20
146.000000
 42
0.000000
  0
VERTEX
  8
0
 10
555.000000
 20
146.000000
 42
0.000000
  0
SEQEND
  0
POLYLINE
  8
0
 66
1
 70
1
  0
VERTEX
  8
0
 10
621.000000
 20
142.500000
 42
0.000000
  0
VERTEX
  8
0
 10
621.000000
 20
139.000000
 42
0.000000
  0
VERTEX
  8
0
 10
632.500000
 20
139.000000
 42
0.000000
  0
VERTEX
  8
0
 10
644.000000
 20
139.000000
 42
0.000000
  0
VERTEX
  8
0
 10
644.000000
 20
142.500000
 42
0.000000
  0
VERTEX
  8
0
 10
644.000000
 20
146.000000
 42
0.000000
  0
VERTEX
  8
0
 10
632.500000
 20
146.000000
 42
0.000000
  0
VERTEX
  8
0
 10
621.000000
 20
146.000000
 42
0.000000
  0
SEQEND
  0
POLYLINE
  8
0
 66
1
 70
1
  0
VERTEX
  8
0
 10
692.109918
 20
135.632443
 42
0.115721
  0
VERTEX
  8
0
 10
691.618904
 20
134.647116
 42
0.028930
  0
VERTEX
  8
0
 10
691.305458
 20
132.864396
 42
0.025460
  0
VERTEX
  8
0
 10
691.155116
 20
130.565055
 42
0.015422
  0
VERTEX
  8
0
 10
691.200016
 20
127.837310
 42
0.000000
  0
VERTEX
  8
0
 10
691.500000
 20
121.500000
 42
0.000000
  0
VERTEX
  8
0
 10
698.000000
 20
121.500000
 42
0.000000
  0
VERTEX
  8
0
 10
704.500000
 20
121.500000
 42
0.000000
  0
VERTEX
  8
0
 10
704.500000
 20
129.000000
 42
0.000000
  0
VERTEX
  8
0
 10
704.500000
 20
136.500000
 42
0.000000
  0
VERTEX
  8
0
 10
698.909902
 20
136.795133
 42
0.015652
  0
VERTEX
  8
0
 10
696.258794
 20
136.851994
 42
0.039894
  0
VERTEX
  8
0
 10
694.344855
 20
136.680041
 42
0.057435
  0
VERTEX
  8
0
 10
692.987449
 20
136.283695
 42
0.120386
  0
SEQEND
  0
POLYLINE
  8
0
 66
1
 70
1
  0
VERTEX
  8
0
 10
714.242663
 20
135.842663
 42
0.171740
  0
VERTEX
  8
0
 10
713.359320
 20
133.991537
 42
0.019227
  0
VERTEX
  8
0
 10
713.043792
 20
129.262554
 42
0.021189
  0
VERTEX
  8
0
 10
713.111130
 20
124.520026
 42
0.127854
  0
VERTEX
  8
0
 10
713.858072
 20
122.195404
 42
0.165508
  0
VERTEX
  8
0
 10
714.567094
 20
121.624938
 42
0.050563
  0
VERTEX
  8
0
 10
715.919737
 20
121.281788
 42
0.035668
  0
VERTEX
  8
0
 10
717.882953
 20
121.132093
 42
0.014080
  0
VERTEX
  8
0
 10
720.592759
 20
121.195404
 42
0.000000
  0
VERTEX
  8
0
 10
726.500000
 20
121.500000
 42
0.000000
  0
VERTEX
  8
0
 10
726.500000
 20
129.000000
 42
0.000000
  0
VERTEX
  8
0
 10
726.500000
 20
136.500000
 42
0.000000
  0
VERTEX
  8
0
 10
720.992663
 20
136.792663
 42
0.017980
  0
VERTEX
  8
0
 10
718.614044
 20
136.833423
 42
0.030259
  0
VERTEX
  8
0
 10
716.624356
 20
136.675264
 42
0.035647
  0
VERTEX
  8
0
 10
715.097777
 20
136.348150
 42
0.126429
  0
SEQEND
  0
POLYLINE
  8
0
 66
1
 70
1
  0
VERTEX
  8
0
 10
501.571429
 20
122.428571
 42
0.153852
  0
VERTEX
  8
0
 10
500.461113
 20
120.296313
 42
0.033778
  0
VERTEX
  8
0
 10
500.013414
 20
116.137907
 42
0.035577
  0
VERTEX
  8
0
 10
500.148724
 20
111.831058
 42
0.097524
  0
VERTEX
  8
0
 10
501.035184
 20
108.934259
 42
0.100804
  0
VERTEX
  8
0
 10
501.830929
 20
107.974668
 42
0.097007
  0
VERTEX
  8
0
 10
502.948967
 20
107.386724
 42
0.058020
  0
VERTEX
  8
0
 10
504.665922
 20
107.083487
 42
0.014726
  0
VERTEX
  8
0
 10
507.500000
 20
107.000000
 42
0.014726
  0
VERTEX
  8
0
 10
510.334078
 20
107.083487
 42
0.058020
  0
VERTEX
  8
0
 10
512.051033
 20
107.386724
 42
0.097007
  0
VERTEX
  8
0
 10
513.169071
 20
107.974668
 42
0.100804
  0
VERTEX
  8
0
 10
513.964816
 20
108.934259
 42
0.097524
  0
VERTEX
  8
0
 10
514.851276
 20
111.831058
 42
0.035577
  0
VERTEX
  8
0
 10
514.986586
 20
116.137907
 42
0.033778
  0
VERTEX
  8
0
 10
514.538887
 20
120.296313
 42
0.153852
  0
VERTEX
  8
0
 10
513.428571
 20
122.428571
 42
0.147660
  0
VERTEX
  8
0
 10
511.202771
 20
123.622074
 42
0.049790
  0
VERTEX
  8
0
 10
507.500000
 20
123.991711
 42
0.049790
  0
VERTEX
  8
0
 10
503.797229
 20
123.622074
 42
0.147660
  0
SEQEND
  0
POLYLINE
  8
0
 66
1
 70
1
  0
VERTEX
  8
0
 10
524.200000
 20
122.800000
 42
0.137047
  0
VERTEX
  8
0
 10
523.715212
 20
121.939389
 42
0.022436
  0
VERTEX
  8
0
 10
523.339646
 20
120.045268
 42
0.022386
  0
VERTEX
  8
0
 10
523.084029
 20
117.645429
 42
0.015339
  0
VERTEX
  8
0
 10
523.000000
 20
114.906989
 42
0.010464
  0
VERTEX
  8
0
 10
523.070810
 20
111.524022
 42
0.042908
  0
VERTEX
  8
0
 10
523.331756
 20
109.490429
 42
0.079591
  0
VERTEX
  8
0
 10
523.812575
 20
108.258926
 42
0.169936
  0
VERTEX
  8
0
 10
524.581787
 20
107.606989
 42
0.076276
  0
VERTEX
  8
0
 10
527.109360
 20
107.057280
 42
0.028684
  0
VERTEX
  8
0
 10
530.741418
 20
107.040790
 42
0.025246
  0
VERTEX
  8
0
 10
534.227797
 20
107.402194
 42
0.159232
  0
VERTEX
  8
0
 10
535.800000
 20
108.200000
 42
0.175395
  0
VERTEX
  8
0
 10
536.851091
 20
110.443471
 42
0.029254
  0
VERTEX
  8
0
 10
537.007745
 20
115.277910
 42
0.029779
  0
VERTEX
  8
0
 10
536.592979
 20
120.109279
 42
0.161436
  0
VERTEX
  8
0
 10
535.428571
 20
122.428571
 42
0.146028
  0
VERTEX
  8
0
 10
533.369032
 20
123.541411
 42
0.043106
  0
VERTEX
  8
0
 10
529.769353
 20
123.972632
 42
0.042742
  0
VERTEX
  8
0
 10
526.179050
 20
123.784457
 42
0.163330
  0
SEQEND
  0
POLYLINE
  8
0
 66
1
 70
1
  0
VERTEX
  8
0
 10
587.200000
 20
122.800000
 42
0.137047
  0
VERTEX
  8
0
 10
586.715212
 20
121.939389
 42
0.022436
  0
VERTEX
  8
0
 10
586.339646
 20
120.045268
 42
0.022386
  0
VERTEX
  8
0
 10
586.084029
 20
117.645429
 42
0.015339
  0
VERTEX
  8
0
 10
586.000000
 20
114.906989
 42
0.010464
  0
VERTEX
  8
0
 10
586.070810
 20
111.524022
 42
0.042908
  0
VERTEX
  8
0
 10
586.331756
 20
109.490429
 42
0.079591
  0
VERTEX
  8
0
 10
586.812575
 20
108.258926
 42
0.169936
  0
VERTEX
  8
0
 10
587.581787
 20
107.606989
 42
0.076276
  0
VERTEX
  8
0
 10
590.109360
 20
107.057280
 42
0.028684
  0
VERTEX
  8
0
 10
593.741418
 20
107.040790
 42
0.025246
  0
VERTEX
  8
0
 10
597.227797
 20
107.402194
 42
0.159232
  0
VERTEX
  8
0
 10
598.800000
 20
108.200000
 42
0.134733
  0
VERTEX
  8
0
 10
599.276001
 20
109.036109
 42
0.022579
  0
VERTEX
  8
0
 10
599.654227
 20
110.859397
 42
0.022868
  0
VERTEX
  8
0
 10
599.914054
 20
113.135500
 42
0.016985
  0
VERTEX
  8
0
 10
600.000000
 20
115.664816
 42
0.011337
  0
VERTEX
  8
0
 10
599.923736
 20
119.027880
 42
0.053468
  0
VERTEX
  8
0
 10
599.631503
 20
120.933332
 42
0.098221
  0
VERTEX
  8
0
 10
599.046994
 20
122.128585
 42
0.107601
  0
VERTEX
  8
0
 10
598.065741
 20
122.964816
 42
0.089000
  0
VERTEX
  8
0
 10
595.630708
 20
123.755213
 42
0.037893
  0
VERTEX
  8
0
 10
592.196912
 20
123.963495
 42
0.036114
  0
VERTEX
  8
0
 10
588.913870
 20
123.675941
 42
0.157748
  0
SEQEND
  0
POLYLINE
  8
0
 66
1
 70
1
  0
VERTEX
  8
0
 10
609.200000
 20
122.800000
 42
0.133817
  0
VERTEX
  8
0
 10
608.727678
 20
121.973819
 42
0.022595
  0
VERTEX
  8
0
 10
608.348361
 20
120.177527
 42
0.023035
  0
VERTEX
  8
0
 10
608.086733
 20
117.948998
 42
0.017702
  0
VERTEX
  8
0
 10
608.000000
 20
115.500000
 42
0.017702
  0
VERTEX
  8
0
 10
608.086733
 20
113.051002
 42
0.023035
  0
VERTEX
  8
0
 10
608.348361
 20
110.822473
 42
0.022595
  0
VERTEX
  8
0
 10
608.727678
 20
109.026181
 42
0.133817
  0
VERTEX
  8
0
 10
609.200000
 20
108.200000
 42
0.118024
  0
VERTEX
  8
0
 10
609.956368
 20
107.735813
 42
0.027871
  0
VERTEX
  8
0
 10
611.398750
 20
107.352500
 42
0.027171
  0
VERTEX
  8
0
 10
613.150995
 20
107.088229
 42
0.023845
  0
VERTEX
  8
0
 10
615.000000
 20
107.000000
 42
0.023845
  0
VERTEX
  8
0
 10
616.849005
 20
107.088229
 42
0.027171
  0
VERTEX
  8
0
 10
618.601250
 20
107.352500
 42
0.027871
  0
VERTEX
  8
0
 10
620.043632
 20
107.735813
 42
0.118024
  0
VERTEX
  8
0
 10
620.800000
 20
108.200000
 42
0.134733
  0
VERTEX
  8
0
 10
621.276001
 20
109.036109
 42
0.022579
  0
VERTEX
  8
0
 10
621.654227
 20
110.859397
 42
0.022868
  0
VERTEX
  8
0
 10
621.914054
 20
113.135500
 42
0.016985
  0
VERTEX
  8
0
 10
622.000000
 20
115.664816
 42
0.011337
  0
VERTEX
  8
0
 10
621.923736
 20
119.027880
 42
0.053468
  0
VERTEX
  8
0
 10
621.631503
 20
120.933332
 42
0.098221
  0
VERTEX
  8
0
 10
621.046994
 20
122.128585
 42
0.107601
  0
VERTEX
  8
0
 10
620.065741
 20
122.964816
 42
0.089000
  0
VERTEX
  8
0
 10
617.630708
 20
123.755213
 42
0.037893
  0
VERTEX
  8
0
 10
614.196912
 20
123.963495
 42
0.036114
  0
VERTEX
  8
0
 10
610.913870
 20
123.675941
 42
0.157748
  0
SEQEND
  0
POLYLINE
  8
0
 66
1
 70
1
  0
VERTEX
  8
0
 10
102.000000
 20
22.277451
 42
0.112689
  0
VERTEX
  8
0
 10
102.126558
 20
21.723049
 42
0.023396
  0
VERTEX
  8
0
 10
102.604934
 20
20.838253
 42
0.023468
  0
VERTEX
  8
0
 10
103.271012
 20
19.842064
 42
0.020258
  0
VERTEX
  8
0
 10
104.059351
 20
18.860784
 42
0.000000
  0
VERTEX
  8
0
 10
106.118701
 20
16.500000
 42
0.000000
  0
VERTEX
  8
0
 10
104.362010
 20
19.500000
 42
0.001586
  0
VERTEX
  8
0
 10
102.792864
 20
22.160328
 42
0.042190
  0
VERTEX
  8
0
 10
102.313984
 20
22.830531
 42
0.566190
  0
VERTEX
  8
0
 10
102.098449
 20
22.794792
 42
0.094303
  0
SEQEND
  0
POLYLINE
  8
0
 66
1
 70
1
  0
VERTEX
  8
0
 10
920.404988
 20
14.750000
 42
0.000000
  0
VERTEX
  8
0
 10
918.500000
 20
12.500000
 42
0.000000
  0
VERTEX
  8
0
 10
920.750000
 20
14.404988
 42
0.010402
  0
VERTEX
  8
0
 10
922.102181
 20
15.598996
 42
0.048385
  0
VERTEX
  8
0
 10
922.795506
 20
16.373826
 42
0.197337
  0
VERTEX
  8
0
 10
922.898791
 20
16.789444
 42
0.372044
  0
VERTEX
  8
0
 10
922.654988
 20
17.000000
 42
0.191119
  0
VERTEX
  8
0
 10
922.448340
 20
16.918017
 42
0.007508
  0
VERTEX
  8
0
 10
921.851732
 20
16.339063
 42
0.012381
  0
VERTEX
  8
0
 10
921.159969
 20
15.612165
 42
0.008332
  0
SEQEND
  0
POLYLINE
  8
0
 66
1
 70
1
  0
VERTEX
  8
0
 10
106.000000
 20
15.622445
 42
0.184603
  0
VERTEX
  8
0
 10
106.081150
 20
15.410139
 42
0.013803
  0
VERTEX
  8
0
 10
106.514062
 20
14.952641
 42
0.017649
  0
VERTEX
  8
0
 10
107.079598
 20
14.425681
 42
0.012436
  0
VERTEX
  8
0
 10
107.750000
 20
13.872445
 42
0.001576
  0
VERTEX
  8
0
 10
108.879507
 20
12.992360
 42
0.377591
  0
VERTEX
  8
0
 10
109.000000
 20
13.000000
 42
0.377591
  0
VERTEX
  8
0
 10
109.007640
 20
13.120493
 42
0.001576
  0
VERTEX
  8
0
 10
108.127555
 20
14.250000
 42
0.017685
  0
VERTEX
  8
0
 10
107.236680
 20
15.306759
 42
0.065617
  0
VERTEX
  8
0
 10
106.573889
 20
15.869516
 42
0.241985
  0
VERTEX
  8
0
 10
106.193395
 20
15.906950
 42
0.307699
  0
SEQEND
  0
POLYLINE
  8
0
 66
1
 70
1
  0
VERTEX
  8
0
 10
118.812500
 20
8.316886
 42
0.051402
  0
VERTEX
  8
0
 10
119.359369
 20
8.160852
 42
0.054150
  0
VERTEX
  8
0
 10
119.916927
 20
8.123424
 42
0.060344
  0
VERTEX
  8
0
 10
120.402231
 20
8.202593
 42
0.126455
  0
VERTEX
  8
0
 10
120.729167
 20
8.395833
 42
0.296942
  0
VERTEX
  8
0
 10
120.775380
 20
8.614691
 42
0.208169
  0
VERTEX
  8
0
 10
120.592839
 20
8.799335
 42
0.077125
  0
VERTEX
  8
0
 10
120.112848
 20
8.910055
 42
0.028489
  0
VERTEX
  8
0
 10
119.416667
 20
8.921053
 42
0.018894
  0
VERTEX
  8
0
 10
118.670344
 20
8.862007
 42
0.168741
  0
VERTEX
  8
0
 10
118.378580
 20
8.720685
 42
0.470617
  0
VERTEX
  8
0
 10
118.395823
 20
8.538436
 42
0.054073
  0
SEQEND
  0
POLYLINE
  8
0
 66
1
 70
1
  0
VERTEX
  8
0
 10
907.812500
 20
8.316886
 42
0.051402
  0
VERTEX
  8
0
 10
908.359369
 20
8.160852
 42
0.054150
  0
VERTEX
  8
0
 10
908.916927
 20
8.123424
 42
0.060344
  0
VERTEX
  8
0
 10
909.402231
 20
8.202593
 42
0.126455
  0
VERTEX
  8
0
 10
909.729167
 20
8.395833
 42
0.296942
  0
VERTEX
  8
0
 10
909.775380
 20
8.614691
 42
0.208169
  0
VERTEX
  8
0
 10
909.592839
 20
8.799335
 42
0.077125
  0
VERTEX
  8
0
 10
909.112848
 20
8.910055
 42
0.028489
  0
VERTEX
  8
0
 10
908.416667
 20
8.921053
 42
0.018894
  0
VERTEX
  8
0
 10
907.670344
 20
8.862007
 42
0.168741
  0
VERTEX
  8
0
 10
907.378580
 20
8.720685
 42
0.470617
  0
VERTEX
  8
0
 10
907.395823
 20
8.538436
 42
0.054073
  0
SEQEND
  0
ENDSEC
  0
EOF
