G04 #@! TF.GenerationSoftware,KiCad,Pcbnew,5.1.12-84ad8e8a86~92~ubuntu20.04.1*
G04 #@! TF.CreationDate,2022-03-16T00:54:27+01:00*
G04 #@! TF.ProjectId,ms2-card,6d73322d-6361-4726-942e-6b696361645f,0.2*
G04 #@! TF.SameCoordinates,Original*
G04 #@! TF.FileFunction,Soldermask,Top*
G04 #@! TF.FilePolarity,Negative*
%FSLAX46Y46*%
G04 Gerber Fmt 4.6, Leading zero omitted, Abs format (unit mm)*
G04 Created by KiCad (PCBNEW 5.1.12-84ad8e8a86~92~ubuntu20.04.1) date 2022-03-16 00:54:27*
%MOMM*%
%LPD*%
G01*
G04 APERTURE LIST*
%ADD10R,1.350000X1.300000*%
%ADD11O,2.000000X1.600000*%
%ADD12O,3.000000X3.000000*%
%ADD13C,3.000000*%
%ADD14C,0.100000*%
%ADD15R,1.900000X1.200000*%
%ADD16O,1.900000X1.200000*%
%ADD17R,1.900000X1.500000*%
%ADD18C,1.450000*%
%ADD19R,1.350000X0.400000*%
%ADD20C,1.998980*%
%ADD21O,1.100000X2.500000*%
%ADD22O,2.500000X1.100000*%
%ADD23R,1.100000X2.500000*%
%ADD24O,2.000000X6.500000*%
%ADD25O,1.000000X1.000000*%
%ADD26R,1.000000X1.000000*%
%ADD27R,2.500000X0.700000*%
%ADD28R,1.400000X1.200000*%
%ADD29R,1.400000X1.600000*%
%ADD30R,2.200000X1.200000*%
%ADD31C,1.000000*%
%ADD32O,1.700000X1.700000*%
%ADD33R,1.700000X1.700000*%
%ADD34R,1.400000X0.800000*%
G04 APERTURE END LIST*
D10*
X171888000Y-144399000D03*
X169488000Y-144399000D03*
X177235000Y-146558000D03*
X179635000Y-146558000D03*
X177235000Y-144526000D03*
X179635000Y-144526000D03*
X177108000Y-140462000D03*
X179508000Y-140462000D03*
X177108000Y-138430000D03*
X179508000Y-138430000D03*
X171881500Y-142113000D03*
X169481500Y-142113000D03*
G36*
G01*
X178048500Y-142019000D02*
X178048500Y-142969000D01*
G75*
G02*
X177798500Y-143219000I-250000J0D01*
G01*
X177123500Y-143219000D01*
G75*
G02*
X176873500Y-142969000I0J250000D01*
G01*
X176873500Y-142019000D01*
G75*
G02*
X177123500Y-141769000I250000J0D01*
G01*
X177798500Y-141769000D01*
G75*
G02*
X178048500Y-142019000I0J-250000D01*
G01*
G37*
G36*
G01*
X180123500Y-142019000D02*
X180123500Y-142969000D01*
G75*
G02*
X179873500Y-143219000I-250000J0D01*
G01*
X179198500Y-143219000D01*
G75*
G02*
X178948500Y-142969000I0J250000D01*
G01*
X178948500Y-142019000D01*
G75*
G02*
X179198500Y-141769000I250000J0D01*
G01*
X179873500Y-141769000D01*
G75*
G02*
X180123500Y-142019000I0J-250000D01*
G01*
G37*
D11*
X163749000Y-140843500D03*
X163749000Y-143383500D03*
X163749000Y-138303500D03*
X163749000Y-135763500D03*
D12*
X164249000Y-151513500D03*
D13*
X164249000Y-128013500D03*
X188049000Y-128013500D03*
X188049000Y-151513500D03*
D14*
G36*
X171069000Y-124275000D02*
G01*
X171819000Y-124775000D01*
X171819000Y-125775000D01*
X170319000Y-125775000D01*
X170319000Y-124775000D01*
X171069000Y-124275000D01*
G37*
G36*
X171819000Y-123325000D02*
G01*
X171819000Y-124475000D01*
X171069000Y-123975000D01*
X170319000Y-124475000D01*
X170319000Y-123325000D01*
X171819000Y-123325000D01*
G37*
D15*
X196500000Y-129201500D03*
X196500000Y-123401500D03*
D16*
X196500000Y-122801500D03*
X196500000Y-129801500D03*
D17*
X196500000Y-127301500D03*
D18*
X193800000Y-123801500D03*
D19*
X193800000Y-126301500D03*
X193800000Y-125651500D03*
X193800000Y-125001500D03*
X193800000Y-127601500D03*
X193800000Y-126951500D03*
D18*
X193800000Y-128801500D03*
D17*
X196500000Y-125301500D03*
D10*
X182569000Y-123698000D03*
X184969000Y-123698000D03*
X178568500Y-133477000D03*
X180968500Y-133477000D03*
G36*
G01*
X173515000Y-124529000D02*
X174465000Y-124529000D01*
G75*
G02*
X174715000Y-124779000I0J-250000D01*
G01*
X174715000Y-125454000D01*
G75*
G02*
X174465000Y-125704000I-250000J0D01*
G01*
X173515000Y-125704000D01*
G75*
G02*
X173265000Y-125454000I0J250000D01*
G01*
X173265000Y-124779000D01*
G75*
G02*
X173515000Y-124529000I250000J0D01*
G01*
G37*
G36*
G01*
X173515000Y-122454000D02*
X174465000Y-122454000D01*
G75*
G02*
X174715000Y-122704000I0J-250000D01*
G01*
X174715000Y-123379000D01*
G75*
G02*
X174465000Y-123629000I-250000J0D01*
G01*
X173515000Y-123629000D01*
G75*
G02*
X173265000Y-123379000I0J250000D01*
G01*
X173265000Y-122704000D01*
G75*
G02*
X173515000Y-122454000I250000J0D01*
G01*
G37*
X172650000Y-135509000D03*
X170250000Y-135509000D03*
X172650000Y-138049000D03*
X170250000Y-138049000D03*
D20*
X171653200Y-120233440D03*
X165150800Y-115732560D03*
X171653200Y-115732560D03*
X165150800Y-120233440D03*
D21*
X191579500Y-102233500D03*
X176339500Y-118873500D03*
D22*
X175639500Y-115633500D03*
X175639500Y-113093500D03*
X175639500Y-110553500D03*
X175639500Y-108013500D03*
X175639500Y-105473500D03*
D21*
X196659500Y-102233500D03*
X194119500Y-118903500D03*
X191579500Y-118903500D03*
X189039500Y-118873500D03*
X186499500Y-118873500D03*
X183959500Y-118873500D03*
X181419500Y-118773500D03*
X178879500Y-118873500D03*
X176339500Y-102233500D03*
X178879500Y-102233500D03*
X181419500Y-102233500D03*
X183959500Y-102233500D03*
X186499500Y-102233500D03*
X189039500Y-102233500D03*
X194119500Y-102233500D03*
D23*
X196659500Y-118873500D03*
G36*
G01*
X176299000Y-124517500D02*
X175999000Y-124517500D01*
G75*
G02*
X175849000Y-124367500I0J150000D01*
G01*
X175849000Y-123067500D01*
G75*
G02*
X175999000Y-122917500I150000J0D01*
G01*
X176299000Y-122917500D01*
G75*
G02*
X176449000Y-123067500I0J-150000D01*
G01*
X176449000Y-124367500D01*
G75*
G02*
X176299000Y-124517500I-150000J0D01*
G01*
G37*
G36*
G01*
X177569000Y-124517500D02*
X177269000Y-124517500D01*
G75*
G02*
X177119000Y-124367500I0J150000D01*
G01*
X177119000Y-123067500D01*
G75*
G02*
X177269000Y-122917500I150000J0D01*
G01*
X177569000Y-122917500D01*
G75*
G02*
X177719000Y-123067500I0J-150000D01*
G01*
X177719000Y-124367500D01*
G75*
G02*
X177569000Y-124517500I-150000J0D01*
G01*
G37*
G36*
G01*
X178839000Y-124517500D02*
X178539000Y-124517500D01*
G75*
G02*
X178389000Y-124367500I0J150000D01*
G01*
X178389000Y-123067500D01*
G75*
G02*
X178539000Y-122917500I150000J0D01*
G01*
X178839000Y-122917500D01*
G75*
G02*
X178989000Y-123067500I0J-150000D01*
G01*
X178989000Y-124367500D01*
G75*
G02*
X178839000Y-124517500I-150000J0D01*
G01*
G37*
G36*
G01*
X180109000Y-124517500D02*
X179809000Y-124517500D01*
G75*
G02*
X179659000Y-124367500I0J150000D01*
G01*
X179659000Y-123067500D01*
G75*
G02*
X179809000Y-122917500I150000J0D01*
G01*
X180109000Y-122917500D01*
G75*
G02*
X180259000Y-123067500I0J-150000D01*
G01*
X180259000Y-124367500D01*
G75*
G02*
X180109000Y-124517500I-150000J0D01*
G01*
G37*
G36*
G01*
X180109000Y-131717500D02*
X179809000Y-131717500D01*
G75*
G02*
X179659000Y-131567500I0J150000D01*
G01*
X179659000Y-130267500D01*
G75*
G02*
X179809000Y-130117500I150000J0D01*
G01*
X180109000Y-130117500D01*
G75*
G02*
X180259000Y-130267500I0J-150000D01*
G01*
X180259000Y-131567500D01*
G75*
G02*
X180109000Y-131717500I-150000J0D01*
G01*
G37*
G36*
G01*
X178839000Y-131717500D02*
X178539000Y-131717500D01*
G75*
G02*
X178389000Y-131567500I0J150000D01*
G01*
X178389000Y-130267500D01*
G75*
G02*
X178539000Y-130117500I150000J0D01*
G01*
X178839000Y-130117500D01*
G75*
G02*
X178989000Y-130267500I0J-150000D01*
G01*
X178989000Y-131567500D01*
G75*
G02*
X178839000Y-131717500I-150000J0D01*
G01*
G37*
G36*
G01*
X177569000Y-131717500D02*
X177269000Y-131717500D01*
G75*
G02*
X177119000Y-131567500I0J150000D01*
G01*
X177119000Y-130267500D01*
G75*
G02*
X177269000Y-130117500I150000J0D01*
G01*
X177569000Y-130117500D01*
G75*
G02*
X177719000Y-130267500I0J-150000D01*
G01*
X177719000Y-131567500D01*
G75*
G02*
X177569000Y-131717500I-150000J0D01*
G01*
G37*
G36*
G01*
X176299000Y-131717500D02*
X175999000Y-131717500D01*
G75*
G02*
X175849000Y-131567500I0J150000D01*
G01*
X175849000Y-130267500D01*
G75*
G02*
X175999000Y-130117500I150000J0D01*
G01*
X176299000Y-130117500D01*
G75*
G02*
X176449000Y-130267500I0J-150000D01*
G01*
X176449000Y-131567500D01*
G75*
G02*
X176299000Y-131717500I-150000J0D01*
G01*
G37*
D24*
X99628000Y-105700000D03*
X104200000Y-105700000D03*
D25*
X164020500Y-124460000D03*
X165290500Y-124460000D03*
X166560500Y-124460000D03*
D26*
X167830500Y-124460000D03*
D27*
X183108500Y-145721500D03*
X183108500Y-144621500D03*
X183108500Y-143521500D03*
X183108500Y-142421500D03*
X183108500Y-141321500D03*
X183108500Y-140221500D03*
X183108500Y-139121500D03*
X183108500Y-138021500D03*
D28*
X183708500Y-148021500D03*
D29*
X183708500Y-133421500D03*
D30*
X193308500Y-132521500D03*
X193208500Y-148021500D03*
D27*
X183108500Y-146821500D03*
D31*
X193608500Y-145221500D03*
X193608500Y-137221500D03*
G36*
G01*
X172732500Y-112198999D02*
X172732500Y-113099001D01*
G75*
G02*
X172482501Y-113349000I-249999J0D01*
G01*
X171832499Y-113349000D01*
G75*
G02*
X171582500Y-113099001I0J249999D01*
G01*
X171582500Y-112198999D01*
G75*
G02*
X171832499Y-111949000I249999J0D01*
G01*
X172482501Y-111949000D01*
G75*
G02*
X172732500Y-112198999I0J-249999D01*
G01*
G37*
G36*
G01*
X170682500Y-112198999D02*
X170682500Y-113099001D01*
G75*
G02*
X170432501Y-113349000I-249999J0D01*
G01*
X169782499Y-113349000D01*
G75*
G02*
X169532500Y-113099001I0J249999D01*
G01*
X169532500Y-112198999D01*
G75*
G02*
X169782499Y-111949000I249999J0D01*
G01*
X170432501Y-111949000D01*
G75*
G02*
X170682500Y-112198999I0J-249999D01*
G01*
G37*
D32*
X163068000Y-102552500D03*
X165608000Y-102552500D03*
X168148000Y-102552500D03*
X170688000Y-102552500D03*
D33*
X173228000Y-102552500D03*
D24*
X104300000Y-148400000D03*
X99728000Y-148400000D03*
D34*
X172196000Y-132776000D03*
X172196000Y-130876000D03*
X170196000Y-131826000D03*
D10*
X170059500Y-110363000D03*
X172459500Y-110363000D03*
X165665000Y-110363000D03*
X163265000Y-110363000D03*
X163265000Y-112649000D03*
X165665000Y-112649000D03*
X172593000Y-128649500D03*
X170193000Y-128649500D03*
M02*
