G04 #@! TF.GenerationSoftware,KiCad,Pcbnew,5.1.12-84ad8e8a86~92~ubuntu20.04.1*
G04 #@! TF.CreationDate,2022-02-14T19:07:45+01:00*
G04 #@! TF.ProjectId,ms2-card,6d73322d-6361-4726-942e-6b696361645f,0.1*
G04 #@! TF.SameCoordinates,Original*
G04 #@! TF.FileFunction,Soldermask,Top*
G04 #@! TF.FilePolarity,Negative*
%FSLAX46Y46*%
G04 Gerber Fmt 4.6, Leading zero omitted, Abs format (unit mm)*
G04 Created by KiCad (PCBNEW 5.1.12-84ad8e8a86~92~ubuntu20.04.1) date 2022-02-14 19:07:45*
%MOMM*%
%LPD*%
G01*
G04 APERTURE LIST*
%ADD10O,1.000000X1.000000*%
%ADD11R,1.000000X1.000000*%
%ADD12R,2.500000X0.700000*%
%ADD13R,1.400000X1.200000*%
%ADD14R,1.400000X1.600000*%
%ADD15R,2.200000X1.200000*%
%ADD16C,1.000000*%
%ADD17R,1.900000X1.200000*%
%ADD18O,1.900000X1.200000*%
%ADD19R,1.900000X1.500000*%
%ADD20C,1.450000*%
%ADD21R,2.000000X0.400000*%
%ADD22R,1.700000X1.700000*%
%ADD23O,1.700000X1.700000*%
%ADD24O,2.000000X6.500000*%
%ADD25R,0.900000X0.800000*%
%ADD26R,1.350000X1.300000*%
%ADD27R,1.300000X1.350000*%
%ADD28C,1.998980*%
%ADD29R,1.100000X2.500000*%
%ADD30O,1.100000X2.500000*%
%ADD31O,2.500000X1.100000*%
G04 APERTURE END LIST*
D10*
X157124400Y-109829600D03*
X157124400Y-111099600D03*
X157124400Y-112369600D03*
D11*
X157124400Y-113639600D03*
G36*
G01*
X168574999Y-122275000D02*
X170625001Y-122275000D01*
G75*
G02*
X170875000Y-122524999I0J-249999D01*
G01*
X170875000Y-124275001D01*
G75*
G02*
X170625001Y-124525000I-249999J0D01*
G01*
X168574999Y-124525000D01*
G75*
G02*
X168325000Y-124275001I0J249999D01*
G01*
X168325000Y-122524999D01*
G75*
G02*
X168574999Y-122275000I249999J0D01*
G01*
G37*
G36*
G01*
X168574999Y-115875000D02*
X170625001Y-115875000D01*
G75*
G02*
X170875000Y-116124999I0J-249999D01*
G01*
X170875000Y-117875001D01*
G75*
G02*
X170625001Y-118125000I-249999J0D01*
G01*
X168574999Y-118125000D01*
G75*
G02*
X168325000Y-117875001I0J249999D01*
G01*
X168325000Y-116124999D01*
G75*
G02*
X168574999Y-115875000I249999J0D01*
G01*
G37*
D12*
X183700000Y-114450000D03*
X183700000Y-113350000D03*
X183700000Y-112250000D03*
X183700000Y-111150000D03*
X183700000Y-110050000D03*
X183700000Y-108950000D03*
X183700000Y-107850000D03*
X183700000Y-106750000D03*
D13*
X184300000Y-116750000D03*
D14*
X184300000Y-102150000D03*
D15*
X193900000Y-101250000D03*
X193800000Y-116750000D03*
D12*
X183700000Y-115550000D03*
D16*
X194200000Y-113950000D03*
X194200000Y-105950000D03*
D17*
X196537500Y-145394000D03*
X196537500Y-139594000D03*
D18*
X196537500Y-138994000D03*
X196537500Y-145994000D03*
D19*
X196537500Y-143494000D03*
D20*
X193837500Y-139994000D03*
D21*
X193837500Y-142494000D03*
X193837500Y-141844000D03*
X193837500Y-141194000D03*
X193837500Y-143794000D03*
X193837500Y-143144000D03*
D20*
X193837500Y-144994000D03*
D19*
X196537500Y-141494000D03*
G36*
G01*
X188150000Y-137883850D02*
X188150000Y-138716150D01*
G75*
G02*
X187841150Y-139025000I-308850J0D01*
G01*
X186958850Y-139025000D01*
G75*
G02*
X186650000Y-138716150I0J308850D01*
G01*
X186650000Y-137883850D01*
G75*
G02*
X186958850Y-137575000I308850J0D01*
G01*
X187841150Y-137575000D01*
G75*
G02*
X188150000Y-137883850I0J-308850D01*
G01*
G37*
G36*
G01*
X189050000Y-138716150D02*
X189050000Y-137883850D01*
G75*
G02*
X189358850Y-137575000I308850J0D01*
G01*
X190241150Y-137575000D01*
G75*
G02*
X190550000Y-137883850I0J-308850D01*
G01*
X190550000Y-138716150D01*
G75*
G02*
X190241150Y-139025000I-308850J0D01*
G01*
X189358850Y-139025000D01*
G75*
G02*
X189050000Y-138716150I0J308850D01*
G01*
G37*
G36*
G01*
X183716150Y-142145600D02*
X182883850Y-142145600D01*
G75*
G02*
X182575000Y-141836750I0J308850D01*
G01*
X182575000Y-140954450D01*
G75*
G02*
X182883850Y-140645600I308850J0D01*
G01*
X183716150Y-140645600D01*
G75*
G02*
X184025000Y-140954450I0J-308850D01*
G01*
X184025000Y-141836750D01*
G75*
G02*
X183716150Y-142145600I-308850J0D01*
G01*
G37*
G36*
G01*
X182883850Y-143045600D02*
X183716150Y-143045600D01*
G75*
G02*
X184025000Y-143354450I0J-308850D01*
G01*
X184025000Y-144236750D01*
G75*
G02*
X183716150Y-144545600I-308850J0D01*
G01*
X182883850Y-144545600D01*
G75*
G02*
X182575000Y-144236750I0J308850D01*
G01*
X182575000Y-143354450D01*
G75*
G02*
X182883850Y-143045600I308850J0D01*
G01*
G37*
G36*
G01*
X164650000Y-139316150D02*
X164650000Y-138483850D01*
G75*
G02*
X164958850Y-138175000I308850J0D01*
G01*
X165841150Y-138175000D01*
G75*
G02*
X166150000Y-138483850I0J-308850D01*
G01*
X166150000Y-139316150D01*
G75*
G02*
X165841150Y-139625000I-308850J0D01*
G01*
X164958850Y-139625000D01*
G75*
G02*
X164650000Y-139316150I0J308850D01*
G01*
G37*
G36*
G01*
X163750000Y-138483850D02*
X163750000Y-139316150D01*
G75*
G02*
X163441150Y-139625000I-308850J0D01*
G01*
X162558850Y-139625000D01*
G75*
G02*
X162250000Y-139316150I0J308850D01*
G01*
X162250000Y-138483850D01*
G75*
G02*
X162558850Y-138175000I308850J0D01*
G01*
X163441150Y-138175000D01*
G75*
G02*
X163750000Y-138483850I0J-308850D01*
G01*
G37*
G36*
G01*
X171450000Y-138483850D02*
X171450000Y-139316150D01*
G75*
G02*
X171141150Y-139625000I-308850J0D01*
G01*
X170258850Y-139625000D01*
G75*
G02*
X169950000Y-139316150I0J308850D01*
G01*
X169950000Y-138483850D01*
G75*
G02*
X170258850Y-138175000I308850J0D01*
G01*
X171141150Y-138175000D01*
G75*
G02*
X171450000Y-138483850I0J-308850D01*
G01*
G37*
G36*
G01*
X172350000Y-139316150D02*
X172350000Y-138483850D01*
G75*
G02*
X172658850Y-138175000I308850J0D01*
G01*
X173541150Y-138175000D01*
G75*
G02*
X173850000Y-138483850I0J-308850D01*
G01*
X173850000Y-139316150D01*
G75*
G02*
X173541150Y-139625000I-308850J0D01*
G01*
X172658850Y-139625000D01*
G75*
G02*
X172350000Y-139316150I0J308850D01*
G01*
G37*
G36*
G01*
X166883850Y-147650000D02*
X167716150Y-147650000D01*
G75*
G02*
X168025000Y-147958850I0J-308850D01*
G01*
X168025000Y-148841150D01*
G75*
G02*
X167716150Y-149150000I-308850J0D01*
G01*
X166883850Y-149150000D01*
G75*
G02*
X166575000Y-148841150I0J308850D01*
G01*
X166575000Y-147958850D01*
G75*
G02*
X166883850Y-147650000I308850J0D01*
G01*
G37*
G36*
G01*
X167716150Y-146750000D02*
X166883850Y-146750000D01*
G75*
G02*
X166575000Y-146441150I0J308850D01*
G01*
X166575000Y-145558850D01*
G75*
G02*
X166883850Y-145250000I308850J0D01*
G01*
X167716150Y-145250000D01*
G75*
G02*
X168025000Y-145558850I0J-308850D01*
G01*
X168025000Y-146441150D01*
G75*
G02*
X167716150Y-146750000I-308850J0D01*
G01*
G37*
G36*
G01*
X174583850Y-147450000D02*
X175416150Y-147450000D01*
G75*
G02*
X175725000Y-147758850I0J-308850D01*
G01*
X175725000Y-148641150D01*
G75*
G02*
X175416150Y-148950000I-308850J0D01*
G01*
X174583850Y-148950000D01*
G75*
G02*
X174275000Y-148641150I0J308850D01*
G01*
X174275000Y-147758850D01*
G75*
G02*
X174583850Y-147450000I308850J0D01*
G01*
G37*
G36*
G01*
X175416150Y-146550000D02*
X174583850Y-146550000D01*
G75*
G02*
X174275000Y-146241150I0J308850D01*
G01*
X174275000Y-145358850D01*
G75*
G02*
X174583850Y-145050000I308850J0D01*
G01*
X175416150Y-145050000D01*
G75*
G02*
X175725000Y-145358850I0J-308850D01*
G01*
X175725000Y-146241150D01*
G75*
G02*
X175416150Y-146550000I-308850J0D01*
G01*
G37*
G36*
G01*
X176300000Y-102250001D02*
X176300000Y-101349999D01*
G75*
G02*
X176549999Y-101100000I249999J0D01*
G01*
X177200001Y-101100000D01*
G75*
G02*
X177450000Y-101349999I0J-249999D01*
G01*
X177450000Y-102250001D01*
G75*
G02*
X177200001Y-102500000I-249999J0D01*
G01*
X176549999Y-102500000D01*
G75*
G02*
X176300000Y-102250001I0J249999D01*
G01*
G37*
G36*
G01*
X178350000Y-102250001D02*
X178350000Y-101349999D01*
G75*
G02*
X178599999Y-101100000I249999J0D01*
G01*
X179250001Y-101100000D01*
G75*
G02*
X179500000Y-101349999I0J-249999D01*
G01*
X179500000Y-102250001D01*
G75*
G02*
X179250001Y-102500000I-249999J0D01*
G01*
X178599999Y-102500000D01*
G75*
G02*
X178350000Y-102250001I0J249999D01*
G01*
G37*
D22*
X157600000Y-102200000D03*
D23*
X160140000Y-102200000D03*
X162680000Y-102200000D03*
X165220000Y-102200000D03*
D22*
X167400000Y-131700000D03*
D23*
X167400000Y-134240000D03*
D22*
X183184800Y-138400000D03*
D23*
X169900000Y-112360000D03*
X169900000Y-109820000D03*
X169900000Y-107280000D03*
X169900000Y-104740000D03*
D22*
X169900000Y-102200000D03*
D24*
X104100000Y-148400000D03*
X99528000Y-148400000D03*
D22*
X165000000Y-118100000D03*
D23*
X165000000Y-120640000D03*
X165000000Y-123180000D03*
D22*
X182100000Y-150600000D03*
D23*
X184640000Y-150600000D03*
X187180000Y-150600000D03*
X189720000Y-150600000D03*
X192260000Y-150600000D03*
X194800000Y-150600000D03*
D22*
X176400000Y-141800000D03*
X171500000Y-152100000D03*
D23*
X168960000Y-152100000D03*
X166420000Y-152100000D03*
X163880000Y-152100000D03*
X161340000Y-152100000D03*
D22*
X175100000Y-152100000D03*
D25*
X158200000Y-121450000D03*
X158200000Y-119550000D03*
X156200000Y-120500000D03*
D26*
X179000000Y-104500000D03*
X176600000Y-104500000D03*
X175228400Y-137700000D03*
X177628400Y-137700000D03*
X179000000Y-110900000D03*
X176600000Y-110900000D03*
X176600000Y-108600000D03*
X179000000Y-108600000D03*
X176600000Y-114706400D03*
X179000000Y-114706400D03*
D27*
X156800000Y-136800000D03*
X156800000Y-139200000D03*
X159000000Y-139200000D03*
X159000000Y-136800000D03*
X160800000Y-121900000D03*
X160800000Y-119500000D03*
D26*
X158600000Y-123900000D03*
X156200000Y-123900000D03*
X158600000Y-117300000D03*
X156200000Y-117300000D03*
X160600000Y-148900000D03*
X158200000Y-148900000D03*
X165200000Y-149000000D03*
X162800000Y-149000000D03*
D28*
X159249560Y-126748800D03*
X163750440Y-133251200D03*
X163750440Y-126748800D03*
X159249560Y-133251200D03*
D29*
X189200000Y-119600000D03*
D30*
X187200000Y-119600000D03*
X185200000Y-119600000D03*
X183200000Y-119600000D03*
X181200000Y-119600000D03*
X179200000Y-119600000D03*
X177200000Y-119600000D03*
X175200000Y-119600000D03*
X175200000Y-135000000D03*
X177200000Y-134900000D03*
X179200000Y-135000000D03*
X181200000Y-135000000D03*
X183200000Y-135000000D03*
X185200000Y-135000000D03*
X187200000Y-135000000D03*
X189200000Y-135000000D03*
D31*
X173500000Y-122290000D03*
X173500000Y-124290000D03*
X173500000Y-126290000D03*
X173500000Y-128290000D03*
X173500000Y-130290000D03*
X173500000Y-132290000D03*
G36*
G01*
X186145000Y-146850000D02*
X185845000Y-146850000D01*
G75*
G02*
X185695000Y-146700000I0J150000D01*
G01*
X185695000Y-145050000D01*
G75*
G02*
X185845000Y-144900000I150000J0D01*
G01*
X186145000Y-144900000D01*
G75*
G02*
X186295000Y-145050000I0J-150000D01*
G01*
X186295000Y-146700000D01*
G75*
G02*
X186145000Y-146850000I-150000J0D01*
G01*
G37*
G36*
G01*
X187415000Y-146850000D02*
X187115000Y-146850000D01*
G75*
G02*
X186965000Y-146700000I0J150000D01*
G01*
X186965000Y-145050000D01*
G75*
G02*
X187115000Y-144900000I150000J0D01*
G01*
X187415000Y-144900000D01*
G75*
G02*
X187565000Y-145050000I0J-150000D01*
G01*
X187565000Y-146700000D01*
G75*
G02*
X187415000Y-146850000I-150000J0D01*
G01*
G37*
G36*
G01*
X188685000Y-146850000D02*
X188385000Y-146850000D01*
G75*
G02*
X188235000Y-146700000I0J150000D01*
G01*
X188235000Y-145050000D01*
G75*
G02*
X188385000Y-144900000I150000J0D01*
G01*
X188685000Y-144900000D01*
G75*
G02*
X188835000Y-145050000I0J-150000D01*
G01*
X188835000Y-146700000D01*
G75*
G02*
X188685000Y-146850000I-150000J0D01*
G01*
G37*
G36*
G01*
X189955000Y-146850000D02*
X189655000Y-146850000D01*
G75*
G02*
X189505000Y-146700000I0J150000D01*
G01*
X189505000Y-145050000D01*
G75*
G02*
X189655000Y-144900000I150000J0D01*
G01*
X189955000Y-144900000D01*
G75*
G02*
X190105000Y-145050000I0J-150000D01*
G01*
X190105000Y-146700000D01*
G75*
G02*
X189955000Y-146850000I-150000J0D01*
G01*
G37*
G36*
G01*
X189955000Y-141900000D02*
X189655000Y-141900000D01*
G75*
G02*
X189505000Y-141750000I0J150000D01*
G01*
X189505000Y-140100000D01*
G75*
G02*
X189655000Y-139950000I150000J0D01*
G01*
X189955000Y-139950000D01*
G75*
G02*
X190105000Y-140100000I0J-150000D01*
G01*
X190105000Y-141750000D01*
G75*
G02*
X189955000Y-141900000I-150000J0D01*
G01*
G37*
G36*
G01*
X188685000Y-141900000D02*
X188385000Y-141900000D01*
G75*
G02*
X188235000Y-141750000I0J150000D01*
G01*
X188235000Y-140100000D01*
G75*
G02*
X188385000Y-139950000I150000J0D01*
G01*
X188685000Y-139950000D01*
G75*
G02*
X188835000Y-140100000I0J-150000D01*
G01*
X188835000Y-141750000D01*
G75*
G02*
X188685000Y-141900000I-150000J0D01*
G01*
G37*
G36*
G01*
X187415000Y-141900000D02*
X187115000Y-141900000D01*
G75*
G02*
X186965000Y-141750000I0J150000D01*
G01*
X186965000Y-140100000D01*
G75*
G02*
X187115000Y-139950000I150000J0D01*
G01*
X187415000Y-139950000D01*
G75*
G02*
X187565000Y-140100000I0J-150000D01*
G01*
X187565000Y-141750000D01*
G75*
G02*
X187415000Y-141900000I-150000J0D01*
G01*
G37*
G36*
G01*
X186145000Y-141900000D02*
X185845000Y-141900000D01*
G75*
G02*
X185695000Y-141750000I0J150000D01*
G01*
X185695000Y-140100000D01*
G75*
G02*
X185845000Y-139950000I150000J0D01*
G01*
X186145000Y-139950000D01*
G75*
G02*
X186295000Y-140100000I0J-150000D01*
G01*
X186295000Y-141750000D01*
G75*
G02*
X186145000Y-141900000I-150000J0D01*
G01*
G37*
G36*
G01*
X165255000Y-145600000D02*
X165555000Y-145600000D01*
G75*
G02*
X165705000Y-145750000I0J-150000D01*
G01*
X165705000Y-147400000D01*
G75*
G02*
X165555000Y-147550000I-150000J0D01*
G01*
X165255000Y-147550000D01*
G75*
G02*
X165105000Y-147400000I0J150000D01*
G01*
X165105000Y-145750000D01*
G75*
G02*
X165255000Y-145600000I150000J0D01*
G01*
G37*
G36*
G01*
X163985000Y-145600000D02*
X164285000Y-145600000D01*
G75*
G02*
X164435000Y-145750000I0J-150000D01*
G01*
X164435000Y-147400000D01*
G75*
G02*
X164285000Y-147550000I-150000J0D01*
G01*
X163985000Y-147550000D01*
G75*
G02*
X163835000Y-147400000I0J150000D01*
G01*
X163835000Y-145750000D01*
G75*
G02*
X163985000Y-145600000I150000J0D01*
G01*
G37*
G36*
G01*
X162715000Y-145600000D02*
X163015000Y-145600000D01*
G75*
G02*
X163165000Y-145750000I0J-150000D01*
G01*
X163165000Y-147400000D01*
G75*
G02*
X163015000Y-147550000I-150000J0D01*
G01*
X162715000Y-147550000D01*
G75*
G02*
X162565000Y-147400000I0J150000D01*
G01*
X162565000Y-145750000D01*
G75*
G02*
X162715000Y-145600000I150000J0D01*
G01*
G37*
G36*
G01*
X161445000Y-145600000D02*
X161745000Y-145600000D01*
G75*
G02*
X161895000Y-145750000I0J-150000D01*
G01*
X161895000Y-147400000D01*
G75*
G02*
X161745000Y-147550000I-150000J0D01*
G01*
X161445000Y-147550000D01*
G75*
G02*
X161295000Y-147400000I0J150000D01*
G01*
X161295000Y-145750000D01*
G75*
G02*
X161445000Y-145600000I150000J0D01*
G01*
G37*
G36*
G01*
X161445000Y-140650000D02*
X161745000Y-140650000D01*
G75*
G02*
X161895000Y-140800000I0J-150000D01*
G01*
X161895000Y-142450000D01*
G75*
G02*
X161745000Y-142600000I-150000J0D01*
G01*
X161445000Y-142600000D01*
G75*
G02*
X161295000Y-142450000I0J150000D01*
G01*
X161295000Y-140800000D01*
G75*
G02*
X161445000Y-140650000I150000J0D01*
G01*
G37*
G36*
G01*
X162715000Y-140650000D02*
X163015000Y-140650000D01*
G75*
G02*
X163165000Y-140800000I0J-150000D01*
G01*
X163165000Y-142450000D01*
G75*
G02*
X163015000Y-142600000I-150000J0D01*
G01*
X162715000Y-142600000D01*
G75*
G02*
X162565000Y-142450000I0J150000D01*
G01*
X162565000Y-140800000D01*
G75*
G02*
X162715000Y-140650000I150000J0D01*
G01*
G37*
G36*
G01*
X163985000Y-140650000D02*
X164285000Y-140650000D01*
G75*
G02*
X164435000Y-140800000I0J-150000D01*
G01*
X164435000Y-142450000D01*
G75*
G02*
X164285000Y-142600000I-150000J0D01*
G01*
X163985000Y-142600000D01*
G75*
G02*
X163835000Y-142450000I0J150000D01*
G01*
X163835000Y-140800000D01*
G75*
G02*
X163985000Y-140650000I150000J0D01*
G01*
G37*
G36*
G01*
X165255000Y-140650000D02*
X165555000Y-140650000D01*
G75*
G02*
X165705000Y-140800000I0J-150000D01*
G01*
X165705000Y-142450000D01*
G75*
G02*
X165555000Y-142600000I-150000J0D01*
G01*
X165255000Y-142600000D01*
G75*
G02*
X165105000Y-142450000I0J150000D01*
G01*
X165105000Y-140800000D01*
G75*
G02*
X165255000Y-140650000I150000J0D01*
G01*
G37*
G36*
G01*
X172955000Y-140650000D02*
X173255000Y-140650000D01*
G75*
G02*
X173405000Y-140800000I0J-150000D01*
G01*
X173405000Y-142450000D01*
G75*
G02*
X173255000Y-142600000I-150000J0D01*
G01*
X172955000Y-142600000D01*
G75*
G02*
X172805000Y-142450000I0J150000D01*
G01*
X172805000Y-140800000D01*
G75*
G02*
X172955000Y-140650000I150000J0D01*
G01*
G37*
G36*
G01*
X171685000Y-140650000D02*
X171985000Y-140650000D01*
G75*
G02*
X172135000Y-140800000I0J-150000D01*
G01*
X172135000Y-142450000D01*
G75*
G02*
X171985000Y-142600000I-150000J0D01*
G01*
X171685000Y-142600000D01*
G75*
G02*
X171535000Y-142450000I0J150000D01*
G01*
X171535000Y-140800000D01*
G75*
G02*
X171685000Y-140650000I150000J0D01*
G01*
G37*
G36*
G01*
X170415000Y-140650000D02*
X170715000Y-140650000D01*
G75*
G02*
X170865000Y-140800000I0J-150000D01*
G01*
X170865000Y-142450000D01*
G75*
G02*
X170715000Y-142600000I-150000J0D01*
G01*
X170415000Y-142600000D01*
G75*
G02*
X170265000Y-142450000I0J150000D01*
G01*
X170265000Y-140800000D01*
G75*
G02*
X170415000Y-140650000I150000J0D01*
G01*
G37*
G36*
G01*
X169145000Y-140650000D02*
X169445000Y-140650000D01*
G75*
G02*
X169595000Y-140800000I0J-150000D01*
G01*
X169595000Y-142450000D01*
G75*
G02*
X169445000Y-142600000I-150000J0D01*
G01*
X169145000Y-142600000D01*
G75*
G02*
X168995000Y-142450000I0J150000D01*
G01*
X168995000Y-140800000D01*
G75*
G02*
X169145000Y-140650000I150000J0D01*
G01*
G37*
G36*
G01*
X169145000Y-145600000D02*
X169445000Y-145600000D01*
G75*
G02*
X169595000Y-145750000I0J-150000D01*
G01*
X169595000Y-147400000D01*
G75*
G02*
X169445000Y-147550000I-150000J0D01*
G01*
X169145000Y-147550000D01*
G75*
G02*
X168995000Y-147400000I0J150000D01*
G01*
X168995000Y-145750000D01*
G75*
G02*
X169145000Y-145600000I150000J0D01*
G01*
G37*
G36*
G01*
X170415000Y-145600000D02*
X170715000Y-145600000D01*
G75*
G02*
X170865000Y-145750000I0J-150000D01*
G01*
X170865000Y-147400000D01*
G75*
G02*
X170715000Y-147550000I-150000J0D01*
G01*
X170415000Y-147550000D01*
G75*
G02*
X170265000Y-147400000I0J150000D01*
G01*
X170265000Y-145750000D01*
G75*
G02*
X170415000Y-145600000I150000J0D01*
G01*
G37*
G36*
G01*
X171685000Y-145600000D02*
X171985000Y-145600000D01*
G75*
G02*
X172135000Y-145750000I0J-150000D01*
G01*
X172135000Y-147400000D01*
G75*
G02*
X171985000Y-147550000I-150000J0D01*
G01*
X171685000Y-147550000D01*
G75*
G02*
X171535000Y-147400000I0J150000D01*
G01*
X171535000Y-145750000D01*
G75*
G02*
X171685000Y-145600000I150000J0D01*
G01*
G37*
G36*
G01*
X172955000Y-145600000D02*
X173255000Y-145600000D01*
G75*
G02*
X173405000Y-145750000I0J-150000D01*
G01*
X173405000Y-147400000D01*
G75*
G02*
X173255000Y-147550000I-150000J0D01*
G01*
X172955000Y-147550000D01*
G75*
G02*
X172805000Y-147400000I0J150000D01*
G01*
X172805000Y-145750000D01*
G75*
G02*
X172955000Y-145600000I150000J0D01*
G01*
G37*
M02*
