G04 #@! TF.GenerationSoftware,KiCad,Pcbnew,5.1.12-84ad8e8a86~92~ubuntu20.04.1*
G04 #@! TF.CreationDate,2022-03-16T00:54:27+01:00*
G04 #@! TF.ProjectId,ms2-card,6d73322d-6361-4726-942e-6b696361645f,0.2*
G04 #@! TF.SameCoordinates,Original*
G04 #@! TF.FileFunction,Paste,Top*
G04 #@! TF.FilePolarity,Positive*
%FSLAX46Y46*%
G04 Gerber Fmt 4.6, Leading zero omitted, Abs format (unit mm)*
G04 Created by KiCad (PCBNEW 5.1.12-84ad8e8a86~92~ubuntu20.04.1) date 2022-03-16 00:54:27*
%MOMM*%
%LPD*%
G01*
G04 APERTURE LIST*
%ADD10R,1.350000X1.300000*%
%ADD11R,1.900000X1.500000*%
%ADD12R,1.350000X0.400000*%
%ADD13R,2.500000X0.700000*%
%ADD14R,1.400000X1.200000*%
%ADD15R,1.400000X1.600000*%
%ADD16R,2.200000X1.200000*%
%ADD17R,1.400000X0.800000*%
G04 APERTURE END LIST*
D10*
X171888000Y-144399000D03*
X169488000Y-144399000D03*
X177235000Y-146558000D03*
X179635000Y-146558000D03*
X177235000Y-144526000D03*
X179635000Y-144526000D03*
X177108000Y-140462000D03*
X179508000Y-140462000D03*
X177108000Y-138430000D03*
X179508000Y-138430000D03*
X171881500Y-142113000D03*
X169481500Y-142113000D03*
G36*
G01*
X178048500Y-142019000D02*
X178048500Y-142969000D01*
G75*
G02*
X177798500Y-143219000I-250000J0D01*
G01*
X177123500Y-143219000D01*
G75*
G02*
X176873500Y-142969000I0J250000D01*
G01*
X176873500Y-142019000D01*
G75*
G02*
X177123500Y-141769000I250000J0D01*
G01*
X177798500Y-141769000D01*
G75*
G02*
X178048500Y-142019000I0J-250000D01*
G01*
G37*
G36*
G01*
X180123500Y-142019000D02*
X180123500Y-142969000D01*
G75*
G02*
X179873500Y-143219000I-250000J0D01*
G01*
X179198500Y-143219000D01*
G75*
G02*
X178948500Y-142969000I0J250000D01*
G01*
X178948500Y-142019000D01*
G75*
G02*
X179198500Y-141769000I250000J0D01*
G01*
X179873500Y-141769000D01*
G75*
G02*
X180123500Y-142019000I0J-250000D01*
G01*
G37*
D11*
X196500000Y-127301500D03*
D12*
X193800000Y-126301500D03*
X193800000Y-125651500D03*
X193800000Y-125001500D03*
X193800000Y-127601500D03*
X193800000Y-126951500D03*
D11*
X196500000Y-125301500D03*
D10*
X182569000Y-123698000D03*
X184969000Y-123698000D03*
X178568500Y-133477000D03*
X180968500Y-133477000D03*
G36*
G01*
X173515000Y-124529000D02*
X174465000Y-124529000D01*
G75*
G02*
X174715000Y-124779000I0J-250000D01*
G01*
X174715000Y-125454000D01*
G75*
G02*
X174465000Y-125704000I-250000J0D01*
G01*
X173515000Y-125704000D01*
G75*
G02*
X173265000Y-125454000I0J250000D01*
G01*
X173265000Y-124779000D01*
G75*
G02*
X173515000Y-124529000I250000J0D01*
G01*
G37*
G36*
G01*
X173515000Y-122454000D02*
X174465000Y-122454000D01*
G75*
G02*
X174715000Y-122704000I0J-250000D01*
G01*
X174715000Y-123379000D01*
G75*
G02*
X174465000Y-123629000I-250000J0D01*
G01*
X173515000Y-123629000D01*
G75*
G02*
X173265000Y-123379000I0J250000D01*
G01*
X173265000Y-122704000D01*
G75*
G02*
X173515000Y-122454000I250000J0D01*
G01*
G37*
X172650000Y-135509000D03*
X170250000Y-135509000D03*
X172650000Y-138049000D03*
X170250000Y-138049000D03*
G36*
G01*
X176299000Y-124517500D02*
X175999000Y-124517500D01*
G75*
G02*
X175849000Y-124367500I0J150000D01*
G01*
X175849000Y-123067500D01*
G75*
G02*
X175999000Y-122917500I150000J0D01*
G01*
X176299000Y-122917500D01*
G75*
G02*
X176449000Y-123067500I0J-150000D01*
G01*
X176449000Y-124367500D01*
G75*
G02*
X176299000Y-124517500I-150000J0D01*
G01*
G37*
G36*
G01*
X177569000Y-124517500D02*
X177269000Y-124517500D01*
G75*
G02*
X177119000Y-124367500I0J150000D01*
G01*
X177119000Y-123067500D01*
G75*
G02*
X177269000Y-122917500I150000J0D01*
G01*
X177569000Y-122917500D01*
G75*
G02*
X177719000Y-123067500I0J-150000D01*
G01*
X177719000Y-124367500D01*
G75*
G02*
X177569000Y-124517500I-150000J0D01*
G01*
G37*
G36*
G01*
X178839000Y-124517500D02*
X178539000Y-124517500D01*
G75*
G02*
X178389000Y-124367500I0J150000D01*
G01*
X178389000Y-123067500D01*
G75*
G02*
X178539000Y-122917500I150000J0D01*
G01*
X178839000Y-122917500D01*
G75*
G02*
X178989000Y-123067500I0J-150000D01*
G01*
X178989000Y-124367500D01*
G75*
G02*
X178839000Y-124517500I-150000J0D01*
G01*
G37*
G36*
G01*
X180109000Y-124517500D02*
X179809000Y-124517500D01*
G75*
G02*
X179659000Y-124367500I0J150000D01*
G01*
X179659000Y-123067500D01*
G75*
G02*
X179809000Y-122917500I150000J0D01*
G01*
X180109000Y-122917500D01*
G75*
G02*
X180259000Y-123067500I0J-150000D01*
G01*
X180259000Y-124367500D01*
G75*
G02*
X180109000Y-124517500I-150000J0D01*
G01*
G37*
G36*
G01*
X180109000Y-131717500D02*
X179809000Y-131717500D01*
G75*
G02*
X179659000Y-131567500I0J150000D01*
G01*
X179659000Y-130267500D01*
G75*
G02*
X179809000Y-130117500I150000J0D01*
G01*
X180109000Y-130117500D01*
G75*
G02*
X180259000Y-130267500I0J-150000D01*
G01*
X180259000Y-131567500D01*
G75*
G02*
X180109000Y-131717500I-150000J0D01*
G01*
G37*
G36*
G01*
X178839000Y-131717500D02*
X178539000Y-131717500D01*
G75*
G02*
X178389000Y-131567500I0J150000D01*
G01*
X178389000Y-130267500D01*
G75*
G02*
X178539000Y-130117500I150000J0D01*
G01*
X178839000Y-130117500D01*
G75*
G02*
X178989000Y-130267500I0J-150000D01*
G01*
X178989000Y-131567500D01*
G75*
G02*
X178839000Y-131717500I-150000J0D01*
G01*
G37*
G36*
G01*
X177569000Y-131717500D02*
X177269000Y-131717500D01*
G75*
G02*
X177119000Y-131567500I0J150000D01*
G01*
X177119000Y-130267500D01*
G75*
G02*
X177269000Y-130117500I150000J0D01*
G01*
X177569000Y-130117500D01*
G75*
G02*
X177719000Y-130267500I0J-150000D01*
G01*
X177719000Y-131567500D01*
G75*
G02*
X177569000Y-131717500I-150000J0D01*
G01*
G37*
G36*
G01*
X176299000Y-131717500D02*
X175999000Y-131717500D01*
G75*
G02*
X175849000Y-131567500I0J150000D01*
G01*
X175849000Y-130267500D01*
G75*
G02*
X175999000Y-130117500I150000J0D01*
G01*
X176299000Y-130117500D01*
G75*
G02*
X176449000Y-130267500I0J-150000D01*
G01*
X176449000Y-131567500D01*
G75*
G02*
X176299000Y-131717500I-150000J0D01*
G01*
G37*
D13*
X183108500Y-145721500D03*
X183108500Y-144621500D03*
X183108500Y-143521500D03*
X183108500Y-142421500D03*
X183108500Y-141321500D03*
X183108500Y-140221500D03*
X183108500Y-139121500D03*
X183108500Y-138021500D03*
D14*
X183708500Y-148021500D03*
D15*
X183708500Y-133421500D03*
D16*
X193308500Y-132521500D03*
X193208500Y-148021500D03*
D13*
X183108500Y-146821500D03*
G36*
G01*
X172732500Y-112198999D02*
X172732500Y-113099001D01*
G75*
G02*
X172482501Y-113349000I-249999J0D01*
G01*
X171832499Y-113349000D01*
G75*
G02*
X171582500Y-113099001I0J249999D01*
G01*
X171582500Y-112198999D01*
G75*
G02*
X171832499Y-111949000I249999J0D01*
G01*
X172482501Y-111949000D01*
G75*
G02*
X172732500Y-112198999I0J-249999D01*
G01*
G37*
G36*
G01*
X170682500Y-112198999D02*
X170682500Y-113099001D01*
G75*
G02*
X170432501Y-113349000I-249999J0D01*
G01*
X169782499Y-113349000D01*
G75*
G02*
X169532500Y-113099001I0J249999D01*
G01*
X169532500Y-112198999D01*
G75*
G02*
X169782499Y-111949000I249999J0D01*
G01*
X170432501Y-111949000D01*
G75*
G02*
X170682500Y-112198999I0J-249999D01*
G01*
G37*
D17*
X172196000Y-132776000D03*
X172196000Y-130876000D03*
X170196000Y-131826000D03*
D10*
X170059500Y-110363000D03*
X172459500Y-110363000D03*
X165665000Y-110363000D03*
X163265000Y-110363000D03*
X163265000Y-112649000D03*
X165665000Y-112649000D03*
X172593000Y-128649500D03*
X170193000Y-128649500D03*
M02*
