G04 #@! TF.GenerationSoftware,KiCad,Pcbnew,5.1.12-84ad8e8a86~92~ubuntu20.04.1*
G04 #@! TF.CreationDate,2022-03-16T00:54:27+01:00*
G04 #@! TF.ProjectId,ms2-card,6d73322d-6361-4726-942e-6b696361645f,0.2*
G04 #@! TF.SameCoordinates,Original*
G04 #@! TF.FileFunction,Legend,Top*
G04 #@! TF.FilePolarity,Positive*
%FSLAX46Y46*%
G04 Gerber Fmt 4.6, Leading zero omitted, Abs format (unit mm)*
G04 Created by KiCad (PCBNEW 5.1.12-84ad8e8a86~92~ubuntu20.04.1) date 2022-03-16 00:54:27*
%MOMM*%
%LPD*%
G01*
G04 APERTURE LIST*
%ADD10C,0.150000*%
%ADD11C,0.120000*%
%ADD12C,2.540000*%
%ADD13C,0.304800*%
%ADD14C,0.152400*%
%ADD15C,0.250000*%
%ADD16C,0.317500*%
%ADD17R,1.350000X1.300000*%
%ADD18O,2.000000X1.600000*%
%ADD19O,3.000000X3.000000*%
%ADD20C,3.000000*%
%ADD21C,0.100000*%
%ADD22R,1.900000X1.200000*%
%ADD23O,1.900000X1.200000*%
%ADD24R,1.900000X1.500000*%
%ADD25C,1.450000*%
%ADD26R,1.350000X0.400000*%
%ADD27C,1.998980*%
%ADD28O,1.100000X2.500000*%
%ADD29O,2.500000X1.100000*%
%ADD30R,1.100000X2.500000*%
%ADD31O,2.000000X6.500000*%
%ADD32O,1.000000X1.000000*%
%ADD33R,1.000000X1.000000*%
%ADD34R,2.500000X0.700000*%
%ADD35R,1.400000X1.200000*%
%ADD36R,1.400000X1.600000*%
%ADD37R,2.200000X1.200000*%
%ADD38C,1.000000*%
%ADD39O,1.700000X1.700000*%
%ADD40R,1.700000X1.700000*%
%ADD41R,1.400000X0.800000*%
G04 APERTURE END LIST*
D10*
X182134452Y-105687880D02*
X182134452Y-106402166D01*
X182086833Y-106545023D01*
X181991595Y-106640261D01*
X181848738Y-106687880D01*
X181753500Y-106687880D01*
X183086833Y-106687880D02*
X182610642Y-106687880D01*
X182610642Y-105687880D01*
X183991595Y-106592642D02*
X183943976Y-106640261D01*
X183801119Y-106687880D01*
X183705880Y-106687880D01*
X183563023Y-106640261D01*
X183467785Y-106545023D01*
X183420166Y-106449785D01*
X183372547Y-106259309D01*
X183372547Y-106116452D01*
X183420166Y-105925976D01*
X183467785Y-105830738D01*
X183563023Y-105735500D01*
X183705880Y-105687880D01*
X183801119Y-105687880D01*
X183943976Y-105735500D01*
X183991595Y-105783119D01*
X184705880Y-105687880D02*
X184705880Y-106402166D01*
X184658261Y-106545023D01*
X184563023Y-106640261D01*
X184420166Y-106687880D01*
X184324928Y-106687880D01*
X185658261Y-106687880D02*
X185182071Y-106687880D01*
X185182071Y-105687880D01*
X186563023Y-106592642D02*
X186515404Y-106640261D01*
X186372547Y-106687880D01*
X186277309Y-106687880D01*
X186134452Y-106640261D01*
X186039214Y-106545023D01*
X185991595Y-106449785D01*
X185943976Y-106259309D01*
X185943976Y-106116452D01*
X185991595Y-105925976D01*
X186039214Y-105830738D01*
X186134452Y-105735500D01*
X186277309Y-105687880D01*
X186372547Y-105687880D01*
X186515404Y-105735500D01*
X186563023Y-105783119D01*
X187277309Y-105687880D02*
X187277309Y-106402166D01*
X187229690Y-106545023D01*
X187134452Y-106640261D01*
X186991595Y-106687880D01*
X186896357Y-106687880D01*
X188229690Y-106687880D02*
X187753500Y-106687880D01*
X187753500Y-105687880D01*
X189134452Y-106592642D02*
X189086833Y-106640261D01*
X188943976Y-106687880D01*
X188848738Y-106687880D01*
X188705880Y-106640261D01*
X188610642Y-106545023D01*
X188563023Y-106449785D01*
X188515404Y-106259309D01*
X188515404Y-106116452D01*
X188563023Y-105925976D01*
X188610642Y-105830738D01*
X188705880Y-105735500D01*
X188848738Y-105687880D01*
X188943976Y-105687880D01*
X189086833Y-105735500D01*
X189134452Y-105783119D01*
X189848738Y-105687880D02*
X189848738Y-106402166D01*
X189801119Y-106545023D01*
X189705880Y-106640261D01*
X189563023Y-106687880D01*
X189467785Y-106687880D01*
X190801119Y-106687880D02*
X190324928Y-106687880D01*
X190324928Y-105687880D01*
X191705880Y-106592642D02*
X191658261Y-106640261D01*
X191515404Y-106687880D01*
X191420166Y-106687880D01*
X191277309Y-106640261D01*
X191182071Y-106545023D01*
X191134452Y-106449785D01*
X191086833Y-106259309D01*
X191086833Y-106116452D01*
X191134452Y-105925976D01*
X191182071Y-105830738D01*
X191277309Y-105735500D01*
X191420166Y-105687880D01*
X191515404Y-105687880D01*
X191658261Y-105735500D01*
X191705880Y-105783119D01*
X173783619Y-104810523D02*
X172783619Y-105143857D01*
X173783619Y-105477190D01*
X172831238Y-106239095D02*
X172783619Y-106143857D01*
X172783619Y-105953380D01*
X172831238Y-105858142D01*
X172878857Y-105810523D01*
X172974095Y-105762904D01*
X173259809Y-105762904D01*
X173355047Y-105810523D01*
X173402666Y-105858142D01*
X173450285Y-105953380D01*
X173450285Y-106143857D01*
X173402666Y-106239095D01*
X172831238Y-107096238D02*
X172783619Y-107001000D01*
X172783619Y-106810523D01*
X172831238Y-106715285D01*
X172878857Y-106667666D01*
X172974095Y-106620047D01*
X173259809Y-106620047D01*
X173355047Y-106667666D01*
X173402666Y-106715285D01*
X173450285Y-106810523D01*
X173450285Y-107001000D01*
X173402666Y-107096238D01*
X163436000Y-105039095D02*
X163483619Y-104943857D01*
X163483619Y-104801000D01*
X163436000Y-104658142D01*
X163340761Y-104562904D01*
X163245523Y-104515285D01*
X163055047Y-104467666D01*
X162912190Y-104467666D01*
X162721714Y-104515285D01*
X162626476Y-104562904D01*
X162531238Y-104658142D01*
X162483619Y-104801000D01*
X162483619Y-104896238D01*
X162531238Y-105039095D01*
X162578857Y-105086714D01*
X162912190Y-105086714D01*
X162912190Y-104896238D01*
X162483619Y-105515285D02*
X163483619Y-105515285D01*
X162483619Y-106086714D01*
X163483619Y-106086714D01*
X162483619Y-106562904D02*
X163483619Y-106562904D01*
X163483619Y-106801000D01*
X163436000Y-106943857D01*
X163340761Y-107039095D01*
X163245523Y-107086714D01*
X163055047Y-107134333D01*
X162912190Y-107134333D01*
X162721714Y-107086714D01*
X162626476Y-107039095D01*
X162531238Y-106943857D01*
X162483619Y-106801000D01*
X162483619Y-106562904D01*
X165231238Y-104710523D02*
X165183619Y-104853380D01*
X165183619Y-105091476D01*
X165231238Y-105186714D01*
X165278857Y-105234333D01*
X165374095Y-105281952D01*
X165469333Y-105281952D01*
X165564571Y-105234333D01*
X165612190Y-105186714D01*
X165659809Y-105091476D01*
X165707428Y-104901000D01*
X165755047Y-104805761D01*
X165802666Y-104758142D01*
X165897904Y-104710523D01*
X165993142Y-104710523D01*
X166088380Y-104758142D01*
X166136000Y-104805761D01*
X166183619Y-104901000D01*
X166183619Y-105139095D01*
X166136000Y-105281952D01*
X165278857Y-106281952D02*
X165231238Y-106234333D01*
X165183619Y-106091476D01*
X165183619Y-105996238D01*
X165231238Y-105853380D01*
X165326476Y-105758142D01*
X165421714Y-105710523D01*
X165612190Y-105662904D01*
X165755047Y-105662904D01*
X165945523Y-105710523D01*
X166040761Y-105758142D01*
X166136000Y-105853380D01*
X166183619Y-105996238D01*
X166183619Y-106091476D01*
X166136000Y-106234333D01*
X166088380Y-106281952D01*
X165183619Y-107186714D02*
X165183619Y-106710523D01*
X166183619Y-106710523D01*
X167731238Y-104686714D02*
X167683619Y-104829571D01*
X167683619Y-105067666D01*
X167731238Y-105162904D01*
X167778857Y-105210523D01*
X167874095Y-105258142D01*
X167969333Y-105258142D01*
X168064571Y-105210523D01*
X168112190Y-105162904D01*
X168159809Y-105067666D01*
X168207428Y-104877190D01*
X168255047Y-104781952D01*
X168302666Y-104734333D01*
X168397904Y-104686714D01*
X168493142Y-104686714D01*
X168588380Y-104734333D01*
X168636000Y-104781952D01*
X168683619Y-104877190D01*
X168683619Y-105115285D01*
X168636000Y-105258142D01*
X167683619Y-105686714D02*
X168683619Y-105686714D01*
X168683619Y-105924809D01*
X168636000Y-106067666D01*
X168540761Y-106162904D01*
X168445523Y-106210523D01*
X168255047Y-106258142D01*
X168112190Y-106258142D01*
X167921714Y-106210523D01*
X167826476Y-106162904D01*
X167731238Y-106067666D01*
X167683619Y-105924809D01*
X167683619Y-105686714D01*
X167969333Y-106639095D02*
X167969333Y-107115285D01*
X167683619Y-106543857D02*
X168683619Y-106877190D01*
X167683619Y-107210523D01*
X170278857Y-105096238D02*
X170231238Y-105048619D01*
X170183619Y-104905761D01*
X170183619Y-104810523D01*
X170231238Y-104667666D01*
X170326476Y-104572428D01*
X170421714Y-104524809D01*
X170612190Y-104477190D01*
X170755047Y-104477190D01*
X170945523Y-104524809D01*
X171040761Y-104572428D01*
X171136000Y-104667666D01*
X171183619Y-104810523D01*
X171183619Y-104905761D01*
X171136000Y-105048619D01*
X171088380Y-105096238D01*
X170183619Y-105953380D02*
X170707428Y-105953380D01*
X170802666Y-105905761D01*
X170850285Y-105810523D01*
X170850285Y-105620047D01*
X170802666Y-105524809D01*
X170231238Y-105953380D02*
X170183619Y-105858142D01*
X170183619Y-105620047D01*
X170231238Y-105524809D01*
X170326476Y-105477190D01*
X170421714Y-105477190D01*
X170516952Y-105524809D01*
X170564571Y-105620047D01*
X170564571Y-105858142D01*
X170612190Y-105953380D01*
X170183619Y-106429571D02*
X170850285Y-106429571D01*
X170659809Y-106429571D02*
X170755047Y-106477190D01*
X170802666Y-106524809D01*
X170850285Y-106620047D01*
X170850285Y-106715285D01*
X170183619Y-107477190D02*
X171183619Y-107477190D01*
X170231238Y-107477190D02*
X170183619Y-107381952D01*
X170183619Y-107191476D01*
X170231238Y-107096238D01*
X170278857Y-107048619D01*
X170374095Y-107001000D01*
X170659809Y-107001000D01*
X170755047Y-107048619D01*
X170802666Y-107096238D01*
X170850285Y-107191476D01*
X170850285Y-107381952D01*
X170802666Y-107477190D01*
X171288000Y-145274000D02*
X170088000Y-145274000D01*
X170088000Y-143524000D02*
X171288000Y-143524000D01*
X177835000Y-145683000D02*
X179035000Y-145683000D01*
X179035000Y-147433000D02*
X177835000Y-147433000D01*
X177835000Y-143651000D02*
X179035000Y-143651000D01*
X179035000Y-145401000D02*
X177835000Y-145401000D01*
X177708000Y-139587000D02*
X178908000Y-139587000D01*
X178908000Y-141337000D02*
X177708000Y-141337000D01*
X177708000Y-137555000D02*
X178908000Y-137555000D01*
X178908000Y-139305000D02*
X177708000Y-139305000D01*
X171281500Y-142988000D02*
X170081500Y-142988000D01*
X170081500Y-141238000D02*
X171281500Y-141238000D01*
D11*
X178759752Y-143229000D02*
X178237248Y-143229000D01*
X178759752Y-141759000D02*
X178237248Y-141759000D01*
X167132000Y-126301500D02*
X167144000Y-126555500D01*
X183769000Y-126301500D02*
X167132000Y-126301500D01*
X183744000Y-129641500D02*
X183769000Y-126301500D01*
X167144000Y-129641500D02*
X167144000Y-126555500D01*
X162538000Y-144462500D02*
X164951000Y-144462500D01*
X164951000Y-134683500D02*
X164951000Y-144462500D01*
X162538000Y-134683500D02*
X164951000Y-134683500D01*
X162538000Y-144462500D02*
X162538000Y-134683500D01*
X167144000Y-152741500D02*
X167144000Y-129641500D01*
X183744000Y-152741500D02*
X167144000Y-152741500D01*
X183744000Y-129641500D02*
X183744000Y-152741500D01*
X190049000Y-153513500D02*
X162249000Y-153513500D01*
X190049000Y-153513500D02*
X190049000Y-126013500D01*
X162249000Y-126013500D02*
X190049000Y-126013500D01*
X162249000Y-153513500D02*
X162249000Y-126013500D01*
X172069000Y-125950000D02*
X170069000Y-125950000D01*
X172069000Y-123150000D02*
X172069000Y-125950000D01*
X170069000Y-123150000D02*
X172069000Y-123150000D01*
X170069000Y-125950000D02*
X170069000Y-123150000D01*
X193500000Y-130201500D02*
X193500000Y-129751500D01*
X195350000Y-130201500D02*
X193500000Y-130201500D01*
X197900000Y-122401500D02*
X197650000Y-122401500D01*
X197900000Y-130201500D02*
X197650000Y-130201500D01*
X195350000Y-122401500D02*
X193500000Y-122401500D01*
X193500000Y-122401500D02*
X193500000Y-122851500D01*
X192950000Y-128001500D02*
X192950000Y-127551500D01*
X192950000Y-128001500D02*
X193400000Y-128001500D01*
D10*
X183169000Y-122823000D02*
X184369000Y-122823000D01*
X184369000Y-124573000D02*
X183169000Y-124573000D01*
X179168500Y-132602000D02*
X180368500Y-132602000D01*
X180368500Y-134352000D02*
X179168500Y-134352000D01*
D11*
X174725000Y-123817748D02*
X174725000Y-124340252D01*
X173255000Y-123817748D02*
X173255000Y-124340252D01*
D10*
X172050000Y-136384000D02*
X170850000Y-136384000D01*
X170850000Y-134634000D02*
X172050000Y-134634000D01*
X172050000Y-138924000D02*
X170850000Y-138924000D01*
X170850000Y-137174000D02*
X172050000Y-137174000D01*
D12*
X169205219Y-117983000D02*
G75*
G03*
X169205219Y-117983000I-803219J0D01*
G01*
D13*
X171450000Y-121031000D02*
X165354000Y-121031000D01*
X171450000Y-114935000D02*
X171450000Y-121031000D01*
X165354000Y-114935000D02*
X171450000Y-114935000D01*
X165354000Y-121031000D02*
X165354000Y-114935000D01*
D14*
X175069500Y-101663500D02*
X175069500Y-119443500D01*
X197929500Y-119443500D02*
X197929500Y-101663500D01*
X197929500Y-119443500D02*
X175069500Y-119443500D01*
X197929500Y-101663500D02*
X175069500Y-101663500D01*
D11*
X175589000Y-130042500D02*
X175589000Y-131717500D01*
X175329000Y-130042500D02*
X175589000Y-130042500D01*
X175329000Y-127317500D02*
X175329000Y-130042500D01*
X175329000Y-124592500D02*
X175589000Y-124592500D01*
X175329000Y-127317500D02*
X175329000Y-124592500D01*
X180779000Y-130042500D02*
X180519000Y-130042500D01*
X180779000Y-127317500D02*
X180779000Y-130042500D01*
X180779000Y-124592500D02*
X180519000Y-124592500D01*
X180779000Y-127317500D02*
X180779000Y-124592500D01*
X168590500Y-123350000D02*
X168590500Y-124460000D01*
X167830500Y-123350000D02*
X168590500Y-123350000D01*
X167070500Y-125023471D02*
X167070500Y-125570000D01*
X167070500Y-123350000D02*
X167070500Y-123896529D01*
X167070500Y-125570000D02*
X163325500Y-125570000D01*
X167070500Y-123350000D02*
X163325500Y-123350000D01*
X163325500Y-124767530D02*
X163325500Y-125570000D01*
X163325500Y-123350000D02*
X163325500Y-124152470D01*
D15*
X197308500Y-147621500D02*
X197308500Y-137921500D01*
X197308500Y-137921500D02*
X197408500Y-137221500D01*
X197408500Y-137221500D02*
X197508500Y-136621500D01*
X197508500Y-136621500D02*
X197708500Y-136221500D01*
X197708500Y-136221500D02*
X198008500Y-135921500D01*
X198008500Y-135921500D02*
X198008500Y-132921500D01*
X198008500Y-132921500D02*
X183508500Y-132921500D01*
X183508500Y-147621500D02*
X183508500Y-132921500D01*
X183508500Y-147621500D02*
X197308500Y-147621500D01*
D11*
X172992500Y-111689000D02*
X170132500Y-111689000D01*
X172992500Y-113609000D02*
X172992500Y-111689000D01*
X170132500Y-113609000D02*
X172992500Y-113609000D01*
X161738000Y-101222500D02*
X161738000Y-103882500D01*
X171958000Y-101222500D02*
X161738000Y-101222500D01*
X171958000Y-103882500D02*
X161738000Y-103882500D01*
X171958000Y-101222500D02*
X171958000Y-103882500D01*
X173228000Y-101222500D02*
X174558000Y-101222500D01*
X174558000Y-101222500D02*
X174558000Y-102552500D01*
X170436000Y-130246000D02*
X171896000Y-130246000D01*
X170436000Y-133406000D02*
X172596000Y-133406000D01*
X170436000Y-133406000D02*
X170436000Y-132476000D01*
X170436000Y-130246000D02*
X170436000Y-131176000D01*
D10*
X170659500Y-109488000D02*
X171859500Y-109488000D01*
X171859500Y-111238000D02*
X170659500Y-111238000D01*
X165065000Y-111238000D02*
X163865000Y-111238000D01*
X163865000Y-109488000D02*
X165065000Y-109488000D01*
X163865000Y-111774000D02*
X165065000Y-111774000D01*
X165065000Y-113524000D02*
X163865000Y-113524000D01*
X171993000Y-129524500D02*
X170793000Y-129524500D01*
X170793000Y-127774500D02*
X171993000Y-127774500D01*
X170648333Y-146565880D02*
X170315000Y-146089690D01*
X170076904Y-146565880D02*
X170076904Y-145565880D01*
X170457857Y-145565880D01*
X170553095Y-145613500D01*
X170600714Y-145661119D01*
X170648333Y-145756357D01*
X170648333Y-145899214D01*
X170600714Y-145994452D01*
X170553095Y-146042071D01*
X170457857Y-146089690D01*
X170076904Y-146089690D01*
X171553095Y-145565880D02*
X171076904Y-145565880D01*
X171029285Y-146042071D01*
X171076904Y-145994452D01*
X171172142Y-145946833D01*
X171410238Y-145946833D01*
X171505476Y-145994452D01*
X171553095Y-146042071D01*
X171600714Y-146137309D01*
X171600714Y-146375404D01*
X171553095Y-146470642D01*
X171505476Y-146518261D01*
X171410238Y-146565880D01*
X171172142Y-146565880D01*
X171076904Y-146518261D01*
X171029285Y-146470642D01*
X175029833Y-147010380D02*
X174696500Y-146534190D01*
X174458404Y-147010380D02*
X174458404Y-146010380D01*
X174839357Y-146010380D01*
X174934595Y-146058000D01*
X174982214Y-146105619D01*
X175029833Y-146200857D01*
X175029833Y-146343714D01*
X174982214Y-146438952D01*
X174934595Y-146486571D01*
X174839357Y-146534190D01*
X174458404Y-146534190D01*
X175506023Y-147010380D02*
X175696500Y-147010380D01*
X175791738Y-146962761D01*
X175839357Y-146915142D01*
X175934595Y-146772285D01*
X175982214Y-146581809D01*
X175982214Y-146200857D01*
X175934595Y-146105619D01*
X175886976Y-146058000D01*
X175791738Y-146010380D01*
X175601261Y-146010380D01*
X175506023Y-146058000D01*
X175458404Y-146105619D01*
X175410785Y-146200857D01*
X175410785Y-146438952D01*
X175458404Y-146534190D01*
X175506023Y-146581809D01*
X175601261Y-146629428D01*
X175791738Y-146629428D01*
X175886976Y-146581809D01*
X175934595Y-146534190D01*
X175982214Y-146438952D01*
X175029833Y-144978380D02*
X174696500Y-144502190D01*
X174458404Y-144978380D02*
X174458404Y-143978380D01*
X174839357Y-143978380D01*
X174934595Y-144026000D01*
X174982214Y-144073619D01*
X175029833Y-144168857D01*
X175029833Y-144311714D01*
X174982214Y-144406952D01*
X174934595Y-144454571D01*
X174839357Y-144502190D01*
X174458404Y-144502190D01*
X175601261Y-144406952D02*
X175506023Y-144359333D01*
X175458404Y-144311714D01*
X175410785Y-144216476D01*
X175410785Y-144168857D01*
X175458404Y-144073619D01*
X175506023Y-144026000D01*
X175601261Y-143978380D01*
X175791738Y-143978380D01*
X175886976Y-144026000D01*
X175934595Y-144073619D01*
X175982214Y-144168857D01*
X175982214Y-144216476D01*
X175934595Y-144311714D01*
X175886976Y-144359333D01*
X175791738Y-144406952D01*
X175601261Y-144406952D01*
X175506023Y-144454571D01*
X175458404Y-144502190D01*
X175410785Y-144597428D01*
X175410785Y-144787904D01*
X175458404Y-144883142D01*
X175506023Y-144930761D01*
X175601261Y-144978380D01*
X175791738Y-144978380D01*
X175886976Y-144930761D01*
X175934595Y-144883142D01*
X175982214Y-144787904D01*
X175982214Y-144597428D01*
X175934595Y-144502190D01*
X175886976Y-144454571D01*
X175791738Y-144406952D01*
X174966333Y-140977880D02*
X174633000Y-140501690D01*
X174394904Y-140977880D02*
X174394904Y-139977880D01*
X174775857Y-139977880D01*
X174871095Y-140025500D01*
X174918714Y-140073119D01*
X174966333Y-140168357D01*
X174966333Y-140311214D01*
X174918714Y-140406452D01*
X174871095Y-140454071D01*
X174775857Y-140501690D01*
X174394904Y-140501690D01*
X175299666Y-139977880D02*
X175966333Y-139977880D01*
X175537761Y-140977880D01*
X174966333Y-138818880D02*
X174633000Y-138342690D01*
X174394904Y-138818880D02*
X174394904Y-137818880D01*
X174775857Y-137818880D01*
X174871095Y-137866500D01*
X174918714Y-137914119D01*
X174966333Y-138009357D01*
X174966333Y-138152214D01*
X174918714Y-138247452D01*
X174871095Y-138295071D01*
X174775857Y-138342690D01*
X174394904Y-138342690D01*
X175823476Y-137818880D02*
X175633000Y-137818880D01*
X175537761Y-137866500D01*
X175490142Y-137914119D01*
X175394904Y-138056976D01*
X175347285Y-138247452D01*
X175347285Y-138628404D01*
X175394904Y-138723642D01*
X175442523Y-138771261D01*
X175537761Y-138818880D01*
X175728238Y-138818880D01*
X175823476Y-138771261D01*
X175871095Y-138723642D01*
X175918714Y-138628404D01*
X175918714Y-138390309D01*
X175871095Y-138295071D01*
X175823476Y-138247452D01*
X175728238Y-138199833D01*
X175537761Y-138199833D01*
X175442523Y-138247452D01*
X175394904Y-138295071D01*
X175347285Y-138390309D01*
X170521333Y-140977880D02*
X170188000Y-140501690D01*
X169949904Y-140977880D02*
X169949904Y-139977880D01*
X170330857Y-139977880D01*
X170426095Y-140025500D01*
X170473714Y-140073119D01*
X170521333Y-140168357D01*
X170521333Y-140311214D01*
X170473714Y-140406452D01*
X170426095Y-140454071D01*
X170330857Y-140501690D01*
X169949904Y-140501690D01*
X171378476Y-140311214D02*
X171378476Y-140977880D01*
X171140380Y-139930261D02*
X170902285Y-140644547D01*
X171521333Y-140644547D01*
X175283833Y-142914642D02*
X175236214Y-142962261D01*
X175093357Y-143009880D01*
X174998119Y-143009880D01*
X174855261Y-142962261D01*
X174760023Y-142867023D01*
X174712404Y-142771785D01*
X174664785Y-142581309D01*
X174664785Y-142438452D01*
X174712404Y-142247976D01*
X174760023Y-142152738D01*
X174855261Y-142057500D01*
X174998119Y-142009880D01*
X175093357Y-142009880D01*
X175236214Y-142057500D01*
X175283833Y-142105119D01*
X175664785Y-142105119D02*
X175712404Y-142057500D01*
X175807642Y-142009880D01*
X176045738Y-142009880D01*
X176140976Y-142057500D01*
X176188595Y-142105119D01*
X176236214Y-142200357D01*
X176236214Y-142295595D01*
X176188595Y-142438452D01*
X175617166Y-143009880D01*
X176236214Y-143009880D01*
X186872571Y-152233166D02*
X186920190Y-152090309D01*
X186967809Y-152042690D01*
X187063047Y-151995071D01*
X187205904Y-151995071D01*
X187301142Y-152042690D01*
X187348761Y-152090309D01*
X187396380Y-152185547D01*
X187396380Y-152566500D01*
X186396380Y-152566500D01*
X186396380Y-152233166D01*
X186444000Y-152137928D01*
X186491619Y-152090309D01*
X186586857Y-152042690D01*
X186682095Y-152042690D01*
X186777333Y-152090309D01*
X186824952Y-152137928D01*
X186872571Y-152233166D01*
X186872571Y-152566500D01*
X187396380Y-151566500D02*
X186729714Y-151566500D01*
X186920190Y-151566500D02*
X186824952Y-151518880D01*
X186777333Y-151471261D01*
X186729714Y-151376023D01*
X186729714Y-151280785D01*
X187396380Y-150518880D02*
X186396380Y-150518880D01*
X187348761Y-150518880D02*
X187396380Y-150614119D01*
X187396380Y-150804595D01*
X187348761Y-150899833D01*
X187301142Y-150947452D01*
X187205904Y-150995071D01*
X186920190Y-150995071D01*
X186824952Y-150947452D01*
X186777333Y-150899833D01*
X186729714Y-150804595D01*
X186729714Y-150614119D01*
X186777333Y-150518880D01*
X187396380Y-149518880D02*
X187396380Y-150090309D01*
X187396380Y-149804595D02*
X186396380Y-149804595D01*
X186539238Y-149899833D01*
X186634476Y-149995071D01*
X186682095Y-150090309D01*
X170465833Y-121862904D02*
X170465833Y-122434333D01*
X170427738Y-122548619D01*
X170351547Y-122624809D01*
X170237261Y-122662904D01*
X170161071Y-122662904D01*
X170846785Y-122662904D02*
X170846785Y-121862904D01*
X171151547Y-121862904D01*
X171227738Y-121901000D01*
X171265833Y-121939095D01*
X171303928Y-122015285D01*
X171303928Y-122129571D01*
X171265833Y-122205761D01*
X171227738Y-122243857D01*
X171151547Y-122281952D01*
X170846785Y-122281952D01*
X172065833Y-122662904D02*
X171608690Y-122662904D01*
X171837261Y-122662904D02*
X171837261Y-121862904D01*
X171761071Y-121977190D01*
X171684880Y-122053380D01*
X171608690Y-122091476D01*
X191602380Y-127111023D02*
X192316666Y-127111023D01*
X192459523Y-127158642D01*
X192554761Y-127253880D01*
X192602380Y-127396738D01*
X192602380Y-127491976D01*
X191602380Y-126730071D02*
X191602380Y-126111023D01*
X191983333Y-126444357D01*
X191983333Y-126301500D01*
X192030952Y-126206261D01*
X192078571Y-126158642D01*
X192173809Y-126111023D01*
X192411904Y-126111023D01*
X192507142Y-126158642D01*
X192554761Y-126206261D01*
X192602380Y-126301500D01*
X192602380Y-126587214D01*
X192554761Y-126682452D01*
X192507142Y-126730071D01*
X191602380Y-125491976D02*
X191602380Y-125396738D01*
X191650000Y-125301500D01*
X191697619Y-125253880D01*
X191792857Y-125206261D01*
X191983333Y-125158642D01*
X192221428Y-125158642D01*
X192411904Y-125206261D01*
X192507142Y-125253880D01*
X192554761Y-125301500D01*
X192602380Y-125396738D01*
X192602380Y-125491976D01*
X192554761Y-125587214D01*
X192507142Y-125634833D01*
X192411904Y-125682452D01*
X192221428Y-125730071D01*
X191983333Y-125730071D01*
X191792857Y-125682452D01*
X191697619Y-125634833D01*
X191650000Y-125587214D01*
X191602380Y-125491976D01*
X183538833Y-122435880D02*
X183205500Y-121959690D01*
X182967404Y-122435880D02*
X182967404Y-121435880D01*
X183348357Y-121435880D01*
X183443595Y-121483500D01*
X183491214Y-121531119D01*
X183538833Y-121626357D01*
X183538833Y-121769214D01*
X183491214Y-121864452D01*
X183443595Y-121912071D01*
X183348357Y-121959690D01*
X182967404Y-121959690D01*
X183872166Y-121435880D02*
X184491214Y-121435880D01*
X184157880Y-121816833D01*
X184300738Y-121816833D01*
X184395976Y-121864452D01*
X184443595Y-121912071D01*
X184491214Y-122007309D01*
X184491214Y-122245404D01*
X184443595Y-122340642D01*
X184395976Y-122388261D01*
X184300738Y-122435880D01*
X184015023Y-122435880D01*
X183919785Y-122388261D01*
X183872166Y-122340642D01*
X176242833Y-134056380D02*
X175909500Y-133580190D01*
X175671404Y-134056380D02*
X175671404Y-133056380D01*
X176052357Y-133056380D01*
X176147595Y-133104000D01*
X176195214Y-133151619D01*
X176242833Y-133246857D01*
X176242833Y-133389714D01*
X176195214Y-133484952D01*
X176147595Y-133532571D01*
X176052357Y-133580190D01*
X175671404Y-133580190D01*
X176623785Y-133151619D02*
X176671404Y-133104000D01*
X176766642Y-133056380D01*
X177004738Y-133056380D01*
X177099976Y-133104000D01*
X177147595Y-133151619D01*
X177195214Y-133246857D01*
X177195214Y-133342095D01*
X177147595Y-133484952D01*
X176576166Y-134056380D01*
X177195214Y-134056380D01*
X174474142Y-121261166D02*
X174521761Y-121308785D01*
X174569380Y-121451642D01*
X174569380Y-121546880D01*
X174521761Y-121689738D01*
X174426523Y-121784976D01*
X174331285Y-121832595D01*
X174140809Y-121880214D01*
X173997952Y-121880214D01*
X173807476Y-121832595D01*
X173712238Y-121784976D01*
X173617000Y-121689738D01*
X173569380Y-121546880D01*
X173569380Y-121451642D01*
X173617000Y-121308785D01*
X173664619Y-121261166D01*
X174569380Y-120308785D02*
X174569380Y-120880214D01*
X174569380Y-120594500D02*
X173569380Y-120594500D01*
X173712238Y-120689738D01*
X173807476Y-120784976D01*
X173855095Y-120880214D01*
X167269928Y-136093880D02*
X166969928Y-135617690D01*
X166755642Y-136093880D02*
X166755642Y-135093880D01*
X167098500Y-135093880D01*
X167184214Y-135141500D01*
X167227071Y-135189119D01*
X167269928Y-135284357D01*
X167269928Y-135427214D01*
X167227071Y-135522452D01*
X167184214Y-135570071D01*
X167098500Y-135617690D01*
X166755642Y-135617690D01*
X167612785Y-135189119D02*
X167655642Y-135141500D01*
X167741357Y-135093880D01*
X167955642Y-135093880D01*
X168041357Y-135141500D01*
X168084214Y-135189119D01*
X168127071Y-135284357D01*
X168127071Y-135379595D01*
X168084214Y-135522452D01*
X167569928Y-136093880D01*
X168127071Y-136093880D01*
X168427071Y-135093880D02*
X168984214Y-135093880D01*
X168684214Y-135474833D01*
X168812785Y-135474833D01*
X168898500Y-135522452D01*
X168941357Y-135570071D01*
X168984214Y-135665309D01*
X168984214Y-135903404D01*
X168941357Y-135998642D01*
X168898500Y-136046261D01*
X168812785Y-136093880D01*
X168555642Y-136093880D01*
X168469928Y-136046261D01*
X168427071Y-135998642D01*
X167315428Y-138564880D02*
X167015428Y-138088690D01*
X166801142Y-138564880D02*
X166801142Y-137564880D01*
X167144000Y-137564880D01*
X167229714Y-137612500D01*
X167272571Y-137660119D01*
X167315428Y-137755357D01*
X167315428Y-137898214D01*
X167272571Y-137993452D01*
X167229714Y-138041071D01*
X167144000Y-138088690D01*
X166801142Y-138088690D01*
X167658285Y-137660119D02*
X167701142Y-137612500D01*
X167786857Y-137564880D01*
X168001142Y-137564880D01*
X168086857Y-137612500D01*
X168129714Y-137660119D01*
X168172571Y-137755357D01*
X168172571Y-137850595D01*
X168129714Y-137993452D01*
X167615428Y-138564880D01*
X168172571Y-138564880D01*
X168515428Y-137660119D02*
X168558285Y-137612500D01*
X168644000Y-137564880D01*
X168858285Y-137564880D01*
X168944000Y-137612500D01*
X168986857Y-137660119D01*
X169029714Y-137755357D01*
X169029714Y-137850595D01*
X168986857Y-137993452D01*
X168472571Y-138564880D01*
X169029714Y-138564880D01*
D16*
X163836047Y-119676333D02*
X163896523Y-119494904D01*
X163896523Y-119192523D01*
X163836047Y-119071571D01*
X163775571Y-119011095D01*
X163654619Y-118950619D01*
X163533666Y-118950619D01*
X163412714Y-119011095D01*
X163352238Y-119071571D01*
X163291761Y-119192523D01*
X163231285Y-119434428D01*
X163170809Y-119555380D01*
X163110333Y-119615857D01*
X162989380Y-119676333D01*
X162868428Y-119676333D01*
X162747476Y-119615857D01*
X162687000Y-119555380D01*
X162626523Y-119434428D01*
X162626523Y-119132047D01*
X162687000Y-118950619D01*
X162626523Y-118527285D02*
X163896523Y-118224904D01*
X162989380Y-117983000D01*
X163896523Y-117741095D01*
X162626523Y-117438714D01*
X163896523Y-116289666D02*
X163896523Y-117015380D01*
X163896523Y-116652523D02*
X162626523Y-116652523D01*
X162807952Y-116773476D01*
X162928904Y-116894428D01*
X162989380Y-117015380D01*
D10*
X194571880Y-111363023D02*
X193571880Y-111363023D01*
X194286166Y-111029690D01*
X193571880Y-110696357D01*
X194571880Y-110696357D01*
X194571880Y-109696357D02*
X194571880Y-110267785D01*
X194571880Y-109982071D02*
X193571880Y-109982071D01*
X193714738Y-110077309D01*
X193809976Y-110172547D01*
X193857595Y-110267785D01*
X177506380Y-127825404D02*
X178315904Y-127825404D01*
X178411142Y-127777785D01*
X178458761Y-127730166D01*
X178506380Y-127634928D01*
X178506380Y-127444452D01*
X178458761Y-127349214D01*
X178411142Y-127301595D01*
X178315904Y-127253976D01*
X177506380Y-127253976D01*
X178506380Y-126253976D02*
X178506380Y-126825404D01*
X178506380Y-126539690D02*
X177506380Y-126539690D01*
X177649238Y-126634928D01*
X177744476Y-126730166D01*
X177792095Y-126825404D01*
X101452380Y-106509523D02*
X102166666Y-106509523D01*
X102309523Y-106557142D01*
X102404761Y-106652380D01*
X102452380Y-106795238D01*
X102452380Y-106890476D01*
X101547619Y-106080952D02*
X101500000Y-106033333D01*
X101452380Y-105938095D01*
X101452380Y-105700000D01*
X101500000Y-105604761D01*
X101547619Y-105557142D01*
X101642857Y-105509523D01*
X101738095Y-105509523D01*
X101880952Y-105557142D01*
X102452380Y-106128571D01*
X102452380Y-105509523D01*
X101547619Y-105128571D02*
X101500000Y-105080952D01*
X101452380Y-104985714D01*
X101452380Y-104747619D01*
X101500000Y-104652380D01*
X101547619Y-104604761D01*
X101642857Y-104557142D01*
X101738095Y-104557142D01*
X101880952Y-104604761D01*
X102452380Y-105176190D01*
X102452380Y-104557142D01*
X162075880Y-125333023D02*
X162790166Y-125333023D01*
X162933023Y-125380642D01*
X163028261Y-125475880D01*
X163075880Y-125618738D01*
X163075880Y-125713976D01*
X162171119Y-124904452D02*
X162123500Y-124856833D01*
X162075880Y-124761595D01*
X162075880Y-124523500D01*
X162123500Y-124428261D01*
X162171119Y-124380642D01*
X162266357Y-124333023D01*
X162361595Y-124333023D01*
X162504452Y-124380642D01*
X163075880Y-124952071D01*
X163075880Y-124333023D01*
X162075880Y-123999690D02*
X162075880Y-123380642D01*
X162456833Y-123713976D01*
X162456833Y-123571119D01*
X162504452Y-123475880D01*
X162552071Y-123428261D01*
X162647309Y-123380642D01*
X162885404Y-123380642D01*
X162980642Y-123428261D01*
X163028261Y-123475880D01*
X163075880Y-123571119D01*
X163075880Y-123856833D01*
X163028261Y-123952071D01*
X162980642Y-123999690D01*
X189860880Y-141081023D02*
X190575166Y-141081023D01*
X190718023Y-141128642D01*
X190813261Y-141223880D01*
X190860880Y-141366738D01*
X190860880Y-141461976D01*
X190860880Y-140081023D02*
X190860880Y-140652452D01*
X190860880Y-140366738D02*
X189860880Y-140366738D01*
X190003738Y-140461976D01*
X190098976Y-140557214D01*
X190146595Y-140652452D01*
X189860880Y-139461976D02*
X189860880Y-139366738D01*
X189908500Y-139271500D01*
X189956119Y-139223880D01*
X190051357Y-139176261D01*
X190241833Y-139128642D01*
X190479928Y-139128642D01*
X190670404Y-139176261D01*
X190765642Y-139223880D01*
X190813261Y-139271500D01*
X190860880Y-139366738D01*
X190860880Y-139461976D01*
X190813261Y-139557214D01*
X190765642Y-139604833D01*
X190670404Y-139652452D01*
X190479928Y-139700071D01*
X190241833Y-139700071D01*
X190051357Y-139652452D01*
X189956119Y-139604833D01*
X189908500Y-139557214D01*
X189860880Y-139461976D01*
X167294404Y-113001380D02*
X167294404Y-112001380D01*
X167532500Y-112001380D01*
X167675357Y-112049000D01*
X167770595Y-112144238D01*
X167818214Y-112239476D01*
X167865833Y-112429952D01*
X167865833Y-112572809D01*
X167818214Y-112763285D01*
X167770595Y-112858523D01*
X167675357Y-112953761D01*
X167532500Y-113001380D01*
X167294404Y-113001380D01*
X168818214Y-113001380D02*
X168246785Y-113001380D01*
X168532500Y-113001380D02*
X168532500Y-112001380D01*
X168437261Y-112144238D01*
X168342023Y-112239476D01*
X168246785Y-112287095D01*
X159980380Y-103425523D02*
X160694666Y-103425523D01*
X160837523Y-103473142D01*
X160932761Y-103568380D01*
X160980380Y-103711238D01*
X160980380Y-103806476D01*
X160980380Y-102425523D02*
X160980380Y-102996952D01*
X160980380Y-102711238D02*
X159980380Y-102711238D01*
X160123238Y-102806476D01*
X160218476Y-102901714D01*
X160266095Y-102996952D01*
X160980380Y-101473142D02*
X160980380Y-102044571D01*
X160980380Y-101758857D02*
X159980380Y-101758857D01*
X160123238Y-101854095D01*
X160218476Y-101949333D01*
X160266095Y-102044571D01*
X101452380Y-149109523D02*
X102166666Y-149109523D01*
X102309523Y-149157142D01*
X102404761Y-149252380D01*
X102452380Y-149395238D01*
X102452380Y-149490476D01*
X101547619Y-148680952D02*
X101500000Y-148633333D01*
X101452380Y-148538095D01*
X101452380Y-148300000D01*
X101500000Y-148204761D01*
X101547619Y-148157142D01*
X101642857Y-148109523D01*
X101738095Y-148109523D01*
X101880952Y-148157142D01*
X102452380Y-148728571D01*
X102452380Y-148109523D01*
X102452380Y-147157142D02*
X102452380Y-147728571D01*
X102452380Y-147442857D02*
X101452380Y-147442857D01*
X101595238Y-147538095D01*
X101690476Y-147633333D01*
X101738095Y-147728571D01*
X169243619Y-132297428D02*
X169196000Y-132392666D01*
X169100761Y-132487904D01*
X168957904Y-132630761D01*
X168910285Y-132726000D01*
X168910285Y-132821238D01*
X169148380Y-132773619D02*
X169100761Y-132868857D01*
X169005523Y-132964095D01*
X168815047Y-133011714D01*
X168481714Y-133011714D01*
X168291238Y-132964095D01*
X168196000Y-132868857D01*
X168148380Y-132773619D01*
X168148380Y-132583142D01*
X168196000Y-132487904D01*
X168291238Y-132392666D01*
X168481714Y-132345047D01*
X168815047Y-132345047D01*
X169005523Y-132392666D01*
X169100761Y-132487904D01*
X169148380Y-132583142D01*
X169148380Y-132773619D01*
X168148380Y-132011714D02*
X168148380Y-131392666D01*
X168529333Y-131726000D01*
X168529333Y-131583142D01*
X168576952Y-131487904D01*
X168624571Y-131440285D01*
X168719809Y-131392666D01*
X168957904Y-131392666D01*
X169053142Y-131440285D01*
X169100761Y-131487904D01*
X169148380Y-131583142D01*
X169148380Y-131868857D01*
X169100761Y-131964095D01*
X169053142Y-132011714D01*
X168148380Y-130773619D02*
X168148380Y-130678380D01*
X168196000Y-130583142D01*
X168243619Y-130535523D01*
X168338857Y-130487904D01*
X168529333Y-130440285D01*
X168767428Y-130440285D01*
X168957904Y-130487904D01*
X169053142Y-130535523D01*
X169100761Y-130583142D01*
X169148380Y-130678380D01*
X169148380Y-130773619D01*
X169100761Y-130868857D01*
X169053142Y-130916476D01*
X168957904Y-130964095D01*
X168767428Y-131011714D01*
X168529333Y-131011714D01*
X168338857Y-130964095D01*
X168243619Y-130916476D01*
X168196000Y-130868857D01*
X168148380Y-130773619D01*
X167917833Y-110942380D02*
X167584500Y-110466190D01*
X167346404Y-110942380D02*
X167346404Y-109942380D01*
X167727357Y-109942380D01*
X167822595Y-109990000D01*
X167870214Y-110037619D01*
X167917833Y-110132857D01*
X167917833Y-110275714D01*
X167870214Y-110370952D01*
X167822595Y-110418571D01*
X167727357Y-110466190D01*
X167346404Y-110466190D01*
X168870214Y-110942380D02*
X168298785Y-110942380D01*
X168584500Y-110942380D02*
X168584500Y-109942380D01*
X168489261Y-110085238D01*
X168394023Y-110180476D01*
X168298785Y-110228095D01*
X159885142Y-110815380D02*
X159551809Y-110339190D01*
X159313714Y-110815380D02*
X159313714Y-109815380D01*
X159694666Y-109815380D01*
X159789904Y-109863000D01*
X159837523Y-109910619D01*
X159885142Y-110005857D01*
X159885142Y-110148714D01*
X159837523Y-110243952D01*
X159789904Y-110291571D01*
X159694666Y-110339190D01*
X159313714Y-110339190D01*
X160266095Y-109910619D02*
X160313714Y-109863000D01*
X160408952Y-109815380D01*
X160647047Y-109815380D01*
X160742285Y-109863000D01*
X160789904Y-109910619D01*
X160837523Y-110005857D01*
X160837523Y-110101095D01*
X160789904Y-110243952D01*
X160218476Y-110815380D01*
X160837523Y-110815380D01*
X161456571Y-109815380D02*
X161551809Y-109815380D01*
X161647047Y-109863000D01*
X161694666Y-109910619D01*
X161742285Y-110005857D01*
X161789904Y-110196333D01*
X161789904Y-110434428D01*
X161742285Y-110624904D01*
X161694666Y-110720142D01*
X161647047Y-110767761D01*
X161551809Y-110815380D01*
X161456571Y-110815380D01*
X161361333Y-110767761D01*
X161313714Y-110720142D01*
X161266095Y-110624904D01*
X161218476Y-110434428D01*
X161218476Y-110196333D01*
X161266095Y-110005857D01*
X161313714Y-109910619D01*
X161361333Y-109863000D01*
X161456571Y-109815380D01*
X160075642Y-113101380D02*
X159742309Y-112625190D01*
X159504214Y-113101380D02*
X159504214Y-112101380D01*
X159885166Y-112101380D01*
X159980404Y-112149000D01*
X160028023Y-112196619D01*
X160075642Y-112291857D01*
X160075642Y-112434714D01*
X160028023Y-112529952D01*
X159980404Y-112577571D01*
X159885166Y-112625190D01*
X159504214Y-112625190D01*
X160456595Y-112196619D02*
X160504214Y-112149000D01*
X160599452Y-112101380D01*
X160837547Y-112101380D01*
X160932785Y-112149000D01*
X160980404Y-112196619D01*
X161028023Y-112291857D01*
X161028023Y-112387095D01*
X160980404Y-112529952D01*
X160408976Y-113101380D01*
X161028023Y-113101380D01*
X161980404Y-113101380D02*
X161408976Y-113101380D01*
X161694690Y-113101380D02*
X161694690Y-112101380D01*
X161599452Y-112244238D01*
X161504214Y-112339476D01*
X161408976Y-112387095D01*
X167315428Y-129103380D02*
X167015428Y-128627190D01*
X166801142Y-129103380D02*
X166801142Y-128103380D01*
X167144000Y-128103380D01*
X167229714Y-128151000D01*
X167272571Y-128198619D01*
X167315428Y-128293857D01*
X167315428Y-128436714D01*
X167272571Y-128531952D01*
X167229714Y-128579571D01*
X167144000Y-128627190D01*
X166801142Y-128627190D01*
X167658285Y-128198619D02*
X167701142Y-128151000D01*
X167786857Y-128103380D01*
X168001142Y-128103380D01*
X168086857Y-128151000D01*
X168129714Y-128198619D01*
X168172571Y-128293857D01*
X168172571Y-128389095D01*
X168129714Y-128531952D01*
X167615428Y-129103380D01*
X168172571Y-129103380D01*
X168944000Y-128436714D02*
X168944000Y-129103380D01*
X168729714Y-128055761D02*
X168515428Y-128770047D01*
X169072571Y-128770047D01*
%LPC*%
D17*
X171888000Y-144399000D03*
X169488000Y-144399000D03*
X177235000Y-146558000D03*
X179635000Y-146558000D03*
X177235000Y-144526000D03*
X179635000Y-144526000D03*
X177108000Y-140462000D03*
X179508000Y-140462000D03*
X177108000Y-138430000D03*
X179508000Y-138430000D03*
X171881500Y-142113000D03*
X169481500Y-142113000D03*
G36*
G01*
X178048500Y-142019000D02*
X178048500Y-142969000D01*
G75*
G02*
X177798500Y-143219000I-250000J0D01*
G01*
X177123500Y-143219000D01*
G75*
G02*
X176873500Y-142969000I0J250000D01*
G01*
X176873500Y-142019000D01*
G75*
G02*
X177123500Y-141769000I250000J0D01*
G01*
X177798500Y-141769000D01*
G75*
G02*
X178048500Y-142019000I0J-250000D01*
G01*
G37*
G36*
G01*
X180123500Y-142019000D02*
X180123500Y-142969000D01*
G75*
G02*
X179873500Y-143219000I-250000J0D01*
G01*
X179198500Y-143219000D01*
G75*
G02*
X178948500Y-142969000I0J250000D01*
G01*
X178948500Y-142019000D01*
G75*
G02*
X179198500Y-141769000I250000J0D01*
G01*
X179873500Y-141769000D01*
G75*
G02*
X180123500Y-142019000I0J-250000D01*
G01*
G37*
D18*
X163749000Y-140843500D03*
X163749000Y-143383500D03*
X163749000Y-138303500D03*
X163749000Y-135763500D03*
D19*
X164249000Y-151513500D03*
D20*
X164249000Y-128013500D03*
X188049000Y-128013500D03*
X188049000Y-151513500D03*
D21*
G36*
X171069000Y-124275000D02*
G01*
X171819000Y-124775000D01*
X171819000Y-125775000D01*
X170319000Y-125775000D01*
X170319000Y-124775000D01*
X171069000Y-124275000D01*
G37*
G36*
X171819000Y-123325000D02*
G01*
X171819000Y-124475000D01*
X171069000Y-123975000D01*
X170319000Y-124475000D01*
X170319000Y-123325000D01*
X171819000Y-123325000D01*
G37*
D22*
X196500000Y-129201500D03*
X196500000Y-123401500D03*
D23*
X196500000Y-122801500D03*
X196500000Y-129801500D03*
D24*
X196500000Y-127301500D03*
D25*
X193800000Y-123801500D03*
D26*
X193800000Y-126301500D03*
X193800000Y-125651500D03*
X193800000Y-125001500D03*
X193800000Y-127601500D03*
X193800000Y-126951500D03*
D25*
X193800000Y-128801500D03*
D24*
X196500000Y-125301500D03*
D17*
X182569000Y-123698000D03*
X184969000Y-123698000D03*
X178568500Y-133477000D03*
X180968500Y-133477000D03*
G36*
G01*
X173515000Y-124529000D02*
X174465000Y-124529000D01*
G75*
G02*
X174715000Y-124779000I0J-250000D01*
G01*
X174715000Y-125454000D01*
G75*
G02*
X174465000Y-125704000I-250000J0D01*
G01*
X173515000Y-125704000D01*
G75*
G02*
X173265000Y-125454000I0J250000D01*
G01*
X173265000Y-124779000D01*
G75*
G02*
X173515000Y-124529000I250000J0D01*
G01*
G37*
G36*
G01*
X173515000Y-122454000D02*
X174465000Y-122454000D01*
G75*
G02*
X174715000Y-122704000I0J-250000D01*
G01*
X174715000Y-123379000D01*
G75*
G02*
X174465000Y-123629000I-250000J0D01*
G01*
X173515000Y-123629000D01*
G75*
G02*
X173265000Y-123379000I0J250000D01*
G01*
X173265000Y-122704000D01*
G75*
G02*
X173515000Y-122454000I250000J0D01*
G01*
G37*
X172650000Y-135509000D03*
X170250000Y-135509000D03*
X172650000Y-138049000D03*
X170250000Y-138049000D03*
D27*
X171653200Y-120233440D03*
X165150800Y-115732560D03*
X171653200Y-115732560D03*
X165150800Y-120233440D03*
D28*
X191579500Y-102233500D03*
X176339500Y-118873500D03*
D29*
X175639500Y-115633500D03*
X175639500Y-113093500D03*
X175639500Y-110553500D03*
X175639500Y-108013500D03*
X175639500Y-105473500D03*
D28*
X196659500Y-102233500D03*
X194119500Y-118903500D03*
X191579500Y-118903500D03*
X189039500Y-118873500D03*
X186499500Y-118873500D03*
X183959500Y-118873500D03*
X181419500Y-118773500D03*
X178879500Y-118873500D03*
X176339500Y-102233500D03*
X178879500Y-102233500D03*
X181419500Y-102233500D03*
X183959500Y-102233500D03*
X186499500Y-102233500D03*
X189039500Y-102233500D03*
X194119500Y-102233500D03*
D30*
X196659500Y-118873500D03*
G36*
G01*
X176299000Y-124517500D02*
X175999000Y-124517500D01*
G75*
G02*
X175849000Y-124367500I0J150000D01*
G01*
X175849000Y-123067500D01*
G75*
G02*
X175999000Y-122917500I150000J0D01*
G01*
X176299000Y-122917500D01*
G75*
G02*
X176449000Y-123067500I0J-150000D01*
G01*
X176449000Y-124367500D01*
G75*
G02*
X176299000Y-124517500I-150000J0D01*
G01*
G37*
G36*
G01*
X177569000Y-124517500D02*
X177269000Y-124517500D01*
G75*
G02*
X177119000Y-124367500I0J150000D01*
G01*
X177119000Y-123067500D01*
G75*
G02*
X177269000Y-122917500I150000J0D01*
G01*
X177569000Y-122917500D01*
G75*
G02*
X177719000Y-123067500I0J-150000D01*
G01*
X177719000Y-124367500D01*
G75*
G02*
X177569000Y-124517500I-150000J0D01*
G01*
G37*
G36*
G01*
X178839000Y-124517500D02*
X178539000Y-124517500D01*
G75*
G02*
X178389000Y-124367500I0J150000D01*
G01*
X178389000Y-123067500D01*
G75*
G02*
X178539000Y-122917500I150000J0D01*
G01*
X178839000Y-122917500D01*
G75*
G02*
X178989000Y-123067500I0J-150000D01*
G01*
X178989000Y-124367500D01*
G75*
G02*
X178839000Y-124517500I-150000J0D01*
G01*
G37*
G36*
G01*
X180109000Y-124517500D02*
X179809000Y-124517500D01*
G75*
G02*
X179659000Y-124367500I0J150000D01*
G01*
X179659000Y-123067500D01*
G75*
G02*
X179809000Y-122917500I150000J0D01*
G01*
X180109000Y-122917500D01*
G75*
G02*
X180259000Y-123067500I0J-150000D01*
G01*
X180259000Y-124367500D01*
G75*
G02*
X180109000Y-124517500I-150000J0D01*
G01*
G37*
G36*
G01*
X180109000Y-131717500D02*
X179809000Y-131717500D01*
G75*
G02*
X179659000Y-131567500I0J150000D01*
G01*
X179659000Y-130267500D01*
G75*
G02*
X179809000Y-130117500I150000J0D01*
G01*
X180109000Y-130117500D01*
G75*
G02*
X180259000Y-130267500I0J-150000D01*
G01*
X180259000Y-131567500D01*
G75*
G02*
X180109000Y-131717500I-150000J0D01*
G01*
G37*
G36*
G01*
X178839000Y-131717500D02*
X178539000Y-131717500D01*
G75*
G02*
X178389000Y-131567500I0J150000D01*
G01*
X178389000Y-130267500D01*
G75*
G02*
X178539000Y-130117500I150000J0D01*
G01*
X178839000Y-130117500D01*
G75*
G02*
X178989000Y-130267500I0J-150000D01*
G01*
X178989000Y-131567500D01*
G75*
G02*
X178839000Y-131717500I-150000J0D01*
G01*
G37*
G36*
G01*
X177569000Y-131717500D02*
X177269000Y-131717500D01*
G75*
G02*
X177119000Y-131567500I0J150000D01*
G01*
X177119000Y-130267500D01*
G75*
G02*
X177269000Y-130117500I150000J0D01*
G01*
X177569000Y-130117500D01*
G75*
G02*
X177719000Y-130267500I0J-150000D01*
G01*
X177719000Y-131567500D01*
G75*
G02*
X177569000Y-131717500I-150000J0D01*
G01*
G37*
G36*
G01*
X176299000Y-131717500D02*
X175999000Y-131717500D01*
G75*
G02*
X175849000Y-131567500I0J150000D01*
G01*
X175849000Y-130267500D01*
G75*
G02*
X175999000Y-130117500I150000J0D01*
G01*
X176299000Y-130117500D01*
G75*
G02*
X176449000Y-130267500I0J-150000D01*
G01*
X176449000Y-131567500D01*
G75*
G02*
X176299000Y-131717500I-150000J0D01*
G01*
G37*
D31*
X99628000Y-105700000D03*
X104200000Y-105700000D03*
D32*
X164020500Y-124460000D03*
X165290500Y-124460000D03*
X166560500Y-124460000D03*
D33*
X167830500Y-124460000D03*
D34*
X183108500Y-145721500D03*
X183108500Y-144621500D03*
X183108500Y-143521500D03*
X183108500Y-142421500D03*
X183108500Y-141321500D03*
X183108500Y-140221500D03*
X183108500Y-139121500D03*
X183108500Y-138021500D03*
D35*
X183708500Y-148021500D03*
D36*
X183708500Y-133421500D03*
D37*
X193308500Y-132521500D03*
X193208500Y-148021500D03*
D34*
X183108500Y-146821500D03*
D38*
X193608500Y-145221500D03*
X193608500Y-137221500D03*
G36*
G01*
X172732500Y-112198999D02*
X172732500Y-113099001D01*
G75*
G02*
X172482501Y-113349000I-249999J0D01*
G01*
X171832499Y-113349000D01*
G75*
G02*
X171582500Y-113099001I0J249999D01*
G01*
X171582500Y-112198999D01*
G75*
G02*
X171832499Y-111949000I249999J0D01*
G01*
X172482501Y-111949000D01*
G75*
G02*
X172732500Y-112198999I0J-249999D01*
G01*
G37*
G36*
G01*
X170682500Y-112198999D02*
X170682500Y-113099001D01*
G75*
G02*
X170432501Y-113349000I-249999J0D01*
G01*
X169782499Y-113349000D01*
G75*
G02*
X169532500Y-113099001I0J249999D01*
G01*
X169532500Y-112198999D01*
G75*
G02*
X169782499Y-111949000I249999J0D01*
G01*
X170432501Y-111949000D01*
G75*
G02*
X170682500Y-112198999I0J-249999D01*
G01*
G37*
D39*
X163068000Y-102552500D03*
X165608000Y-102552500D03*
X168148000Y-102552500D03*
X170688000Y-102552500D03*
D40*
X173228000Y-102552500D03*
D31*
X104300000Y-148400000D03*
X99728000Y-148400000D03*
D41*
X172196000Y-132776000D03*
X172196000Y-130876000D03*
X170196000Y-131826000D03*
D17*
X170059500Y-110363000D03*
X172459500Y-110363000D03*
X165665000Y-110363000D03*
X163265000Y-110363000D03*
X163265000Y-112649000D03*
X165665000Y-112649000D03*
X172593000Y-128649500D03*
X170193000Y-128649500D03*
M02*
