G04 #@! TF.GenerationSoftware,KiCad,Pcbnew,5.1.12-84ad8e8a86~92~ubuntu20.04.1*
G04 #@! TF.CreationDate,2022-03-16T00:54:27+01:00*
G04 #@! TF.ProjectId,ms2-card,6d73322d-6361-4726-942e-6b696361645f,0.2*
G04 #@! TF.SameCoordinates,Original*
G04 #@! TF.FileFunction,Legend,Bot*
G04 #@! TF.FilePolarity,Positive*
%FSLAX46Y46*%
G04 Gerber Fmt 4.6, Leading zero omitted, Abs format (unit mm)*
G04 Created by KiCad (PCBNEW 5.1.12-84ad8e8a86~92~ubuntu20.04.1) date 2022-03-16 00:54:27*
%MOMM*%
%LPD*%
G01*
G04 APERTURE LIST*
%ADD10C,0.285750*%
%ADD11O,2.000000X1.600000*%
%ADD12O,3.000000X3.000000*%
%ADD13C,3.000000*%
%ADD14O,1.900000X1.200000*%
%ADD15C,1.450000*%
%ADD16C,1.998980*%
%ADD17O,1.100000X2.500000*%
%ADD18O,2.500000X1.100000*%
%ADD19R,1.100000X2.500000*%
%ADD20O,2.000000X6.500000*%
%ADD21O,1.000000X1.000000*%
%ADD22R,1.000000X1.000000*%
%ADD23C,1.000000*%
%ADD24O,1.700000X1.700000*%
%ADD25R,1.700000X1.700000*%
%ADD26R,4.000000X1.800000*%
G04 APERTURE END LIST*
D10*
X121565428Y-129164714D02*
X122654000Y-129164714D01*
X122871714Y-129110285D01*
X123016857Y-129001428D01*
X123089428Y-128838142D01*
X123089428Y-128729285D01*
X121710571Y-129654571D02*
X121638000Y-129709000D01*
X121565428Y-129817857D01*
X121565428Y-130090000D01*
X121638000Y-130198857D01*
X121710571Y-130253285D01*
X121855714Y-130307714D01*
X122000857Y-130307714D01*
X122218571Y-130253285D01*
X123089428Y-129600142D01*
X123089428Y-130307714D01*
X121565428Y-131015285D02*
X121565428Y-131124142D01*
X121638000Y-131233000D01*
X121710571Y-131287428D01*
X121855714Y-131341857D01*
X122146000Y-131396285D01*
X122508857Y-131396285D01*
X122799142Y-131341857D01*
X122944285Y-131287428D01*
X123016857Y-131233000D01*
X123089428Y-131124142D01*
X123089428Y-131015285D01*
X123016857Y-130906428D01*
X122944285Y-130852000D01*
X122799142Y-130797571D01*
X122508857Y-130743142D01*
X122146000Y-130743142D01*
X121855714Y-130797571D01*
X121710571Y-130852000D01*
X121638000Y-130906428D01*
X121565428Y-131015285D01*
%LPC*%
D11*
X163749000Y-140843500D03*
X163749000Y-143383500D03*
X163749000Y-138303500D03*
X163749000Y-135763500D03*
D12*
X164249000Y-151513500D03*
D13*
X164249000Y-128013500D03*
X188049000Y-128013500D03*
X188049000Y-151513500D03*
D14*
X196500000Y-122801500D03*
X196500000Y-129801500D03*
D15*
X193800000Y-123801500D03*
X193800000Y-128801500D03*
D16*
X171653200Y-120233440D03*
X165150800Y-115732560D03*
X171653200Y-115732560D03*
X165150800Y-120233440D03*
D17*
X191579500Y-102233500D03*
X176339500Y-118873500D03*
D18*
X175639500Y-115633500D03*
X175639500Y-113093500D03*
X175639500Y-110553500D03*
X175639500Y-108013500D03*
X175639500Y-105473500D03*
D17*
X196659500Y-102233500D03*
X194119500Y-118903500D03*
X191579500Y-118903500D03*
X189039500Y-118873500D03*
X186499500Y-118873500D03*
X183959500Y-118873500D03*
X181419500Y-118773500D03*
X178879500Y-118873500D03*
X176339500Y-102233500D03*
X178879500Y-102233500D03*
X181419500Y-102233500D03*
X183959500Y-102233500D03*
X186499500Y-102233500D03*
X189039500Y-102233500D03*
X194119500Y-102233500D03*
D19*
X196659500Y-118873500D03*
D20*
X99628000Y-105700000D03*
X104200000Y-105700000D03*
D21*
X164020500Y-124460000D03*
X165290500Y-124460000D03*
X166560500Y-124460000D03*
D22*
X167830500Y-124460000D03*
D23*
X193608500Y-145221500D03*
X193608500Y-137221500D03*
D24*
X163068000Y-102552500D03*
X165608000Y-102552500D03*
X168148000Y-102552500D03*
X170688000Y-102552500D03*
D25*
X173228000Y-102552500D03*
D26*
X111310000Y-133900000D03*
X111310000Y-131360000D03*
X111310000Y-128820000D03*
X111310000Y-126280000D03*
X118810000Y-126280000D03*
X118810000Y-128820000D03*
X118810000Y-131360000D03*
X118810000Y-133900000D03*
D20*
X104300000Y-148400000D03*
X99728000Y-148400000D03*
M02*
