G04 #@! TF.GenerationSoftware,KiCad,Pcbnew,5.1.12-84ad8e8a86~92~ubuntu20.04.1*
G04 #@! TF.CreationDate,2022-03-16T00:54:27+01:00*
G04 #@! TF.ProjectId,ms2-card,6d73322d-6361-4726-942e-6b696361645f,0.2*
G04 #@! TF.SameCoordinates,Original*
G04 #@! TF.FileFunction,Profile,NP*
%FSLAX46Y46*%
G04 Gerber Fmt 4.6, Leading zero omitted, Abs format (unit mm)*
G04 Created by KiCad (PCBNEW 5.1.12-84ad8e8a86~92~ubuntu20.04.1) date 2022-03-16 00:54:27*
%MOMM*%
%LPD*%
G01*
G04 APERTURE LIST*
G04 #@! TA.AperFunction,Profile*
%ADD10C,0.050000*%
G04 #@! TD*
G04 APERTURE END LIST*
D10*
X100000000Y-144200000D02*
X100000000Y-109800000D01*
X100000000Y-101500000D02*
G75*
G02*
X101500000Y-100000000I1500000J0D01*
G01*
X98500000Y-109300000D02*
G75*
G02*
X98000000Y-108800000I0J500000D01*
G01*
X99500000Y-109300000D02*
G75*
G02*
X100000000Y-109800000I0J-500000D01*
G01*
X100000000Y-101500000D02*
G75*
G02*
X99400000Y-102100000I-600000J0D01*
G01*
X99400000Y-102100000D02*
X98400000Y-102100000D01*
X98000000Y-108800000D02*
X98000000Y-102500000D01*
X98000000Y-102500000D02*
G75*
G02*
X98400000Y-102100000I400000J0D01*
G01*
X98500000Y-109300000D02*
X99500000Y-109300000D01*
X98500000Y-152000000D02*
X99500000Y-152000000D01*
X98000000Y-145200000D02*
G75*
G02*
X98400000Y-144800000I400000J0D01*
G01*
X98000000Y-151500000D02*
X98000000Y-145200000D01*
X99400000Y-144800000D02*
X98400000Y-144800000D01*
X100000000Y-144200000D02*
G75*
G02*
X99400000Y-144800000I-600000J0D01*
G01*
X99500000Y-152000000D02*
G75*
G02*
X100000000Y-152500000I0J-500000D01*
G01*
X98500000Y-152000000D02*
G75*
G02*
X98000000Y-151500000I0J500000D01*
G01*
X198000000Y-101500000D02*
X198000000Y-152500000D01*
X198000000Y-152500000D02*
G75*
G02*
X196500000Y-154000000I-1500000J0D01*
G01*
X196500000Y-154000000D02*
X101500000Y-154000000D01*
X101500000Y-154000000D02*
G75*
G02*
X100000000Y-152500000I0J1500000D01*
G01*
X196500000Y-100000000D02*
G75*
G02*
X198000000Y-101500000I0J-1500000D01*
G01*
X101500000Y-100000000D02*
X196500000Y-100000000D01*
M02*
