G04 #@! TF.GenerationSoftware,KiCad,Pcbnew,5.1.12-84ad8e8a86~92~ubuntu20.04.1*
G04 #@! TF.CreationDate,2022-02-14T19:07:46+01:00*
G04 #@! TF.ProjectId,ms2-card,6d73322d-6361-4726-942e-6b696361645f,0.1*
G04 #@! TF.SameCoordinates,Original*
G04 #@! TF.FileFunction,Soldermask,Bot*
G04 #@! TF.FilePolarity,Negative*
%FSLAX46Y46*%
G04 Gerber Fmt 4.6, Leading zero omitted, Abs format (unit mm)*
G04 Created by KiCad (PCBNEW 5.1.12-84ad8e8a86~92~ubuntu20.04.1) date 2022-02-14 19:07:46*
%MOMM*%
%LPD*%
G01*
G04 APERTURE LIST*
%ADD10O,1.000000X1.000000*%
%ADD11R,1.000000X1.000000*%
%ADD12C,1.000000*%
%ADD13O,1.900000X1.200000*%
%ADD14C,1.450000*%
%ADD15R,1.700000X1.700000*%
%ADD16O,1.700000X1.700000*%
%ADD17R,4.000000X1.800000*%
%ADD18O,2.000000X6.500000*%
%ADD19C,1.998980*%
%ADD20R,1.100000X2.500000*%
%ADD21O,1.100000X2.500000*%
%ADD22O,2.500000X1.100000*%
G04 APERTURE END LIST*
D10*
X157124400Y-109829600D03*
X157124400Y-111099600D03*
X157124400Y-112369600D03*
D11*
X157124400Y-113639600D03*
D12*
X194200000Y-113950000D03*
X194200000Y-105950000D03*
D13*
X196537500Y-138994000D03*
X196537500Y-145994000D03*
D14*
X193837500Y-139994000D03*
X193837500Y-144994000D03*
D15*
X157600000Y-102200000D03*
D16*
X160140000Y-102200000D03*
X162680000Y-102200000D03*
X165220000Y-102200000D03*
D15*
X167400000Y-131700000D03*
D16*
X167400000Y-134240000D03*
D15*
X183184800Y-138400000D03*
D16*
X169900000Y-112360000D03*
X169900000Y-109820000D03*
X169900000Y-107280000D03*
X169900000Y-104740000D03*
D15*
X169900000Y-102200000D03*
D17*
X111310000Y-133900000D03*
X111310000Y-131360000D03*
X111310000Y-128820000D03*
X111310000Y-126280000D03*
X118810000Y-126280000D03*
X118810000Y-128820000D03*
X118810000Y-131360000D03*
X118810000Y-133900000D03*
D18*
X104100000Y-148400000D03*
X99528000Y-148400000D03*
D15*
X165000000Y-118100000D03*
D16*
X165000000Y-120640000D03*
X165000000Y-123180000D03*
D15*
X182100000Y-150600000D03*
D16*
X184640000Y-150600000D03*
X187180000Y-150600000D03*
X189720000Y-150600000D03*
X192260000Y-150600000D03*
X194800000Y-150600000D03*
D15*
X176400000Y-141800000D03*
X171500000Y-152100000D03*
D16*
X168960000Y-152100000D03*
X166420000Y-152100000D03*
X163880000Y-152100000D03*
X161340000Y-152100000D03*
D15*
X175100000Y-152100000D03*
D19*
X159249560Y-126748800D03*
X163750440Y-133251200D03*
X163750440Y-126748800D03*
X159249560Y-133251200D03*
D20*
X189200000Y-119600000D03*
D21*
X187200000Y-119600000D03*
X185200000Y-119600000D03*
X183200000Y-119600000D03*
X181200000Y-119600000D03*
X179200000Y-119600000D03*
X177200000Y-119600000D03*
X175200000Y-119600000D03*
X175200000Y-135000000D03*
X177200000Y-134900000D03*
X179200000Y-135000000D03*
X181200000Y-135000000D03*
X183200000Y-135000000D03*
X185200000Y-135000000D03*
X187200000Y-135000000D03*
X189200000Y-135000000D03*
D22*
X173500000Y-122290000D03*
X173500000Y-124290000D03*
X173500000Y-126290000D03*
X173500000Y-128290000D03*
X173500000Y-130290000D03*
X173500000Y-132290000D03*
M02*
