G04 #@! TF.GenerationSoftware,KiCad,Pcbnew,5.1.12-84ad8e8a86~92~ubuntu20.04.1*
G04 #@! TF.CreationDate,2022-03-16T00:54:27+01:00*
G04 #@! TF.ProjectId,ms2-card,6d73322d-6361-4726-942e-6b696361645f,0.2*
G04 #@! TF.SameCoordinates,Original*
G04 #@! TF.FileFunction,Copper,L2,Bot*
G04 #@! TF.FilePolarity,Positive*
%FSLAX46Y46*%
G04 Gerber Fmt 4.6, Leading zero omitted, Abs format (unit mm)*
G04 Created by KiCad (PCBNEW 5.1.12-84ad8e8a86~92~ubuntu20.04.1) date 2022-03-16 00:54:27*
%MOMM*%
%LPD*%
G01*
G04 APERTURE LIST*
G04 #@! TA.AperFunction,ComponentPad*
%ADD10O,2.000000X1.600000*%
G04 #@! TD*
G04 #@! TA.AperFunction,ComponentPad*
%ADD11O,1.900000X1.200000*%
G04 #@! TD*
G04 #@! TA.AperFunction,ComponentPad*
%ADD12C,1.450000*%
G04 #@! TD*
G04 #@! TA.AperFunction,ComponentPad*
%ADD13C,1.998980*%
G04 #@! TD*
G04 #@! TA.AperFunction,ComponentPad*
%ADD14O,1.100000X2.500000*%
G04 #@! TD*
G04 #@! TA.AperFunction,ComponentPad*
%ADD15O,2.500000X1.100000*%
G04 #@! TD*
G04 #@! TA.AperFunction,ComponentPad*
%ADD16R,1.100000X2.500000*%
G04 #@! TD*
G04 #@! TA.AperFunction,ComponentPad*
%ADD17O,2.000000X6.500000*%
G04 #@! TD*
G04 #@! TA.AperFunction,ComponentPad*
%ADD18O,1.000000X1.000000*%
G04 #@! TD*
G04 #@! TA.AperFunction,ComponentPad*
%ADD19R,1.000000X1.000000*%
G04 #@! TD*
G04 #@! TA.AperFunction,ComponentPad*
%ADD20O,1.700000X1.700000*%
G04 #@! TD*
G04 #@! TA.AperFunction,ComponentPad*
%ADD21R,1.700000X1.700000*%
G04 #@! TD*
G04 #@! TA.AperFunction,SMDPad,CuDef*
%ADD22R,4.000000X1.800000*%
G04 #@! TD*
G04 #@! TA.AperFunction,ViaPad*
%ADD23C,0.800000*%
G04 #@! TD*
G04 #@! TA.AperFunction,Conductor*
%ADD24C,0.500000*%
G04 #@! TD*
G04 #@! TA.AperFunction,Conductor*
%ADD25C,0.300000*%
G04 #@! TD*
G04 #@! TA.AperFunction,Conductor*
%ADD26C,0.254000*%
G04 #@! TD*
G04 #@! TA.AperFunction,Conductor*
%ADD27C,0.100000*%
G04 #@! TD*
G04 APERTURE END LIST*
D10*
X163749000Y-140843500D03*
X163749000Y-143383500D03*
X163749000Y-138303500D03*
X163749000Y-135763500D03*
D11*
X196500000Y-122801500D03*
X196500000Y-129801500D03*
D12*
X193800000Y-123801500D03*
X193800000Y-128801500D03*
D13*
X171653200Y-120233440D03*
X165150800Y-115732560D03*
X171653200Y-115732560D03*
X165150800Y-120233440D03*
D14*
X191579500Y-102233500D03*
X176339500Y-118873500D03*
D15*
X175639500Y-115633500D03*
X175639500Y-113093500D03*
X175639500Y-110553500D03*
X175639500Y-108013500D03*
X175639500Y-105473500D03*
D14*
X196659500Y-102233500D03*
X194119500Y-118903500D03*
X191579500Y-118903500D03*
X189039500Y-118873500D03*
X186499500Y-118873500D03*
X183959500Y-118873500D03*
X181419500Y-118773500D03*
X178879500Y-118873500D03*
X176339500Y-102233500D03*
X178879500Y-102233500D03*
X181419500Y-102233500D03*
X183959500Y-102233500D03*
X186499500Y-102233500D03*
X189039500Y-102233500D03*
X194119500Y-102233500D03*
D16*
X196659500Y-118873500D03*
D17*
X99628000Y-105700000D03*
X104200000Y-105700000D03*
D18*
X164020500Y-124460000D03*
X165290500Y-124460000D03*
X166560500Y-124460000D03*
D19*
X167830500Y-124460000D03*
D20*
X163068000Y-102552500D03*
X165608000Y-102552500D03*
X168148000Y-102552500D03*
X170688000Y-102552500D03*
D21*
X173228000Y-102552500D03*
D22*
X111310000Y-133900000D03*
X111310000Y-131360000D03*
X111310000Y-128820000D03*
X111310000Y-126280000D03*
X118810000Y-126280000D03*
X118810000Y-128820000D03*
X118810000Y-131360000D03*
X118810000Y-133900000D03*
D17*
X104300000Y-148400000D03*
X99728000Y-148400000D03*
D23*
X168021000Y-114046000D03*
X169227500Y-106680000D03*
X181927500Y-107378500D03*
X185928000Y-113728500D03*
X164274500Y-106172000D03*
X174879000Y-102425500D03*
X173926500Y-111696500D03*
X187960000Y-137922000D03*
X187833000Y-143510000D03*
X163258500Y-109156500D03*
X172466000Y-108839000D03*
X188976000Y-140462000D03*
X169545000Y-147383500D03*
X175069500Y-117792500D03*
X188341000Y-123698000D03*
X190039510Y-129873490D03*
X185293000Y-143510000D03*
X174307500Y-142494000D03*
X173990000Y-130873500D03*
X174307500Y-128270000D03*
X194945000Y-124968000D03*
X173418500Y-113982500D03*
X185293000Y-103759000D03*
X182689500Y-103822500D03*
X177482500Y-111696500D03*
X173736000Y-133794500D03*
X169418000Y-123952000D03*
X171577000Y-105473500D03*
X134493000Y-124523500D03*
X106870500Y-131699000D03*
X120523000Y-124396500D03*
X128651000Y-125920500D03*
X124841000Y-126238000D03*
X121856500Y-126238000D03*
X176149000Y-128968500D03*
X178037390Y-136405990D03*
X177228500Y-148209000D03*
X177482500Y-128968500D03*
X166116000Y-139192000D03*
X156712808Y-113277769D03*
X157353000Y-114046000D03*
D24*
X173228000Y-102552500D02*
X173228000Y-102806500D01*
X173228000Y-102552500D02*
X173228000Y-103822500D01*
X173228000Y-103822500D02*
X173672500Y-104267000D01*
X163258500Y-109156500D02*
X164211000Y-108204000D01*
X164211000Y-108204000D02*
X171894500Y-108204000D01*
X171894500Y-108204000D02*
X173355000Y-106743500D01*
X173355000Y-106743500D02*
X177800000Y-106743500D01*
X177800000Y-104330500D02*
X177863500Y-104267000D01*
X177800000Y-106743500D02*
X177800000Y-104330500D01*
X173672500Y-104267000D02*
X177863500Y-104267000D01*
X171894500Y-108267500D02*
X172466000Y-108839000D01*
X171894500Y-108204000D02*
X171894500Y-108267500D01*
X188976000Y-140462000D02*
X190039510Y-139398490D01*
X190039510Y-121681990D02*
X190246000Y-121475500D01*
X190246000Y-121475500D02*
X190246000Y-104267000D01*
X188976000Y-140462000D02*
X188976000Y-147193000D01*
X188976000Y-147193000D02*
X185737500Y-150431500D01*
X185737500Y-150431500D02*
X172656500Y-150431500D01*
X169608500Y-147383500D02*
X169545000Y-147383500D01*
X172656500Y-150431500D02*
X169608500Y-147383500D01*
X189992000Y-123698000D02*
X190039510Y-123745510D01*
X188341000Y-123698000D02*
X189992000Y-123698000D01*
X190039510Y-123745510D02*
X190039510Y-121681990D01*
X190039510Y-139398490D02*
X190039510Y-123745510D01*
X191643000Y-103274043D02*
X191643000Y-103124000D01*
X190246000Y-104267000D02*
X190650043Y-104267000D01*
X190650043Y-104267000D02*
X191643000Y-103274043D01*
X177863500Y-104267000D02*
X178817510Y-105221010D01*
X178817510Y-105221010D02*
X189291990Y-105221010D01*
X189291990Y-105221010D02*
X190246000Y-104267000D01*
X176753717Y-116633510D02*
X178332502Y-115054725D01*
X175069500Y-117792500D02*
X176228490Y-116633510D01*
X178332502Y-115054725D02*
X178332502Y-107276002D01*
X176228490Y-116633510D02*
X176753717Y-116633510D01*
X178332502Y-107276002D02*
X177800000Y-106743500D01*
X173418500Y-112204500D02*
X173926500Y-111696500D01*
X173418500Y-113982500D02*
X173418500Y-112204500D01*
X173926500Y-111696500D02*
X177482500Y-111696500D01*
X173102691Y-114298309D02*
X173102691Y-116774809D01*
X173418500Y-113982500D02*
X173102691Y-114298309D01*
X172695449Y-117182051D02*
X169569551Y-117182051D01*
X173102691Y-116774809D02*
X172695449Y-117182051D01*
X168021000Y-115633500D02*
X168021000Y-114046000D01*
X169569551Y-117182051D02*
X168021000Y-115633500D01*
D25*
X171386500Y-105473500D02*
X170751500Y-104838500D01*
X170751500Y-104838500D02*
X170751500Y-102552500D01*
X169418000Y-129476500D02*
X169418000Y-123952000D01*
X173736000Y-133794500D02*
X169418000Y-129476500D01*
X171577000Y-105473500D02*
X171386500Y-105473500D01*
X176339500Y-105473500D02*
X171577000Y-105473500D01*
X134556500Y-124460000D02*
X134493000Y-124523500D01*
X164020500Y-124460000D02*
X134556500Y-124460000D01*
X106870500Y-131699000D02*
X107315000Y-131254500D01*
X107315000Y-131254500D02*
X111188500Y-131254500D01*
X111188500Y-131254500D02*
X111379000Y-131445000D01*
X111310000Y-126280000D02*
X113193500Y-124396500D01*
X113193500Y-124396500D02*
X120523000Y-124396500D01*
X129261499Y-125310001D02*
X164503999Y-125310001D01*
X128651000Y-125920500D02*
X129261499Y-125310001D01*
X164503999Y-125310001D02*
X165290500Y-124523500D01*
X165710499Y-123609999D02*
X127469001Y-123609999D01*
X166560500Y-124460000D02*
X165710499Y-123609999D01*
X127469001Y-123609999D02*
X124841000Y-126238000D01*
X121856500Y-126238000D02*
X118935500Y-126238000D01*
X118935500Y-126238000D02*
X118872000Y-126301500D01*
X118810000Y-131360000D02*
X158164498Y-131360000D01*
X158164498Y-131360000D02*
X163714486Y-125810012D01*
X163714486Y-125810012D02*
X166543988Y-125810012D01*
X166543988Y-125810012D02*
X167894000Y-124460000D01*
X103913500Y-105700000D02*
X103949500Y-105664000D01*
X99822500Y-148400000D02*
X99822000Y-148399500D01*
X101918000Y-105736500D02*
X101881500Y-105700000D01*
X101881500Y-105700000D02*
X103913500Y-105700000D01*
X99628000Y-105700000D02*
X101881500Y-105700000D01*
X104300000Y-148400000D02*
X101918000Y-148400000D01*
X101918000Y-148400000D02*
X101918000Y-105736500D01*
X101918000Y-148400000D02*
X99822500Y-148400000D01*
X173799500Y-126619000D02*
X173799500Y-115887500D01*
X176149000Y-128968500D02*
X173799500Y-126619000D01*
X173799500Y-115887500D02*
X174053500Y-115633500D01*
X174053500Y-115633500D02*
X176276000Y-115633500D01*
X183959500Y-130483880D02*
X178037390Y-136405990D01*
X183959500Y-118173500D02*
X183959500Y-130483880D01*
X186198999Y-118474001D02*
X186198999Y-148636501D01*
X186499500Y-118173500D02*
X186198999Y-118474001D01*
X186198999Y-148636501D02*
X185483500Y-149352000D01*
X185483500Y-149352000D02*
X178498500Y-149352000D01*
X177355500Y-148209000D02*
X177228500Y-148209000D01*
X178498500Y-149352000D02*
X177355500Y-148209000D01*
X177482500Y-128968500D02*
X176339500Y-127825500D01*
X176339500Y-127825500D02*
X176339500Y-118237000D01*
X178879500Y-118173500D02*
X178879500Y-130619500D01*
X178879500Y-130619500D02*
X171196000Y-138303000D01*
X171196000Y-138303000D02*
X163766500Y-138303000D01*
X181419500Y-118173500D02*
X181419500Y-130238500D01*
X172466000Y-139192000D02*
X166116000Y-139192000D01*
X181419500Y-130238500D02*
X172466000Y-139192000D01*
X171653200Y-115732560D02*
X171653200Y-111620300D01*
X171653200Y-111620300D02*
X175196500Y-108077000D01*
X175196500Y-108077000D02*
X176276000Y-108077000D01*
X176276000Y-108077000D02*
X176339500Y-108077000D01*
X111310000Y-128820000D02*
X108881000Y-128820000D01*
X108881000Y-128820000D02*
X107569000Y-127508000D01*
X107569000Y-127508000D02*
X107569000Y-123634500D01*
X107569000Y-123634500D02*
X107569000Y-123571000D01*
X117538500Y-113601500D02*
X117792500Y-113347500D01*
X107569000Y-123571000D02*
X117538500Y-113601500D01*
X117862231Y-113277769D02*
X156147123Y-113277769D01*
X117538500Y-113601500D02*
X117862231Y-113277769D01*
X156147123Y-113277769D02*
X156712808Y-113277769D01*
X157353000Y-114046000D02*
X127444500Y-114046000D01*
X127444500Y-114046000D02*
X122682000Y-118808500D01*
X122682000Y-118808500D02*
X122682000Y-127635000D01*
X122682000Y-127635000D02*
X121475500Y-128841500D01*
X121475500Y-128841500D02*
X118872000Y-128841500D01*
D26*
X193204766Y-100769552D02*
X193073304Y-100962687D01*
X192982046Y-101177758D01*
X192934500Y-101406500D01*
X192934500Y-102106500D01*
X193992500Y-102106500D01*
X193992500Y-102086500D01*
X194246500Y-102086500D01*
X194246500Y-102106500D01*
X195304500Y-102106500D01*
X195304500Y-101406500D01*
X195256954Y-101177758D01*
X195165696Y-100962687D01*
X195034234Y-100769552D01*
X194922784Y-100660000D01*
X195855938Y-100660000D01*
X195817525Y-100691525D01*
X195669442Y-100871965D01*
X195559406Y-101077827D01*
X195491647Y-101301201D01*
X195474500Y-101475294D01*
X195474500Y-102991707D01*
X195491647Y-103165800D01*
X195559406Y-103389174D01*
X195669443Y-103595036D01*
X195817526Y-103775475D01*
X195997965Y-103923558D01*
X196203827Y-104033594D01*
X196427201Y-104101353D01*
X196659500Y-104124233D01*
X196891800Y-104101353D01*
X197115174Y-104033594D01*
X197321036Y-103923558D01*
X197340000Y-103907995D01*
X197340000Y-116999514D01*
X197333982Y-116997688D01*
X197209500Y-116985428D01*
X196109500Y-116985428D01*
X195985018Y-116997688D01*
X195865320Y-117033998D01*
X195755006Y-117092963D01*
X195658315Y-117172315D01*
X195578963Y-117269006D01*
X195519998Y-117379320D01*
X195483688Y-117499018D01*
X195471428Y-117623500D01*
X195471428Y-120123500D01*
X195483688Y-120247982D01*
X195519998Y-120367680D01*
X195578963Y-120477994D01*
X195658315Y-120574685D01*
X195755006Y-120654037D01*
X195865320Y-120713002D01*
X195985018Y-120749312D01*
X196109500Y-120761572D01*
X197209500Y-120761572D01*
X197333982Y-120749312D01*
X197340000Y-120747486D01*
X197340000Y-121663060D01*
X197324901Y-121654989D01*
X197092102Y-121584370D01*
X196910665Y-121566500D01*
X196089335Y-121566500D01*
X195907898Y-121584370D01*
X195675099Y-121654989D01*
X195460551Y-121769667D01*
X195272498Y-121923998D01*
X195118167Y-122112051D01*
X195003489Y-122326599D01*
X194932870Y-122559398D01*
X194909025Y-122801500D01*
X194932870Y-123043602D01*
X194935883Y-123053535D01*
X194856381Y-122934551D01*
X194666949Y-122745119D01*
X194444201Y-122596284D01*
X194196697Y-122493764D01*
X193933948Y-122441500D01*
X193666052Y-122441500D01*
X193403303Y-122493764D01*
X193155799Y-122596284D01*
X192933051Y-122745119D01*
X192743619Y-122934551D01*
X192594784Y-123157299D01*
X192492264Y-123404803D01*
X192440000Y-123667552D01*
X192440000Y-123935448D01*
X192492264Y-124198197D01*
X192594784Y-124445701D01*
X192743619Y-124668449D01*
X192933051Y-124857881D01*
X193155799Y-125006716D01*
X193403303Y-125109236D01*
X193666052Y-125161500D01*
X193933948Y-125161500D01*
X194196697Y-125109236D01*
X194444201Y-125006716D01*
X194666949Y-124857881D01*
X194856381Y-124668449D01*
X195005216Y-124445701D01*
X195107736Y-124198197D01*
X195160000Y-123935448D01*
X195160000Y-123667552D01*
X195127016Y-123501732D01*
X195272498Y-123679002D01*
X195460551Y-123833333D01*
X195675099Y-123948011D01*
X195907898Y-124018630D01*
X196089335Y-124036500D01*
X196910665Y-124036500D01*
X197092102Y-124018630D01*
X197324901Y-123948011D01*
X197340000Y-123939940D01*
X197340001Y-128663060D01*
X197324901Y-128654989D01*
X197092102Y-128584370D01*
X196910665Y-128566500D01*
X196089335Y-128566500D01*
X195907898Y-128584370D01*
X195675099Y-128654989D01*
X195460551Y-128769667D01*
X195272498Y-128923998D01*
X195127016Y-129101268D01*
X195160000Y-128935448D01*
X195160000Y-128667552D01*
X195107736Y-128404803D01*
X195005216Y-128157299D01*
X194856381Y-127934551D01*
X194666949Y-127745119D01*
X194444201Y-127596284D01*
X194196697Y-127493764D01*
X193933948Y-127441500D01*
X193666052Y-127441500D01*
X193403303Y-127493764D01*
X193155799Y-127596284D01*
X192933051Y-127745119D01*
X192743619Y-127934551D01*
X192594784Y-128157299D01*
X192492264Y-128404803D01*
X192440000Y-128667552D01*
X192440000Y-128935448D01*
X192492264Y-129198197D01*
X192594784Y-129445701D01*
X192743619Y-129668449D01*
X192933051Y-129857881D01*
X193155799Y-130006716D01*
X193403303Y-130109236D01*
X193666052Y-130161500D01*
X193933948Y-130161500D01*
X194196697Y-130109236D01*
X194444201Y-130006716D01*
X194666949Y-129857881D01*
X194856381Y-129668449D01*
X194935883Y-129549465D01*
X194932870Y-129559398D01*
X194909025Y-129801500D01*
X194932870Y-130043602D01*
X195003489Y-130276401D01*
X195118167Y-130490949D01*
X195272498Y-130679002D01*
X195460551Y-130833333D01*
X195675099Y-130948011D01*
X195907898Y-131018630D01*
X196089335Y-131036500D01*
X196910665Y-131036500D01*
X197092102Y-131018630D01*
X197324901Y-130948011D01*
X197340001Y-130939940D01*
X197340001Y-152467712D01*
X197320898Y-152662540D01*
X197273692Y-152818895D01*
X197197018Y-152963096D01*
X197093792Y-153089664D01*
X196967951Y-153193768D01*
X196824289Y-153271447D01*
X196668271Y-153319742D01*
X196475527Y-153340000D01*
X189158348Y-153340000D01*
X189409983Y-153171863D01*
X189707363Y-152874483D01*
X189941012Y-152524802D01*
X190101953Y-152136256D01*
X190184000Y-151723779D01*
X190184000Y-151303221D01*
X190101953Y-150890744D01*
X189941012Y-150502198D01*
X189707363Y-150152517D01*
X189409983Y-149855137D01*
X189060302Y-149621488D01*
X188671756Y-149460547D01*
X188259279Y-149378500D01*
X188042079Y-149378500D01*
X189571049Y-147849530D01*
X189604817Y-147821817D01*
X189646713Y-147770768D01*
X189715411Y-147687059D01*
X189797589Y-147533314D01*
X189848195Y-147366490D01*
X189861000Y-147236477D01*
X189861000Y-147236469D01*
X189865281Y-147193000D01*
X189861000Y-147149531D01*
X189861000Y-145109712D01*
X192473500Y-145109712D01*
X192473500Y-145333288D01*
X192517117Y-145552567D01*
X192602676Y-145759124D01*
X192726888Y-145945020D01*
X192884980Y-146103112D01*
X193070876Y-146227324D01*
X193277433Y-146312883D01*
X193496712Y-146356500D01*
X193720288Y-146356500D01*
X193939567Y-146312883D01*
X194146124Y-146227324D01*
X194332020Y-146103112D01*
X194490112Y-145945020D01*
X194614324Y-145759124D01*
X194699883Y-145552567D01*
X194743500Y-145333288D01*
X194743500Y-145109712D01*
X194699883Y-144890433D01*
X194614324Y-144683876D01*
X194490112Y-144497980D01*
X194332020Y-144339888D01*
X194146124Y-144215676D01*
X193939567Y-144130117D01*
X193720288Y-144086500D01*
X193496712Y-144086500D01*
X193277433Y-144130117D01*
X193070876Y-144215676D01*
X192884980Y-144339888D01*
X192726888Y-144497980D01*
X192602676Y-144683876D01*
X192517117Y-144890433D01*
X192473500Y-145109712D01*
X189861000Y-145109712D01*
X189861000Y-141000454D01*
X189893205Y-140952256D01*
X189971226Y-140763898D01*
X189982535Y-140707043D01*
X190634560Y-140055019D01*
X190668327Y-140027307D01*
X190709614Y-139977000D01*
X190778920Y-139892550D01*
X190778921Y-139892549D01*
X190861099Y-139738803D01*
X190911705Y-139571980D01*
X190924510Y-139441967D01*
X190924510Y-139441957D01*
X190928791Y-139398491D01*
X190924510Y-139355025D01*
X190924510Y-137109712D01*
X192473500Y-137109712D01*
X192473500Y-137333288D01*
X192517117Y-137552567D01*
X192602676Y-137759124D01*
X192726888Y-137945020D01*
X192884980Y-138103112D01*
X193070876Y-138227324D01*
X193277433Y-138312883D01*
X193496712Y-138356500D01*
X193720288Y-138356500D01*
X193939567Y-138312883D01*
X194146124Y-138227324D01*
X194332020Y-138103112D01*
X194490112Y-137945020D01*
X194614324Y-137759124D01*
X194699883Y-137552567D01*
X194743500Y-137333288D01*
X194743500Y-137109712D01*
X194699883Y-136890433D01*
X194614324Y-136683876D01*
X194490112Y-136497980D01*
X194332020Y-136339888D01*
X194146124Y-136215676D01*
X193939567Y-136130117D01*
X193720288Y-136086500D01*
X193496712Y-136086500D01*
X193277433Y-136130117D01*
X193070876Y-136215676D01*
X192884980Y-136339888D01*
X192726888Y-136497980D01*
X192602676Y-136683876D01*
X192517117Y-136890433D01*
X192473500Y-137109712D01*
X190924510Y-137109712D01*
X190924510Y-130411944D01*
X190956715Y-130363746D01*
X191034736Y-130175388D01*
X191074510Y-129975429D01*
X191074510Y-129771551D01*
X191034736Y-129571592D01*
X190956715Y-129383234D01*
X190924510Y-129335036D01*
X190924510Y-123788975D01*
X190928791Y-123745509D01*
X190924510Y-123702043D01*
X190924510Y-122043766D01*
X190985411Y-121969559D01*
X191067589Y-121815813D01*
X191118195Y-121648990D01*
X191131000Y-121518977D01*
X191131000Y-121518969D01*
X191135281Y-121475500D01*
X191131000Y-121432031D01*
X191131000Y-120705770D01*
X191347200Y-120771353D01*
X191579500Y-120794233D01*
X191811799Y-120771353D01*
X192035173Y-120703594D01*
X192241035Y-120593558D01*
X192421475Y-120445475D01*
X192569558Y-120265036D01*
X192679594Y-120059174D01*
X192747353Y-119835800D01*
X192764500Y-119661707D01*
X192764500Y-118145293D01*
X192934500Y-118145293D01*
X192934500Y-119661706D01*
X192951647Y-119835799D01*
X193019406Y-120059173D01*
X193129442Y-120265035D01*
X193277525Y-120445475D01*
X193457964Y-120593558D01*
X193663826Y-120703594D01*
X193887200Y-120771353D01*
X194119500Y-120794233D01*
X194351799Y-120771353D01*
X194575173Y-120703594D01*
X194781035Y-120593558D01*
X194961475Y-120445475D01*
X195109558Y-120265036D01*
X195219594Y-120059174D01*
X195287353Y-119835800D01*
X195304500Y-119661707D01*
X195304500Y-118145293D01*
X195287353Y-117971200D01*
X195219594Y-117747826D01*
X195109558Y-117541964D01*
X194961475Y-117361525D01*
X194781036Y-117213442D01*
X194575174Y-117103406D01*
X194351800Y-117035647D01*
X194119500Y-117012767D01*
X193887201Y-117035647D01*
X193663827Y-117103406D01*
X193457965Y-117213442D01*
X193277526Y-117361525D01*
X193129443Y-117541964D01*
X193019406Y-117747826D01*
X192951647Y-117971200D01*
X192934500Y-118145293D01*
X192764500Y-118145293D01*
X192747353Y-117971200D01*
X192679594Y-117747826D01*
X192569558Y-117541964D01*
X192421475Y-117361525D01*
X192241036Y-117213442D01*
X192035174Y-117103406D01*
X191811800Y-117035647D01*
X191579500Y-117012767D01*
X191347201Y-117035647D01*
X191131000Y-117101230D01*
X191131000Y-105013414D01*
X191144102Y-105006411D01*
X191278860Y-104895817D01*
X191306577Y-104862044D01*
X192238050Y-103930572D01*
X192271817Y-103902860D01*
X192283290Y-103888880D01*
X192421475Y-103775475D01*
X192569558Y-103595036D01*
X192679594Y-103389174D01*
X192747353Y-103165800D01*
X192764500Y-102991707D01*
X192764500Y-102360500D01*
X192934500Y-102360500D01*
X192934500Y-103060500D01*
X192982046Y-103289242D01*
X193073304Y-103504313D01*
X193204766Y-103697448D01*
X193371381Y-103861225D01*
X193566746Y-103989350D01*
X193783353Y-104076899D01*
X193809756Y-104077303D01*
X193992500Y-103951861D01*
X193992500Y-102360500D01*
X194246500Y-102360500D01*
X194246500Y-103951861D01*
X194429244Y-104077303D01*
X194455647Y-104076899D01*
X194672254Y-103989350D01*
X194867619Y-103861225D01*
X195034234Y-103697448D01*
X195165696Y-103504313D01*
X195256954Y-103289242D01*
X195304500Y-103060500D01*
X195304500Y-102360500D01*
X194246500Y-102360500D01*
X193992500Y-102360500D01*
X192934500Y-102360500D01*
X192764500Y-102360500D01*
X192764500Y-101475293D01*
X192747353Y-101301200D01*
X192679594Y-101077826D01*
X192569558Y-100871964D01*
X192421475Y-100691525D01*
X192383062Y-100660000D01*
X193316216Y-100660000D01*
X193204766Y-100769552D01*
G04 #@! TA.AperFunction,Conductor*
D27*
G36*
X193204766Y-100769552D02*
G01*
X193073304Y-100962687D01*
X192982046Y-101177758D01*
X192934500Y-101406500D01*
X192934500Y-102106500D01*
X193992500Y-102106500D01*
X193992500Y-102086500D01*
X194246500Y-102086500D01*
X194246500Y-102106500D01*
X195304500Y-102106500D01*
X195304500Y-101406500D01*
X195256954Y-101177758D01*
X195165696Y-100962687D01*
X195034234Y-100769552D01*
X194922784Y-100660000D01*
X195855938Y-100660000D01*
X195817525Y-100691525D01*
X195669442Y-100871965D01*
X195559406Y-101077827D01*
X195491647Y-101301201D01*
X195474500Y-101475294D01*
X195474500Y-102991707D01*
X195491647Y-103165800D01*
X195559406Y-103389174D01*
X195669443Y-103595036D01*
X195817526Y-103775475D01*
X195997965Y-103923558D01*
X196203827Y-104033594D01*
X196427201Y-104101353D01*
X196659500Y-104124233D01*
X196891800Y-104101353D01*
X197115174Y-104033594D01*
X197321036Y-103923558D01*
X197340000Y-103907995D01*
X197340000Y-116999514D01*
X197333982Y-116997688D01*
X197209500Y-116985428D01*
X196109500Y-116985428D01*
X195985018Y-116997688D01*
X195865320Y-117033998D01*
X195755006Y-117092963D01*
X195658315Y-117172315D01*
X195578963Y-117269006D01*
X195519998Y-117379320D01*
X195483688Y-117499018D01*
X195471428Y-117623500D01*
X195471428Y-120123500D01*
X195483688Y-120247982D01*
X195519998Y-120367680D01*
X195578963Y-120477994D01*
X195658315Y-120574685D01*
X195755006Y-120654037D01*
X195865320Y-120713002D01*
X195985018Y-120749312D01*
X196109500Y-120761572D01*
X197209500Y-120761572D01*
X197333982Y-120749312D01*
X197340000Y-120747486D01*
X197340000Y-121663060D01*
X197324901Y-121654989D01*
X197092102Y-121584370D01*
X196910665Y-121566500D01*
X196089335Y-121566500D01*
X195907898Y-121584370D01*
X195675099Y-121654989D01*
X195460551Y-121769667D01*
X195272498Y-121923998D01*
X195118167Y-122112051D01*
X195003489Y-122326599D01*
X194932870Y-122559398D01*
X194909025Y-122801500D01*
X194932870Y-123043602D01*
X194935883Y-123053535D01*
X194856381Y-122934551D01*
X194666949Y-122745119D01*
X194444201Y-122596284D01*
X194196697Y-122493764D01*
X193933948Y-122441500D01*
X193666052Y-122441500D01*
X193403303Y-122493764D01*
X193155799Y-122596284D01*
X192933051Y-122745119D01*
X192743619Y-122934551D01*
X192594784Y-123157299D01*
X192492264Y-123404803D01*
X192440000Y-123667552D01*
X192440000Y-123935448D01*
X192492264Y-124198197D01*
X192594784Y-124445701D01*
X192743619Y-124668449D01*
X192933051Y-124857881D01*
X193155799Y-125006716D01*
X193403303Y-125109236D01*
X193666052Y-125161500D01*
X193933948Y-125161500D01*
X194196697Y-125109236D01*
X194444201Y-125006716D01*
X194666949Y-124857881D01*
X194856381Y-124668449D01*
X195005216Y-124445701D01*
X195107736Y-124198197D01*
X195160000Y-123935448D01*
X195160000Y-123667552D01*
X195127016Y-123501732D01*
X195272498Y-123679002D01*
X195460551Y-123833333D01*
X195675099Y-123948011D01*
X195907898Y-124018630D01*
X196089335Y-124036500D01*
X196910665Y-124036500D01*
X197092102Y-124018630D01*
X197324901Y-123948011D01*
X197340000Y-123939940D01*
X197340001Y-128663060D01*
X197324901Y-128654989D01*
X197092102Y-128584370D01*
X196910665Y-128566500D01*
X196089335Y-128566500D01*
X195907898Y-128584370D01*
X195675099Y-128654989D01*
X195460551Y-128769667D01*
X195272498Y-128923998D01*
X195127016Y-129101268D01*
X195160000Y-128935448D01*
X195160000Y-128667552D01*
X195107736Y-128404803D01*
X195005216Y-128157299D01*
X194856381Y-127934551D01*
X194666949Y-127745119D01*
X194444201Y-127596284D01*
X194196697Y-127493764D01*
X193933948Y-127441500D01*
X193666052Y-127441500D01*
X193403303Y-127493764D01*
X193155799Y-127596284D01*
X192933051Y-127745119D01*
X192743619Y-127934551D01*
X192594784Y-128157299D01*
X192492264Y-128404803D01*
X192440000Y-128667552D01*
X192440000Y-128935448D01*
X192492264Y-129198197D01*
X192594784Y-129445701D01*
X192743619Y-129668449D01*
X192933051Y-129857881D01*
X193155799Y-130006716D01*
X193403303Y-130109236D01*
X193666052Y-130161500D01*
X193933948Y-130161500D01*
X194196697Y-130109236D01*
X194444201Y-130006716D01*
X194666949Y-129857881D01*
X194856381Y-129668449D01*
X194935883Y-129549465D01*
X194932870Y-129559398D01*
X194909025Y-129801500D01*
X194932870Y-130043602D01*
X195003489Y-130276401D01*
X195118167Y-130490949D01*
X195272498Y-130679002D01*
X195460551Y-130833333D01*
X195675099Y-130948011D01*
X195907898Y-131018630D01*
X196089335Y-131036500D01*
X196910665Y-131036500D01*
X197092102Y-131018630D01*
X197324901Y-130948011D01*
X197340001Y-130939940D01*
X197340001Y-152467712D01*
X197320898Y-152662540D01*
X197273692Y-152818895D01*
X197197018Y-152963096D01*
X197093792Y-153089664D01*
X196967951Y-153193768D01*
X196824289Y-153271447D01*
X196668271Y-153319742D01*
X196475527Y-153340000D01*
X189158348Y-153340000D01*
X189409983Y-153171863D01*
X189707363Y-152874483D01*
X189941012Y-152524802D01*
X190101953Y-152136256D01*
X190184000Y-151723779D01*
X190184000Y-151303221D01*
X190101953Y-150890744D01*
X189941012Y-150502198D01*
X189707363Y-150152517D01*
X189409983Y-149855137D01*
X189060302Y-149621488D01*
X188671756Y-149460547D01*
X188259279Y-149378500D01*
X188042079Y-149378500D01*
X189571049Y-147849530D01*
X189604817Y-147821817D01*
X189646713Y-147770768D01*
X189715411Y-147687059D01*
X189797589Y-147533314D01*
X189848195Y-147366490D01*
X189861000Y-147236477D01*
X189861000Y-147236469D01*
X189865281Y-147193000D01*
X189861000Y-147149531D01*
X189861000Y-145109712D01*
X192473500Y-145109712D01*
X192473500Y-145333288D01*
X192517117Y-145552567D01*
X192602676Y-145759124D01*
X192726888Y-145945020D01*
X192884980Y-146103112D01*
X193070876Y-146227324D01*
X193277433Y-146312883D01*
X193496712Y-146356500D01*
X193720288Y-146356500D01*
X193939567Y-146312883D01*
X194146124Y-146227324D01*
X194332020Y-146103112D01*
X194490112Y-145945020D01*
X194614324Y-145759124D01*
X194699883Y-145552567D01*
X194743500Y-145333288D01*
X194743500Y-145109712D01*
X194699883Y-144890433D01*
X194614324Y-144683876D01*
X194490112Y-144497980D01*
X194332020Y-144339888D01*
X194146124Y-144215676D01*
X193939567Y-144130117D01*
X193720288Y-144086500D01*
X193496712Y-144086500D01*
X193277433Y-144130117D01*
X193070876Y-144215676D01*
X192884980Y-144339888D01*
X192726888Y-144497980D01*
X192602676Y-144683876D01*
X192517117Y-144890433D01*
X192473500Y-145109712D01*
X189861000Y-145109712D01*
X189861000Y-141000454D01*
X189893205Y-140952256D01*
X189971226Y-140763898D01*
X189982535Y-140707043D01*
X190634560Y-140055019D01*
X190668327Y-140027307D01*
X190709614Y-139977000D01*
X190778920Y-139892550D01*
X190778921Y-139892549D01*
X190861099Y-139738803D01*
X190911705Y-139571980D01*
X190924510Y-139441967D01*
X190924510Y-139441957D01*
X190928791Y-139398491D01*
X190924510Y-139355025D01*
X190924510Y-137109712D01*
X192473500Y-137109712D01*
X192473500Y-137333288D01*
X192517117Y-137552567D01*
X192602676Y-137759124D01*
X192726888Y-137945020D01*
X192884980Y-138103112D01*
X193070876Y-138227324D01*
X193277433Y-138312883D01*
X193496712Y-138356500D01*
X193720288Y-138356500D01*
X193939567Y-138312883D01*
X194146124Y-138227324D01*
X194332020Y-138103112D01*
X194490112Y-137945020D01*
X194614324Y-137759124D01*
X194699883Y-137552567D01*
X194743500Y-137333288D01*
X194743500Y-137109712D01*
X194699883Y-136890433D01*
X194614324Y-136683876D01*
X194490112Y-136497980D01*
X194332020Y-136339888D01*
X194146124Y-136215676D01*
X193939567Y-136130117D01*
X193720288Y-136086500D01*
X193496712Y-136086500D01*
X193277433Y-136130117D01*
X193070876Y-136215676D01*
X192884980Y-136339888D01*
X192726888Y-136497980D01*
X192602676Y-136683876D01*
X192517117Y-136890433D01*
X192473500Y-137109712D01*
X190924510Y-137109712D01*
X190924510Y-130411944D01*
X190956715Y-130363746D01*
X191034736Y-130175388D01*
X191074510Y-129975429D01*
X191074510Y-129771551D01*
X191034736Y-129571592D01*
X190956715Y-129383234D01*
X190924510Y-129335036D01*
X190924510Y-123788975D01*
X190928791Y-123745509D01*
X190924510Y-123702043D01*
X190924510Y-122043766D01*
X190985411Y-121969559D01*
X191067589Y-121815813D01*
X191118195Y-121648990D01*
X191131000Y-121518977D01*
X191131000Y-121518969D01*
X191135281Y-121475500D01*
X191131000Y-121432031D01*
X191131000Y-120705770D01*
X191347200Y-120771353D01*
X191579500Y-120794233D01*
X191811799Y-120771353D01*
X192035173Y-120703594D01*
X192241035Y-120593558D01*
X192421475Y-120445475D01*
X192569558Y-120265036D01*
X192679594Y-120059174D01*
X192747353Y-119835800D01*
X192764500Y-119661707D01*
X192764500Y-118145293D01*
X192934500Y-118145293D01*
X192934500Y-119661706D01*
X192951647Y-119835799D01*
X193019406Y-120059173D01*
X193129442Y-120265035D01*
X193277525Y-120445475D01*
X193457964Y-120593558D01*
X193663826Y-120703594D01*
X193887200Y-120771353D01*
X194119500Y-120794233D01*
X194351799Y-120771353D01*
X194575173Y-120703594D01*
X194781035Y-120593558D01*
X194961475Y-120445475D01*
X195109558Y-120265036D01*
X195219594Y-120059174D01*
X195287353Y-119835800D01*
X195304500Y-119661707D01*
X195304500Y-118145293D01*
X195287353Y-117971200D01*
X195219594Y-117747826D01*
X195109558Y-117541964D01*
X194961475Y-117361525D01*
X194781036Y-117213442D01*
X194575174Y-117103406D01*
X194351800Y-117035647D01*
X194119500Y-117012767D01*
X193887201Y-117035647D01*
X193663827Y-117103406D01*
X193457965Y-117213442D01*
X193277526Y-117361525D01*
X193129443Y-117541964D01*
X193019406Y-117747826D01*
X192951647Y-117971200D01*
X192934500Y-118145293D01*
X192764500Y-118145293D01*
X192747353Y-117971200D01*
X192679594Y-117747826D01*
X192569558Y-117541964D01*
X192421475Y-117361525D01*
X192241036Y-117213442D01*
X192035174Y-117103406D01*
X191811800Y-117035647D01*
X191579500Y-117012767D01*
X191347201Y-117035647D01*
X191131000Y-117101230D01*
X191131000Y-105013414D01*
X191144102Y-105006411D01*
X191278860Y-104895817D01*
X191306577Y-104862044D01*
X192238050Y-103930572D01*
X192271817Y-103902860D01*
X192283290Y-103888880D01*
X192421475Y-103775475D01*
X192569558Y-103595036D01*
X192679594Y-103389174D01*
X192747353Y-103165800D01*
X192764500Y-102991707D01*
X192764500Y-102360500D01*
X192934500Y-102360500D01*
X192934500Y-103060500D01*
X192982046Y-103289242D01*
X193073304Y-103504313D01*
X193204766Y-103697448D01*
X193371381Y-103861225D01*
X193566746Y-103989350D01*
X193783353Y-104076899D01*
X193809756Y-104077303D01*
X193992500Y-103951861D01*
X193992500Y-102360500D01*
X194246500Y-102360500D01*
X194246500Y-103951861D01*
X194429244Y-104077303D01*
X194455647Y-104076899D01*
X194672254Y-103989350D01*
X194867619Y-103861225D01*
X195034234Y-103697448D01*
X195165696Y-103504313D01*
X195256954Y-103289242D01*
X195304500Y-103060500D01*
X195304500Y-102360500D01*
X194246500Y-102360500D01*
X193992500Y-102360500D01*
X192934500Y-102360500D01*
X192764500Y-102360500D01*
X192764500Y-101475293D01*
X192747353Y-101301200D01*
X192679594Y-101077826D01*
X192569558Y-100871964D01*
X192421475Y-100691525D01*
X192383062Y-100660000D01*
X193316216Y-100660000D01*
X193204766Y-100769552D01*
G37*
G04 #@! TD.AperFunction*
D26*
X175497526Y-100691525D02*
X175349443Y-100871964D01*
X175239406Y-101077826D01*
X175171647Y-101301200D01*
X175154500Y-101475293D01*
X175154500Y-102991706D01*
X175171647Y-103165799D01*
X175237230Y-103382000D01*
X174716072Y-103382000D01*
X174716072Y-101702500D01*
X174703812Y-101578018D01*
X174667502Y-101458320D01*
X174608537Y-101348006D01*
X174529185Y-101251315D01*
X174432494Y-101171963D01*
X174322180Y-101112998D01*
X174202482Y-101076688D01*
X174078000Y-101064428D01*
X172378000Y-101064428D01*
X172253518Y-101076688D01*
X172133820Y-101112998D01*
X172023506Y-101171963D01*
X171926815Y-101251315D01*
X171847463Y-101348006D01*
X171788498Y-101458320D01*
X171766487Y-101530880D01*
X171634632Y-101399025D01*
X171391411Y-101236510D01*
X171121158Y-101124568D01*
X170834260Y-101067500D01*
X170541740Y-101067500D01*
X170254842Y-101124568D01*
X169984589Y-101236510D01*
X169741368Y-101399025D01*
X169534525Y-101605868D01*
X169418000Y-101780260D01*
X169301475Y-101605868D01*
X169094632Y-101399025D01*
X168851411Y-101236510D01*
X168581158Y-101124568D01*
X168294260Y-101067500D01*
X168001740Y-101067500D01*
X167714842Y-101124568D01*
X167444589Y-101236510D01*
X167201368Y-101399025D01*
X166994525Y-101605868D01*
X166878000Y-101780260D01*
X166761475Y-101605868D01*
X166554632Y-101399025D01*
X166311411Y-101236510D01*
X166041158Y-101124568D01*
X165754260Y-101067500D01*
X165461740Y-101067500D01*
X165174842Y-101124568D01*
X164904589Y-101236510D01*
X164661368Y-101399025D01*
X164454525Y-101605868D01*
X164332805Y-101788034D01*
X164263178Y-101671145D01*
X164068269Y-101454912D01*
X163834920Y-101280859D01*
X163572099Y-101155675D01*
X163424890Y-101111024D01*
X163195000Y-101232345D01*
X163195000Y-102425500D01*
X163215000Y-102425500D01*
X163215000Y-102679500D01*
X163195000Y-102679500D01*
X163195000Y-103872655D01*
X163424890Y-103993976D01*
X163572099Y-103949325D01*
X163834920Y-103824141D01*
X164068269Y-103650088D01*
X164263178Y-103433855D01*
X164332805Y-103316966D01*
X164454525Y-103499132D01*
X164661368Y-103705975D01*
X164904589Y-103868490D01*
X165174842Y-103980432D01*
X165461740Y-104037500D01*
X165754260Y-104037500D01*
X166041158Y-103980432D01*
X166311411Y-103868490D01*
X166554632Y-103705975D01*
X166761475Y-103499132D01*
X166878000Y-103324740D01*
X166994525Y-103499132D01*
X167201368Y-103705975D01*
X167444589Y-103868490D01*
X167714842Y-103980432D01*
X168001740Y-104037500D01*
X168294260Y-104037500D01*
X168581158Y-103980432D01*
X168851411Y-103868490D01*
X169094632Y-103705975D01*
X169301475Y-103499132D01*
X169418000Y-103324740D01*
X169534525Y-103499132D01*
X169741368Y-103705975D01*
X169966500Y-103856404D01*
X169966500Y-104799947D01*
X169962703Y-104838500D01*
X169966500Y-104877053D01*
X169966500Y-104877060D01*
X169977859Y-104992386D01*
X170022746Y-105140359D01*
X170095638Y-105276732D01*
X170193736Y-105396264D01*
X170223690Y-105420847D01*
X170584272Y-105781429D01*
X170659795Y-105963756D01*
X170773063Y-106133274D01*
X170917226Y-106277437D01*
X171086744Y-106390705D01*
X171275102Y-106468726D01*
X171475061Y-106508500D01*
X171678939Y-106508500D01*
X171878898Y-106468726D01*
X172067256Y-106390705D01*
X172236774Y-106277437D01*
X172255711Y-106258500D01*
X172588421Y-106258500D01*
X171527922Y-107319000D01*
X170045318Y-107319000D01*
X170144705Y-107170256D01*
X170222726Y-106981898D01*
X170262500Y-106781939D01*
X170262500Y-106578061D01*
X170222726Y-106378102D01*
X170144705Y-106189744D01*
X170031437Y-106020226D01*
X169887274Y-105876063D01*
X169717756Y-105762795D01*
X169529398Y-105684774D01*
X169329439Y-105645000D01*
X169125561Y-105645000D01*
X168925602Y-105684774D01*
X168737244Y-105762795D01*
X168567726Y-105876063D01*
X168423563Y-106020226D01*
X168310295Y-106189744D01*
X168232274Y-106378102D01*
X168192500Y-106578061D01*
X168192500Y-106781939D01*
X168232274Y-106981898D01*
X168310295Y-107170256D01*
X168409682Y-107319000D01*
X164254465Y-107319000D01*
X164210999Y-107314719D01*
X164167533Y-107319000D01*
X164167523Y-107319000D01*
X164037510Y-107331805D01*
X163870687Y-107382411D01*
X163716941Y-107464589D01*
X163716939Y-107464590D01*
X163716940Y-107464590D01*
X163615953Y-107547468D01*
X163615951Y-107547470D01*
X163582183Y-107575183D01*
X163554470Y-107608951D01*
X163013457Y-108149965D01*
X162956602Y-108161274D01*
X162768244Y-108239295D01*
X162598726Y-108352563D01*
X162454563Y-108496726D01*
X162341295Y-108666244D01*
X162263274Y-108854602D01*
X162223500Y-109054561D01*
X162223500Y-109258439D01*
X162263274Y-109458398D01*
X162341295Y-109646756D01*
X162454563Y-109816274D01*
X162598726Y-109960437D01*
X162768244Y-110073705D01*
X162956602Y-110151726D01*
X163156561Y-110191500D01*
X163360439Y-110191500D01*
X163560398Y-110151726D01*
X163748756Y-110073705D01*
X163918274Y-109960437D01*
X164062437Y-109816274D01*
X164175705Y-109646756D01*
X164253726Y-109458398D01*
X164265035Y-109401543D01*
X164577579Y-109089000D01*
X171460451Y-109089000D01*
X171470774Y-109140898D01*
X171548795Y-109329256D01*
X171662063Y-109498774D01*
X171806226Y-109642937D01*
X171975744Y-109756205D01*
X172164102Y-109834226D01*
X172301739Y-109861604D01*
X171125385Y-111037958D01*
X171095437Y-111062536D01*
X171070859Y-111092484D01*
X171070855Y-111092488D01*
X171037890Y-111132656D01*
X170997339Y-111182067D01*
X170979717Y-111215036D01*
X170924446Y-111318441D01*
X170879559Y-111466414D01*
X170864403Y-111620300D01*
X170868201Y-111658863D01*
X170868200Y-114291294D01*
X170611273Y-114462968D01*
X170383608Y-114690633D01*
X170204733Y-114958338D01*
X170081522Y-115255797D01*
X170018710Y-115571577D01*
X170018710Y-115893543D01*
X170081522Y-116209323D01*
X170204733Y-116506782D01*
X170383608Y-116774487D01*
X170611273Y-117002152D01*
X170878978Y-117181027D01*
X171176437Y-117304238D01*
X171492217Y-117367050D01*
X171814183Y-117367050D01*
X172129963Y-117304238D01*
X172427422Y-117181027D01*
X172695127Y-117002152D01*
X172922792Y-116774487D01*
X173014501Y-116637235D01*
X173014501Y-119328765D01*
X172922792Y-119191513D01*
X172695127Y-118963848D01*
X172427422Y-118784973D01*
X172129963Y-118661762D01*
X171814183Y-118598950D01*
X171492217Y-118598950D01*
X171176437Y-118661762D01*
X170878978Y-118784973D01*
X170611273Y-118963848D01*
X170383608Y-119191513D01*
X170204733Y-119459218D01*
X170081522Y-119756677D01*
X170018710Y-120072457D01*
X170018710Y-120394423D01*
X170081522Y-120710203D01*
X170204733Y-121007662D01*
X170383608Y-121275367D01*
X170611273Y-121503032D01*
X170878978Y-121681907D01*
X171176437Y-121805118D01*
X171492217Y-121867930D01*
X171814183Y-121867930D01*
X172129963Y-121805118D01*
X172427422Y-121681907D01*
X172695127Y-121503032D01*
X172922792Y-121275367D01*
X173014501Y-121138116D01*
X173014500Y-126580447D01*
X173010703Y-126619000D01*
X173014500Y-126657553D01*
X173014500Y-126657560D01*
X173025859Y-126772886D01*
X173070746Y-126920859D01*
X173143638Y-127057232D01*
X173241736Y-127176764D01*
X173271690Y-127201347D01*
X175114000Y-129043657D01*
X175114000Y-129070439D01*
X175153774Y-129270398D01*
X175231795Y-129458756D01*
X175345063Y-129628274D01*
X175489226Y-129772437D01*
X175658744Y-129885705D01*
X175847102Y-129963726D01*
X176047061Y-130003500D01*
X176250939Y-130003500D01*
X176450898Y-129963726D01*
X176639256Y-129885705D01*
X176808774Y-129772437D01*
X176815750Y-129765461D01*
X176822726Y-129772437D01*
X176992244Y-129885705D01*
X177180602Y-129963726D01*
X177380561Y-130003500D01*
X177584439Y-130003500D01*
X177784398Y-129963726D01*
X177972756Y-129885705D01*
X178094501Y-129804358D01*
X178094501Y-130294341D01*
X174758603Y-133630239D01*
X174731226Y-133492602D01*
X174653205Y-133304244D01*
X174539937Y-133134726D01*
X174395774Y-132990563D01*
X174226256Y-132877295D01*
X174037898Y-132799274D01*
X173837939Y-132759500D01*
X173811158Y-132759500D01*
X170203000Y-129151343D01*
X170203000Y-124630711D01*
X170221937Y-124611774D01*
X170335205Y-124442256D01*
X170413226Y-124253898D01*
X170453000Y-124053939D01*
X170453000Y-123850061D01*
X170413226Y-123650102D01*
X170335205Y-123461744D01*
X170221937Y-123292226D01*
X170077774Y-123148063D01*
X169908256Y-123034795D01*
X169719898Y-122956774D01*
X169519939Y-122917000D01*
X169316061Y-122917000D01*
X169116102Y-122956774D01*
X168927744Y-123034795D01*
X168758226Y-123148063D01*
X168614063Y-123292226D01*
X168563940Y-123367240D01*
X168454982Y-123334188D01*
X168330500Y-123321928D01*
X167330500Y-123321928D01*
X167206018Y-123334188D01*
X167086320Y-123370498D01*
X167003274Y-123414888D01*
X166891567Y-123368617D01*
X166672288Y-123325000D01*
X166535657Y-123325000D01*
X166292846Y-123082189D01*
X166268263Y-123052235D01*
X166148732Y-122954137D01*
X166012359Y-122881245D01*
X165864386Y-122836358D01*
X165749060Y-122824999D01*
X165749052Y-122824999D01*
X165710499Y-122821202D01*
X165671946Y-122824999D01*
X127507557Y-122824999D01*
X127469001Y-122821202D01*
X127430445Y-122824999D01*
X127430440Y-122824999D01*
X127390027Y-122828979D01*
X127315114Y-122836357D01*
X127183073Y-122876412D01*
X127167141Y-122881245D01*
X127030768Y-122954137D01*
X126911237Y-123052235D01*
X126886654Y-123082189D01*
X124765843Y-125203000D01*
X124739061Y-125203000D01*
X124539102Y-125242774D01*
X124350744Y-125320795D01*
X124181226Y-125434063D01*
X124037063Y-125578226D01*
X123923795Y-125747744D01*
X123845774Y-125936102D01*
X123806000Y-126136061D01*
X123806000Y-126339939D01*
X123845774Y-126539898D01*
X123923795Y-126728256D01*
X124037063Y-126897774D01*
X124181226Y-127041937D01*
X124350744Y-127155205D01*
X124539102Y-127233226D01*
X124739061Y-127273000D01*
X124942939Y-127273000D01*
X125142898Y-127233226D01*
X125331256Y-127155205D01*
X125500774Y-127041937D01*
X125644937Y-126897774D01*
X125758205Y-126728256D01*
X125836226Y-126539898D01*
X125876000Y-126339939D01*
X125876000Y-126313157D01*
X127794158Y-124394999D01*
X133463283Y-124394999D01*
X133458000Y-124421561D01*
X133458000Y-124525001D01*
X129300054Y-124525001D01*
X129261499Y-124521204D01*
X129222943Y-124525001D01*
X129222938Y-124525001D01*
X129182525Y-124528981D01*
X129107612Y-124536359D01*
X128990821Y-124571788D01*
X128959639Y-124581247D01*
X128823266Y-124654139D01*
X128775639Y-124693226D01*
X128733686Y-124727656D01*
X128733683Y-124727659D01*
X128703735Y-124752237D01*
X128679156Y-124782186D01*
X128575842Y-124885500D01*
X128549061Y-124885500D01*
X128349102Y-124925274D01*
X128160744Y-125003295D01*
X127991226Y-125116563D01*
X127847063Y-125260726D01*
X127733795Y-125430244D01*
X127655774Y-125618602D01*
X127616000Y-125818561D01*
X127616000Y-126022439D01*
X127655774Y-126222398D01*
X127733795Y-126410756D01*
X127847063Y-126580274D01*
X127991226Y-126724437D01*
X128160744Y-126837705D01*
X128349102Y-126915726D01*
X128549061Y-126955500D01*
X128752939Y-126955500D01*
X128952898Y-126915726D01*
X129141256Y-126837705D01*
X129310774Y-126724437D01*
X129454937Y-126580274D01*
X129568205Y-126410756D01*
X129646226Y-126222398D01*
X129671567Y-126095001D01*
X162319339Y-126095001D01*
X157839341Y-130575000D01*
X121448072Y-130575000D01*
X121448072Y-130460000D01*
X121435812Y-130335518D01*
X121399502Y-130215820D01*
X121340537Y-130105506D01*
X121327812Y-130090000D01*
X121340537Y-130074494D01*
X121399502Y-129964180D01*
X121435812Y-129844482D01*
X121448072Y-129720000D01*
X121448072Y-129627596D01*
X121475500Y-129630297D01*
X121514053Y-129626500D01*
X121514061Y-129626500D01*
X121629387Y-129615141D01*
X121777360Y-129570254D01*
X121913733Y-129497362D01*
X122033264Y-129399264D01*
X122057847Y-129369310D01*
X123209810Y-128217347D01*
X123239764Y-128192764D01*
X123337862Y-128073233D01*
X123410754Y-127936860D01*
X123411773Y-127933500D01*
X123455642Y-127788887D01*
X123463358Y-127710537D01*
X123467000Y-127673561D01*
X123467000Y-127673556D01*
X123470797Y-127635000D01*
X123467000Y-127596444D01*
X123467000Y-121368490D01*
X164195355Y-121368490D01*
X164291058Y-121632839D01*
X164580587Y-121773678D01*
X164892029Y-121855325D01*
X165213415Y-121874645D01*
X165532395Y-121830894D01*
X165836711Y-121725754D01*
X166010542Y-121632839D01*
X166106245Y-121368490D01*
X165150800Y-120413045D01*
X164195355Y-121368490D01*
X123467000Y-121368490D01*
X123467000Y-120296055D01*
X163509595Y-120296055D01*
X163553346Y-120615035D01*
X163658486Y-120919351D01*
X163751401Y-121093182D01*
X164015750Y-121188885D01*
X164971195Y-120233440D01*
X165330405Y-120233440D01*
X166285850Y-121188885D01*
X166550199Y-121093182D01*
X166691038Y-120803653D01*
X166772685Y-120492211D01*
X166792005Y-120170825D01*
X166748254Y-119851845D01*
X166643114Y-119547529D01*
X166550199Y-119373698D01*
X166285850Y-119277995D01*
X165330405Y-120233440D01*
X164971195Y-120233440D01*
X164015750Y-119277995D01*
X163751401Y-119373698D01*
X163610562Y-119663227D01*
X163528915Y-119974669D01*
X163509595Y-120296055D01*
X123467000Y-120296055D01*
X123467000Y-119133657D01*
X123502267Y-119098390D01*
X164195355Y-119098390D01*
X165150800Y-120053835D01*
X166106245Y-119098390D01*
X166010542Y-118834041D01*
X165721013Y-118693202D01*
X165409571Y-118611555D01*
X165088185Y-118592235D01*
X164769205Y-118635986D01*
X164464889Y-118741126D01*
X164291058Y-118834041D01*
X164195355Y-119098390D01*
X123502267Y-119098390D01*
X127029080Y-115571577D01*
X163516310Y-115571577D01*
X163516310Y-115893543D01*
X163579122Y-116209323D01*
X163702333Y-116506782D01*
X163881208Y-116774487D01*
X164108873Y-117002152D01*
X164376578Y-117181027D01*
X164674037Y-117304238D01*
X164989817Y-117367050D01*
X165311783Y-117367050D01*
X165627563Y-117304238D01*
X165925022Y-117181027D01*
X166192727Y-117002152D01*
X166420392Y-116774487D01*
X166599267Y-116506782D01*
X166722478Y-116209323D01*
X166785290Y-115893543D01*
X166785290Y-115571577D01*
X166722478Y-115255797D01*
X166599267Y-114958338D01*
X166420392Y-114690633D01*
X166192727Y-114462968D01*
X165925022Y-114284093D01*
X165627563Y-114160882D01*
X165311783Y-114098070D01*
X164989817Y-114098070D01*
X164674037Y-114160882D01*
X164376578Y-114284093D01*
X164108873Y-114462968D01*
X163881208Y-114690633D01*
X163702333Y-114958338D01*
X163579122Y-115255797D01*
X163516310Y-115571577D01*
X127029080Y-115571577D01*
X127769658Y-114831000D01*
X156674289Y-114831000D01*
X156693226Y-114849937D01*
X156862744Y-114963205D01*
X157051102Y-115041226D01*
X157251061Y-115081000D01*
X157454939Y-115081000D01*
X157654898Y-115041226D01*
X157843256Y-114963205D01*
X158012774Y-114849937D01*
X158156937Y-114705774D01*
X158270205Y-114536256D01*
X158348226Y-114347898D01*
X158388000Y-114147939D01*
X158388000Y-113944061D01*
X158348226Y-113744102D01*
X158270205Y-113555744D01*
X158156937Y-113386226D01*
X158012774Y-113242063D01*
X157843256Y-113128795D01*
X157729042Y-113081486D01*
X157708034Y-112975871D01*
X157630013Y-112787513D01*
X157516745Y-112617995D01*
X157372582Y-112473832D01*
X157203064Y-112360564D01*
X157014706Y-112282543D01*
X156814747Y-112242769D01*
X156610869Y-112242769D01*
X156410910Y-112282543D01*
X156222552Y-112360564D01*
X156053034Y-112473832D01*
X156034097Y-112492769D01*
X117900787Y-112492769D01*
X117862231Y-112488972D01*
X117823675Y-112492769D01*
X117823670Y-112492769D01*
X117783257Y-112496749D01*
X117708344Y-112504127D01*
X117560371Y-112549015D01*
X117423998Y-112621907D01*
X117304467Y-112720005D01*
X117279880Y-112749964D01*
X117264693Y-112765151D01*
X117264688Y-112765155D01*
X117010693Y-113019150D01*
X117010687Y-113019155D01*
X107041189Y-122988654D01*
X107011236Y-123013236D01*
X106913138Y-123132767D01*
X106840246Y-123269140D01*
X106795359Y-123417113D01*
X106784000Y-123532439D01*
X106784000Y-123532447D01*
X106780203Y-123571000D01*
X106784000Y-123609553D01*
X106784000Y-123673060D01*
X106784001Y-123673070D01*
X106784000Y-127469447D01*
X106780203Y-127508000D01*
X106784000Y-127546553D01*
X106784000Y-127546560D01*
X106795359Y-127661886D01*
X106840246Y-127809859D01*
X106913138Y-127946232D01*
X107011236Y-128065764D01*
X107041190Y-128090347D01*
X108298658Y-129347815D01*
X108323236Y-129377764D01*
X108353184Y-129402342D01*
X108353187Y-129402345D01*
X108358533Y-129406732D01*
X108442767Y-129475862D01*
X108537064Y-129526264D01*
X108579140Y-129548754D01*
X108671928Y-129576901D01*
X108671928Y-129720000D01*
X108684188Y-129844482D01*
X108720498Y-129964180D01*
X108779463Y-130074494D01*
X108792188Y-130090000D01*
X108779463Y-130105506D01*
X108720498Y-130215820D01*
X108684188Y-130335518D01*
X108671928Y-130460000D01*
X108671928Y-130469500D01*
X107353555Y-130469500D01*
X107315000Y-130465703D01*
X107276444Y-130469500D01*
X107276439Y-130469500D01*
X107236026Y-130473480D01*
X107161113Y-130480858D01*
X107024035Y-130522441D01*
X107013140Y-130525746D01*
X106876767Y-130598638D01*
X106797124Y-130664000D01*
X106768561Y-130664000D01*
X106568602Y-130703774D01*
X106380244Y-130781795D01*
X106210726Y-130895063D01*
X106066563Y-131039226D01*
X105953295Y-131208744D01*
X105875274Y-131397102D01*
X105835500Y-131597061D01*
X105835500Y-131800939D01*
X105875274Y-132000898D01*
X105953295Y-132189256D01*
X106066563Y-132358774D01*
X106210726Y-132502937D01*
X106380244Y-132616205D01*
X106568602Y-132694226D01*
X106768561Y-132734000D01*
X106972439Y-132734000D01*
X107172398Y-132694226D01*
X107360756Y-132616205D01*
X107530274Y-132502937D01*
X107674437Y-132358774D01*
X107787705Y-132189256D01*
X107849736Y-132039500D01*
X108671928Y-132039500D01*
X108671928Y-132260000D01*
X108684188Y-132384482D01*
X108720498Y-132504180D01*
X108779463Y-132614494D01*
X108792188Y-132630000D01*
X108779463Y-132645506D01*
X108720498Y-132755820D01*
X108684188Y-132875518D01*
X108671928Y-133000000D01*
X108671928Y-134800000D01*
X108684188Y-134924482D01*
X108720498Y-135044180D01*
X108779463Y-135154494D01*
X108858815Y-135251185D01*
X108955506Y-135330537D01*
X109065820Y-135389502D01*
X109185518Y-135425812D01*
X109310000Y-135438072D01*
X113310000Y-135438072D01*
X113434482Y-135425812D01*
X113554180Y-135389502D01*
X113664494Y-135330537D01*
X113761185Y-135251185D01*
X113840537Y-135154494D01*
X113899502Y-135044180D01*
X113935812Y-134924482D01*
X113948072Y-134800000D01*
X116171928Y-134800000D01*
X116184188Y-134924482D01*
X116220498Y-135044180D01*
X116279463Y-135154494D01*
X116358815Y-135251185D01*
X116455506Y-135330537D01*
X116565820Y-135389502D01*
X116685518Y-135425812D01*
X116810000Y-135438072D01*
X118524250Y-135435000D01*
X118683000Y-135276250D01*
X118683000Y-134027000D01*
X118937000Y-134027000D01*
X118937000Y-135276250D01*
X119095750Y-135435000D01*
X120810000Y-135438072D01*
X120934482Y-135425812D01*
X121054180Y-135389502D01*
X121164494Y-135330537D01*
X121261185Y-135251185D01*
X121340537Y-135154494D01*
X121399502Y-135044180D01*
X121435812Y-134924482D01*
X121448072Y-134800000D01*
X121445000Y-134185750D01*
X121286250Y-134027000D01*
X118937000Y-134027000D01*
X118683000Y-134027000D01*
X116333750Y-134027000D01*
X116175000Y-134185750D01*
X116171928Y-134800000D01*
X113948072Y-134800000D01*
X113948072Y-133000000D01*
X113935812Y-132875518D01*
X113899502Y-132755820D01*
X113840537Y-132645506D01*
X113827812Y-132630000D01*
X113840537Y-132614494D01*
X113899502Y-132504180D01*
X113935812Y-132384482D01*
X113948072Y-132260000D01*
X113948072Y-130460000D01*
X113935812Y-130335518D01*
X113899502Y-130215820D01*
X113840537Y-130105506D01*
X113827812Y-130090000D01*
X113840537Y-130074494D01*
X113899502Y-129964180D01*
X113935812Y-129844482D01*
X113948072Y-129720000D01*
X113948072Y-127920000D01*
X113935812Y-127795518D01*
X113899502Y-127675820D01*
X113840537Y-127565506D01*
X113827812Y-127550000D01*
X113840537Y-127534494D01*
X113899502Y-127424180D01*
X113935812Y-127304482D01*
X113948072Y-127180000D01*
X113948072Y-125380000D01*
X113935812Y-125255518D01*
X113913359Y-125181500D01*
X116206641Y-125181500D01*
X116184188Y-125255518D01*
X116171928Y-125380000D01*
X116171928Y-127180000D01*
X116184188Y-127304482D01*
X116220498Y-127424180D01*
X116279463Y-127534494D01*
X116292188Y-127550000D01*
X116279463Y-127565506D01*
X116220498Y-127675820D01*
X116184188Y-127795518D01*
X116171928Y-127920000D01*
X116171928Y-129720000D01*
X116184188Y-129844482D01*
X116220498Y-129964180D01*
X116279463Y-130074494D01*
X116292188Y-130090000D01*
X116279463Y-130105506D01*
X116220498Y-130215820D01*
X116184188Y-130335518D01*
X116171928Y-130460000D01*
X116171928Y-132260000D01*
X116184188Y-132384482D01*
X116220498Y-132504180D01*
X116279463Y-132614494D01*
X116292188Y-132630000D01*
X116279463Y-132645506D01*
X116220498Y-132755820D01*
X116184188Y-132875518D01*
X116171928Y-133000000D01*
X116175000Y-133614250D01*
X116333750Y-133773000D01*
X118683000Y-133773000D01*
X118683000Y-133753000D01*
X118937000Y-133753000D01*
X118937000Y-133773000D01*
X121286250Y-133773000D01*
X121445000Y-133614250D01*
X121448072Y-133000000D01*
X121435812Y-132875518D01*
X121399502Y-132755820D01*
X121340537Y-132645506D01*
X121327812Y-132630000D01*
X121340537Y-132614494D01*
X121399502Y-132504180D01*
X121435812Y-132384482D01*
X121448072Y-132260000D01*
X121448072Y-132145000D01*
X158125945Y-132145000D01*
X158164498Y-132148797D01*
X158203051Y-132145000D01*
X158203059Y-132145000D01*
X158318385Y-132133641D01*
X158466358Y-132088754D01*
X158602731Y-132015862D01*
X158722262Y-131917764D01*
X158746845Y-131887810D01*
X162163255Y-128471401D01*
X162196047Y-128636256D01*
X162356988Y-129024802D01*
X162590637Y-129374483D01*
X162888017Y-129671863D01*
X163237698Y-129905512D01*
X163626244Y-130066453D01*
X164038721Y-130148500D01*
X164459279Y-130148500D01*
X164871756Y-130066453D01*
X165260302Y-129905512D01*
X165609983Y-129671863D01*
X165907363Y-129374483D01*
X166141012Y-129024802D01*
X166301953Y-128636256D01*
X166384000Y-128223779D01*
X166384000Y-127803221D01*
X166301953Y-127390744D01*
X166141012Y-127002198D01*
X165907363Y-126652517D01*
X165849858Y-126595012D01*
X166505435Y-126595012D01*
X166543988Y-126598809D01*
X166582541Y-126595012D01*
X166582549Y-126595012D01*
X166697875Y-126583653D01*
X166845848Y-126538766D01*
X166982221Y-126465874D01*
X167101752Y-126367776D01*
X167126335Y-126337822D01*
X167866086Y-125598072D01*
X168330500Y-125598072D01*
X168454982Y-125585812D01*
X168574680Y-125549502D01*
X168633001Y-125518328D01*
X168633000Y-129437947D01*
X168629203Y-129476500D01*
X168633000Y-129515053D01*
X168633000Y-129515060D01*
X168644359Y-129630386D01*
X168689246Y-129778359D01*
X168762138Y-129914732D01*
X168860236Y-130034264D01*
X168890190Y-130058847D01*
X172701000Y-133869658D01*
X172701000Y-133896439D01*
X172740774Y-134096398D01*
X172818795Y-134284756D01*
X172932063Y-134454274D01*
X173076226Y-134598437D01*
X173245744Y-134711705D01*
X173434102Y-134789726D01*
X173571739Y-134817104D01*
X170870843Y-137518000D01*
X165156271Y-137518000D01*
X165147932Y-137502399D01*
X164968608Y-137283892D01*
X164750101Y-137104568D01*
X164617142Y-137033500D01*
X164750101Y-136962432D01*
X164968608Y-136783108D01*
X165147932Y-136564601D01*
X165281182Y-136315308D01*
X165363236Y-136044809D01*
X165390943Y-135763500D01*
X165363236Y-135482191D01*
X165281182Y-135211692D01*
X165147932Y-134962399D01*
X164968608Y-134743892D01*
X164750101Y-134564568D01*
X164500808Y-134431318D01*
X164230309Y-134349264D01*
X164019492Y-134328500D01*
X163478508Y-134328500D01*
X163267691Y-134349264D01*
X162997192Y-134431318D01*
X162747899Y-134564568D01*
X162529392Y-134743892D01*
X162350068Y-134962399D01*
X162216818Y-135211692D01*
X162134764Y-135482191D01*
X162107057Y-135763500D01*
X162134764Y-136044809D01*
X162216818Y-136315308D01*
X162350068Y-136564601D01*
X162529392Y-136783108D01*
X162747899Y-136962432D01*
X162880858Y-137033500D01*
X162747899Y-137104568D01*
X162529392Y-137283892D01*
X162350068Y-137502399D01*
X162216818Y-137751692D01*
X162134764Y-138022191D01*
X162107057Y-138303500D01*
X162134764Y-138584809D01*
X162216818Y-138855308D01*
X162350068Y-139104601D01*
X162529392Y-139323108D01*
X162747899Y-139502432D01*
X162880858Y-139573500D01*
X162747899Y-139644568D01*
X162529392Y-139823892D01*
X162350068Y-140042399D01*
X162216818Y-140291692D01*
X162134764Y-140562191D01*
X162107057Y-140843500D01*
X162134764Y-141124809D01*
X162216818Y-141395308D01*
X162350068Y-141644601D01*
X162529392Y-141863108D01*
X162747899Y-142042432D01*
X162877345Y-142111622D01*
X162859773Y-142119070D01*
X162626338Y-142277827D01*
X162428361Y-142479075D01*
X162273449Y-142715079D01*
X162167556Y-142976770D01*
X162157096Y-143034461D01*
X162279085Y-143256500D01*
X163622000Y-143256500D01*
X163622000Y-143236500D01*
X163876000Y-143236500D01*
X163876000Y-143256500D01*
X165218915Y-143256500D01*
X165340904Y-143034461D01*
X165330444Y-142976770D01*
X165224551Y-142715079D01*
X165069639Y-142479075D01*
X164871662Y-142277827D01*
X164638227Y-142119070D01*
X164620655Y-142111622D01*
X164750101Y-142042432D01*
X164968608Y-141863108D01*
X165147932Y-141644601D01*
X165281182Y-141395308D01*
X165363236Y-141124809D01*
X165390943Y-140843500D01*
X165363236Y-140562191D01*
X165281182Y-140291692D01*
X165147932Y-140042399D01*
X164968608Y-139823892D01*
X164750101Y-139644568D01*
X164617142Y-139573500D01*
X164750101Y-139502432D01*
X164968608Y-139323108D01*
X165081000Y-139186158D01*
X165081000Y-139293939D01*
X165120774Y-139493898D01*
X165198795Y-139682256D01*
X165312063Y-139851774D01*
X165456226Y-139995937D01*
X165625744Y-140109205D01*
X165814102Y-140187226D01*
X166014061Y-140227000D01*
X166217939Y-140227000D01*
X166417898Y-140187226D01*
X166606256Y-140109205D01*
X166775774Y-139995937D01*
X166794711Y-139977000D01*
X172427447Y-139977000D01*
X172466000Y-139980797D01*
X172504553Y-139977000D01*
X172504561Y-139977000D01*
X172619887Y-139965641D01*
X172767860Y-139920754D01*
X172904233Y-139847862D01*
X173023764Y-139749764D01*
X173048347Y-139719810D01*
X176464106Y-136304051D01*
X177002390Y-136304051D01*
X177002390Y-136507929D01*
X177042164Y-136707888D01*
X177120185Y-136896246D01*
X177233453Y-137065764D01*
X177377616Y-137209927D01*
X177547134Y-137323195D01*
X177735492Y-137401216D01*
X177935451Y-137440990D01*
X178139329Y-137440990D01*
X178339288Y-137401216D01*
X178527646Y-137323195D01*
X178697164Y-137209927D01*
X178841327Y-137065764D01*
X178954595Y-136896246D01*
X179032616Y-136707888D01*
X179072390Y-136507929D01*
X179072390Y-136481147D01*
X184487316Y-131066222D01*
X184517264Y-131041644D01*
X184545887Y-131006768D01*
X184578315Y-130967254D01*
X184615362Y-130922113D01*
X184688254Y-130785740D01*
X184733141Y-130637767D01*
X184744500Y-130522441D01*
X184744500Y-130522434D01*
X184748297Y-130483881D01*
X184744500Y-130445328D01*
X184744500Y-120462233D01*
X184801475Y-120415475D01*
X184949558Y-120235036D01*
X185059594Y-120029174D01*
X185127353Y-119805800D01*
X185144500Y-119631707D01*
X185144500Y-118115293D01*
X185127353Y-117941200D01*
X185059594Y-117717826D01*
X184949558Y-117511964D01*
X184801475Y-117331525D01*
X184621036Y-117183442D01*
X184415174Y-117073406D01*
X184191800Y-117005647D01*
X183959500Y-116982767D01*
X183727201Y-117005647D01*
X183503827Y-117073406D01*
X183297965Y-117183442D01*
X183117526Y-117331525D01*
X182969443Y-117511964D01*
X182859406Y-117717826D01*
X182791647Y-117941200D01*
X182774500Y-118115293D01*
X182774500Y-119631706D01*
X182791647Y-119805799D01*
X182859406Y-120029173D01*
X182969442Y-120235035D01*
X183117525Y-120415475D01*
X183174500Y-120462233D01*
X183174501Y-130158721D01*
X177962233Y-135370990D01*
X177935451Y-135370990D01*
X177735492Y-135410764D01*
X177547134Y-135488785D01*
X177377616Y-135602053D01*
X177233453Y-135746216D01*
X177120185Y-135915734D01*
X177042164Y-136104092D01*
X177002390Y-136304051D01*
X176464106Y-136304051D01*
X181947316Y-130820842D01*
X181977264Y-130796264D01*
X182075362Y-130676733D01*
X182148254Y-130540360D01*
X182165387Y-130483881D01*
X182193141Y-130392388D01*
X182200503Y-130317641D01*
X182204500Y-130277061D01*
X182204500Y-130277054D01*
X182208297Y-130238501D01*
X182204500Y-130199948D01*
X182204500Y-120362233D01*
X182261475Y-120315475D01*
X182409558Y-120135036D01*
X182519594Y-119929174D01*
X182587353Y-119705800D01*
X182604500Y-119531707D01*
X182604500Y-118015293D01*
X182587353Y-117841200D01*
X182519594Y-117617826D01*
X182409558Y-117411964D01*
X182261475Y-117231525D01*
X182081036Y-117083442D01*
X181875174Y-116973406D01*
X181651800Y-116905647D01*
X181419500Y-116882767D01*
X181187201Y-116905647D01*
X180963827Y-116973406D01*
X180757965Y-117083442D01*
X180577526Y-117231525D01*
X180429443Y-117411964D01*
X180319406Y-117617826D01*
X180251647Y-117841200D01*
X180234500Y-118015293D01*
X180234500Y-119531706D01*
X180251647Y-119705799D01*
X180319406Y-119929173D01*
X180429442Y-120135035D01*
X180577525Y-120315475D01*
X180634500Y-120362233D01*
X180634501Y-129913341D01*
X179587324Y-130960519D01*
X179608254Y-130921360D01*
X179616444Y-130894362D01*
X179653142Y-130773387D01*
X179662437Y-130679002D01*
X179664500Y-130658061D01*
X179664500Y-130658056D01*
X179668297Y-130619500D01*
X179664500Y-130580944D01*
X179664500Y-120462233D01*
X179721475Y-120415475D01*
X179869558Y-120235036D01*
X179979594Y-120029174D01*
X180047353Y-119805800D01*
X180064500Y-119631707D01*
X180064500Y-118115293D01*
X180047353Y-117941200D01*
X179979594Y-117717826D01*
X179869558Y-117511964D01*
X179721475Y-117331525D01*
X179541036Y-117183442D01*
X179335174Y-117073406D01*
X179111800Y-117005647D01*
X178879500Y-116982767D01*
X178647201Y-117005647D01*
X178423827Y-117073406D01*
X178217965Y-117183442D01*
X178037526Y-117331525D01*
X177889443Y-117511964D01*
X177779406Y-117717826D01*
X177711647Y-117941200D01*
X177694500Y-118115293D01*
X177694500Y-119631706D01*
X177711647Y-119805799D01*
X177779406Y-120029173D01*
X177889442Y-120235035D01*
X178037525Y-120415475D01*
X178094500Y-120462233D01*
X178094501Y-128132642D01*
X177972756Y-128051295D01*
X177784398Y-127973274D01*
X177584439Y-127933500D01*
X177557658Y-127933500D01*
X177124500Y-127500343D01*
X177124500Y-120462233D01*
X177181475Y-120415475D01*
X177329558Y-120235036D01*
X177439594Y-120029174D01*
X177507353Y-119805800D01*
X177524500Y-119631707D01*
X177524500Y-118115293D01*
X177507353Y-117941200D01*
X177439594Y-117717826D01*
X177329558Y-117511964D01*
X177225305Y-117384932D01*
X177247776Y-117372921D01*
X177382534Y-117262327D01*
X177410251Y-117228554D01*
X178927552Y-115711254D01*
X178961319Y-115683542D01*
X179071913Y-115548784D01*
X179154091Y-115395038D01*
X179204697Y-115228215D01*
X179217502Y-115098202D01*
X179217502Y-115098192D01*
X179221783Y-115054726D01*
X179217502Y-115011260D01*
X179217502Y-113626561D01*
X184893000Y-113626561D01*
X184893000Y-113830439D01*
X184932774Y-114030398D01*
X185010795Y-114218756D01*
X185124063Y-114388274D01*
X185268226Y-114532437D01*
X185437744Y-114645705D01*
X185626102Y-114723726D01*
X185826061Y-114763500D01*
X186029939Y-114763500D01*
X186229898Y-114723726D01*
X186418256Y-114645705D01*
X186587774Y-114532437D01*
X186731937Y-114388274D01*
X186845205Y-114218756D01*
X186923226Y-114030398D01*
X186963000Y-113830439D01*
X186963000Y-113626561D01*
X186923226Y-113426602D01*
X186845205Y-113238244D01*
X186731937Y-113068726D01*
X186587774Y-112924563D01*
X186418256Y-112811295D01*
X186229898Y-112733274D01*
X186029939Y-112693500D01*
X185826061Y-112693500D01*
X185626102Y-112733274D01*
X185437744Y-112811295D01*
X185268226Y-112924563D01*
X185124063Y-113068726D01*
X185010795Y-113238244D01*
X184932774Y-113426602D01*
X184893000Y-113626561D01*
X179217502Y-113626561D01*
X179217502Y-107319471D01*
X179221727Y-107276561D01*
X180892500Y-107276561D01*
X180892500Y-107480439D01*
X180932274Y-107680398D01*
X181010295Y-107868756D01*
X181123563Y-108038274D01*
X181267726Y-108182437D01*
X181437244Y-108295705D01*
X181625602Y-108373726D01*
X181825561Y-108413500D01*
X182029439Y-108413500D01*
X182229398Y-108373726D01*
X182417756Y-108295705D01*
X182587274Y-108182437D01*
X182731437Y-108038274D01*
X182844705Y-107868756D01*
X182922726Y-107680398D01*
X182962500Y-107480439D01*
X182962500Y-107276561D01*
X182922726Y-107076602D01*
X182844705Y-106888244D01*
X182731437Y-106718726D01*
X182587274Y-106574563D01*
X182417756Y-106461295D01*
X182229398Y-106383274D01*
X182029439Y-106343500D01*
X181825561Y-106343500D01*
X181625602Y-106383274D01*
X181437244Y-106461295D01*
X181267726Y-106574563D01*
X181123563Y-106718726D01*
X181010295Y-106888244D01*
X180932274Y-107076602D01*
X180892500Y-107276561D01*
X179221727Y-107276561D01*
X179221783Y-107276002D01*
X179217502Y-107232533D01*
X179217502Y-107232525D01*
X179204697Y-107102512D01*
X179168109Y-106981898D01*
X179154091Y-106935688D01*
X179071913Y-106781943D01*
X179040363Y-106743500D01*
X178961319Y-106647185D01*
X178927546Y-106619468D01*
X178685000Y-106376922D01*
X178685000Y-106097241D01*
X178774033Y-106106010D01*
X178774041Y-106106010D01*
X178817510Y-106110291D01*
X178860979Y-106106010D01*
X189248521Y-106106010D01*
X189291990Y-106110291D01*
X189335459Y-106106010D01*
X189335467Y-106106010D01*
X189361001Y-106103495D01*
X189361000Y-117032705D01*
X189271800Y-117005647D01*
X189039500Y-116982767D01*
X188807201Y-117005647D01*
X188583827Y-117073406D01*
X188377965Y-117183442D01*
X188197526Y-117331525D01*
X188049443Y-117511964D01*
X187939406Y-117717826D01*
X187871647Y-117941200D01*
X187854500Y-118115293D01*
X187854500Y-119631706D01*
X187871647Y-119805799D01*
X187939406Y-120029173D01*
X188049442Y-120235035D01*
X188197525Y-120415475D01*
X188377964Y-120563558D01*
X188583826Y-120673594D01*
X188807200Y-120741353D01*
X189039500Y-120764233D01*
X189271799Y-120741353D01*
X189361000Y-120714294D01*
X189361000Y-121113724D01*
X189300100Y-121187931D01*
X189217922Y-121341677D01*
X189167315Y-121508500D01*
X189150229Y-121681990D01*
X189154511Y-121725469D01*
X189154510Y-122813000D01*
X188879454Y-122813000D01*
X188831256Y-122780795D01*
X188642898Y-122702774D01*
X188442939Y-122663000D01*
X188239061Y-122663000D01*
X188039102Y-122702774D01*
X187850744Y-122780795D01*
X187681226Y-122894063D01*
X187537063Y-123038226D01*
X187423795Y-123207744D01*
X187345774Y-123396102D01*
X187306000Y-123596061D01*
X187306000Y-123799939D01*
X187345774Y-123999898D01*
X187423795Y-124188256D01*
X187537063Y-124357774D01*
X187681226Y-124501937D01*
X187850744Y-124615205D01*
X188039102Y-124693226D01*
X188239061Y-124733000D01*
X188442939Y-124733000D01*
X188642898Y-124693226D01*
X188831256Y-124615205D01*
X188879454Y-124583000D01*
X189154511Y-124583000D01*
X189154511Y-126184436D01*
X189060302Y-126121488D01*
X188671756Y-125960547D01*
X188259279Y-125878500D01*
X187838721Y-125878500D01*
X187426244Y-125960547D01*
X187037698Y-126121488D01*
X186983999Y-126157368D01*
X186983999Y-120658186D01*
X187161035Y-120563558D01*
X187341475Y-120415475D01*
X187489558Y-120235036D01*
X187599594Y-120029174D01*
X187667353Y-119805800D01*
X187684500Y-119631707D01*
X187684500Y-118115293D01*
X187667353Y-117941200D01*
X187599594Y-117717826D01*
X187489558Y-117511964D01*
X187341475Y-117331525D01*
X187161036Y-117183442D01*
X186955174Y-117073406D01*
X186731800Y-117005647D01*
X186499500Y-116982767D01*
X186267201Y-117005647D01*
X186043827Y-117073406D01*
X185837965Y-117183442D01*
X185657526Y-117331525D01*
X185509443Y-117511964D01*
X185399406Y-117717826D01*
X185331647Y-117941200D01*
X185314500Y-118115293D01*
X185314500Y-119631706D01*
X185331647Y-119805799D01*
X185399406Y-120029173D01*
X185413999Y-120056475D01*
X185414000Y-148311342D01*
X185158343Y-148567000D01*
X178823658Y-148567000D01*
X178238616Y-147981958D01*
X178223726Y-147907102D01*
X178145705Y-147718744D01*
X178032437Y-147549226D01*
X177888274Y-147405063D01*
X177718756Y-147291795D01*
X177530398Y-147213774D01*
X177330439Y-147174000D01*
X177126561Y-147174000D01*
X176926602Y-147213774D01*
X176738244Y-147291795D01*
X176568726Y-147405063D01*
X176424563Y-147549226D01*
X176311295Y-147718744D01*
X176233274Y-147907102D01*
X176193500Y-148107061D01*
X176193500Y-148310939D01*
X176233274Y-148510898D01*
X176311295Y-148699256D01*
X176424563Y-148868774D01*
X176568726Y-149012937D01*
X176738244Y-149126205D01*
X176926602Y-149204226D01*
X177126561Y-149244000D01*
X177280343Y-149244000D01*
X177582842Y-149546500D01*
X173023079Y-149546500D01*
X170527530Y-147050952D01*
X170462205Y-146893244D01*
X170348937Y-146723726D01*
X170204774Y-146579563D01*
X170035256Y-146466295D01*
X169846898Y-146388274D01*
X169646939Y-146348500D01*
X169443061Y-146348500D01*
X169243102Y-146388274D01*
X169054744Y-146466295D01*
X168885226Y-146579563D01*
X168741063Y-146723726D01*
X168627795Y-146893244D01*
X168549774Y-147081602D01*
X168510000Y-147281561D01*
X168510000Y-147485439D01*
X168549774Y-147685398D01*
X168627795Y-147873756D01*
X168741063Y-148043274D01*
X168885226Y-148187437D01*
X169054744Y-148300705D01*
X169243102Y-148378726D01*
X169379224Y-148405802D01*
X171999970Y-151026549D01*
X172027683Y-151060317D01*
X172061451Y-151088030D01*
X172061453Y-151088032D01*
X172089453Y-151111011D01*
X172162441Y-151170911D01*
X172316187Y-151253089D01*
X172426742Y-151286626D01*
X172483009Y-151303695D01*
X172497806Y-151305152D01*
X172613023Y-151316500D01*
X172613031Y-151316500D01*
X172656500Y-151320781D01*
X172699969Y-151316500D01*
X185694031Y-151316500D01*
X185737500Y-151320781D01*
X185780969Y-151316500D01*
X185780977Y-151316500D01*
X185910990Y-151303695D01*
X185914093Y-151302754D01*
X185914000Y-151303221D01*
X185914000Y-151723779D01*
X185996047Y-152136256D01*
X186156988Y-152524802D01*
X186390637Y-152874483D01*
X186688017Y-153171863D01*
X186939652Y-153340000D01*
X165358348Y-153340000D01*
X165609983Y-153171863D01*
X165907363Y-152874483D01*
X166141012Y-152524802D01*
X166301953Y-152136256D01*
X166384000Y-151723779D01*
X166384000Y-151303221D01*
X166301953Y-150890744D01*
X166141012Y-150502198D01*
X165907363Y-150152517D01*
X165609983Y-149855137D01*
X165260302Y-149621488D01*
X164871756Y-149460547D01*
X164459279Y-149378500D01*
X164038721Y-149378500D01*
X163626244Y-149460547D01*
X163237698Y-149621488D01*
X162888017Y-149855137D01*
X162590637Y-150152517D01*
X162356988Y-150502198D01*
X162196047Y-150890744D01*
X162114000Y-151303221D01*
X162114000Y-151723779D01*
X162196047Y-152136256D01*
X162356988Y-152524802D01*
X162590637Y-152874483D01*
X162888017Y-153171863D01*
X163139652Y-153340000D01*
X101532277Y-153340000D01*
X101337460Y-153320898D01*
X101181105Y-153273692D01*
X101036904Y-153197018D01*
X100910336Y-153093792D01*
X100806232Y-152967951D01*
X100728553Y-152824289D01*
X100680258Y-152668271D01*
X100657188Y-152448769D01*
X100657272Y-152436693D01*
X100656373Y-152427522D01*
X100646173Y-152330473D01*
X100634140Y-152271854D01*
X100622936Y-152213116D01*
X100620272Y-152204294D01*
X100591416Y-152111075D01*
X100568238Y-152055937D01*
X100567857Y-152054994D01*
X100640752Y-152016031D01*
X100889714Y-151811714D01*
X101094031Y-151562752D01*
X101245852Y-151278715D01*
X101339343Y-150970516D01*
X101363000Y-150730322D01*
X101363000Y-149185000D01*
X101879439Y-149185000D01*
X101918000Y-149188798D01*
X101956560Y-149185000D01*
X102665001Y-149185000D01*
X102665001Y-150730322D01*
X102688658Y-150970516D01*
X102782149Y-151278715D01*
X102933970Y-151562752D01*
X103138287Y-151811714D01*
X103387249Y-152016031D01*
X103671286Y-152167852D01*
X103979485Y-152261343D01*
X104300000Y-152292911D01*
X104620516Y-152261343D01*
X104928715Y-152167852D01*
X105212752Y-152016031D01*
X105461714Y-151811714D01*
X105666031Y-151562752D01*
X105817852Y-151278715D01*
X105911343Y-150970516D01*
X105935000Y-150730322D01*
X105935000Y-146069678D01*
X105911343Y-145829484D01*
X105817852Y-145521285D01*
X105666031Y-145237248D01*
X105461714Y-144988286D01*
X105212751Y-144783969D01*
X104928714Y-144632148D01*
X104620515Y-144538657D01*
X104300000Y-144507089D01*
X103979484Y-144538657D01*
X103671285Y-144632148D01*
X103387248Y-144783969D01*
X103138286Y-144988286D01*
X102933969Y-145237249D01*
X102782148Y-145521286D01*
X102703000Y-145782202D01*
X102703000Y-143732539D01*
X162157096Y-143732539D01*
X162167556Y-143790230D01*
X162273449Y-144051921D01*
X162428361Y-144287925D01*
X162626338Y-144489173D01*
X162859773Y-144647930D01*
X163119694Y-144758096D01*
X163396113Y-144815437D01*
X163622000Y-144662974D01*
X163622000Y-143510500D01*
X163876000Y-143510500D01*
X163876000Y-144662974D01*
X164101887Y-144815437D01*
X164378306Y-144758096D01*
X164638227Y-144647930D01*
X164871662Y-144489173D01*
X165069639Y-144287925D01*
X165224551Y-144051921D01*
X165330444Y-143790230D01*
X165340904Y-143732539D01*
X165218915Y-143510500D01*
X163876000Y-143510500D01*
X163622000Y-143510500D01*
X162279085Y-143510500D01*
X162157096Y-143732539D01*
X102703000Y-143732539D01*
X102703000Y-108617724D01*
X102833970Y-108862752D01*
X103038287Y-109111714D01*
X103287249Y-109316031D01*
X103571286Y-109467852D01*
X103879485Y-109561343D01*
X104200000Y-109592911D01*
X104520516Y-109561343D01*
X104828715Y-109467852D01*
X105112752Y-109316031D01*
X105361714Y-109111714D01*
X105566031Y-108862752D01*
X105717852Y-108578715D01*
X105811343Y-108270516D01*
X105835000Y-108030322D01*
X105835000Y-106070061D01*
X163239500Y-106070061D01*
X163239500Y-106273939D01*
X163279274Y-106473898D01*
X163357295Y-106662256D01*
X163470563Y-106831774D01*
X163614726Y-106975937D01*
X163784244Y-107089205D01*
X163972602Y-107167226D01*
X164172561Y-107207000D01*
X164376439Y-107207000D01*
X164576398Y-107167226D01*
X164764756Y-107089205D01*
X164934274Y-106975937D01*
X165078437Y-106831774D01*
X165191705Y-106662256D01*
X165269726Y-106473898D01*
X165309500Y-106273939D01*
X165309500Y-106070061D01*
X165269726Y-105870102D01*
X165191705Y-105681744D01*
X165078437Y-105512226D01*
X164934274Y-105368063D01*
X164764756Y-105254795D01*
X164576398Y-105176774D01*
X164376439Y-105137000D01*
X164172561Y-105137000D01*
X163972602Y-105176774D01*
X163784244Y-105254795D01*
X163614726Y-105368063D01*
X163470563Y-105512226D01*
X163357295Y-105681744D01*
X163279274Y-105870102D01*
X163239500Y-106070061D01*
X105835000Y-106070061D01*
X105835000Y-103369678D01*
X105811343Y-103129484D01*
X105744579Y-102909391D01*
X161626519Y-102909391D01*
X161723843Y-103183752D01*
X161872822Y-103433855D01*
X162067731Y-103650088D01*
X162301080Y-103824141D01*
X162563901Y-103949325D01*
X162711110Y-103993976D01*
X162941000Y-103872655D01*
X162941000Y-102679500D01*
X161747186Y-102679500D01*
X161626519Y-102909391D01*
X105744579Y-102909391D01*
X105717852Y-102821285D01*
X105566031Y-102537248D01*
X105361714Y-102288286D01*
X105248786Y-102195609D01*
X161626519Y-102195609D01*
X161747186Y-102425500D01*
X162941000Y-102425500D01*
X162941000Y-101232345D01*
X162711110Y-101111024D01*
X162563901Y-101155675D01*
X162301080Y-101280859D01*
X162067731Y-101454912D01*
X161872822Y-101671145D01*
X161723843Y-101921248D01*
X161626519Y-102195609D01*
X105248786Y-102195609D01*
X105112751Y-102083969D01*
X104828714Y-101932148D01*
X104520515Y-101838657D01*
X104200000Y-101807089D01*
X103879484Y-101838657D01*
X103571285Y-101932148D01*
X103287248Y-102083969D01*
X103038286Y-102288286D01*
X102833969Y-102537249D01*
X102682148Y-102821286D01*
X102588657Y-103129485D01*
X102565000Y-103369679D01*
X102565000Y-104915000D01*
X101920053Y-104915000D01*
X101881500Y-104911203D01*
X101842947Y-104915000D01*
X101263000Y-104915000D01*
X101263000Y-103369678D01*
X101239343Y-103129484D01*
X101145852Y-102821285D01*
X100994031Y-102537248D01*
X100789714Y-102288286D01*
X100540751Y-102083969D01*
X100519370Y-102072541D01*
X100537474Y-102038493D01*
X100560263Y-101983201D01*
X100583835Y-101928205D01*
X100586559Y-101919402D01*
X100620404Y-101807300D01*
X100632020Y-101748635D01*
X100644460Y-101690111D01*
X100645423Y-101680946D01*
X100656850Y-101564405D01*
X100656850Y-101564404D01*
X100679102Y-101337460D01*
X100726308Y-101181106D01*
X100802982Y-101036904D01*
X100906207Y-100910337D01*
X101032051Y-100806231D01*
X101175711Y-100728553D01*
X101331729Y-100680258D01*
X101524473Y-100660000D01*
X175535939Y-100660000D01*
X175497526Y-100691525D01*
G04 #@! TA.AperFunction,Conductor*
D27*
G36*
X175497526Y-100691525D02*
G01*
X175349443Y-100871964D01*
X175239406Y-101077826D01*
X175171647Y-101301200D01*
X175154500Y-101475293D01*
X175154500Y-102991706D01*
X175171647Y-103165799D01*
X175237230Y-103382000D01*
X174716072Y-103382000D01*
X174716072Y-101702500D01*
X174703812Y-101578018D01*
X174667502Y-101458320D01*
X174608537Y-101348006D01*
X174529185Y-101251315D01*
X174432494Y-101171963D01*
X174322180Y-101112998D01*
X174202482Y-101076688D01*
X174078000Y-101064428D01*
X172378000Y-101064428D01*
X172253518Y-101076688D01*
X172133820Y-101112998D01*
X172023506Y-101171963D01*
X171926815Y-101251315D01*
X171847463Y-101348006D01*
X171788498Y-101458320D01*
X171766487Y-101530880D01*
X171634632Y-101399025D01*
X171391411Y-101236510D01*
X171121158Y-101124568D01*
X170834260Y-101067500D01*
X170541740Y-101067500D01*
X170254842Y-101124568D01*
X169984589Y-101236510D01*
X169741368Y-101399025D01*
X169534525Y-101605868D01*
X169418000Y-101780260D01*
X169301475Y-101605868D01*
X169094632Y-101399025D01*
X168851411Y-101236510D01*
X168581158Y-101124568D01*
X168294260Y-101067500D01*
X168001740Y-101067500D01*
X167714842Y-101124568D01*
X167444589Y-101236510D01*
X167201368Y-101399025D01*
X166994525Y-101605868D01*
X166878000Y-101780260D01*
X166761475Y-101605868D01*
X166554632Y-101399025D01*
X166311411Y-101236510D01*
X166041158Y-101124568D01*
X165754260Y-101067500D01*
X165461740Y-101067500D01*
X165174842Y-101124568D01*
X164904589Y-101236510D01*
X164661368Y-101399025D01*
X164454525Y-101605868D01*
X164332805Y-101788034D01*
X164263178Y-101671145D01*
X164068269Y-101454912D01*
X163834920Y-101280859D01*
X163572099Y-101155675D01*
X163424890Y-101111024D01*
X163195000Y-101232345D01*
X163195000Y-102425500D01*
X163215000Y-102425500D01*
X163215000Y-102679500D01*
X163195000Y-102679500D01*
X163195000Y-103872655D01*
X163424890Y-103993976D01*
X163572099Y-103949325D01*
X163834920Y-103824141D01*
X164068269Y-103650088D01*
X164263178Y-103433855D01*
X164332805Y-103316966D01*
X164454525Y-103499132D01*
X164661368Y-103705975D01*
X164904589Y-103868490D01*
X165174842Y-103980432D01*
X165461740Y-104037500D01*
X165754260Y-104037500D01*
X166041158Y-103980432D01*
X166311411Y-103868490D01*
X166554632Y-103705975D01*
X166761475Y-103499132D01*
X166878000Y-103324740D01*
X166994525Y-103499132D01*
X167201368Y-103705975D01*
X167444589Y-103868490D01*
X167714842Y-103980432D01*
X168001740Y-104037500D01*
X168294260Y-104037500D01*
X168581158Y-103980432D01*
X168851411Y-103868490D01*
X169094632Y-103705975D01*
X169301475Y-103499132D01*
X169418000Y-103324740D01*
X169534525Y-103499132D01*
X169741368Y-103705975D01*
X169966500Y-103856404D01*
X169966500Y-104799947D01*
X169962703Y-104838500D01*
X169966500Y-104877053D01*
X169966500Y-104877060D01*
X169977859Y-104992386D01*
X170022746Y-105140359D01*
X170095638Y-105276732D01*
X170193736Y-105396264D01*
X170223690Y-105420847D01*
X170584272Y-105781429D01*
X170659795Y-105963756D01*
X170773063Y-106133274D01*
X170917226Y-106277437D01*
X171086744Y-106390705D01*
X171275102Y-106468726D01*
X171475061Y-106508500D01*
X171678939Y-106508500D01*
X171878898Y-106468726D01*
X172067256Y-106390705D01*
X172236774Y-106277437D01*
X172255711Y-106258500D01*
X172588421Y-106258500D01*
X171527922Y-107319000D01*
X170045318Y-107319000D01*
X170144705Y-107170256D01*
X170222726Y-106981898D01*
X170262500Y-106781939D01*
X170262500Y-106578061D01*
X170222726Y-106378102D01*
X170144705Y-106189744D01*
X170031437Y-106020226D01*
X169887274Y-105876063D01*
X169717756Y-105762795D01*
X169529398Y-105684774D01*
X169329439Y-105645000D01*
X169125561Y-105645000D01*
X168925602Y-105684774D01*
X168737244Y-105762795D01*
X168567726Y-105876063D01*
X168423563Y-106020226D01*
X168310295Y-106189744D01*
X168232274Y-106378102D01*
X168192500Y-106578061D01*
X168192500Y-106781939D01*
X168232274Y-106981898D01*
X168310295Y-107170256D01*
X168409682Y-107319000D01*
X164254465Y-107319000D01*
X164210999Y-107314719D01*
X164167533Y-107319000D01*
X164167523Y-107319000D01*
X164037510Y-107331805D01*
X163870687Y-107382411D01*
X163716941Y-107464589D01*
X163716939Y-107464590D01*
X163716940Y-107464590D01*
X163615953Y-107547468D01*
X163615951Y-107547470D01*
X163582183Y-107575183D01*
X163554470Y-107608951D01*
X163013457Y-108149965D01*
X162956602Y-108161274D01*
X162768244Y-108239295D01*
X162598726Y-108352563D01*
X162454563Y-108496726D01*
X162341295Y-108666244D01*
X162263274Y-108854602D01*
X162223500Y-109054561D01*
X162223500Y-109258439D01*
X162263274Y-109458398D01*
X162341295Y-109646756D01*
X162454563Y-109816274D01*
X162598726Y-109960437D01*
X162768244Y-110073705D01*
X162956602Y-110151726D01*
X163156561Y-110191500D01*
X163360439Y-110191500D01*
X163560398Y-110151726D01*
X163748756Y-110073705D01*
X163918274Y-109960437D01*
X164062437Y-109816274D01*
X164175705Y-109646756D01*
X164253726Y-109458398D01*
X164265035Y-109401543D01*
X164577579Y-109089000D01*
X171460451Y-109089000D01*
X171470774Y-109140898D01*
X171548795Y-109329256D01*
X171662063Y-109498774D01*
X171806226Y-109642937D01*
X171975744Y-109756205D01*
X172164102Y-109834226D01*
X172301739Y-109861604D01*
X171125385Y-111037958D01*
X171095437Y-111062536D01*
X171070859Y-111092484D01*
X171070855Y-111092488D01*
X171037890Y-111132656D01*
X170997339Y-111182067D01*
X170979717Y-111215036D01*
X170924446Y-111318441D01*
X170879559Y-111466414D01*
X170864403Y-111620300D01*
X170868201Y-111658863D01*
X170868200Y-114291294D01*
X170611273Y-114462968D01*
X170383608Y-114690633D01*
X170204733Y-114958338D01*
X170081522Y-115255797D01*
X170018710Y-115571577D01*
X170018710Y-115893543D01*
X170081522Y-116209323D01*
X170204733Y-116506782D01*
X170383608Y-116774487D01*
X170611273Y-117002152D01*
X170878978Y-117181027D01*
X171176437Y-117304238D01*
X171492217Y-117367050D01*
X171814183Y-117367050D01*
X172129963Y-117304238D01*
X172427422Y-117181027D01*
X172695127Y-117002152D01*
X172922792Y-116774487D01*
X173014501Y-116637235D01*
X173014501Y-119328765D01*
X172922792Y-119191513D01*
X172695127Y-118963848D01*
X172427422Y-118784973D01*
X172129963Y-118661762D01*
X171814183Y-118598950D01*
X171492217Y-118598950D01*
X171176437Y-118661762D01*
X170878978Y-118784973D01*
X170611273Y-118963848D01*
X170383608Y-119191513D01*
X170204733Y-119459218D01*
X170081522Y-119756677D01*
X170018710Y-120072457D01*
X170018710Y-120394423D01*
X170081522Y-120710203D01*
X170204733Y-121007662D01*
X170383608Y-121275367D01*
X170611273Y-121503032D01*
X170878978Y-121681907D01*
X171176437Y-121805118D01*
X171492217Y-121867930D01*
X171814183Y-121867930D01*
X172129963Y-121805118D01*
X172427422Y-121681907D01*
X172695127Y-121503032D01*
X172922792Y-121275367D01*
X173014501Y-121138116D01*
X173014500Y-126580447D01*
X173010703Y-126619000D01*
X173014500Y-126657553D01*
X173014500Y-126657560D01*
X173025859Y-126772886D01*
X173070746Y-126920859D01*
X173143638Y-127057232D01*
X173241736Y-127176764D01*
X173271690Y-127201347D01*
X175114000Y-129043657D01*
X175114000Y-129070439D01*
X175153774Y-129270398D01*
X175231795Y-129458756D01*
X175345063Y-129628274D01*
X175489226Y-129772437D01*
X175658744Y-129885705D01*
X175847102Y-129963726D01*
X176047061Y-130003500D01*
X176250939Y-130003500D01*
X176450898Y-129963726D01*
X176639256Y-129885705D01*
X176808774Y-129772437D01*
X176815750Y-129765461D01*
X176822726Y-129772437D01*
X176992244Y-129885705D01*
X177180602Y-129963726D01*
X177380561Y-130003500D01*
X177584439Y-130003500D01*
X177784398Y-129963726D01*
X177972756Y-129885705D01*
X178094501Y-129804358D01*
X178094501Y-130294341D01*
X174758603Y-133630239D01*
X174731226Y-133492602D01*
X174653205Y-133304244D01*
X174539937Y-133134726D01*
X174395774Y-132990563D01*
X174226256Y-132877295D01*
X174037898Y-132799274D01*
X173837939Y-132759500D01*
X173811158Y-132759500D01*
X170203000Y-129151343D01*
X170203000Y-124630711D01*
X170221937Y-124611774D01*
X170335205Y-124442256D01*
X170413226Y-124253898D01*
X170453000Y-124053939D01*
X170453000Y-123850061D01*
X170413226Y-123650102D01*
X170335205Y-123461744D01*
X170221937Y-123292226D01*
X170077774Y-123148063D01*
X169908256Y-123034795D01*
X169719898Y-122956774D01*
X169519939Y-122917000D01*
X169316061Y-122917000D01*
X169116102Y-122956774D01*
X168927744Y-123034795D01*
X168758226Y-123148063D01*
X168614063Y-123292226D01*
X168563940Y-123367240D01*
X168454982Y-123334188D01*
X168330500Y-123321928D01*
X167330500Y-123321928D01*
X167206018Y-123334188D01*
X167086320Y-123370498D01*
X167003274Y-123414888D01*
X166891567Y-123368617D01*
X166672288Y-123325000D01*
X166535657Y-123325000D01*
X166292846Y-123082189D01*
X166268263Y-123052235D01*
X166148732Y-122954137D01*
X166012359Y-122881245D01*
X165864386Y-122836358D01*
X165749060Y-122824999D01*
X165749052Y-122824999D01*
X165710499Y-122821202D01*
X165671946Y-122824999D01*
X127507557Y-122824999D01*
X127469001Y-122821202D01*
X127430445Y-122824999D01*
X127430440Y-122824999D01*
X127390027Y-122828979D01*
X127315114Y-122836357D01*
X127183073Y-122876412D01*
X127167141Y-122881245D01*
X127030768Y-122954137D01*
X126911237Y-123052235D01*
X126886654Y-123082189D01*
X124765843Y-125203000D01*
X124739061Y-125203000D01*
X124539102Y-125242774D01*
X124350744Y-125320795D01*
X124181226Y-125434063D01*
X124037063Y-125578226D01*
X123923795Y-125747744D01*
X123845774Y-125936102D01*
X123806000Y-126136061D01*
X123806000Y-126339939D01*
X123845774Y-126539898D01*
X123923795Y-126728256D01*
X124037063Y-126897774D01*
X124181226Y-127041937D01*
X124350744Y-127155205D01*
X124539102Y-127233226D01*
X124739061Y-127273000D01*
X124942939Y-127273000D01*
X125142898Y-127233226D01*
X125331256Y-127155205D01*
X125500774Y-127041937D01*
X125644937Y-126897774D01*
X125758205Y-126728256D01*
X125836226Y-126539898D01*
X125876000Y-126339939D01*
X125876000Y-126313157D01*
X127794158Y-124394999D01*
X133463283Y-124394999D01*
X133458000Y-124421561D01*
X133458000Y-124525001D01*
X129300054Y-124525001D01*
X129261499Y-124521204D01*
X129222943Y-124525001D01*
X129222938Y-124525001D01*
X129182525Y-124528981D01*
X129107612Y-124536359D01*
X128990821Y-124571788D01*
X128959639Y-124581247D01*
X128823266Y-124654139D01*
X128775639Y-124693226D01*
X128733686Y-124727656D01*
X128733683Y-124727659D01*
X128703735Y-124752237D01*
X128679156Y-124782186D01*
X128575842Y-124885500D01*
X128549061Y-124885500D01*
X128349102Y-124925274D01*
X128160744Y-125003295D01*
X127991226Y-125116563D01*
X127847063Y-125260726D01*
X127733795Y-125430244D01*
X127655774Y-125618602D01*
X127616000Y-125818561D01*
X127616000Y-126022439D01*
X127655774Y-126222398D01*
X127733795Y-126410756D01*
X127847063Y-126580274D01*
X127991226Y-126724437D01*
X128160744Y-126837705D01*
X128349102Y-126915726D01*
X128549061Y-126955500D01*
X128752939Y-126955500D01*
X128952898Y-126915726D01*
X129141256Y-126837705D01*
X129310774Y-126724437D01*
X129454937Y-126580274D01*
X129568205Y-126410756D01*
X129646226Y-126222398D01*
X129671567Y-126095001D01*
X162319339Y-126095001D01*
X157839341Y-130575000D01*
X121448072Y-130575000D01*
X121448072Y-130460000D01*
X121435812Y-130335518D01*
X121399502Y-130215820D01*
X121340537Y-130105506D01*
X121327812Y-130090000D01*
X121340537Y-130074494D01*
X121399502Y-129964180D01*
X121435812Y-129844482D01*
X121448072Y-129720000D01*
X121448072Y-129627596D01*
X121475500Y-129630297D01*
X121514053Y-129626500D01*
X121514061Y-129626500D01*
X121629387Y-129615141D01*
X121777360Y-129570254D01*
X121913733Y-129497362D01*
X122033264Y-129399264D01*
X122057847Y-129369310D01*
X123209810Y-128217347D01*
X123239764Y-128192764D01*
X123337862Y-128073233D01*
X123410754Y-127936860D01*
X123411773Y-127933500D01*
X123455642Y-127788887D01*
X123463358Y-127710537D01*
X123467000Y-127673561D01*
X123467000Y-127673556D01*
X123470797Y-127635000D01*
X123467000Y-127596444D01*
X123467000Y-121368490D01*
X164195355Y-121368490D01*
X164291058Y-121632839D01*
X164580587Y-121773678D01*
X164892029Y-121855325D01*
X165213415Y-121874645D01*
X165532395Y-121830894D01*
X165836711Y-121725754D01*
X166010542Y-121632839D01*
X166106245Y-121368490D01*
X165150800Y-120413045D01*
X164195355Y-121368490D01*
X123467000Y-121368490D01*
X123467000Y-120296055D01*
X163509595Y-120296055D01*
X163553346Y-120615035D01*
X163658486Y-120919351D01*
X163751401Y-121093182D01*
X164015750Y-121188885D01*
X164971195Y-120233440D01*
X165330405Y-120233440D01*
X166285850Y-121188885D01*
X166550199Y-121093182D01*
X166691038Y-120803653D01*
X166772685Y-120492211D01*
X166792005Y-120170825D01*
X166748254Y-119851845D01*
X166643114Y-119547529D01*
X166550199Y-119373698D01*
X166285850Y-119277995D01*
X165330405Y-120233440D01*
X164971195Y-120233440D01*
X164015750Y-119277995D01*
X163751401Y-119373698D01*
X163610562Y-119663227D01*
X163528915Y-119974669D01*
X163509595Y-120296055D01*
X123467000Y-120296055D01*
X123467000Y-119133657D01*
X123502267Y-119098390D01*
X164195355Y-119098390D01*
X165150800Y-120053835D01*
X166106245Y-119098390D01*
X166010542Y-118834041D01*
X165721013Y-118693202D01*
X165409571Y-118611555D01*
X165088185Y-118592235D01*
X164769205Y-118635986D01*
X164464889Y-118741126D01*
X164291058Y-118834041D01*
X164195355Y-119098390D01*
X123502267Y-119098390D01*
X127029080Y-115571577D01*
X163516310Y-115571577D01*
X163516310Y-115893543D01*
X163579122Y-116209323D01*
X163702333Y-116506782D01*
X163881208Y-116774487D01*
X164108873Y-117002152D01*
X164376578Y-117181027D01*
X164674037Y-117304238D01*
X164989817Y-117367050D01*
X165311783Y-117367050D01*
X165627563Y-117304238D01*
X165925022Y-117181027D01*
X166192727Y-117002152D01*
X166420392Y-116774487D01*
X166599267Y-116506782D01*
X166722478Y-116209323D01*
X166785290Y-115893543D01*
X166785290Y-115571577D01*
X166722478Y-115255797D01*
X166599267Y-114958338D01*
X166420392Y-114690633D01*
X166192727Y-114462968D01*
X165925022Y-114284093D01*
X165627563Y-114160882D01*
X165311783Y-114098070D01*
X164989817Y-114098070D01*
X164674037Y-114160882D01*
X164376578Y-114284093D01*
X164108873Y-114462968D01*
X163881208Y-114690633D01*
X163702333Y-114958338D01*
X163579122Y-115255797D01*
X163516310Y-115571577D01*
X127029080Y-115571577D01*
X127769658Y-114831000D01*
X156674289Y-114831000D01*
X156693226Y-114849937D01*
X156862744Y-114963205D01*
X157051102Y-115041226D01*
X157251061Y-115081000D01*
X157454939Y-115081000D01*
X157654898Y-115041226D01*
X157843256Y-114963205D01*
X158012774Y-114849937D01*
X158156937Y-114705774D01*
X158270205Y-114536256D01*
X158348226Y-114347898D01*
X158388000Y-114147939D01*
X158388000Y-113944061D01*
X158348226Y-113744102D01*
X158270205Y-113555744D01*
X158156937Y-113386226D01*
X158012774Y-113242063D01*
X157843256Y-113128795D01*
X157729042Y-113081486D01*
X157708034Y-112975871D01*
X157630013Y-112787513D01*
X157516745Y-112617995D01*
X157372582Y-112473832D01*
X157203064Y-112360564D01*
X157014706Y-112282543D01*
X156814747Y-112242769D01*
X156610869Y-112242769D01*
X156410910Y-112282543D01*
X156222552Y-112360564D01*
X156053034Y-112473832D01*
X156034097Y-112492769D01*
X117900787Y-112492769D01*
X117862231Y-112488972D01*
X117823675Y-112492769D01*
X117823670Y-112492769D01*
X117783257Y-112496749D01*
X117708344Y-112504127D01*
X117560371Y-112549015D01*
X117423998Y-112621907D01*
X117304467Y-112720005D01*
X117279880Y-112749964D01*
X117264693Y-112765151D01*
X117264688Y-112765155D01*
X117010693Y-113019150D01*
X117010687Y-113019155D01*
X107041189Y-122988654D01*
X107011236Y-123013236D01*
X106913138Y-123132767D01*
X106840246Y-123269140D01*
X106795359Y-123417113D01*
X106784000Y-123532439D01*
X106784000Y-123532447D01*
X106780203Y-123571000D01*
X106784000Y-123609553D01*
X106784000Y-123673060D01*
X106784001Y-123673070D01*
X106784000Y-127469447D01*
X106780203Y-127508000D01*
X106784000Y-127546553D01*
X106784000Y-127546560D01*
X106795359Y-127661886D01*
X106840246Y-127809859D01*
X106913138Y-127946232D01*
X107011236Y-128065764D01*
X107041190Y-128090347D01*
X108298658Y-129347815D01*
X108323236Y-129377764D01*
X108353184Y-129402342D01*
X108353187Y-129402345D01*
X108358533Y-129406732D01*
X108442767Y-129475862D01*
X108537064Y-129526264D01*
X108579140Y-129548754D01*
X108671928Y-129576901D01*
X108671928Y-129720000D01*
X108684188Y-129844482D01*
X108720498Y-129964180D01*
X108779463Y-130074494D01*
X108792188Y-130090000D01*
X108779463Y-130105506D01*
X108720498Y-130215820D01*
X108684188Y-130335518D01*
X108671928Y-130460000D01*
X108671928Y-130469500D01*
X107353555Y-130469500D01*
X107315000Y-130465703D01*
X107276444Y-130469500D01*
X107276439Y-130469500D01*
X107236026Y-130473480D01*
X107161113Y-130480858D01*
X107024035Y-130522441D01*
X107013140Y-130525746D01*
X106876767Y-130598638D01*
X106797124Y-130664000D01*
X106768561Y-130664000D01*
X106568602Y-130703774D01*
X106380244Y-130781795D01*
X106210726Y-130895063D01*
X106066563Y-131039226D01*
X105953295Y-131208744D01*
X105875274Y-131397102D01*
X105835500Y-131597061D01*
X105835500Y-131800939D01*
X105875274Y-132000898D01*
X105953295Y-132189256D01*
X106066563Y-132358774D01*
X106210726Y-132502937D01*
X106380244Y-132616205D01*
X106568602Y-132694226D01*
X106768561Y-132734000D01*
X106972439Y-132734000D01*
X107172398Y-132694226D01*
X107360756Y-132616205D01*
X107530274Y-132502937D01*
X107674437Y-132358774D01*
X107787705Y-132189256D01*
X107849736Y-132039500D01*
X108671928Y-132039500D01*
X108671928Y-132260000D01*
X108684188Y-132384482D01*
X108720498Y-132504180D01*
X108779463Y-132614494D01*
X108792188Y-132630000D01*
X108779463Y-132645506D01*
X108720498Y-132755820D01*
X108684188Y-132875518D01*
X108671928Y-133000000D01*
X108671928Y-134800000D01*
X108684188Y-134924482D01*
X108720498Y-135044180D01*
X108779463Y-135154494D01*
X108858815Y-135251185D01*
X108955506Y-135330537D01*
X109065820Y-135389502D01*
X109185518Y-135425812D01*
X109310000Y-135438072D01*
X113310000Y-135438072D01*
X113434482Y-135425812D01*
X113554180Y-135389502D01*
X113664494Y-135330537D01*
X113761185Y-135251185D01*
X113840537Y-135154494D01*
X113899502Y-135044180D01*
X113935812Y-134924482D01*
X113948072Y-134800000D01*
X116171928Y-134800000D01*
X116184188Y-134924482D01*
X116220498Y-135044180D01*
X116279463Y-135154494D01*
X116358815Y-135251185D01*
X116455506Y-135330537D01*
X116565820Y-135389502D01*
X116685518Y-135425812D01*
X116810000Y-135438072D01*
X118524250Y-135435000D01*
X118683000Y-135276250D01*
X118683000Y-134027000D01*
X118937000Y-134027000D01*
X118937000Y-135276250D01*
X119095750Y-135435000D01*
X120810000Y-135438072D01*
X120934482Y-135425812D01*
X121054180Y-135389502D01*
X121164494Y-135330537D01*
X121261185Y-135251185D01*
X121340537Y-135154494D01*
X121399502Y-135044180D01*
X121435812Y-134924482D01*
X121448072Y-134800000D01*
X121445000Y-134185750D01*
X121286250Y-134027000D01*
X118937000Y-134027000D01*
X118683000Y-134027000D01*
X116333750Y-134027000D01*
X116175000Y-134185750D01*
X116171928Y-134800000D01*
X113948072Y-134800000D01*
X113948072Y-133000000D01*
X113935812Y-132875518D01*
X113899502Y-132755820D01*
X113840537Y-132645506D01*
X113827812Y-132630000D01*
X113840537Y-132614494D01*
X113899502Y-132504180D01*
X113935812Y-132384482D01*
X113948072Y-132260000D01*
X113948072Y-130460000D01*
X113935812Y-130335518D01*
X113899502Y-130215820D01*
X113840537Y-130105506D01*
X113827812Y-130090000D01*
X113840537Y-130074494D01*
X113899502Y-129964180D01*
X113935812Y-129844482D01*
X113948072Y-129720000D01*
X113948072Y-127920000D01*
X113935812Y-127795518D01*
X113899502Y-127675820D01*
X113840537Y-127565506D01*
X113827812Y-127550000D01*
X113840537Y-127534494D01*
X113899502Y-127424180D01*
X113935812Y-127304482D01*
X113948072Y-127180000D01*
X113948072Y-125380000D01*
X113935812Y-125255518D01*
X113913359Y-125181500D01*
X116206641Y-125181500D01*
X116184188Y-125255518D01*
X116171928Y-125380000D01*
X116171928Y-127180000D01*
X116184188Y-127304482D01*
X116220498Y-127424180D01*
X116279463Y-127534494D01*
X116292188Y-127550000D01*
X116279463Y-127565506D01*
X116220498Y-127675820D01*
X116184188Y-127795518D01*
X116171928Y-127920000D01*
X116171928Y-129720000D01*
X116184188Y-129844482D01*
X116220498Y-129964180D01*
X116279463Y-130074494D01*
X116292188Y-130090000D01*
X116279463Y-130105506D01*
X116220498Y-130215820D01*
X116184188Y-130335518D01*
X116171928Y-130460000D01*
X116171928Y-132260000D01*
X116184188Y-132384482D01*
X116220498Y-132504180D01*
X116279463Y-132614494D01*
X116292188Y-132630000D01*
X116279463Y-132645506D01*
X116220498Y-132755820D01*
X116184188Y-132875518D01*
X116171928Y-133000000D01*
X116175000Y-133614250D01*
X116333750Y-133773000D01*
X118683000Y-133773000D01*
X118683000Y-133753000D01*
X118937000Y-133753000D01*
X118937000Y-133773000D01*
X121286250Y-133773000D01*
X121445000Y-133614250D01*
X121448072Y-133000000D01*
X121435812Y-132875518D01*
X121399502Y-132755820D01*
X121340537Y-132645506D01*
X121327812Y-132630000D01*
X121340537Y-132614494D01*
X121399502Y-132504180D01*
X121435812Y-132384482D01*
X121448072Y-132260000D01*
X121448072Y-132145000D01*
X158125945Y-132145000D01*
X158164498Y-132148797D01*
X158203051Y-132145000D01*
X158203059Y-132145000D01*
X158318385Y-132133641D01*
X158466358Y-132088754D01*
X158602731Y-132015862D01*
X158722262Y-131917764D01*
X158746845Y-131887810D01*
X162163255Y-128471401D01*
X162196047Y-128636256D01*
X162356988Y-129024802D01*
X162590637Y-129374483D01*
X162888017Y-129671863D01*
X163237698Y-129905512D01*
X163626244Y-130066453D01*
X164038721Y-130148500D01*
X164459279Y-130148500D01*
X164871756Y-130066453D01*
X165260302Y-129905512D01*
X165609983Y-129671863D01*
X165907363Y-129374483D01*
X166141012Y-129024802D01*
X166301953Y-128636256D01*
X166384000Y-128223779D01*
X166384000Y-127803221D01*
X166301953Y-127390744D01*
X166141012Y-127002198D01*
X165907363Y-126652517D01*
X165849858Y-126595012D01*
X166505435Y-126595012D01*
X166543988Y-126598809D01*
X166582541Y-126595012D01*
X166582549Y-126595012D01*
X166697875Y-126583653D01*
X166845848Y-126538766D01*
X166982221Y-126465874D01*
X167101752Y-126367776D01*
X167126335Y-126337822D01*
X167866086Y-125598072D01*
X168330500Y-125598072D01*
X168454982Y-125585812D01*
X168574680Y-125549502D01*
X168633001Y-125518328D01*
X168633000Y-129437947D01*
X168629203Y-129476500D01*
X168633000Y-129515053D01*
X168633000Y-129515060D01*
X168644359Y-129630386D01*
X168689246Y-129778359D01*
X168762138Y-129914732D01*
X168860236Y-130034264D01*
X168890190Y-130058847D01*
X172701000Y-133869658D01*
X172701000Y-133896439D01*
X172740774Y-134096398D01*
X172818795Y-134284756D01*
X172932063Y-134454274D01*
X173076226Y-134598437D01*
X173245744Y-134711705D01*
X173434102Y-134789726D01*
X173571739Y-134817104D01*
X170870843Y-137518000D01*
X165156271Y-137518000D01*
X165147932Y-137502399D01*
X164968608Y-137283892D01*
X164750101Y-137104568D01*
X164617142Y-137033500D01*
X164750101Y-136962432D01*
X164968608Y-136783108D01*
X165147932Y-136564601D01*
X165281182Y-136315308D01*
X165363236Y-136044809D01*
X165390943Y-135763500D01*
X165363236Y-135482191D01*
X165281182Y-135211692D01*
X165147932Y-134962399D01*
X164968608Y-134743892D01*
X164750101Y-134564568D01*
X164500808Y-134431318D01*
X164230309Y-134349264D01*
X164019492Y-134328500D01*
X163478508Y-134328500D01*
X163267691Y-134349264D01*
X162997192Y-134431318D01*
X162747899Y-134564568D01*
X162529392Y-134743892D01*
X162350068Y-134962399D01*
X162216818Y-135211692D01*
X162134764Y-135482191D01*
X162107057Y-135763500D01*
X162134764Y-136044809D01*
X162216818Y-136315308D01*
X162350068Y-136564601D01*
X162529392Y-136783108D01*
X162747899Y-136962432D01*
X162880858Y-137033500D01*
X162747899Y-137104568D01*
X162529392Y-137283892D01*
X162350068Y-137502399D01*
X162216818Y-137751692D01*
X162134764Y-138022191D01*
X162107057Y-138303500D01*
X162134764Y-138584809D01*
X162216818Y-138855308D01*
X162350068Y-139104601D01*
X162529392Y-139323108D01*
X162747899Y-139502432D01*
X162880858Y-139573500D01*
X162747899Y-139644568D01*
X162529392Y-139823892D01*
X162350068Y-140042399D01*
X162216818Y-140291692D01*
X162134764Y-140562191D01*
X162107057Y-140843500D01*
X162134764Y-141124809D01*
X162216818Y-141395308D01*
X162350068Y-141644601D01*
X162529392Y-141863108D01*
X162747899Y-142042432D01*
X162877345Y-142111622D01*
X162859773Y-142119070D01*
X162626338Y-142277827D01*
X162428361Y-142479075D01*
X162273449Y-142715079D01*
X162167556Y-142976770D01*
X162157096Y-143034461D01*
X162279085Y-143256500D01*
X163622000Y-143256500D01*
X163622000Y-143236500D01*
X163876000Y-143236500D01*
X163876000Y-143256500D01*
X165218915Y-143256500D01*
X165340904Y-143034461D01*
X165330444Y-142976770D01*
X165224551Y-142715079D01*
X165069639Y-142479075D01*
X164871662Y-142277827D01*
X164638227Y-142119070D01*
X164620655Y-142111622D01*
X164750101Y-142042432D01*
X164968608Y-141863108D01*
X165147932Y-141644601D01*
X165281182Y-141395308D01*
X165363236Y-141124809D01*
X165390943Y-140843500D01*
X165363236Y-140562191D01*
X165281182Y-140291692D01*
X165147932Y-140042399D01*
X164968608Y-139823892D01*
X164750101Y-139644568D01*
X164617142Y-139573500D01*
X164750101Y-139502432D01*
X164968608Y-139323108D01*
X165081000Y-139186158D01*
X165081000Y-139293939D01*
X165120774Y-139493898D01*
X165198795Y-139682256D01*
X165312063Y-139851774D01*
X165456226Y-139995937D01*
X165625744Y-140109205D01*
X165814102Y-140187226D01*
X166014061Y-140227000D01*
X166217939Y-140227000D01*
X166417898Y-140187226D01*
X166606256Y-140109205D01*
X166775774Y-139995937D01*
X166794711Y-139977000D01*
X172427447Y-139977000D01*
X172466000Y-139980797D01*
X172504553Y-139977000D01*
X172504561Y-139977000D01*
X172619887Y-139965641D01*
X172767860Y-139920754D01*
X172904233Y-139847862D01*
X173023764Y-139749764D01*
X173048347Y-139719810D01*
X176464106Y-136304051D01*
X177002390Y-136304051D01*
X177002390Y-136507929D01*
X177042164Y-136707888D01*
X177120185Y-136896246D01*
X177233453Y-137065764D01*
X177377616Y-137209927D01*
X177547134Y-137323195D01*
X177735492Y-137401216D01*
X177935451Y-137440990D01*
X178139329Y-137440990D01*
X178339288Y-137401216D01*
X178527646Y-137323195D01*
X178697164Y-137209927D01*
X178841327Y-137065764D01*
X178954595Y-136896246D01*
X179032616Y-136707888D01*
X179072390Y-136507929D01*
X179072390Y-136481147D01*
X184487316Y-131066222D01*
X184517264Y-131041644D01*
X184545887Y-131006768D01*
X184578315Y-130967254D01*
X184615362Y-130922113D01*
X184688254Y-130785740D01*
X184733141Y-130637767D01*
X184744500Y-130522441D01*
X184744500Y-130522434D01*
X184748297Y-130483881D01*
X184744500Y-130445328D01*
X184744500Y-120462233D01*
X184801475Y-120415475D01*
X184949558Y-120235036D01*
X185059594Y-120029174D01*
X185127353Y-119805800D01*
X185144500Y-119631707D01*
X185144500Y-118115293D01*
X185127353Y-117941200D01*
X185059594Y-117717826D01*
X184949558Y-117511964D01*
X184801475Y-117331525D01*
X184621036Y-117183442D01*
X184415174Y-117073406D01*
X184191800Y-117005647D01*
X183959500Y-116982767D01*
X183727201Y-117005647D01*
X183503827Y-117073406D01*
X183297965Y-117183442D01*
X183117526Y-117331525D01*
X182969443Y-117511964D01*
X182859406Y-117717826D01*
X182791647Y-117941200D01*
X182774500Y-118115293D01*
X182774500Y-119631706D01*
X182791647Y-119805799D01*
X182859406Y-120029173D01*
X182969442Y-120235035D01*
X183117525Y-120415475D01*
X183174500Y-120462233D01*
X183174501Y-130158721D01*
X177962233Y-135370990D01*
X177935451Y-135370990D01*
X177735492Y-135410764D01*
X177547134Y-135488785D01*
X177377616Y-135602053D01*
X177233453Y-135746216D01*
X177120185Y-135915734D01*
X177042164Y-136104092D01*
X177002390Y-136304051D01*
X176464106Y-136304051D01*
X181947316Y-130820842D01*
X181977264Y-130796264D01*
X182075362Y-130676733D01*
X182148254Y-130540360D01*
X182165387Y-130483881D01*
X182193141Y-130392388D01*
X182200503Y-130317641D01*
X182204500Y-130277061D01*
X182204500Y-130277054D01*
X182208297Y-130238501D01*
X182204500Y-130199948D01*
X182204500Y-120362233D01*
X182261475Y-120315475D01*
X182409558Y-120135036D01*
X182519594Y-119929174D01*
X182587353Y-119705800D01*
X182604500Y-119531707D01*
X182604500Y-118015293D01*
X182587353Y-117841200D01*
X182519594Y-117617826D01*
X182409558Y-117411964D01*
X182261475Y-117231525D01*
X182081036Y-117083442D01*
X181875174Y-116973406D01*
X181651800Y-116905647D01*
X181419500Y-116882767D01*
X181187201Y-116905647D01*
X180963827Y-116973406D01*
X180757965Y-117083442D01*
X180577526Y-117231525D01*
X180429443Y-117411964D01*
X180319406Y-117617826D01*
X180251647Y-117841200D01*
X180234500Y-118015293D01*
X180234500Y-119531706D01*
X180251647Y-119705799D01*
X180319406Y-119929173D01*
X180429442Y-120135035D01*
X180577525Y-120315475D01*
X180634500Y-120362233D01*
X180634501Y-129913341D01*
X179587324Y-130960519D01*
X179608254Y-130921360D01*
X179616444Y-130894362D01*
X179653142Y-130773387D01*
X179662437Y-130679002D01*
X179664500Y-130658061D01*
X179664500Y-130658056D01*
X179668297Y-130619500D01*
X179664500Y-130580944D01*
X179664500Y-120462233D01*
X179721475Y-120415475D01*
X179869558Y-120235036D01*
X179979594Y-120029174D01*
X180047353Y-119805800D01*
X180064500Y-119631707D01*
X180064500Y-118115293D01*
X180047353Y-117941200D01*
X179979594Y-117717826D01*
X179869558Y-117511964D01*
X179721475Y-117331525D01*
X179541036Y-117183442D01*
X179335174Y-117073406D01*
X179111800Y-117005647D01*
X178879500Y-116982767D01*
X178647201Y-117005647D01*
X178423827Y-117073406D01*
X178217965Y-117183442D01*
X178037526Y-117331525D01*
X177889443Y-117511964D01*
X177779406Y-117717826D01*
X177711647Y-117941200D01*
X177694500Y-118115293D01*
X177694500Y-119631706D01*
X177711647Y-119805799D01*
X177779406Y-120029173D01*
X177889442Y-120235035D01*
X178037525Y-120415475D01*
X178094500Y-120462233D01*
X178094501Y-128132642D01*
X177972756Y-128051295D01*
X177784398Y-127973274D01*
X177584439Y-127933500D01*
X177557658Y-127933500D01*
X177124500Y-127500343D01*
X177124500Y-120462233D01*
X177181475Y-120415475D01*
X177329558Y-120235036D01*
X177439594Y-120029174D01*
X177507353Y-119805800D01*
X177524500Y-119631707D01*
X177524500Y-118115293D01*
X177507353Y-117941200D01*
X177439594Y-117717826D01*
X177329558Y-117511964D01*
X177225305Y-117384932D01*
X177247776Y-117372921D01*
X177382534Y-117262327D01*
X177410251Y-117228554D01*
X178927552Y-115711254D01*
X178961319Y-115683542D01*
X179071913Y-115548784D01*
X179154091Y-115395038D01*
X179204697Y-115228215D01*
X179217502Y-115098202D01*
X179217502Y-115098192D01*
X179221783Y-115054726D01*
X179217502Y-115011260D01*
X179217502Y-113626561D01*
X184893000Y-113626561D01*
X184893000Y-113830439D01*
X184932774Y-114030398D01*
X185010795Y-114218756D01*
X185124063Y-114388274D01*
X185268226Y-114532437D01*
X185437744Y-114645705D01*
X185626102Y-114723726D01*
X185826061Y-114763500D01*
X186029939Y-114763500D01*
X186229898Y-114723726D01*
X186418256Y-114645705D01*
X186587774Y-114532437D01*
X186731937Y-114388274D01*
X186845205Y-114218756D01*
X186923226Y-114030398D01*
X186963000Y-113830439D01*
X186963000Y-113626561D01*
X186923226Y-113426602D01*
X186845205Y-113238244D01*
X186731937Y-113068726D01*
X186587774Y-112924563D01*
X186418256Y-112811295D01*
X186229898Y-112733274D01*
X186029939Y-112693500D01*
X185826061Y-112693500D01*
X185626102Y-112733274D01*
X185437744Y-112811295D01*
X185268226Y-112924563D01*
X185124063Y-113068726D01*
X185010795Y-113238244D01*
X184932774Y-113426602D01*
X184893000Y-113626561D01*
X179217502Y-113626561D01*
X179217502Y-107319471D01*
X179221727Y-107276561D01*
X180892500Y-107276561D01*
X180892500Y-107480439D01*
X180932274Y-107680398D01*
X181010295Y-107868756D01*
X181123563Y-108038274D01*
X181267726Y-108182437D01*
X181437244Y-108295705D01*
X181625602Y-108373726D01*
X181825561Y-108413500D01*
X182029439Y-108413500D01*
X182229398Y-108373726D01*
X182417756Y-108295705D01*
X182587274Y-108182437D01*
X182731437Y-108038274D01*
X182844705Y-107868756D01*
X182922726Y-107680398D01*
X182962500Y-107480439D01*
X182962500Y-107276561D01*
X182922726Y-107076602D01*
X182844705Y-106888244D01*
X182731437Y-106718726D01*
X182587274Y-106574563D01*
X182417756Y-106461295D01*
X182229398Y-106383274D01*
X182029439Y-106343500D01*
X181825561Y-106343500D01*
X181625602Y-106383274D01*
X181437244Y-106461295D01*
X181267726Y-106574563D01*
X181123563Y-106718726D01*
X181010295Y-106888244D01*
X180932274Y-107076602D01*
X180892500Y-107276561D01*
X179221727Y-107276561D01*
X179221783Y-107276002D01*
X179217502Y-107232533D01*
X179217502Y-107232525D01*
X179204697Y-107102512D01*
X179168109Y-106981898D01*
X179154091Y-106935688D01*
X179071913Y-106781943D01*
X179040363Y-106743500D01*
X178961319Y-106647185D01*
X178927546Y-106619468D01*
X178685000Y-106376922D01*
X178685000Y-106097241D01*
X178774033Y-106106010D01*
X178774041Y-106106010D01*
X178817510Y-106110291D01*
X178860979Y-106106010D01*
X189248521Y-106106010D01*
X189291990Y-106110291D01*
X189335459Y-106106010D01*
X189335467Y-106106010D01*
X189361001Y-106103495D01*
X189361000Y-117032705D01*
X189271800Y-117005647D01*
X189039500Y-116982767D01*
X188807201Y-117005647D01*
X188583827Y-117073406D01*
X188377965Y-117183442D01*
X188197526Y-117331525D01*
X188049443Y-117511964D01*
X187939406Y-117717826D01*
X187871647Y-117941200D01*
X187854500Y-118115293D01*
X187854500Y-119631706D01*
X187871647Y-119805799D01*
X187939406Y-120029173D01*
X188049442Y-120235035D01*
X188197525Y-120415475D01*
X188377964Y-120563558D01*
X188583826Y-120673594D01*
X188807200Y-120741353D01*
X189039500Y-120764233D01*
X189271799Y-120741353D01*
X189361000Y-120714294D01*
X189361000Y-121113724D01*
X189300100Y-121187931D01*
X189217922Y-121341677D01*
X189167315Y-121508500D01*
X189150229Y-121681990D01*
X189154511Y-121725469D01*
X189154510Y-122813000D01*
X188879454Y-122813000D01*
X188831256Y-122780795D01*
X188642898Y-122702774D01*
X188442939Y-122663000D01*
X188239061Y-122663000D01*
X188039102Y-122702774D01*
X187850744Y-122780795D01*
X187681226Y-122894063D01*
X187537063Y-123038226D01*
X187423795Y-123207744D01*
X187345774Y-123396102D01*
X187306000Y-123596061D01*
X187306000Y-123799939D01*
X187345774Y-123999898D01*
X187423795Y-124188256D01*
X187537063Y-124357774D01*
X187681226Y-124501937D01*
X187850744Y-124615205D01*
X188039102Y-124693226D01*
X188239061Y-124733000D01*
X188442939Y-124733000D01*
X188642898Y-124693226D01*
X188831256Y-124615205D01*
X188879454Y-124583000D01*
X189154511Y-124583000D01*
X189154511Y-126184436D01*
X189060302Y-126121488D01*
X188671756Y-125960547D01*
X188259279Y-125878500D01*
X187838721Y-125878500D01*
X187426244Y-125960547D01*
X187037698Y-126121488D01*
X186983999Y-126157368D01*
X186983999Y-120658186D01*
X187161035Y-120563558D01*
X187341475Y-120415475D01*
X187489558Y-120235036D01*
X187599594Y-120029174D01*
X187667353Y-119805800D01*
X187684500Y-119631707D01*
X187684500Y-118115293D01*
X187667353Y-117941200D01*
X187599594Y-117717826D01*
X187489558Y-117511964D01*
X187341475Y-117331525D01*
X187161036Y-117183442D01*
X186955174Y-117073406D01*
X186731800Y-117005647D01*
X186499500Y-116982767D01*
X186267201Y-117005647D01*
X186043827Y-117073406D01*
X185837965Y-117183442D01*
X185657526Y-117331525D01*
X185509443Y-117511964D01*
X185399406Y-117717826D01*
X185331647Y-117941200D01*
X185314500Y-118115293D01*
X185314500Y-119631706D01*
X185331647Y-119805799D01*
X185399406Y-120029173D01*
X185413999Y-120056475D01*
X185414000Y-148311342D01*
X185158343Y-148567000D01*
X178823658Y-148567000D01*
X178238616Y-147981958D01*
X178223726Y-147907102D01*
X178145705Y-147718744D01*
X178032437Y-147549226D01*
X177888274Y-147405063D01*
X177718756Y-147291795D01*
X177530398Y-147213774D01*
X177330439Y-147174000D01*
X177126561Y-147174000D01*
X176926602Y-147213774D01*
X176738244Y-147291795D01*
X176568726Y-147405063D01*
X176424563Y-147549226D01*
X176311295Y-147718744D01*
X176233274Y-147907102D01*
X176193500Y-148107061D01*
X176193500Y-148310939D01*
X176233274Y-148510898D01*
X176311295Y-148699256D01*
X176424563Y-148868774D01*
X176568726Y-149012937D01*
X176738244Y-149126205D01*
X176926602Y-149204226D01*
X177126561Y-149244000D01*
X177280343Y-149244000D01*
X177582842Y-149546500D01*
X173023079Y-149546500D01*
X170527530Y-147050952D01*
X170462205Y-146893244D01*
X170348937Y-146723726D01*
X170204774Y-146579563D01*
X170035256Y-146466295D01*
X169846898Y-146388274D01*
X169646939Y-146348500D01*
X169443061Y-146348500D01*
X169243102Y-146388274D01*
X169054744Y-146466295D01*
X168885226Y-146579563D01*
X168741063Y-146723726D01*
X168627795Y-146893244D01*
X168549774Y-147081602D01*
X168510000Y-147281561D01*
X168510000Y-147485439D01*
X168549774Y-147685398D01*
X168627795Y-147873756D01*
X168741063Y-148043274D01*
X168885226Y-148187437D01*
X169054744Y-148300705D01*
X169243102Y-148378726D01*
X169379224Y-148405802D01*
X171999970Y-151026549D01*
X172027683Y-151060317D01*
X172061451Y-151088030D01*
X172061453Y-151088032D01*
X172089453Y-151111011D01*
X172162441Y-151170911D01*
X172316187Y-151253089D01*
X172426742Y-151286626D01*
X172483009Y-151303695D01*
X172497806Y-151305152D01*
X172613023Y-151316500D01*
X172613031Y-151316500D01*
X172656500Y-151320781D01*
X172699969Y-151316500D01*
X185694031Y-151316500D01*
X185737500Y-151320781D01*
X185780969Y-151316500D01*
X185780977Y-151316500D01*
X185910990Y-151303695D01*
X185914093Y-151302754D01*
X185914000Y-151303221D01*
X185914000Y-151723779D01*
X185996047Y-152136256D01*
X186156988Y-152524802D01*
X186390637Y-152874483D01*
X186688017Y-153171863D01*
X186939652Y-153340000D01*
X165358348Y-153340000D01*
X165609983Y-153171863D01*
X165907363Y-152874483D01*
X166141012Y-152524802D01*
X166301953Y-152136256D01*
X166384000Y-151723779D01*
X166384000Y-151303221D01*
X166301953Y-150890744D01*
X166141012Y-150502198D01*
X165907363Y-150152517D01*
X165609983Y-149855137D01*
X165260302Y-149621488D01*
X164871756Y-149460547D01*
X164459279Y-149378500D01*
X164038721Y-149378500D01*
X163626244Y-149460547D01*
X163237698Y-149621488D01*
X162888017Y-149855137D01*
X162590637Y-150152517D01*
X162356988Y-150502198D01*
X162196047Y-150890744D01*
X162114000Y-151303221D01*
X162114000Y-151723779D01*
X162196047Y-152136256D01*
X162356988Y-152524802D01*
X162590637Y-152874483D01*
X162888017Y-153171863D01*
X163139652Y-153340000D01*
X101532277Y-153340000D01*
X101337460Y-153320898D01*
X101181105Y-153273692D01*
X101036904Y-153197018D01*
X100910336Y-153093792D01*
X100806232Y-152967951D01*
X100728553Y-152824289D01*
X100680258Y-152668271D01*
X100657188Y-152448769D01*
X100657272Y-152436693D01*
X100656373Y-152427522D01*
X100646173Y-152330473D01*
X100634140Y-152271854D01*
X100622936Y-152213116D01*
X100620272Y-152204294D01*
X100591416Y-152111075D01*
X100568238Y-152055937D01*
X100567857Y-152054994D01*
X100640752Y-152016031D01*
X100889714Y-151811714D01*
X101094031Y-151562752D01*
X101245852Y-151278715D01*
X101339343Y-150970516D01*
X101363000Y-150730322D01*
X101363000Y-149185000D01*
X101879439Y-149185000D01*
X101918000Y-149188798D01*
X101956560Y-149185000D01*
X102665001Y-149185000D01*
X102665001Y-150730322D01*
X102688658Y-150970516D01*
X102782149Y-151278715D01*
X102933970Y-151562752D01*
X103138287Y-151811714D01*
X103387249Y-152016031D01*
X103671286Y-152167852D01*
X103979485Y-152261343D01*
X104300000Y-152292911D01*
X104620516Y-152261343D01*
X104928715Y-152167852D01*
X105212752Y-152016031D01*
X105461714Y-151811714D01*
X105666031Y-151562752D01*
X105817852Y-151278715D01*
X105911343Y-150970516D01*
X105935000Y-150730322D01*
X105935000Y-146069678D01*
X105911343Y-145829484D01*
X105817852Y-145521285D01*
X105666031Y-145237248D01*
X105461714Y-144988286D01*
X105212751Y-144783969D01*
X104928714Y-144632148D01*
X104620515Y-144538657D01*
X104300000Y-144507089D01*
X103979484Y-144538657D01*
X103671285Y-144632148D01*
X103387248Y-144783969D01*
X103138286Y-144988286D01*
X102933969Y-145237249D01*
X102782148Y-145521286D01*
X102703000Y-145782202D01*
X102703000Y-143732539D01*
X162157096Y-143732539D01*
X162167556Y-143790230D01*
X162273449Y-144051921D01*
X162428361Y-144287925D01*
X162626338Y-144489173D01*
X162859773Y-144647930D01*
X163119694Y-144758096D01*
X163396113Y-144815437D01*
X163622000Y-144662974D01*
X163622000Y-143510500D01*
X163876000Y-143510500D01*
X163876000Y-144662974D01*
X164101887Y-144815437D01*
X164378306Y-144758096D01*
X164638227Y-144647930D01*
X164871662Y-144489173D01*
X165069639Y-144287925D01*
X165224551Y-144051921D01*
X165330444Y-143790230D01*
X165340904Y-143732539D01*
X165218915Y-143510500D01*
X163876000Y-143510500D01*
X163622000Y-143510500D01*
X162279085Y-143510500D01*
X162157096Y-143732539D01*
X102703000Y-143732539D01*
X102703000Y-108617724D01*
X102833970Y-108862752D01*
X103038287Y-109111714D01*
X103287249Y-109316031D01*
X103571286Y-109467852D01*
X103879485Y-109561343D01*
X104200000Y-109592911D01*
X104520516Y-109561343D01*
X104828715Y-109467852D01*
X105112752Y-109316031D01*
X105361714Y-109111714D01*
X105566031Y-108862752D01*
X105717852Y-108578715D01*
X105811343Y-108270516D01*
X105835000Y-108030322D01*
X105835000Y-106070061D01*
X163239500Y-106070061D01*
X163239500Y-106273939D01*
X163279274Y-106473898D01*
X163357295Y-106662256D01*
X163470563Y-106831774D01*
X163614726Y-106975937D01*
X163784244Y-107089205D01*
X163972602Y-107167226D01*
X164172561Y-107207000D01*
X164376439Y-107207000D01*
X164576398Y-107167226D01*
X164764756Y-107089205D01*
X164934274Y-106975937D01*
X165078437Y-106831774D01*
X165191705Y-106662256D01*
X165269726Y-106473898D01*
X165309500Y-106273939D01*
X165309500Y-106070061D01*
X165269726Y-105870102D01*
X165191705Y-105681744D01*
X165078437Y-105512226D01*
X164934274Y-105368063D01*
X164764756Y-105254795D01*
X164576398Y-105176774D01*
X164376439Y-105137000D01*
X164172561Y-105137000D01*
X163972602Y-105176774D01*
X163784244Y-105254795D01*
X163614726Y-105368063D01*
X163470563Y-105512226D01*
X163357295Y-105681744D01*
X163279274Y-105870102D01*
X163239500Y-106070061D01*
X105835000Y-106070061D01*
X105835000Y-103369678D01*
X105811343Y-103129484D01*
X105744579Y-102909391D01*
X161626519Y-102909391D01*
X161723843Y-103183752D01*
X161872822Y-103433855D01*
X162067731Y-103650088D01*
X162301080Y-103824141D01*
X162563901Y-103949325D01*
X162711110Y-103993976D01*
X162941000Y-103872655D01*
X162941000Y-102679500D01*
X161747186Y-102679500D01*
X161626519Y-102909391D01*
X105744579Y-102909391D01*
X105717852Y-102821285D01*
X105566031Y-102537248D01*
X105361714Y-102288286D01*
X105248786Y-102195609D01*
X161626519Y-102195609D01*
X161747186Y-102425500D01*
X162941000Y-102425500D01*
X162941000Y-101232345D01*
X162711110Y-101111024D01*
X162563901Y-101155675D01*
X162301080Y-101280859D01*
X162067731Y-101454912D01*
X161872822Y-101671145D01*
X161723843Y-101921248D01*
X161626519Y-102195609D01*
X105248786Y-102195609D01*
X105112751Y-102083969D01*
X104828714Y-101932148D01*
X104520515Y-101838657D01*
X104200000Y-101807089D01*
X103879484Y-101838657D01*
X103571285Y-101932148D01*
X103287248Y-102083969D01*
X103038286Y-102288286D01*
X102833969Y-102537249D01*
X102682148Y-102821286D01*
X102588657Y-103129485D01*
X102565000Y-103369679D01*
X102565000Y-104915000D01*
X101920053Y-104915000D01*
X101881500Y-104911203D01*
X101842947Y-104915000D01*
X101263000Y-104915000D01*
X101263000Y-103369678D01*
X101239343Y-103129484D01*
X101145852Y-102821285D01*
X100994031Y-102537248D01*
X100789714Y-102288286D01*
X100540751Y-102083969D01*
X100519370Y-102072541D01*
X100537474Y-102038493D01*
X100560263Y-101983201D01*
X100583835Y-101928205D01*
X100586559Y-101919402D01*
X100620404Y-101807300D01*
X100632020Y-101748635D01*
X100644460Y-101690111D01*
X100645423Y-101680946D01*
X100656850Y-101564405D01*
X100656850Y-101564404D01*
X100679102Y-101337460D01*
X100726308Y-101181106D01*
X100802982Y-101036904D01*
X100906207Y-100910337D01*
X101032051Y-100806231D01*
X101175711Y-100728553D01*
X101331729Y-100680258D01*
X101524473Y-100660000D01*
X175535939Y-100660000D01*
X175497526Y-100691525D01*
G37*
G04 #@! TD.AperFunction*
D26*
X187037698Y-129905512D02*
X187426244Y-130066453D01*
X187838721Y-130148500D01*
X188259279Y-130148500D01*
X188671756Y-130066453D01*
X189004510Y-129928622D01*
X189004510Y-129975429D01*
X189044284Y-130175388D01*
X189122305Y-130363746D01*
X189154511Y-130411945D01*
X189154510Y-139031911D01*
X188730957Y-139455465D01*
X188674102Y-139466774D01*
X188485744Y-139544795D01*
X188316226Y-139658063D01*
X188172063Y-139802226D01*
X188058795Y-139971744D01*
X187980774Y-140160102D01*
X187941000Y-140360061D01*
X187941000Y-140563939D01*
X187980774Y-140763898D01*
X188058795Y-140952256D01*
X188091000Y-141000454D01*
X188091001Y-146826420D01*
X186983999Y-147933422D01*
X186983999Y-129869632D01*
X187037698Y-129905512D01*
G04 #@! TA.AperFunction,Conductor*
D27*
G36*
X187037698Y-129905512D02*
G01*
X187426244Y-130066453D01*
X187838721Y-130148500D01*
X188259279Y-130148500D01*
X188671756Y-130066453D01*
X189004510Y-129928622D01*
X189004510Y-129975429D01*
X189044284Y-130175388D01*
X189122305Y-130363746D01*
X189154511Y-130411945D01*
X189154510Y-139031911D01*
X188730957Y-139455465D01*
X188674102Y-139466774D01*
X188485744Y-139544795D01*
X188316226Y-139658063D01*
X188172063Y-139802226D01*
X188058795Y-139971744D01*
X187980774Y-140160102D01*
X187941000Y-140360061D01*
X187941000Y-140563939D01*
X187980774Y-140763898D01*
X188058795Y-140952256D01*
X188091000Y-141000454D01*
X188091001Y-146826420D01*
X186983999Y-147933422D01*
X186983999Y-129869632D01*
X187037698Y-129905512D01*
G37*
G04 #@! TD.AperFunction*
D26*
X173771647Y-110785800D02*
X173839406Y-111009174D01*
X173949442Y-111215036D01*
X174097525Y-111395475D01*
X174277964Y-111543558D01*
X174483826Y-111653594D01*
X174707200Y-111721353D01*
X174881293Y-111738500D01*
X176397707Y-111738500D01*
X176571800Y-111721353D01*
X176795174Y-111653594D01*
X177001036Y-111543558D01*
X177181475Y-111395475D01*
X177329558Y-111215036D01*
X177439594Y-111009174D01*
X177447503Y-110983103D01*
X177447502Y-112663896D01*
X177439594Y-112637826D01*
X177329558Y-112431964D01*
X177181475Y-112251525D01*
X177001036Y-112103442D01*
X176795174Y-111993406D01*
X176571800Y-111925647D01*
X176397707Y-111908500D01*
X174881293Y-111908500D01*
X174707200Y-111925647D01*
X174483826Y-111993406D01*
X174277964Y-112103442D01*
X174097525Y-112251525D01*
X173949442Y-112431964D01*
X173839406Y-112637826D01*
X173771647Y-112861200D01*
X173748767Y-113093500D01*
X173771647Y-113325800D01*
X173839406Y-113549174D01*
X173949442Y-113755036D01*
X174097525Y-113935475D01*
X174277964Y-114083558D01*
X174483826Y-114193594D01*
X174707200Y-114261353D01*
X174881293Y-114278500D01*
X176397707Y-114278500D01*
X176571800Y-114261353D01*
X176795174Y-114193594D01*
X177001036Y-114083558D01*
X177181475Y-113935475D01*
X177329558Y-113755036D01*
X177439594Y-113549174D01*
X177447502Y-113523104D01*
X177447502Y-114688146D01*
X177254790Y-114880859D01*
X177181475Y-114791525D01*
X177001036Y-114643442D01*
X176795174Y-114533406D01*
X176571800Y-114465647D01*
X176397707Y-114448500D01*
X174881293Y-114448500D01*
X174707200Y-114465647D01*
X174483826Y-114533406D01*
X174277964Y-114643442D01*
X174097525Y-114791525D01*
X174053854Y-114844738D01*
X174053499Y-114844703D01*
X174014946Y-114848500D01*
X174014939Y-114848500D01*
X173913990Y-114858443D01*
X173899612Y-114859859D01*
X173871675Y-114868334D01*
X173751640Y-114904746D01*
X173615267Y-114977638D01*
X173495736Y-115075736D01*
X173471153Y-115105690D01*
X173271685Y-115305158D01*
X173241737Y-115329736D01*
X173240005Y-115331846D01*
X173224878Y-115255797D01*
X173101667Y-114958338D01*
X172922792Y-114690633D01*
X172695127Y-114462968D01*
X172438200Y-114291295D01*
X172438200Y-111945457D01*
X173756065Y-110627593D01*
X173771647Y-110785800D01*
G04 #@! TA.AperFunction,Conductor*
D27*
G36*
X173771647Y-110785800D02*
G01*
X173839406Y-111009174D01*
X173949442Y-111215036D01*
X174097525Y-111395475D01*
X174277964Y-111543558D01*
X174483826Y-111653594D01*
X174707200Y-111721353D01*
X174881293Y-111738500D01*
X176397707Y-111738500D01*
X176571800Y-111721353D01*
X176795174Y-111653594D01*
X177001036Y-111543558D01*
X177181475Y-111395475D01*
X177329558Y-111215036D01*
X177439594Y-111009174D01*
X177447503Y-110983103D01*
X177447502Y-112663896D01*
X177439594Y-112637826D01*
X177329558Y-112431964D01*
X177181475Y-112251525D01*
X177001036Y-112103442D01*
X176795174Y-111993406D01*
X176571800Y-111925647D01*
X176397707Y-111908500D01*
X174881293Y-111908500D01*
X174707200Y-111925647D01*
X174483826Y-111993406D01*
X174277964Y-112103442D01*
X174097525Y-112251525D01*
X173949442Y-112431964D01*
X173839406Y-112637826D01*
X173771647Y-112861200D01*
X173748767Y-113093500D01*
X173771647Y-113325800D01*
X173839406Y-113549174D01*
X173949442Y-113755036D01*
X174097525Y-113935475D01*
X174277964Y-114083558D01*
X174483826Y-114193594D01*
X174707200Y-114261353D01*
X174881293Y-114278500D01*
X176397707Y-114278500D01*
X176571800Y-114261353D01*
X176795174Y-114193594D01*
X177001036Y-114083558D01*
X177181475Y-113935475D01*
X177329558Y-113755036D01*
X177439594Y-113549174D01*
X177447502Y-113523104D01*
X177447502Y-114688146D01*
X177254790Y-114880859D01*
X177181475Y-114791525D01*
X177001036Y-114643442D01*
X176795174Y-114533406D01*
X176571800Y-114465647D01*
X176397707Y-114448500D01*
X174881293Y-114448500D01*
X174707200Y-114465647D01*
X174483826Y-114533406D01*
X174277964Y-114643442D01*
X174097525Y-114791525D01*
X174053854Y-114844738D01*
X174053499Y-114844703D01*
X174014946Y-114848500D01*
X174014939Y-114848500D01*
X173913990Y-114858443D01*
X173899612Y-114859859D01*
X173871675Y-114868334D01*
X173751640Y-114904746D01*
X173615267Y-114977638D01*
X173495736Y-115075736D01*
X173471153Y-115105690D01*
X173271685Y-115305158D01*
X173241737Y-115329736D01*
X173240005Y-115331846D01*
X173224878Y-115255797D01*
X173101667Y-114958338D01*
X172922792Y-114690633D01*
X172695127Y-114462968D01*
X172438200Y-114291295D01*
X172438200Y-111945457D01*
X173756065Y-110627593D01*
X173771647Y-110785800D01*
G37*
G04 #@! TD.AperFunction*
D26*
X180577526Y-100691525D02*
X180429443Y-100871964D01*
X180319406Y-101077826D01*
X180251647Y-101301200D01*
X180234500Y-101475293D01*
X180234500Y-102991706D01*
X180251647Y-103165799D01*
X180319406Y-103389173D01*
X180429442Y-103595035D01*
X180577525Y-103775475D01*
X180757964Y-103923558D01*
X180963826Y-104033594D01*
X181187200Y-104101353D01*
X181419500Y-104124233D01*
X181651799Y-104101353D01*
X181875173Y-104033594D01*
X182081035Y-103923558D01*
X182261475Y-103775475D01*
X182409558Y-103595036D01*
X182519594Y-103389174D01*
X182587353Y-103165800D01*
X182604500Y-102991707D01*
X182604500Y-101475293D01*
X182587353Y-101301200D01*
X182519594Y-101077826D01*
X182409558Y-100871964D01*
X182261475Y-100691525D01*
X182223062Y-100660000D01*
X183155939Y-100660000D01*
X183117526Y-100691525D01*
X182969443Y-100871964D01*
X182859406Y-101077826D01*
X182791647Y-101301200D01*
X182774500Y-101475293D01*
X182774500Y-102991706D01*
X182791647Y-103165799D01*
X182859406Y-103389173D01*
X182969442Y-103595035D01*
X183117525Y-103775475D01*
X183297964Y-103923558D01*
X183503826Y-104033594D01*
X183727200Y-104101353D01*
X183959500Y-104124233D01*
X184191799Y-104101353D01*
X184415173Y-104033594D01*
X184621035Y-103923558D01*
X184801475Y-103775475D01*
X184949558Y-103595036D01*
X185059594Y-103389174D01*
X185127353Y-103165800D01*
X185144500Y-102991707D01*
X185144500Y-101475293D01*
X185127353Y-101301200D01*
X185059594Y-101077826D01*
X184949558Y-100871964D01*
X184801475Y-100691525D01*
X184763062Y-100660000D01*
X185695939Y-100660000D01*
X185657526Y-100691525D01*
X185509443Y-100871964D01*
X185399406Y-101077826D01*
X185331647Y-101301200D01*
X185314500Y-101475293D01*
X185314500Y-102991706D01*
X185331647Y-103165799D01*
X185399406Y-103389173D01*
X185509442Y-103595035D01*
X185657525Y-103775475D01*
X185837964Y-103923558D01*
X186043826Y-104033594D01*
X186267200Y-104101353D01*
X186499500Y-104124233D01*
X186731799Y-104101353D01*
X186955173Y-104033594D01*
X187161035Y-103923558D01*
X187341475Y-103775475D01*
X187489558Y-103595036D01*
X187599594Y-103389174D01*
X187667353Y-103165800D01*
X187684500Y-102991707D01*
X187684500Y-101475293D01*
X187667353Y-101301200D01*
X187599594Y-101077826D01*
X187489558Y-100871964D01*
X187341475Y-100691525D01*
X187303062Y-100660000D01*
X188235939Y-100660000D01*
X188197526Y-100691525D01*
X188049443Y-100871964D01*
X187939406Y-101077826D01*
X187871647Y-101301200D01*
X187854500Y-101475293D01*
X187854500Y-102991706D01*
X187871647Y-103165799D01*
X187939406Y-103389173D01*
X188049442Y-103595035D01*
X188197525Y-103775475D01*
X188377964Y-103923558D01*
X188583826Y-104033594D01*
X188807200Y-104101353D01*
X189039500Y-104124233D01*
X189147861Y-104113560D01*
X188925412Y-104336010D01*
X179184089Y-104336010D01*
X178963990Y-104115911D01*
X179111799Y-104101353D01*
X179335173Y-104033594D01*
X179541035Y-103923558D01*
X179721475Y-103775475D01*
X179869558Y-103595036D01*
X179979594Y-103389174D01*
X180047353Y-103165800D01*
X180064500Y-102991707D01*
X180064500Y-101475293D01*
X180047353Y-101301200D01*
X179979594Y-101077826D01*
X179869558Y-100871964D01*
X179721475Y-100691525D01*
X179683062Y-100660000D01*
X180615939Y-100660000D01*
X180577526Y-100691525D01*
G04 #@! TA.AperFunction,Conductor*
D27*
G36*
X180577526Y-100691525D02*
G01*
X180429443Y-100871964D01*
X180319406Y-101077826D01*
X180251647Y-101301200D01*
X180234500Y-101475293D01*
X180234500Y-102991706D01*
X180251647Y-103165799D01*
X180319406Y-103389173D01*
X180429442Y-103595035D01*
X180577525Y-103775475D01*
X180757964Y-103923558D01*
X180963826Y-104033594D01*
X181187200Y-104101353D01*
X181419500Y-104124233D01*
X181651799Y-104101353D01*
X181875173Y-104033594D01*
X182081035Y-103923558D01*
X182261475Y-103775475D01*
X182409558Y-103595036D01*
X182519594Y-103389174D01*
X182587353Y-103165800D01*
X182604500Y-102991707D01*
X182604500Y-101475293D01*
X182587353Y-101301200D01*
X182519594Y-101077826D01*
X182409558Y-100871964D01*
X182261475Y-100691525D01*
X182223062Y-100660000D01*
X183155939Y-100660000D01*
X183117526Y-100691525D01*
X182969443Y-100871964D01*
X182859406Y-101077826D01*
X182791647Y-101301200D01*
X182774500Y-101475293D01*
X182774500Y-102991706D01*
X182791647Y-103165799D01*
X182859406Y-103389173D01*
X182969442Y-103595035D01*
X183117525Y-103775475D01*
X183297964Y-103923558D01*
X183503826Y-104033594D01*
X183727200Y-104101353D01*
X183959500Y-104124233D01*
X184191799Y-104101353D01*
X184415173Y-104033594D01*
X184621035Y-103923558D01*
X184801475Y-103775475D01*
X184949558Y-103595036D01*
X185059594Y-103389174D01*
X185127353Y-103165800D01*
X185144500Y-102991707D01*
X185144500Y-101475293D01*
X185127353Y-101301200D01*
X185059594Y-101077826D01*
X184949558Y-100871964D01*
X184801475Y-100691525D01*
X184763062Y-100660000D01*
X185695939Y-100660000D01*
X185657526Y-100691525D01*
X185509443Y-100871964D01*
X185399406Y-101077826D01*
X185331647Y-101301200D01*
X185314500Y-101475293D01*
X185314500Y-102991706D01*
X185331647Y-103165799D01*
X185399406Y-103389173D01*
X185509442Y-103595035D01*
X185657525Y-103775475D01*
X185837964Y-103923558D01*
X186043826Y-104033594D01*
X186267200Y-104101353D01*
X186499500Y-104124233D01*
X186731799Y-104101353D01*
X186955173Y-104033594D01*
X187161035Y-103923558D01*
X187341475Y-103775475D01*
X187489558Y-103595036D01*
X187599594Y-103389174D01*
X187667353Y-103165800D01*
X187684500Y-102991707D01*
X187684500Y-101475293D01*
X187667353Y-101301200D01*
X187599594Y-101077826D01*
X187489558Y-100871964D01*
X187341475Y-100691525D01*
X187303062Y-100660000D01*
X188235939Y-100660000D01*
X188197526Y-100691525D01*
X188049443Y-100871964D01*
X187939406Y-101077826D01*
X187871647Y-101301200D01*
X187854500Y-101475293D01*
X187854500Y-102991706D01*
X187871647Y-103165799D01*
X187939406Y-103389173D01*
X188049442Y-103595035D01*
X188197525Y-103775475D01*
X188377964Y-103923558D01*
X188583826Y-104033594D01*
X188807200Y-104101353D01*
X189039500Y-104124233D01*
X189147861Y-104113560D01*
X188925412Y-104336010D01*
X179184089Y-104336010D01*
X178963990Y-104115911D01*
X179111799Y-104101353D01*
X179335173Y-104033594D01*
X179541035Y-103923558D01*
X179721475Y-103775475D01*
X179869558Y-103595036D01*
X179979594Y-103389174D01*
X180047353Y-103165800D01*
X180064500Y-102991707D01*
X180064500Y-101475293D01*
X180047353Y-101301200D01*
X179979594Y-101077826D01*
X179869558Y-100871964D01*
X179721475Y-100691525D01*
X179683062Y-100660000D01*
X180615939Y-100660000D01*
X180577526Y-100691525D01*
G37*
G04 #@! TD.AperFunction*
M02*
