M48
; DRILL file {KiCad 5.1.12-84ad8e8a86~92~ubuntu20.04.1} date Mo 14 Feb 2022 19:07:48 CET
; FORMAT={-:-/ absolute / metric / decimal}
; #@! TF.CreationDate,2022-02-14T19:07:48+01:00
; #@! TF.GenerationSoftware,Kicad,Pcbnew,5.1.12-84ad8e8a86~92~ubuntu20.04.1
; #@! TF.FileFunction,Plated,1,2,PTH
FMAT,2
METRIC
T1C0.400
T2C0.600
T3C0.650
T4C0.850
T5C1.000
T6C1.001
%
G90
G05
T1
X108.102Y-131.42
X123.596Y-133.858
X124.155Y-131.369
X129.032Y-115.164
X129.134Y-136.754
X129.184Y-134.264
X136.5Y-128.067
X137.77Y-118.516
X146.558Y-117.754
X147.726Y-136.754
X147.828Y-131.978
X153.772Y-120.396
X158.039Y-150.216
X159.106Y-141.58
X159.309Y-119.532
X159.664Y-151.79
X160.172Y-103.886
X160.223Y-146.609
X160.552Y-139.598
X160.884Y-125.374
X162.052Y-139.548
X162.458Y-136.703
X162.56Y-117.094
X162.712Y-120.498
X163.83Y-137.617
X165.151Y-150.165
X165.303Y-111.76
X166.218Y-137.566
X167.03Y-125.933
X167.03Y-141.122
X167.742Y-119.38
X168.25Y-139.04
X168.961Y-148.742
X169.113Y-138.43
X170.637Y-148.336
X172.314Y-134.315
X173.685Y-137.414
X175.26Y-109.728
X175.362Y-101.803
X176.276Y-133.096
X176.428Y-145.694
X179.121Y-140.462
X179.781Y-106.578
X180.137Y-112.624
X181.458Y-110.033
X181.508Y-112.268
X182.321Y-123.749
X184.607Y-142.85
X185.928Y-137.566
X185.979Y-112.217
X186.233Y-138.836
X187.452Y-105.004
X188.57Y-147.625
X189.789Y-144.221
X191.55Y-141.495
X191.77Y-139.802
X191.821Y-105.054
X191.922Y-144.12
X192.837Y-147.574
T3
X157.124Y-109.83
X157.124Y-111.1
X157.124Y-112.37
X157.124Y-113.64
X174.2Y-122.29
X174.2Y-124.29
X174.2Y-126.29
X174.2Y-128.29
X174.2Y-130.29
X174.2Y-132.29
X175.2Y-120.3
X175.2Y-134.3
X177.2Y-120.3
X177.2Y-134.3
X179.2Y-120.3
X179.2Y-134.3
X181.2Y-120.3
X181.2Y-134.3
X183.2Y-120.3
X183.2Y-134.3
X185.2Y-120.3
X185.2Y-134.3
X187.2Y-120.3
X187.2Y-134.3
X189.2Y-120.3
X189.2Y-134.3
T4
X193.837Y-139.994
X193.837Y-144.994
T5
X157.6Y-102.2
X160.14Y-102.2
X161.34Y-152.1
X162.68Y-102.2
X163.88Y-152.1
X165.0Y-118.1
X165.0Y-120.64
X165.0Y-123.18
X165.22Y-102.2
X166.42Y-152.1
X167.4Y-131.7
X167.4Y-134.24
X168.96Y-152.1
X169.9Y-102.2
X169.9Y-104.74
X169.9Y-107.28
X169.9Y-109.82
X169.9Y-112.36
X171.5Y-152.1
X175.1Y-152.1
X176.4Y-141.8
X182.1Y-150.6
X183.185Y-138.4
X184.64Y-150.6
X187.18Y-150.6
X189.72Y-150.6
X192.26Y-150.6
X194.8Y-150.6
T6
X159.25Y-126.749
X159.25Y-133.251
X163.75Y-126.749
X163.75Y-133.251
T2
X196.188Y-138.994G85X196.887Y-138.994
G05
X196.887Y-145.994G85X196.188Y-145.994
G05
T5
X99.528Y-150.65G85X99.528Y-146.15
G05
X104.1Y-150.65G85X104.1Y-146.15
G05
T0
M30
