G04 #@! TF.GenerationSoftware,KiCad,Pcbnew,5.1.12-84ad8e8a86~92~ubuntu20.04.1*
G04 #@! TF.CreationDate,2022-02-14T19:07:45+01:00*
G04 #@! TF.ProjectId,ms2-card,6d73322d-6361-4726-942e-6b696361645f,0.1*
G04 #@! TF.SameCoordinates,Original*
G04 #@! TF.FileFunction,Copper,L2,Bot*
G04 #@! TF.FilePolarity,Positive*
%FSLAX46Y46*%
G04 Gerber Fmt 4.6, Leading zero omitted, Abs format (unit mm)*
G04 Created by KiCad (PCBNEW 5.1.12-84ad8e8a86~92~ubuntu20.04.1) date 2022-02-14 19:07:45*
%MOMM*%
%LPD*%
G01*
G04 APERTURE LIST*
G04 #@! TA.AperFunction,ComponentPad*
%ADD10O,1.000000X1.000000*%
G04 #@! TD*
G04 #@! TA.AperFunction,ComponentPad*
%ADD11R,1.000000X1.000000*%
G04 #@! TD*
G04 #@! TA.AperFunction,ComponentPad*
%ADD12O,1.900000X1.200000*%
G04 #@! TD*
G04 #@! TA.AperFunction,ComponentPad*
%ADD13C,1.450000*%
G04 #@! TD*
G04 #@! TA.AperFunction,ComponentPad*
%ADD14R,1.700000X1.700000*%
G04 #@! TD*
G04 #@! TA.AperFunction,ComponentPad*
%ADD15O,1.700000X1.700000*%
G04 #@! TD*
G04 #@! TA.AperFunction,SMDPad,CuDef*
%ADD16R,4.000000X1.800000*%
G04 #@! TD*
G04 #@! TA.AperFunction,ComponentPad*
%ADD17O,2.000000X6.500000*%
G04 #@! TD*
G04 #@! TA.AperFunction,ComponentPad*
%ADD18C,1.998980*%
G04 #@! TD*
G04 #@! TA.AperFunction,ComponentPad*
%ADD19R,1.100000X2.500000*%
G04 #@! TD*
G04 #@! TA.AperFunction,ComponentPad*
%ADD20O,1.100000X2.500000*%
G04 #@! TD*
G04 #@! TA.AperFunction,ComponentPad*
%ADD21O,2.500000X1.100000*%
G04 #@! TD*
G04 #@! TA.AperFunction,ViaPad*
%ADD22C,0.800000*%
G04 #@! TD*
G04 #@! TA.AperFunction,Conductor*
%ADD23C,0.500000*%
G04 #@! TD*
G04 #@! TA.AperFunction,Conductor*
%ADD24C,0.300000*%
G04 #@! TD*
G04 #@! TA.AperFunction,Conductor*
%ADD25C,0.254000*%
G04 #@! TD*
G04 #@! TA.AperFunction,Conductor*
%ADD26C,0.100000*%
G04 #@! TD*
G04 APERTURE END LIST*
D10*
X157124400Y-109829600D03*
X157124400Y-111099600D03*
X157124400Y-112369600D03*
D11*
X157124400Y-113639600D03*
D12*
X196537500Y-138994000D03*
X196537500Y-145994000D03*
D13*
X193837500Y-139994000D03*
X193837500Y-144994000D03*
D14*
X157600000Y-102200000D03*
D15*
X160140000Y-102200000D03*
X162680000Y-102200000D03*
X165220000Y-102200000D03*
D14*
X167400000Y-131700000D03*
D15*
X167400000Y-134240000D03*
D14*
X183184800Y-138400000D03*
D15*
X169900000Y-112360000D03*
X169900000Y-109820000D03*
X169900000Y-107280000D03*
X169900000Y-104740000D03*
D14*
X169900000Y-102200000D03*
D16*
X111310000Y-133900000D03*
X111310000Y-131360000D03*
X111310000Y-128820000D03*
X111310000Y-126280000D03*
X118810000Y-126280000D03*
X118810000Y-128820000D03*
X118810000Y-131360000D03*
X118810000Y-133900000D03*
D17*
X104100000Y-148400000D03*
X99528000Y-148400000D03*
D14*
X165000000Y-118100000D03*
D15*
X165000000Y-120640000D03*
X165000000Y-123180000D03*
D14*
X182100000Y-150600000D03*
D15*
X184640000Y-150600000D03*
X187180000Y-150600000D03*
X189720000Y-150600000D03*
X192260000Y-150600000D03*
X194800000Y-150600000D03*
D14*
X176400000Y-141800000D03*
X171500000Y-152100000D03*
D15*
X168960000Y-152100000D03*
X166420000Y-152100000D03*
X163880000Y-152100000D03*
X161340000Y-152100000D03*
D14*
X175100000Y-152100000D03*
D18*
X159249560Y-126748800D03*
X163750440Y-133251200D03*
X163750440Y-126748800D03*
X159249560Y-133251200D03*
D19*
X189200000Y-119600000D03*
D20*
X187200000Y-119600000D03*
X185200000Y-119600000D03*
X183200000Y-119600000D03*
X181200000Y-119600000D03*
X179200000Y-119600000D03*
X177200000Y-119600000D03*
X175200000Y-119600000D03*
X175200000Y-135000000D03*
X177200000Y-134900000D03*
X179200000Y-135000000D03*
X181200000Y-135000000D03*
X183200000Y-135000000D03*
X185200000Y-135000000D03*
X187200000Y-135000000D03*
X189200000Y-135000000D03*
D21*
X173500000Y-122290000D03*
X173500000Y-124290000D03*
X173500000Y-126290000D03*
X173500000Y-128290000D03*
X173500000Y-130290000D03*
X173500000Y-132290000D03*
D22*
X136499600Y-128066800D03*
X146558000Y-117754400D03*
X137769600Y-118516400D03*
X129032000Y-115163600D03*
X181457600Y-110032800D03*
X175260000Y-109728000D03*
X163830000Y-137617200D03*
X160551988Y-139598400D03*
X179120800Y-140462000D03*
X191820800Y-105054400D03*
X187452000Y-105003600D03*
X185978800Y-112217200D03*
X181508400Y-112268000D03*
X175361600Y-101803200D03*
X123596400Y-133858000D03*
X192836800Y-147574000D03*
X186232800Y-138836400D03*
X184607200Y-142849600D03*
X188569600Y-147624800D03*
X191770000Y-139801600D03*
X162052000Y-139547600D03*
X159105600Y-141579600D03*
X160172400Y-103886000D03*
X165303200Y-111760000D03*
X159308800Y-119532400D03*
X167030400Y-141122400D03*
X169113200Y-138430000D03*
X173685200Y-137414000D03*
X162712400Y-120497600D03*
X167030400Y-125933200D03*
X162560000Y-117094000D03*
X191922400Y-144119600D03*
X191549952Y-141494848D03*
X182321200Y-123748800D03*
X159664400Y-151790400D03*
X160223200Y-146608800D03*
X176428400Y-145694400D03*
X168960800Y-148742400D03*
X158038800Y-150215600D03*
X165150800Y-150164800D03*
X176276000Y-133096000D03*
X172313600Y-134315200D03*
X189788800Y-144221200D03*
X180136800Y-112623600D03*
X179781200Y-106578400D03*
X129133600Y-136753600D03*
X147828000Y-131978400D03*
X147726400Y-136753600D03*
X129184400Y-134264400D03*
X162458400Y-136702800D03*
X167741600Y-119380000D03*
X168249600Y-139039600D03*
X166217600Y-137566400D03*
X160883600Y-125374400D03*
X108102400Y-131419600D03*
X124155200Y-131368800D03*
X153771600Y-120396000D03*
X185928000Y-137566400D03*
X170637200Y-148336000D03*
D23*
X181457600Y-110032800D02*
X179832000Y-110032800D01*
X179527200Y-109728000D02*
X175260000Y-109728000D01*
X179832000Y-110032800D02*
X179527200Y-109728000D01*
X162533188Y-137617200D02*
X160551988Y-139598400D01*
X163830000Y-137617200D02*
X162533188Y-137617200D01*
X187958799Y-149299999D02*
X179120800Y-140462000D01*
X190959999Y-149299999D02*
X187958799Y-149299999D01*
X192260000Y-150600000D02*
X190959999Y-149299999D01*
X123554400Y-133900000D02*
X123596400Y-133858000D01*
X118810000Y-133900000D02*
X123554400Y-133900000D01*
X170129200Y-137414000D02*
X169113200Y-138430000D01*
X173685200Y-137414000D02*
X170129200Y-137414000D01*
X161747200Y-119532400D02*
X162712400Y-120497600D01*
X159308800Y-119532400D02*
X161747200Y-119532400D01*
X162712400Y-122816402D02*
X162712400Y-120497600D01*
X167030400Y-125933200D02*
X165829198Y-125933200D01*
X165303200Y-114350800D02*
X165303200Y-111760000D01*
X162560000Y-117094000D02*
X165303200Y-114350800D01*
X163838999Y-124514993D02*
X163838999Y-123943001D01*
X161605192Y-126748800D02*
X163838999Y-124514993D01*
X159249560Y-126748800D02*
X161605192Y-126748800D01*
X163838999Y-123943001D02*
X162712400Y-122816402D01*
X165829198Y-125933200D02*
X163838999Y-123943001D01*
X165303200Y-111760000D02*
X165303200Y-111150400D01*
X160172400Y-106019600D02*
X160172400Y-103886000D01*
X165303200Y-111150400D02*
X160172400Y-106019600D01*
X191922400Y-144119600D02*
X191922400Y-141867296D01*
X191922400Y-141867296D02*
X191549952Y-141494848D01*
X181862400Y-123290000D02*
X165152400Y-123290000D01*
X182321200Y-123748800D02*
X181862400Y-123290000D01*
X165152400Y-123290000D02*
X165150800Y-123291600D01*
X165150800Y-123291600D02*
X165201600Y-123342400D01*
X165201600Y-150215600D02*
X165150800Y-150164800D01*
X169615600Y-150215600D02*
X165201600Y-150215600D01*
X171500000Y-152100000D02*
X169615600Y-150215600D01*
X165150800Y-150164800D02*
X158038800Y-150215600D01*
X163529999Y-103049999D02*
X162680000Y-102200000D01*
X165000000Y-120640000D02*
X166350001Y-119289999D01*
X166350001Y-119289999D02*
X166350001Y-105870001D01*
X166350001Y-105870001D02*
X163529999Y-103049999D01*
D24*
X179996000Y-133096000D02*
X176276000Y-133096000D01*
X181200000Y-134300000D02*
X179996000Y-133096000D01*
X172313600Y-134315200D02*
X167436800Y-134315200D01*
X167436800Y-134315200D02*
X167335200Y-134213600D01*
X189788800Y-144221200D02*
X183997600Y-138430000D01*
X183967600Y-138400000D02*
X183997600Y-138430000D01*
X183184800Y-138400000D02*
X183967600Y-138400000D01*
X181200000Y-113686800D02*
X180136800Y-112623600D01*
X181200000Y-120300000D02*
X181200000Y-113686800D01*
X179781200Y-106578400D02*
X173685200Y-106578400D01*
X173685200Y-106578400D02*
X173024800Y-107238800D01*
X173024800Y-107238800D02*
X173024800Y-113334800D01*
X173024800Y-113334800D02*
X177292000Y-117602000D01*
X177200000Y-118100400D02*
X177292000Y-118008400D01*
X177200000Y-120300000D02*
X177200000Y-118100400D01*
X177292000Y-118008400D02*
X177292000Y-118567200D01*
X177292000Y-117602000D02*
X177292000Y-118008400D01*
X147828000Y-136652000D02*
X147726400Y-136753600D01*
X147828000Y-131978400D02*
X147828000Y-136652000D01*
X172716482Y-135440001D02*
X176076483Y-132080000D01*
X151289601Y-135440001D02*
X172716482Y-135440001D01*
X147828000Y-131978400D02*
X151289601Y-135440001D01*
X176076483Y-132080000D02*
X183997600Y-132080000D01*
X183997600Y-132080000D02*
X185267600Y-133350000D01*
X185200000Y-133417600D02*
X185267600Y-133350000D01*
X185200000Y-134300000D02*
X185200000Y-133417600D01*
X111310000Y-128820000D02*
X109010000Y-128820000D01*
X109010000Y-128820000D02*
X107352398Y-130477602D01*
X107352398Y-130477602D02*
X107352398Y-134526320D01*
X107352398Y-134526320D02*
X109579678Y-136753600D01*
X109579678Y-136753600D02*
X129133600Y-136753600D01*
X129184400Y-134264400D02*
X124002800Y-129082800D01*
X123740000Y-128820000D02*
X124002800Y-129082800D01*
X118810000Y-128820000D02*
X123740000Y-128820000D01*
X183200000Y-134972806D02*
X181470006Y-136702800D01*
X162858399Y-136302801D02*
X162458400Y-136702800D01*
X183200000Y-134300000D02*
X183200000Y-134972806D01*
X181470006Y-136702800D02*
X174084002Y-136702800D01*
X174084002Y-136702800D02*
X173684003Y-136302801D01*
X173684003Y-136302801D02*
X162858399Y-136302801D01*
X167741600Y-119380000D02*
X167741600Y-105511600D01*
X168513200Y-104740000D02*
X168376600Y-104876600D01*
X168376600Y-104876600D02*
X168503600Y-104749600D01*
X169900000Y-104740000D02*
X168513200Y-104740000D01*
X167741600Y-105511600D02*
X168376600Y-104876600D01*
X167690800Y-139039600D02*
X166217600Y-137566400D01*
X168249600Y-139039600D02*
X167690800Y-139039600D01*
X169561610Y-121200010D02*
X167741600Y-119380000D01*
X182299990Y-121200010D02*
X169561610Y-121200010D01*
X183200000Y-120300000D02*
X182299990Y-121200010D01*
D23*
X154238800Y-118100000D02*
X154051000Y-118287800D01*
X165000000Y-118100000D02*
X154238800Y-118100000D01*
X154051000Y-118287800D02*
X154279600Y-118059200D01*
X113290411Y-135880411D02*
X125673732Y-135880411D01*
X111310000Y-133900000D02*
X113290411Y-135880411D01*
X126254142Y-135300001D02*
X137038799Y-135300001D01*
X125673732Y-135880411D02*
X126254142Y-135300001D01*
X137038799Y-135300001D02*
X154051000Y-118287800D01*
D24*
X111310000Y-131360000D02*
X108162000Y-131360000D01*
X108162000Y-131360000D02*
X108102400Y-131419600D01*
X111310000Y-126280000D02*
X111310000Y-125080000D01*
X111310000Y-125080000D02*
X125239600Y-111150400D01*
X125239600Y-111150400D02*
X157124400Y-111150400D01*
X118810000Y-126280000D02*
X133460400Y-126280000D01*
X133460400Y-126280000D02*
X147370800Y-112369600D01*
X147370800Y-112369600D02*
X157073600Y-112369600D01*
X124146400Y-131360000D02*
X124155200Y-131368800D01*
X118810000Y-131360000D02*
X124146400Y-131360000D01*
X104100000Y-148400000D02*
X101765600Y-148400000D01*
X99528000Y-148400000D02*
X101765600Y-148400000D01*
X104100000Y-148400000D02*
X125666000Y-148400000D01*
X153670000Y-120396000D02*
X153771600Y-120396000D01*
X125666000Y-148400000D02*
X153670000Y-120396000D01*
X186606406Y-137566400D02*
X187266806Y-136906000D01*
X185928000Y-137566400D02*
X186606406Y-137566400D01*
X187266806Y-136906000D02*
X189179200Y-136906000D01*
X189200000Y-136885200D02*
X189179200Y-136906000D01*
X189200000Y-134300000D02*
X189200000Y-136885200D01*
X174401200Y-152100000D02*
X170637200Y-148336000D01*
X175100000Y-152100000D02*
X174401200Y-152100000D01*
X170398138Y-125190010D02*
X186366390Y-125190010D01*
X163750440Y-131837708D02*
X170398138Y-125190010D01*
X163750440Y-133251200D02*
X163750440Y-131837708D01*
X186366390Y-125190010D02*
X189230000Y-122326400D01*
X189200000Y-122296400D02*
X189230000Y-122326400D01*
X189200000Y-120300000D02*
X189200000Y-122296400D01*
D25*
X163524188Y-119074482D02*
X163560498Y-119194180D01*
X163619463Y-119304494D01*
X163698815Y-119401185D01*
X163795506Y-119480537D01*
X163905820Y-119539502D01*
X163978380Y-119561513D01*
X163846525Y-119693368D01*
X163684010Y-119936589D01*
X163572068Y-120206842D01*
X163515000Y-120493740D01*
X163515000Y-120786260D01*
X163572068Y-121073158D01*
X163684010Y-121343411D01*
X163846525Y-121586632D01*
X164053368Y-121793475D01*
X164227760Y-121910000D01*
X164053368Y-122026525D01*
X163846525Y-122233368D01*
X163684010Y-122476589D01*
X163572068Y-122746842D01*
X163515000Y-123033740D01*
X163515000Y-123326260D01*
X163572068Y-123613158D01*
X163684010Y-123883411D01*
X163846525Y-124126632D01*
X164053368Y-124333475D01*
X164296589Y-124495990D01*
X164566842Y-124607932D01*
X164853740Y-124665000D01*
X165146260Y-124665000D01*
X165433158Y-124607932D01*
X165703411Y-124495990D01*
X165946632Y-124333475D01*
X166105107Y-124175000D01*
X171620594Y-124175000D01*
X171609267Y-124290000D01*
X171620595Y-124405010D01*
X170436694Y-124405010D01*
X170398138Y-124401213D01*
X170359582Y-124405010D01*
X170359577Y-124405010D01*
X170319164Y-124408990D01*
X170244251Y-124416368D01*
X170109665Y-124457195D01*
X170096278Y-124461256D01*
X169959905Y-124534148D01*
X169840374Y-124632246D01*
X169815793Y-124662198D01*
X163222625Y-131255366D01*
X163192677Y-131279944D01*
X163168099Y-131309892D01*
X163168095Y-131309896D01*
X163135130Y-131350064D01*
X163094579Y-131399475D01*
X163081397Y-131424138D01*
X163021686Y-131535849D01*
X162976799Y-131683822D01*
X162964304Y-131810694D01*
X162708513Y-131981608D01*
X162480848Y-132209273D01*
X162301973Y-132476978D01*
X162178762Y-132774437D01*
X162115950Y-133090217D01*
X162115950Y-133412183D01*
X162178762Y-133727963D01*
X162301973Y-134025422D01*
X162480848Y-134293127D01*
X162708513Y-134520792D01*
X162909371Y-134655001D01*
X160090629Y-134655001D01*
X160291487Y-134520792D01*
X160519152Y-134293127D01*
X160698027Y-134025422D01*
X160821238Y-133727963D01*
X160884050Y-133412183D01*
X160884050Y-133090217D01*
X160821238Y-132774437D01*
X160698027Y-132476978D01*
X160519152Y-132209273D01*
X160291487Y-131981608D01*
X160023782Y-131802733D01*
X159726323Y-131679522D01*
X159410543Y-131616710D01*
X159088577Y-131616710D01*
X158772797Y-131679522D01*
X158475338Y-131802733D01*
X158207633Y-131981608D01*
X157979968Y-132209273D01*
X157801093Y-132476978D01*
X157677882Y-132774437D01*
X157615070Y-133090217D01*
X157615070Y-133412183D01*
X157677882Y-133727963D01*
X157801093Y-134025422D01*
X157979968Y-134293127D01*
X158207633Y-134520792D01*
X158408491Y-134655001D01*
X151614759Y-134655001D01*
X148863000Y-131903243D01*
X148863000Y-131876461D01*
X148823226Y-131676502D01*
X148745205Y-131488144D01*
X148631937Y-131318626D01*
X148487774Y-131174463D01*
X148318256Y-131061195D01*
X148129898Y-130983174D01*
X147929939Y-130943400D01*
X147726061Y-130943400D01*
X147526102Y-130983174D01*
X147337744Y-131061195D01*
X147168226Y-131174463D01*
X147024063Y-131318626D01*
X146910795Y-131488144D01*
X146832774Y-131676502D01*
X146793000Y-131876461D01*
X146793000Y-132080339D01*
X146832774Y-132280298D01*
X146910795Y-132468656D01*
X147024063Y-132638174D01*
X147043000Y-132657111D01*
X147043001Y-135973288D01*
X146922463Y-136093826D01*
X146809195Y-136263344D01*
X146731174Y-136451702D01*
X146691400Y-136651661D01*
X146691400Y-136855539D01*
X146731174Y-137055498D01*
X146809195Y-137243856D01*
X146922463Y-137413374D01*
X147066626Y-137557537D01*
X147236144Y-137670805D01*
X147424502Y-137748826D01*
X147624461Y-137788600D01*
X147828339Y-137788600D01*
X148028298Y-137748826D01*
X148216656Y-137670805D01*
X148386174Y-137557537D01*
X148530337Y-137413374D01*
X148643605Y-137243856D01*
X148721626Y-137055498D01*
X148761400Y-136855539D01*
X148761400Y-136651661D01*
X148721626Y-136451702D01*
X148643605Y-136263344D01*
X148613000Y-136217540D01*
X148613000Y-133873557D01*
X150707259Y-135967817D01*
X150731837Y-135997765D01*
X150761785Y-136022343D01*
X150761788Y-136022346D01*
X150782582Y-136039411D01*
X150851368Y-136095863D01*
X150987741Y-136168755D01*
X151135714Y-136213642D01*
X151251040Y-136225001D01*
X151251047Y-136225001D01*
X151289600Y-136228798D01*
X151328153Y-136225001D01*
X161536035Y-136225001D01*
X161463174Y-136400902D01*
X161423400Y-136600861D01*
X161423400Y-136804739D01*
X161463174Y-137004698D01*
X161541195Y-137193056D01*
X161607108Y-137291702D01*
X160306945Y-138591865D01*
X160250090Y-138603174D01*
X160061732Y-138681195D01*
X159892214Y-138794463D01*
X159748051Y-138938626D01*
X159634783Y-139108144D01*
X159556762Y-139296502D01*
X159516988Y-139496461D01*
X159516988Y-139700339D01*
X159556762Y-139900298D01*
X159634783Y-140088656D01*
X159748051Y-140258174D01*
X159892214Y-140402337D01*
X160061732Y-140515605D01*
X160250090Y-140593626D01*
X160450049Y-140633400D01*
X160653927Y-140633400D01*
X160853886Y-140593626D01*
X161042244Y-140515605D01*
X161211762Y-140402337D01*
X161355925Y-140258174D01*
X161469193Y-140088656D01*
X161547214Y-139900298D01*
X161558523Y-139843443D01*
X162899767Y-138502200D01*
X163291546Y-138502200D01*
X163339744Y-138534405D01*
X163528102Y-138612426D01*
X163728061Y-138652200D01*
X163931939Y-138652200D01*
X164131898Y-138612426D01*
X164320256Y-138534405D01*
X164489774Y-138421137D01*
X164633937Y-138276974D01*
X164747205Y-138107456D01*
X164825226Y-137919098D01*
X164865000Y-137719139D01*
X164865000Y-137515261D01*
X164825226Y-137315302D01*
X164747205Y-137126944D01*
X164721051Y-137087801D01*
X165295566Y-137087801D01*
X165222374Y-137264502D01*
X165182600Y-137464461D01*
X165182600Y-137668339D01*
X165222374Y-137868298D01*
X165300395Y-138056656D01*
X165413663Y-138226174D01*
X165557826Y-138370337D01*
X165727344Y-138483605D01*
X165915702Y-138561626D01*
X166115661Y-138601400D01*
X166142443Y-138601400D01*
X167108458Y-139567416D01*
X167133036Y-139597364D01*
X167162984Y-139621942D01*
X167162987Y-139621945D01*
X167185489Y-139640412D01*
X167252567Y-139695462D01*
X167388940Y-139768354D01*
X167500601Y-139802226D01*
X167536912Y-139813241D01*
X167551290Y-139814657D01*
X167562001Y-139815712D01*
X167589826Y-139843537D01*
X167759344Y-139956805D01*
X167947702Y-140034826D01*
X168147661Y-140074600D01*
X168351539Y-140074600D01*
X168551498Y-140034826D01*
X168739856Y-139956805D01*
X168909374Y-139843537D01*
X169053537Y-139699374D01*
X169166805Y-139529856D01*
X169244826Y-139341498D01*
X169284600Y-139141539D01*
X169284600Y-138937661D01*
X169244826Y-138737702D01*
X169166805Y-138549344D01*
X169053537Y-138379826D01*
X168909374Y-138235663D01*
X168739856Y-138122395D01*
X168551498Y-138044374D01*
X168351539Y-138004600D01*
X168147661Y-138004600D01*
X167947702Y-138044374D01*
X167847314Y-138085956D01*
X167252600Y-137491243D01*
X167252600Y-137464461D01*
X167212826Y-137264502D01*
X167139634Y-137087801D01*
X173358846Y-137087801D01*
X173501655Y-137230610D01*
X173526238Y-137260564D01*
X173645769Y-137358662D01*
X173782142Y-137431554D01*
X173930115Y-137476441D01*
X174045441Y-137487800D01*
X174045448Y-137487800D01*
X174084001Y-137491597D01*
X174122554Y-137487800D01*
X181431453Y-137487800D01*
X181470006Y-137491597D01*
X181508559Y-137487800D01*
X181508567Y-137487800D01*
X181623893Y-137476441D01*
X181706439Y-137451401D01*
X181696728Y-137550000D01*
X181696728Y-139250000D01*
X181708988Y-139374482D01*
X181745298Y-139494180D01*
X181804263Y-139604494D01*
X181883615Y-139701185D01*
X181980306Y-139780537D01*
X182090620Y-139839502D01*
X182210318Y-139875812D01*
X182334800Y-139888072D01*
X184034800Y-139888072D01*
X184159282Y-139875812D01*
X184278980Y-139839502D01*
X184290687Y-139833244D01*
X188753800Y-144296357D01*
X188753800Y-144323139D01*
X188793574Y-144523098D01*
X188871595Y-144711456D01*
X188984863Y-144880974D01*
X189129026Y-145025137D01*
X189298544Y-145138405D01*
X189486902Y-145216426D01*
X189686861Y-145256200D01*
X189890739Y-145256200D01*
X190090698Y-145216426D01*
X190279056Y-145138405D01*
X190448574Y-145025137D01*
X190592737Y-144880974D01*
X190706005Y-144711456D01*
X190784026Y-144523098D01*
X190823800Y-144323139D01*
X190823800Y-144119261D01*
X190784026Y-143919302D01*
X190706005Y-143730944D01*
X190592737Y-143561426D01*
X190448574Y-143417263D01*
X190279056Y-143303995D01*
X190090698Y-143225974D01*
X189890739Y-143186200D01*
X189863957Y-143186200D01*
X184672872Y-137995115D01*
X184672872Y-137550000D01*
X184660612Y-137425518D01*
X184624302Y-137305820D01*
X184565337Y-137195506D01*
X184485985Y-137098815D01*
X184389294Y-137019463D01*
X184278980Y-136960498D01*
X184159282Y-136924188D01*
X184034800Y-136911928D01*
X182371035Y-136911928D01*
X182573942Y-136709021D01*
X182744326Y-136800094D01*
X182967700Y-136867853D01*
X183200000Y-136890733D01*
X183432299Y-136867853D01*
X183655673Y-136800094D01*
X183861535Y-136690058D01*
X184041975Y-136541975D01*
X184190058Y-136361536D01*
X184200000Y-136342935D01*
X184209942Y-136361535D01*
X184358025Y-136541975D01*
X184538464Y-136690058D01*
X184744326Y-136800094D01*
X184967700Y-136867853D01*
X185145340Y-136885349D01*
X185124063Y-136906626D01*
X185010795Y-137076144D01*
X184932774Y-137264502D01*
X184893000Y-137464461D01*
X184893000Y-137668339D01*
X184932774Y-137868298D01*
X185010795Y-138056656D01*
X185124063Y-138226174D01*
X185268226Y-138370337D01*
X185437744Y-138483605D01*
X185626102Y-138561626D01*
X185826061Y-138601400D01*
X186029939Y-138601400D01*
X186229898Y-138561626D01*
X186418256Y-138483605D01*
X186587774Y-138370337D01*
X186603227Y-138354884D01*
X186606406Y-138355197D01*
X186644959Y-138351400D01*
X186644967Y-138351400D01*
X186760293Y-138340041D01*
X186908266Y-138295154D01*
X187044639Y-138222262D01*
X187164170Y-138124164D01*
X187188753Y-138094210D01*
X187591963Y-137691000D01*
X189140647Y-137691000D01*
X189179200Y-137694797D01*
X189217753Y-137691000D01*
X189217761Y-137691000D01*
X189333087Y-137679641D01*
X189481060Y-137634754D01*
X189617433Y-137561862D01*
X189736964Y-137463764D01*
X189746340Y-137452340D01*
X189757764Y-137442964D01*
X189855862Y-137323433D01*
X189928754Y-137187060D01*
X189958126Y-137090233D01*
X189973642Y-137039086D01*
X189982035Y-136953860D01*
X189985000Y-136923761D01*
X189985000Y-136923755D01*
X189988797Y-136885200D01*
X189985000Y-136846644D01*
X189985000Y-136588733D01*
X190041975Y-136541975D01*
X190190058Y-136361536D01*
X190300094Y-136155674D01*
X190308792Y-136127000D01*
X197340001Y-136127000D01*
X197340001Y-137840694D01*
X197129602Y-137776870D01*
X196948165Y-137759000D01*
X196126835Y-137759000D01*
X195945398Y-137776870D01*
X195712599Y-137847489D01*
X195498051Y-137962167D01*
X195309998Y-138116498D01*
X195155667Y-138304551D01*
X195040989Y-138519099D01*
X194970370Y-138751898D01*
X194946525Y-138994000D01*
X194970370Y-139236102D01*
X194973383Y-139246035D01*
X194893881Y-139127051D01*
X194704449Y-138937619D01*
X194481701Y-138788784D01*
X194234197Y-138686264D01*
X193971448Y-138634000D01*
X193703552Y-138634000D01*
X193440803Y-138686264D01*
X193193299Y-138788784D01*
X192970551Y-138937619D01*
X192781119Y-139127051D01*
X192632284Y-139349799D01*
X192529764Y-139597303D01*
X192477500Y-139860052D01*
X192477500Y-140127948D01*
X192529764Y-140390697D01*
X192632284Y-140638201D01*
X192781119Y-140860949D01*
X192970551Y-141050381D01*
X193193299Y-141199216D01*
X193440803Y-141301736D01*
X193703552Y-141354000D01*
X193971448Y-141354000D01*
X194234197Y-141301736D01*
X194481701Y-141199216D01*
X194704449Y-141050381D01*
X194893881Y-140860949D01*
X195042716Y-140638201D01*
X195145236Y-140390697D01*
X195197500Y-140127948D01*
X195197500Y-139860052D01*
X195164516Y-139694232D01*
X195309998Y-139871502D01*
X195498051Y-140025833D01*
X195712599Y-140140511D01*
X195945398Y-140211130D01*
X196126835Y-140229000D01*
X196948165Y-140229000D01*
X197129602Y-140211130D01*
X197340001Y-140147306D01*
X197340001Y-144840694D01*
X197129602Y-144776870D01*
X196948165Y-144759000D01*
X196126835Y-144759000D01*
X195945398Y-144776870D01*
X195712599Y-144847489D01*
X195498051Y-144962167D01*
X195309998Y-145116498D01*
X195164516Y-145293768D01*
X195197500Y-145127948D01*
X195197500Y-144860052D01*
X195145236Y-144597303D01*
X195042716Y-144349799D01*
X194893881Y-144127051D01*
X194704449Y-143937619D01*
X194481701Y-143788784D01*
X194234197Y-143686264D01*
X193971448Y-143634000D01*
X193703552Y-143634000D01*
X193440803Y-143686264D01*
X193193299Y-143788784D01*
X192970551Y-143937619D01*
X192946302Y-143961868D01*
X192917626Y-143817702D01*
X192839605Y-143629344D01*
X192807400Y-143581146D01*
X192807400Y-141910762D01*
X192811681Y-141867295D01*
X192807400Y-141823829D01*
X192807400Y-141823819D01*
X192794595Y-141693806D01*
X192743989Y-141526983D01*
X192661811Y-141373237D01*
X192555199Y-141243332D01*
X192545178Y-141192950D01*
X192467157Y-141004592D01*
X192353889Y-140835074D01*
X192209726Y-140690911D01*
X192040208Y-140577643D01*
X191851850Y-140499622D01*
X191651891Y-140459848D01*
X191448013Y-140459848D01*
X191248054Y-140499622D01*
X191059696Y-140577643D01*
X190890178Y-140690911D01*
X190746015Y-140835074D01*
X190632747Y-141004592D01*
X190554726Y-141192950D01*
X190514952Y-141392909D01*
X190514952Y-141596787D01*
X190554726Y-141796746D01*
X190632747Y-141985104D01*
X190746015Y-142154622D01*
X190890178Y-142298785D01*
X191037401Y-142397156D01*
X191037400Y-143581145D01*
X191005195Y-143629344D01*
X190927174Y-143817702D01*
X190887400Y-144017661D01*
X190887400Y-144221539D01*
X190927174Y-144421498D01*
X191005195Y-144609856D01*
X191118463Y-144779374D01*
X191262626Y-144923537D01*
X191432144Y-145036805D01*
X191620502Y-145114826D01*
X191820461Y-145154600D01*
X192024339Y-145154600D01*
X192224298Y-145114826D01*
X192412656Y-145036805D01*
X192477500Y-144993478D01*
X192477500Y-145127948D01*
X192529764Y-145390697D01*
X192632284Y-145638201D01*
X192781119Y-145860949D01*
X192970551Y-146050381D01*
X193193299Y-146199216D01*
X193440803Y-146301736D01*
X193703552Y-146354000D01*
X193971448Y-146354000D01*
X194234197Y-146301736D01*
X194481701Y-146199216D01*
X194704449Y-146050381D01*
X194893881Y-145860949D01*
X194973383Y-145741965D01*
X194970370Y-145751898D01*
X194946525Y-145994000D01*
X194970370Y-146236102D01*
X195040989Y-146468901D01*
X195155667Y-146683449D01*
X195309998Y-146871502D01*
X195498051Y-147025833D01*
X195712599Y-147140511D01*
X195945398Y-147211130D01*
X196126835Y-147229000D01*
X196948165Y-147229000D01*
X197129602Y-147211130D01*
X197340001Y-147147306D01*
X197340001Y-152467712D01*
X197320898Y-152662540D01*
X197273692Y-152818895D01*
X197197018Y-152963096D01*
X197093792Y-153089664D01*
X196967951Y-153193768D01*
X196824289Y-153271447D01*
X196668271Y-153319742D01*
X196475527Y-153340000D01*
X178201926Y-153340000D01*
X178201926Y-143671876D01*
X178199486Y-143647100D01*
X178192259Y-143623275D01*
X178180523Y-143601319D01*
X178164729Y-143582073D01*
X178145483Y-143566279D01*
X178123527Y-143554543D01*
X178099702Y-143547316D01*
X178075349Y-143544877D01*
X156475349Y-143473001D01*
X156450564Y-143475359D01*
X156426716Y-143482506D01*
X156404720Y-143494169D01*
X156385423Y-143509899D01*
X156369565Y-143529092D01*
X156357756Y-143551009D01*
X156350449Y-143574809D01*
X156347926Y-143600000D01*
X156347926Y-153340000D01*
X101532277Y-153340000D01*
X101337460Y-153320898D01*
X101181105Y-153273692D01*
X101036904Y-153197018D01*
X100910336Y-153093792D01*
X100806232Y-152967951D01*
X100728553Y-152824289D01*
X100680258Y-152668271D01*
X100657188Y-152448769D01*
X100657272Y-152436693D01*
X100656373Y-152427522D01*
X100646173Y-152330473D01*
X100634140Y-152271854D01*
X100622936Y-152213116D01*
X100620272Y-152204294D01*
X100591416Y-152111075D01*
X100568238Y-152055937D01*
X100545825Y-152000463D01*
X100541498Y-151992327D01*
X100519411Y-151951478D01*
X100689714Y-151811714D01*
X100894031Y-151562752D01*
X101045852Y-151278715D01*
X101139343Y-150970516D01*
X101163000Y-150730322D01*
X101163000Y-149185000D01*
X102465001Y-149185000D01*
X102465001Y-150730322D01*
X102488658Y-150970516D01*
X102582149Y-151278715D01*
X102733970Y-151562752D01*
X102938287Y-151811714D01*
X103187249Y-152016031D01*
X103471286Y-152167852D01*
X103779485Y-152261343D01*
X104100000Y-152292911D01*
X104420516Y-152261343D01*
X104728715Y-152167852D01*
X105012752Y-152016031D01*
X105261714Y-151811714D01*
X105466031Y-151562752D01*
X105617852Y-151278715D01*
X105711343Y-150970516D01*
X105735000Y-150730322D01*
X105735000Y-149185000D01*
X125627447Y-149185000D01*
X125666000Y-149188797D01*
X125704553Y-149185000D01*
X125704561Y-149185000D01*
X125819887Y-149173641D01*
X125967860Y-149128754D01*
X126104233Y-149055862D01*
X126223764Y-148957764D01*
X126248347Y-148927810D01*
X134226157Y-140950000D01*
X174911928Y-140950000D01*
X174911928Y-142650000D01*
X174924188Y-142774482D01*
X174960498Y-142894180D01*
X175019463Y-143004494D01*
X175098815Y-143101185D01*
X175195506Y-143180537D01*
X175305820Y-143239502D01*
X175425518Y-143275812D01*
X175550000Y-143288072D01*
X177250000Y-143288072D01*
X177374482Y-143275812D01*
X177494180Y-143239502D01*
X177604494Y-143180537D01*
X177701185Y-143101185D01*
X177780537Y-143004494D01*
X177839502Y-142894180D01*
X177875812Y-142774482D01*
X177888072Y-142650000D01*
X177888072Y-140950000D01*
X177875812Y-140825518D01*
X177839502Y-140705820D01*
X177780537Y-140595506D01*
X177701185Y-140498815D01*
X177604494Y-140419463D01*
X177494180Y-140360498D01*
X177492740Y-140360061D01*
X178085800Y-140360061D01*
X178085800Y-140563939D01*
X178125574Y-140763898D01*
X178203595Y-140952256D01*
X178316863Y-141121774D01*
X178461026Y-141265937D01*
X178630544Y-141379205D01*
X178818902Y-141457226D01*
X178875757Y-141468535D01*
X186628364Y-149221143D01*
X186476589Y-149284010D01*
X186233368Y-149446525D01*
X186026525Y-149653368D01*
X185910000Y-149827760D01*
X185793475Y-149653368D01*
X185586632Y-149446525D01*
X185343411Y-149284010D01*
X185073158Y-149172068D01*
X184786260Y-149115000D01*
X184493740Y-149115000D01*
X184206842Y-149172068D01*
X183936589Y-149284010D01*
X183693368Y-149446525D01*
X183561513Y-149578380D01*
X183539502Y-149505820D01*
X183480537Y-149395506D01*
X183401185Y-149298815D01*
X183304494Y-149219463D01*
X183194180Y-149160498D01*
X183074482Y-149124188D01*
X182950000Y-149111928D01*
X181250000Y-149111928D01*
X181125518Y-149124188D01*
X181005820Y-149160498D01*
X180895506Y-149219463D01*
X180798815Y-149298815D01*
X180719463Y-149395506D01*
X180660498Y-149505820D01*
X180624188Y-149625518D01*
X180611928Y-149750000D01*
X180611928Y-151450000D01*
X180624188Y-151574482D01*
X180660498Y-151694180D01*
X180719463Y-151804494D01*
X180798815Y-151901185D01*
X180895506Y-151980537D01*
X181005820Y-152039502D01*
X181125518Y-152075812D01*
X181250000Y-152088072D01*
X182950000Y-152088072D01*
X183074482Y-152075812D01*
X183194180Y-152039502D01*
X183304494Y-151980537D01*
X183401185Y-151901185D01*
X183480537Y-151804494D01*
X183539502Y-151694180D01*
X183561513Y-151621620D01*
X183693368Y-151753475D01*
X183936589Y-151915990D01*
X184206842Y-152027932D01*
X184493740Y-152085000D01*
X184786260Y-152085000D01*
X185073158Y-152027932D01*
X185343411Y-151915990D01*
X185586632Y-151753475D01*
X185793475Y-151546632D01*
X185910000Y-151372240D01*
X186026525Y-151546632D01*
X186233368Y-151753475D01*
X186476589Y-151915990D01*
X186746842Y-152027932D01*
X187033740Y-152085000D01*
X187326260Y-152085000D01*
X187613158Y-152027932D01*
X187883411Y-151915990D01*
X188126632Y-151753475D01*
X188333475Y-151546632D01*
X188450000Y-151372240D01*
X188566525Y-151546632D01*
X188773368Y-151753475D01*
X189016589Y-151915990D01*
X189286842Y-152027932D01*
X189573740Y-152085000D01*
X189866260Y-152085000D01*
X190153158Y-152027932D01*
X190423411Y-151915990D01*
X190666632Y-151753475D01*
X190873475Y-151546632D01*
X190990000Y-151372240D01*
X191106525Y-151546632D01*
X191313368Y-151753475D01*
X191556589Y-151915990D01*
X191826842Y-152027932D01*
X192113740Y-152085000D01*
X192406260Y-152085000D01*
X192693158Y-152027932D01*
X192963411Y-151915990D01*
X193206632Y-151753475D01*
X193413475Y-151546632D01*
X193535195Y-151364466D01*
X193604822Y-151481355D01*
X193799731Y-151697588D01*
X194033080Y-151871641D01*
X194295901Y-151996825D01*
X194443110Y-152041476D01*
X194673000Y-151920155D01*
X194673000Y-150727000D01*
X194927000Y-150727000D01*
X194927000Y-151920155D01*
X195156890Y-152041476D01*
X195304099Y-151996825D01*
X195566920Y-151871641D01*
X195800269Y-151697588D01*
X195995178Y-151481355D01*
X196144157Y-151231252D01*
X196241481Y-150956891D01*
X196120814Y-150727000D01*
X194927000Y-150727000D01*
X194673000Y-150727000D01*
X194653000Y-150727000D01*
X194653000Y-150473000D01*
X194673000Y-150473000D01*
X194673000Y-149279845D01*
X194927000Y-149279845D01*
X194927000Y-150473000D01*
X196120814Y-150473000D01*
X196241481Y-150243109D01*
X196144157Y-149968748D01*
X195995178Y-149718645D01*
X195800269Y-149502412D01*
X195566920Y-149328359D01*
X195304099Y-149203175D01*
X195156890Y-149158524D01*
X194927000Y-149279845D01*
X194673000Y-149279845D01*
X194443110Y-149158524D01*
X194295901Y-149203175D01*
X194033080Y-149328359D01*
X193799731Y-149502412D01*
X193604822Y-149718645D01*
X193535195Y-149835534D01*
X193413475Y-149653368D01*
X193206632Y-149446525D01*
X192963411Y-149284010D01*
X192693158Y-149172068D01*
X192406260Y-149115000D01*
X192113740Y-149115000D01*
X192041039Y-149129461D01*
X191616533Y-148704955D01*
X191588816Y-148671182D01*
X191454058Y-148560588D01*
X191300312Y-148478410D01*
X191133489Y-148427804D01*
X191003476Y-148414999D01*
X191003468Y-148414999D01*
X190959999Y-148410718D01*
X190916530Y-148414999D01*
X188325378Y-148414999D01*
X180127335Y-140216957D01*
X180116026Y-140160102D01*
X180038005Y-139971744D01*
X179924737Y-139802226D01*
X179780574Y-139658063D01*
X179611056Y-139544795D01*
X179422698Y-139466774D01*
X179222739Y-139427000D01*
X179018861Y-139427000D01*
X178818902Y-139466774D01*
X178630544Y-139544795D01*
X178461026Y-139658063D01*
X178316863Y-139802226D01*
X178203595Y-139971744D01*
X178125574Y-140160102D01*
X178085800Y-140360061D01*
X177492740Y-140360061D01*
X177374482Y-140324188D01*
X177250000Y-140311928D01*
X175550000Y-140311928D01*
X175425518Y-140324188D01*
X175305820Y-140360498D01*
X175195506Y-140419463D01*
X175098815Y-140498815D01*
X175019463Y-140595506D01*
X174960498Y-140705820D01*
X174924188Y-140825518D01*
X174911928Y-140950000D01*
X134226157Y-140950000D01*
X147292307Y-127883850D01*
X158294115Y-127883850D01*
X158389818Y-128148199D01*
X158679347Y-128289038D01*
X158990789Y-128370685D01*
X159312175Y-128390005D01*
X159631155Y-128346254D01*
X159935471Y-128241114D01*
X160109302Y-128148199D01*
X160205005Y-127883850D01*
X159249560Y-126928405D01*
X158294115Y-127883850D01*
X147292307Y-127883850D01*
X148364742Y-126811415D01*
X157608355Y-126811415D01*
X157652106Y-127130395D01*
X157757246Y-127434711D01*
X157850161Y-127608542D01*
X158114510Y-127704245D01*
X159069955Y-126748800D01*
X158114510Y-125793355D01*
X157850161Y-125889058D01*
X157709322Y-126178587D01*
X157627675Y-126490029D01*
X157608355Y-126811415D01*
X148364742Y-126811415D01*
X149562407Y-125613750D01*
X158294115Y-125613750D01*
X159249560Y-126569195D01*
X159263703Y-126555053D01*
X159443308Y-126734658D01*
X159429165Y-126748800D01*
X160384610Y-127704245D01*
X160648959Y-127608542D01*
X160789798Y-127319013D01*
X160871445Y-127007571D01*
X160890765Y-126686185D01*
X160877273Y-126587817D01*
X162115950Y-126587817D01*
X162115950Y-126909783D01*
X162178762Y-127225563D01*
X162301973Y-127523022D01*
X162480848Y-127790727D01*
X162708513Y-128018392D01*
X162976218Y-128197267D01*
X163273677Y-128320478D01*
X163589457Y-128383290D01*
X163911423Y-128383290D01*
X164227203Y-128320478D01*
X164524662Y-128197267D01*
X164792367Y-128018392D01*
X165020032Y-127790727D01*
X165198907Y-127523022D01*
X165322118Y-127225563D01*
X165384930Y-126909783D01*
X165384930Y-126587817D01*
X165322118Y-126272037D01*
X165198907Y-125974578D01*
X165020032Y-125706873D01*
X164792367Y-125479208D01*
X164524662Y-125300333D01*
X164227203Y-125177122D01*
X163911423Y-125114310D01*
X163589457Y-125114310D01*
X163273677Y-125177122D01*
X162976218Y-125300333D01*
X162708513Y-125479208D01*
X162480848Y-125706873D01*
X162301973Y-125974578D01*
X162178762Y-126272037D01*
X162115950Y-126587817D01*
X160877273Y-126587817D01*
X160852801Y-126409400D01*
X160985539Y-126409400D01*
X161185498Y-126369626D01*
X161373856Y-126291605D01*
X161543374Y-126178337D01*
X161687537Y-126034174D01*
X161800805Y-125864656D01*
X161878826Y-125676298D01*
X161918600Y-125476339D01*
X161918600Y-125272461D01*
X161878826Y-125072502D01*
X161800805Y-124884144D01*
X161687537Y-124714626D01*
X161543374Y-124570463D01*
X161373856Y-124457195D01*
X161185498Y-124379174D01*
X160985539Y-124339400D01*
X160781661Y-124339400D01*
X160581702Y-124379174D01*
X160393344Y-124457195D01*
X160223826Y-124570463D01*
X160079663Y-124714626D01*
X159966395Y-124884144D01*
X159888374Y-125072502D01*
X159857646Y-125226985D01*
X159819773Y-125208562D01*
X159508331Y-125126915D01*
X159186945Y-125107595D01*
X158867965Y-125151346D01*
X158563649Y-125256486D01*
X158389818Y-125349401D01*
X158294115Y-125613750D01*
X149562407Y-125613750D01*
X153745157Y-121431000D01*
X153873539Y-121431000D01*
X154073498Y-121391226D01*
X154261856Y-121313205D01*
X154431374Y-121199937D01*
X154575537Y-121055774D01*
X154688805Y-120886256D01*
X154766826Y-120697898D01*
X154806600Y-120497939D01*
X154806600Y-120294061D01*
X154766826Y-120094102D01*
X154688805Y-119905744D01*
X154575537Y-119736226D01*
X154431374Y-119592063D01*
X154261856Y-119478795D01*
X154155598Y-119434781D01*
X154605379Y-118985000D01*
X163515375Y-118985000D01*
X163524188Y-119074482D01*
G04 #@! TA.AperFunction,Conductor*
D26*
G36*
X163524188Y-119074482D02*
G01*
X163560498Y-119194180D01*
X163619463Y-119304494D01*
X163698815Y-119401185D01*
X163795506Y-119480537D01*
X163905820Y-119539502D01*
X163978380Y-119561513D01*
X163846525Y-119693368D01*
X163684010Y-119936589D01*
X163572068Y-120206842D01*
X163515000Y-120493740D01*
X163515000Y-120786260D01*
X163572068Y-121073158D01*
X163684010Y-121343411D01*
X163846525Y-121586632D01*
X164053368Y-121793475D01*
X164227760Y-121910000D01*
X164053368Y-122026525D01*
X163846525Y-122233368D01*
X163684010Y-122476589D01*
X163572068Y-122746842D01*
X163515000Y-123033740D01*
X163515000Y-123326260D01*
X163572068Y-123613158D01*
X163684010Y-123883411D01*
X163846525Y-124126632D01*
X164053368Y-124333475D01*
X164296589Y-124495990D01*
X164566842Y-124607932D01*
X164853740Y-124665000D01*
X165146260Y-124665000D01*
X165433158Y-124607932D01*
X165703411Y-124495990D01*
X165946632Y-124333475D01*
X166105107Y-124175000D01*
X171620594Y-124175000D01*
X171609267Y-124290000D01*
X171620595Y-124405010D01*
X170436694Y-124405010D01*
X170398138Y-124401213D01*
X170359582Y-124405010D01*
X170359577Y-124405010D01*
X170319164Y-124408990D01*
X170244251Y-124416368D01*
X170109665Y-124457195D01*
X170096278Y-124461256D01*
X169959905Y-124534148D01*
X169840374Y-124632246D01*
X169815793Y-124662198D01*
X163222625Y-131255366D01*
X163192677Y-131279944D01*
X163168099Y-131309892D01*
X163168095Y-131309896D01*
X163135130Y-131350064D01*
X163094579Y-131399475D01*
X163081397Y-131424138D01*
X163021686Y-131535849D01*
X162976799Y-131683822D01*
X162964304Y-131810694D01*
X162708513Y-131981608D01*
X162480848Y-132209273D01*
X162301973Y-132476978D01*
X162178762Y-132774437D01*
X162115950Y-133090217D01*
X162115950Y-133412183D01*
X162178762Y-133727963D01*
X162301973Y-134025422D01*
X162480848Y-134293127D01*
X162708513Y-134520792D01*
X162909371Y-134655001D01*
X160090629Y-134655001D01*
X160291487Y-134520792D01*
X160519152Y-134293127D01*
X160698027Y-134025422D01*
X160821238Y-133727963D01*
X160884050Y-133412183D01*
X160884050Y-133090217D01*
X160821238Y-132774437D01*
X160698027Y-132476978D01*
X160519152Y-132209273D01*
X160291487Y-131981608D01*
X160023782Y-131802733D01*
X159726323Y-131679522D01*
X159410543Y-131616710D01*
X159088577Y-131616710D01*
X158772797Y-131679522D01*
X158475338Y-131802733D01*
X158207633Y-131981608D01*
X157979968Y-132209273D01*
X157801093Y-132476978D01*
X157677882Y-132774437D01*
X157615070Y-133090217D01*
X157615070Y-133412183D01*
X157677882Y-133727963D01*
X157801093Y-134025422D01*
X157979968Y-134293127D01*
X158207633Y-134520792D01*
X158408491Y-134655001D01*
X151614759Y-134655001D01*
X148863000Y-131903243D01*
X148863000Y-131876461D01*
X148823226Y-131676502D01*
X148745205Y-131488144D01*
X148631937Y-131318626D01*
X148487774Y-131174463D01*
X148318256Y-131061195D01*
X148129898Y-130983174D01*
X147929939Y-130943400D01*
X147726061Y-130943400D01*
X147526102Y-130983174D01*
X147337744Y-131061195D01*
X147168226Y-131174463D01*
X147024063Y-131318626D01*
X146910795Y-131488144D01*
X146832774Y-131676502D01*
X146793000Y-131876461D01*
X146793000Y-132080339D01*
X146832774Y-132280298D01*
X146910795Y-132468656D01*
X147024063Y-132638174D01*
X147043000Y-132657111D01*
X147043001Y-135973288D01*
X146922463Y-136093826D01*
X146809195Y-136263344D01*
X146731174Y-136451702D01*
X146691400Y-136651661D01*
X146691400Y-136855539D01*
X146731174Y-137055498D01*
X146809195Y-137243856D01*
X146922463Y-137413374D01*
X147066626Y-137557537D01*
X147236144Y-137670805D01*
X147424502Y-137748826D01*
X147624461Y-137788600D01*
X147828339Y-137788600D01*
X148028298Y-137748826D01*
X148216656Y-137670805D01*
X148386174Y-137557537D01*
X148530337Y-137413374D01*
X148643605Y-137243856D01*
X148721626Y-137055498D01*
X148761400Y-136855539D01*
X148761400Y-136651661D01*
X148721626Y-136451702D01*
X148643605Y-136263344D01*
X148613000Y-136217540D01*
X148613000Y-133873557D01*
X150707259Y-135967817D01*
X150731837Y-135997765D01*
X150761785Y-136022343D01*
X150761788Y-136022346D01*
X150782582Y-136039411D01*
X150851368Y-136095863D01*
X150987741Y-136168755D01*
X151135714Y-136213642D01*
X151251040Y-136225001D01*
X151251047Y-136225001D01*
X151289600Y-136228798D01*
X151328153Y-136225001D01*
X161536035Y-136225001D01*
X161463174Y-136400902D01*
X161423400Y-136600861D01*
X161423400Y-136804739D01*
X161463174Y-137004698D01*
X161541195Y-137193056D01*
X161607108Y-137291702D01*
X160306945Y-138591865D01*
X160250090Y-138603174D01*
X160061732Y-138681195D01*
X159892214Y-138794463D01*
X159748051Y-138938626D01*
X159634783Y-139108144D01*
X159556762Y-139296502D01*
X159516988Y-139496461D01*
X159516988Y-139700339D01*
X159556762Y-139900298D01*
X159634783Y-140088656D01*
X159748051Y-140258174D01*
X159892214Y-140402337D01*
X160061732Y-140515605D01*
X160250090Y-140593626D01*
X160450049Y-140633400D01*
X160653927Y-140633400D01*
X160853886Y-140593626D01*
X161042244Y-140515605D01*
X161211762Y-140402337D01*
X161355925Y-140258174D01*
X161469193Y-140088656D01*
X161547214Y-139900298D01*
X161558523Y-139843443D01*
X162899767Y-138502200D01*
X163291546Y-138502200D01*
X163339744Y-138534405D01*
X163528102Y-138612426D01*
X163728061Y-138652200D01*
X163931939Y-138652200D01*
X164131898Y-138612426D01*
X164320256Y-138534405D01*
X164489774Y-138421137D01*
X164633937Y-138276974D01*
X164747205Y-138107456D01*
X164825226Y-137919098D01*
X164865000Y-137719139D01*
X164865000Y-137515261D01*
X164825226Y-137315302D01*
X164747205Y-137126944D01*
X164721051Y-137087801D01*
X165295566Y-137087801D01*
X165222374Y-137264502D01*
X165182600Y-137464461D01*
X165182600Y-137668339D01*
X165222374Y-137868298D01*
X165300395Y-138056656D01*
X165413663Y-138226174D01*
X165557826Y-138370337D01*
X165727344Y-138483605D01*
X165915702Y-138561626D01*
X166115661Y-138601400D01*
X166142443Y-138601400D01*
X167108458Y-139567416D01*
X167133036Y-139597364D01*
X167162984Y-139621942D01*
X167162987Y-139621945D01*
X167185489Y-139640412D01*
X167252567Y-139695462D01*
X167388940Y-139768354D01*
X167500601Y-139802226D01*
X167536912Y-139813241D01*
X167551290Y-139814657D01*
X167562001Y-139815712D01*
X167589826Y-139843537D01*
X167759344Y-139956805D01*
X167947702Y-140034826D01*
X168147661Y-140074600D01*
X168351539Y-140074600D01*
X168551498Y-140034826D01*
X168739856Y-139956805D01*
X168909374Y-139843537D01*
X169053537Y-139699374D01*
X169166805Y-139529856D01*
X169244826Y-139341498D01*
X169284600Y-139141539D01*
X169284600Y-138937661D01*
X169244826Y-138737702D01*
X169166805Y-138549344D01*
X169053537Y-138379826D01*
X168909374Y-138235663D01*
X168739856Y-138122395D01*
X168551498Y-138044374D01*
X168351539Y-138004600D01*
X168147661Y-138004600D01*
X167947702Y-138044374D01*
X167847314Y-138085956D01*
X167252600Y-137491243D01*
X167252600Y-137464461D01*
X167212826Y-137264502D01*
X167139634Y-137087801D01*
X173358846Y-137087801D01*
X173501655Y-137230610D01*
X173526238Y-137260564D01*
X173645769Y-137358662D01*
X173782142Y-137431554D01*
X173930115Y-137476441D01*
X174045441Y-137487800D01*
X174045448Y-137487800D01*
X174084001Y-137491597D01*
X174122554Y-137487800D01*
X181431453Y-137487800D01*
X181470006Y-137491597D01*
X181508559Y-137487800D01*
X181508567Y-137487800D01*
X181623893Y-137476441D01*
X181706439Y-137451401D01*
X181696728Y-137550000D01*
X181696728Y-139250000D01*
X181708988Y-139374482D01*
X181745298Y-139494180D01*
X181804263Y-139604494D01*
X181883615Y-139701185D01*
X181980306Y-139780537D01*
X182090620Y-139839502D01*
X182210318Y-139875812D01*
X182334800Y-139888072D01*
X184034800Y-139888072D01*
X184159282Y-139875812D01*
X184278980Y-139839502D01*
X184290687Y-139833244D01*
X188753800Y-144296357D01*
X188753800Y-144323139D01*
X188793574Y-144523098D01*
X188871595Y-144711456D01*
X188984863Y-144880974D01*
X189129026Y-145025137D01*
X189298544Y-145138405D01*
X189486902Y-145216426D01*
X189686861Y-145256200D01*
X189890739Y-145256200D01*
X190090698Y-145216426D01*
X190279056Y-145138405D01*
X190448574Y-145025137D01*
X190592737Y-144880974D01*
X190706005Y-144711456D01*
X190784026Y-144523098D01*
X190823800Y-144323139D01*
X190823800Y-144119261D01*
X190784026Y-143919302D01*
X190706005Y-143730944D01*
X190592737Y-143561426D01*
X190448574Y-143417263D01*
X190279056Y-143303995D01*
X190090698Y-143225974D01*
X189890739Y-143186200D01*
X189863957Y-143186200D01*
X184672872Y-137995115D01*
X184672872Y-137550000D01*
X184660612Y-137425518D01*
X184624302Y-137305820D01*
X184565337Y-137195506D01*
X184485985Y-137098815D01*
X184389294Y-137019463D01*
X184278980Y-136960498D01*
X184159282Y-136924188D01*
X184034800Y-136911928D01*
X182371035Y-136911928D01*
X182573942Y-136709021D01*
X182744326Y-136800094D01*
X182967700Y-136867853D01*
X183200000Y-136890733D01*
X183432299Y-136867853D01*
X183655673Y-136800094D01*
X183861535Y-136690058D01*
X184041975Y-136541975D01*
X184190058Y-136361536D01*
X184200000Y-136342935D01*
X184209942Y-136361535D01*
X184358025Y-136541975D01*
X184538464Y-136690058D01*
X184744326Y-136800094D01*
X184967700Y-136867853D01*
X185145340Y-136885349D01*
X185124063Y-136906626D01*
X185010795Y-137076144D01*
X184932774Y-137264502D01*
X184893000Y-137464461D01*
X184893000Y-137668339D01*
X184932774Y-137868298D01*
X185010795Y-138056656D01*
X185124063Y-138226174D01*
X185268226Y-138370337D01*
X185437744Y-138483605D01*
X185626102Y-138561626D01*
X185826061Y-138601400D01*
X186029939Y-138601400D01*
X186229898Y-138561626D01*
X186418256Y-138483605D01*
X186587774Y-138370337D01*
X186603227Y-138354884D01*
X186606406Y-138355197D01*
X186644959Y-138351400D01*
X186644967Y-138351400D01*
X186760293Y-138340041D01*
X186908266Y-138295154D01*
X187044639Y-138222262D01*
X187164170Y-138124164D01*
X187188753Y-138094210D01*
X187591963Y-137691000D01*
X189140647Y-137691000D01*
X189179200Y-137694797D01*
X189217753Y-137691000D01*
X189217761Y-137691000D01*
X189333087Y-137679641D01*
X189481060Y-137634754D01*
X189617433Y-137561862D01*
X189736964Y-137463764D01*
X189746340Y-137452340D01*
X189757764Y-137442964D01*
X189855862Y-137323433D01*
X189928754Y-137187060D01*
X189958126Y-137090233D01*
X189973642Y-137039086D01*
X189982035Y-136953860D01*
X189985000Y-136923761D01*
X189985000Y-136923755D01*
X189988797Y-136885200D01*
X189985000Y-136846644D01*
X189985000Y-136588733D01*
X190041975Y-136541975D01*
X190190058Y-136361536D01*
X190300094Y-136155674D01*
X190308792Y-136127000D01*
X197340001Y-136127000D01*
X197340001Y-137840694D01*
X197129602Y-137776870D01*
X196948165Y-137759000D01*
X196126835Y-137759000D01*
X195945398Y-137776870D01*
X195712599Y-137847489D01*
X195498051Y-137962167D01*
X195309998Y-138116498D01*
X195155667Y-138304551D01*
X195040989Y-138519099D01*
X194970370Y-138751898D01*
X194946525Y-138994000D01*
X194970370Y-139236102D01*
X194973383Y-139246035D01*
X194893881Y-139127051D01*
X194704449Y-138937619D01*
X194481701Y-138788784D01*
X194234197Y-138686264D01*
X193971448Y-138634000D01*
X193703552Y-138634000D01*
X193440803Y-138686264D01*
X193193299Y-138788784D01*
X192970551Y-138937619D01*
X192781119Y-139127051D01*
X192632284Y-139349799D01*
X192529764Y-139597303D01*
X192477500Y-139860052D01*
X192477500Y-140127948D01*
X192529764Y-140390697D01*
X192632284Y-140638201D01*
X192781119Y-140860949D01*
X192970551Y-141050381D01*
X193193299Y-141199216D01*
X193440803Y-141301736D01*
X193703552Y-141354000D01*
X193971448Y-141354000D01*
X194234197Y-141301736D01*
X194481701Y-141199216D01*
X194704449Y-141050381D01*
X194893881Y-140860949D01*
X195042716Y-140638201D01*
X195145236Y-140390697D01*
X195197500Y-140127948D01*
X195197500Y-139860052D01*
X195164516Y-139694232D01*
X195309998Y-139871502D01*
X195498051Y-140025833D01*
X195712599Y-140140511D01*
X195945398Y-140211130D01*
X196126835Y-140229000D01*
X196948165Y-140229000D01*
X197129602Y-140211130D01*
X197340001Y-140147306D01*
X197340001Y-144840694D01*
X197129602Y-144776870D01*
X196948165Y-144759000D01*
X196126835Y-144759000D01*
X195945398Y-144776870D01*
X195712599Y-144847489D01*
X195498051Y-144962167D01*
X195309998Y-145116498D01*
X195164516Y-145293768D01*
X195197500Y-145127948D01*
X195197500Y-144860052D01*
X195145236Y-144597303D01*
X195042716Y-144349799D01*
X194893881Y-144127051D01*
X194704449Y-143937619D01*
X194481701Y-143788784D01*
X194234197Y-143686264D01*
X193971448Y-143634000D01*
X193703552Y-143634000D01*
X193440803Y-143686264D01*
X193193299Y-143788784D01*
X192970551Y-143937619D01*
X192946302Y-143961868D01*
X192917626Y-143817702D01*
X192839605Y-143629344D01*
X192807400Y-143581146D01*
X192807400Y-141910762D01*
X192811681Y-141867295D01*
X192807400Y-141823829D01*
X192807400Y-141823819D01*
X192794595Y-141693806D01*
X192743989Y-141526983D01*
X192661811Y-141373237D01*
X192555199Y-141243332D01*
X192545178Y-141192950D01*
X192467157Y-141004592D01*
X192353889Y-140835074D01*
X192209726Y-140690911D01*
X192040208Y-140577643D01*
X191851850Y-140499622D01*
X191651891Y-140459848D01*
X191448013Y-140459848D01*
X191248054Y-140499622D01*
X191059696Y-140577643D01*
X190890178Y-140690911D01*
X190746015Y-140835074D01*
X190632747Y-141004592D01*
X190554726Y-141192950D01*
X190514952Y-141392909D01*
X190514952Y-141596787D01*
X190554726Y-141796746D01*
X190632747Y-141985104D01*
X190746015Y-142154622D01*
X190890178Y-142298785D01*
X191037401Y-142397156D01*
X191037400Y-143581145D01*
X191005195Y-143629344D01*
X190927174Y-143817702D01*
X190887400Y-144017661D01*
X190887400Y-144221539D01*
X190927174Y-144421498D01*
X191005195Y-144609856D01*
X191118463Y-144779374D01*
X191262626Y-144923537D01*
X191432144Y-145036805D01*
X191620502Y-145114826D01*
X191820461Y-145154600D01*
X192024339Y-145154600D01*
X192224298Y-145114826D01*
X192412656Y-145036805D01*
X192477500Y-144993478D01*
X192477500Y-145127948D01*
X192529764Y-145390697D01*
X192632284Y-145638201D01*
X192781119Y-145860949D01*
X192970551Y-146050381D01*
X193193299Y-146199216D01*
X193440803Y-146301736D01*
X193703552Y-146354000D01*
X193971448Y-146354000D01*
X194234197Y-146301736D01*
X194481701Y-146199216D01*
X194704449Y-146050381D01*
X194893881Y-145860949D01*
X194973383Y-145741965D01*
X194970370Y-145751898D01*
X194946525Y-145994000D01*
X194970370Y-146236102D01*
X195040989Y-146468901D01*
X195155667Y-146683449D01*
X195309998Y-146871502D01*
X195498051Y-147025833D01*
X195712599Y-147140511D01*
X195945398Y-147211130D01*
X196126835Y-147229000D01*
X196948165Y-147229000D01*
X197129602Y-147211130D01*
X197340001Y-147147306D01*
X197340001Y-152467712D01*
X197320898Y-152662540D01*
X197273692Y-152818895D01*
X197197018Y-152963096D01*
X197093792Y-153089664D01*
X196967951Y-153193768D01*
X196824289Y-153271447D01*
X196668271Y-153319742D01*
X196475527Y-153340000D01*
X178201926Y-153340000D01*
X178201926Y-143671876D01*
X178199486Y-143647100D01*
X178192259Y-143623275D01*
X178180523Y-143601319D01*
X178164729Y-143582073D01*
X178145483Y-143566279D01*
X178123527Y-143554543D01*
X178099702Y-143547316D01*
X178075349Y-143544877D01*
X156475349Y-143473001D01*
X156450564Y-143475359D01*
X156426716Y-143482506D01*
X156404720Y-143494169D01*
X156385423Y-143509899D01*
X156369565Y-143529092D01*
X156357756Y-143551009D01*
X156350449Y-143574809D01*
X156347926Y-143600000D01*
X156347926Y-153340000D01*
X101532277Y-153340000D01*
X101337460Y-153320898D01*
X101181105Y-153273692D01*
X101036904Y-153197018D01*
X100910336Y-153093792D01*
X100806232Y-152967951D01*
X100728553Y-152824289D01*
X100680258Y-152668271D01*
X100657188Y-152448769D01*
X100657272Y-152436693D01*
X100656373Y-152427522D01*
X100646173Y-152330473D01*
X100634140Y-152271854D01*
X100622936Y-152213116D01*
X100620272Y-152204294D01*
X100591416Y-152111075D01*
X100568238Y-152055937D01*
X100545825Y-152000463D01*
X100541498Y-151992327D01*
X100519411Y-151951478D01*
X100689714Y-151811714D01*
X100894031Y-151562752D01*
X101045852Y-151278715D01*
X101139343Y-150970516D01*
X101163000Y-150730322D01*
X101163000Y-149185000D01*
X102465001Y-149185000D01*
X102465001Y-150730322D01*
X102488658Y-150970516D01*
X102582149Y-151278715D01*
X102733970Y-151562752D01*
X102938287Y-151811714D01*
X103187249Y-152016031D01*
X103471286Y-152167852D01*
X103779485Y-152261343D01*
X104100000Y-152292911D01*
X104420516Y-152261343D01*
X104728715Y-152167852D01*
X105012752Y-152016031D01*
X105261714Y-151811714D01*
X105466031Y-151562752D01*
X105617852Y-151278715D01*
X105711343Y-150970516D01*
X105735000Y-150730322D01*
X105735000Y-149185000D01*
X125627447Y-149185000D01*
X125666000Y-149188797D01*
X125704553Y-149185000D01*
X125704561Y-149185000D01*
X125819887Y-149173641D01*
X125967860Y-149128754D01*
X126104233Y-149055862D01*
X126223764Y-148957764D01*
X126248347Y-148927810D01*
X134226157Y-140950000D01*
X174911928Y-140950000D01*
X174911928Y-142650000D01*
X174924188Y-142774482D01*
X174960498Y-142894180D01*
X175019463Y-143004494D01*
X175098815Y-143101185D01*
X175195506Y-143180537D01*
X175305820Y-143239502D01*
X175425518Y-143275812D01*
X175550000Y-143288072D01*
X177250000Y-143288072D01*
X177374482Y-143275812D01*
X177494180Y-143239502D01*
X177604494Y-143180537D01*
X177701185Y-143101185D01*
X177780537Y-143004494D01*
X177839502Y-142894180D01*
X177875812Y-142774482D01*
X177888072Y-142650000D01*
X177888072Y-140950000D01*
X177875812Y-140825518D01*
X177839502Y-140705820D01*
X177780537Y-140595506D01*
X177701185Y-140498815D01*
X177604494Y-140419463D01*
X177494180Y-140360498D01*
X177492740Y-140360061D01*
X178085800Y-140360061D01*
X178085800Y-140563939D01*
X178125574Y-140763898D01*
X178203595Y-140952256D01*
X178316863Y-141121774D01*
X178461026Y-141265937D01*
X178630544Y-141379205D01*
X178818902Y-141457226D01*
X178875757Y-141468535D01*
X186628364Y-149221143D01*
X186476589Y-149284010D01*
X186233368Y-149446525D01*
X186026525Y-149653368D01*
X185910000Y-149827760D01*
X185793475Y-149653368D01*
X185586632Y-149446525D01*
X185343411Y-149284010D01*
X185073158Y-149172068D01*
X184786260Y-149115000D01*
X184493740Y-149115000D01*
X184206842Y-149172068D01*
X183936589Y-149284010D01*
X183693368Y-149446525D01*
X183561513Y-149578380D01*
X183539502Y-149505820D01*
X183480537Y-149395506D01*
X183401185Y-149298815D01*
X183304494Y-149219463D01*
X183194180Y-149160498D01*
X183074482Y-149124188D01*
X182950000Y-149111928D01*
X181250000Y-149111928D01*
X181125518Y-149124188D01*
X181005820Y-149160498D01*
X180895506Y-149219463D01*
X180798815Y-149298815D01*
X180719463Y-149395506D01*
X180660498Y-149505820D01*
X180624188Y-149625518D01*
X180611928Y-149750000D01*
X180611928Y-151450000D01*
X180624188Y-151574482D01*
X180660498Y-151694180D01*
X180719463Y-151804494D01*
X180798815Y-151901185D01*
X180895506Y-151980537D01*
X181005820Y-152039502D01*
X181125518Y-152075812D01*
X181250000Y-152088072D01*
X182950000Y-152088072D01*
X183074482Y-152075812D01*
X183194180Y-152039502D01*
X183304494Y-151980537D01*
X183401185Y-151901185D01*
X183480537Y-151804494D01*
X183539502Y-151694180D01*
X183561513Y-151621620D01*
X183693368Y-151753475D01*
X183936589Y-151915990D01*
X184206842Y-152027932D01*
X184493740Y-152085000D01*
X184786260Y-152085000D01*
X185073158Y-152027932D01*
X185343411Y-151915990D01*
X185586632Y-151753475D01*
X185793475Y-151546632D01*
X185910000Y-151372240D01*
X186026525Y-151546632D01*
X186233368Y-151753475D01*
X186476589Y-151915990D01*
X186746842Y-152027932D01*
X187033740Y-152085000D01*
X187326260Y-152085000D01*
X187613158Y-152027932D01*
X187883411Y-151915990D01*
X188126632Y-151753475D01*
X188333475Y-151546632D01*
X188450000Y-151372240D01*
X188566525Y-151546632D01*
X188773368Y-151753475D01*
X189016589Y-151915990D01*
X189286842Y-152027932D01*
X189573740Y-152085000D01*
X189866260Y-152085000D01*
X190153158Y-152027932D01*
X190423411Y-151915990D01*
X190666632Y-151753475D01*
X190873475Y-151546632D01*
X190990000Y-151372240D01*
X191106525Y-151546632D01*
X191313368Y-151753475D01*
X191556589Y-151915990D01*
X191826842Y-152027932D01*
X192113740Y-152085000D01*
X192406260Y-152085000D01*
X192693158Y-152027932D01*
X192963411Y-151915990D01*
X193206632Y-151753475D01*
X193413475Y-151546632D01*
X193535195Y-151364466D01*
X193604822Y-151481355D01*
X193799731Y-151697588D01*
X194033080Y-151871641D01*
X194295901Y-151996825D01*
X194443110Y-152041476D01*
X194673000Y-151920155D01*
X194673000Y-150727000D01*
X194927000Y-150727000D01*
X194927000Y-151920155D01*
X195156890Y-152041476D01*
X195304099Y-151996825D01*
X195566920Y-151871641D01*
X195800269Y-151697588D01*
X195995178Y-151481355D01*
X196144157Y-151231252D01*
X196241481Y-150956891D01*
X196120814Y-150727000D01*
X194927000Y-150727000D01*
X194673000Y-150727000D01*
X194653000Y-150727000D01*
X194653000Y-150473000D01*
X194673000Y-150473000D01*
X194673000Y-149279845D01*
X194927000Y-149279845D01*
X194927000Y-150473000D01*
X196120814Y-150473000D01*
X196241481Y-150243109D01*
X196144157Y-149968748D01*
X195995178Y-149718645D01*
X195800269Y-149502412D01*
X195566920Y-149328359D01*
X195304099Y-149203175D01*
X195156890Y-149158524D01*
X194927000Y-149279845D01*
X194673000Y-149279845D01*
X194443110Y-149158524D01*
X194295901Y-149203175D01*
X194033080Y-149328359D01*
X193799731Y-149502412D01*
X193604822Y-149718645D01*
X193535195Y-149835534D01*
X193413475Y-149653368D01*
X193206632Y-149446525D01*
X192963411Y-149284010D01*
X192693158Y-149172068D01*
X192406260Y-149115000D01*
X192113740Y-149115000D01*
X192041039Y-149129461D01*
X191616533Y-148704955D01*
X191588816Y-148671182D01*
X191454058Y-148560588D01*
X191300312Y-148478410D01*
X191133489Y-148427804D01*
X191003476Y-148414999D01*
X191003468Y-148414999D01*
X190959999Y-148410718D01*
X190916530Y-148414999D01*
X188325378Y-148414999D01*
X180127335Y-140216957D01*
X180116026Y-140160102D01*
X180038005Y-139971744D01*
X179924737Y-139802226D01*
X179780574Y-139658063D01*
X179611056Y-139544795D01*
X179422698Y-139466774D01*
X179222739Y-139427000D01*
X179018861Y-139427000D01*
X178818902Y-139466774D01*
X178630544Y-139544795D01*
X178461026Y-139658063D01*
X178316863Y-139802226D01*
X178203595Y-139971744D01*
X178125574Y-140160102D01*
X178085800Y-140360061D01*
X177492740Y-140360061D01*
X177374482Y-140324188D01*
X177250000Y-140311928D01*
X175550000Y-140311928D01*
X175425518Y-140324188D01*
X175305820Y-140360498D01*
X175195506Y-140419463D01*
X175098815Y-140498815D01*
X175019463Y-140595506D01*
X174960498Y-140705820D01*
X174924188Y-140825518D01*
X174911928Y-140950000D01*
X134226157Y-140950000D01*
X147292307Y-127883850D01*
X158294115Y-127883850D01*
X158389818Y-128148199D01*
X158679347Y-128289038D01*
X158990789Y-128370685D01*
X159312175Y-128390005D01*
X159631155Y-128346254D01*
X159935471Y-128241114D01*
X160109302Y-128148199D01*
X160205005Y-127883850D01*
X159249560Y-126928405D01*
X158294115Y-127883850D01*
X147292307Y-127883850D01*
X148364742Y-126811415D01*
X157608355Y-126811415D01*
X157652106Y-127130395D01*
X157757246Y-127434711D01*
X157850161Y-127608542D01*
X158114510Y-127704245D01*
X159069955Y-126748800D01*
X158114510Y-125793355D01*
X157850161Y-125889058D01*
X157709322Y-126178587D01*
X157627675Y-126490029D01*
X157608355Y-126811415D01*
X148364742Y-126811415D01*
X149562407Y-125613750D01*
X158294115Y-125613750D01*
X159249560Y-126569195D01*
X159263703Y-126555053D01*
X159443308Y-126734658D01*
X159429165Y-126748800D01*
X160384610Y-127704245D01*
X160648959Y-127608542D01*
X160789798Y-127319013D01*
X160871445Y-127007571D01*
X160890765Y-126686185D01*
X160877273Y-126587817D01*
X162115950Y-126587817D01*
X162115950Y-126909783D01*
X162178762Y-127225563D01*
X162301973Y-127523022D01*
X162480848Y-127790727D01*
X162708513Y-128018392D01*
X162976218Y-128197267D01*
X163273677Y-128320478D01*
X163589457Y-128383290D01*
X163911423Y-128383290D01*
X164227203Y-128320478D01*
X164524662Y-128197267D01*
X164792367Y-128018392D01*
X165020032Y-127790727D01*
X165198907Y-127523022D01*
X165322118Y-127225563D01*
X165384930Y-126909783D01*
X165384930Y-126587817D01*
X165322118Y-126272037D01*
X165198907Y-125974578D01*
X165020032Y-125706873D01*
X164792367Y-125479208D01*
X164524662Y-125300333D01*
X164227203Y-125177122D01*
X163911423Y-125114310D01*
X163589457Y-125114310D01*
X163273677Y-125177122D01*
X162976218Y-125300333D01*
X162708513Y-125479208D01*
X162480848Y-125706873D01*
X162301973Y-125974578D01*
X162178762Y-126272037D01*
X162115950Y-126587817D01*
X160877273Y-126587817D01*
X160852801Y-126409400D01*
X160985539Y-126409400D01*
X161185498Y-126369626D01*
X161373856Y-126291605D01*
X161543374Y-126178337D01*
X161687537Y-126034174D01*
X161800805Y-125864656D01*
X161878826Y-125676298D01*
X161918600Y-125476339D01*
X161918600Y-125272461D01*
X161878826Y-125072502D01*
X161800805Y-124884144D01*
X161687537Y-124714626D01*
X161543374Y-124570463D01*
X161373856Y-124457195D01*
X161185498Y-124379174D01*
X160985539Y-124339400D01*
X160781661Y-124339400D01*
X160581702Y-124379174D01*
X160393344Y-124457195D01*
X160223826Y-124570463D01*
X160079663Y-124714626D01*
X159966395Y-124884144D01*
X159888374Y-125072502D01*
X159857646Y-125226985D01*
X159819773Y-125208562D01*
X159508331Y-125126915D01*
X159186945Y-125107595D01*
X158867965Y-125151346D01*
X158563649Y-125256486D01*
X158389818Y-125349401D01*
X158294115Y-125613750D01*
X149562407Y-125613750D01*
X153745157Y-121431000D01*
X153873539Y-121431000D01*
X154073498Y-121391226D01*
X154261856Y-121313205D01*
X154431374Y-121199937D01*
X154575537Y-121055774D01*
X154688805Y-120886256D01*
X154766826Y-120697898D01*
X154806600Y-120497939D01*
X154806600Y-120294061D01*
X154766826Y-120094102D01*
X154688805Y-119905744D01*
X154575537Y-119736226D01*
X154431374Y-119592063D01*
X154261856Y-119478795D01*
X154155598Y-119434781D01*
X154605379Y-118985000D01*
X163515375Y-118985000D01*
X163524188Y-119074482D01*
G37*
G04 #@! TD.AperFunction*
D25*
X196662540Y-100679102D02*
X196818894Y-100726308D01*
X196963096Y-100802982D01*
X197089663Y-100906207D01*
X197193769Y-101032051D01*
X197271447Y-101175711D01*
X197319742Y-101331729D01*
X197340000Y-101524473D01*
X197340000Y-117273000D01*
X189995182Y-117273000D01*
X189970406Y-117275440D01*
X189946581Y-117282667D01*
X189924625Y-117294403D01*
X189905379Y-117310197D01*
X189889585Y-117329443D01*
X189877849Y-117351399D01*
X189870622Y-117375224D01*
X189868182Y-117400000D01*
X189868182Y-117723568D01*
X189750000Y-117711928D01*
X188650000Y-117711928D01*
X188525518Y-117724188D01*
X188405820Y-117760498D01*
X188295506Y-117819463D01*
X188198815Y-117898815D01*
X188119463Y-117995506D01*
X188068663Y-118090544D01*
X188041975Y-118058025D01*
X187861536Y-117909942D01*
X187655674Y-117799906D01*
X187432300Y-117732147D01*
X187200000Y-117709267D01*
X186967701Y-117732147D01*
X186744327Y-117799906D01*
X186538465Y-117909942D01*
X186358026Y-118058025D01*
X186209943Y-118238464D01*
X186200000Y-118257065D01*
X186190058Y-118238464D01*
X186041975Y-118058025D01*
X185861536Y-117909942D01*
X185655674Y-117799906D01*
X185432300Y-117732147D01*
X185200000Y-117709267D01*
X184967701Y-117732147D01*
X184744327Y-117799906D01*
X184538465Y-117909942D01*
X184358026Y-118058025D01*
X184209943Y-118238464D01*
X184200000Y-118257065D01*
X184190058Y-118238464D01*
X184041975Y-118058025D01*
X183861536Y-117909942D01*
X183655674Y-117799906D01*
X183432300Y-117732147D01*
X183200000Y-117709267D01*
X182967701Y-117732147D01*
X182744327Y-117799906D01*
X182538465Y-117909942D01*
X182358026Y-118058025D01*
X182209943Y-118238464D01*
X182200000Y-118257065D01*
X182190058Y-118238464D01*
X182041975Y-118058025D01*
X181985000Y-118011267D01*
X181985000Y-113838212D01*
X193065000Y-113838212D01*
X193065000Y-114061788D01*
X193108617Y-114281067D01*
X193194176Y-114487624D01*
X193318388Y-114673520D01*
X193476480Y-114831612D01*
X193662376Y-114955824D01*
X193868933Y-115041383D01*
X194088212Y-115085000D01*
X194311788Y-115085000D01*
X194531067Y-115041383D01*
X194737624Y-114955824D01*
X194923520Y-114831612D01*
X195081612Y-114673520D01*
X195205824Y-114487624D01*
X195291383Y-114281067D01*
X195335000Y-114061788D01*
X195335000Y-113838212D01*
X195291383Y-113618933D01*
X195205824Y-113412376D01*
X195081612Y-113226480D01*
X194923520Y-113068388D01*
X194737624Y-112944176D01*
X194531067Y-112858617D01*
X194311788Y-112815000D01*
X194088212Y-112815000D01*
X193868933Y-112858617D01*
X193662376Y-112944176D01*
X193476480Y-113068388D01*
X193318388Y-113226480D01*
X193194176Y-113412376D01*
X193108617Y-113618933D01*
X193065000Y-113838212D01*
X181985000Y-113838212D01*
X181985000Y-113725356D01*
X181988797Y-113686800D01*
X181985000Y-113648244D01*
X181985000Y-113648239D01*
X181981020Y-113607826D01*
X181973642Y-113532913D01*
X181928754Y-113384940D01*
X181901954Y-113334800D01*
X181855862Y-113248567D01*
X181757764Y-113129036D01*
X181727810Y-113104453D01*
X181171800Y-112548443D01*
X181171800Y-112521661D01*
X181132026Y-112321702D01*
X181054005Y-112133344D01*
X180940737Y-111963826D01*
X180796574Y-111819663D01*
X180627056Y-111706395D01*
X180438698Y-111628374D01*
X180238739Y-111588600D01*
X180034861Y-111588600D01*
X179834902Y-111628374D01*
X179646544Y-111706395D01*
X179477026Y-111819663D01*
X179332863Y-111963826D01*
X179219595Y-112133344D01*
X179141574Y-112321702D01*
X179101800Y-112521661D01*
X179101800Y-112725539D01*
X179141574Y-112925498D01*
X179219595Y-113113856D01*
X179332863Y-113283374D01*
X179477026Y-113427537D01*
X179646544Y-113540805D01*
X179834902Y-113618826D01*
X180034861Y-113658600D01*
X180061643Y-113658600D01*
X180415001Y-114011958D01*
X180415000Y-118011267D01*
X180358026Y-118058025D01*
X180209943Y-118238464D01*
X180200000Y-118257065D01*
X180190058Y-118238464D01*
X180041975Y-118058025D01*
X179861536Y-117909942D01*
X179655674Y-117799906D01*
X179432300Y-117732147D01*
X179200000Y-117709267D01*
X178967701Y-117732147D01*
X178744327Y-117799906D01*
X178538465Y-117909942D01*
X178358026Y-118058025D01*
X178209943Y-118238464D01*
X178200000Y-118257065D01*
X178190058Y-118238464D01*
X178077000Y-118100703D01*
X178077000Y-118046955D01*
X178080797Y-118008400D01*
X178077000Y-117969840D01*
X178077000Y-117640552D01*
X178080797Y-117601999D01*
X178077000Y-117563446D01*
X178077000Y-117563439D01*
X178065641Y-117448113D01*
X178051856Y-117402668D01*
X178020754Y-117300140D01*
X177987332Y-117237612D01*
X177947862Y-117163767D01*
X177849764Y-117044236D01*
X177819817Y-117019659D01*
X173809800Y-113009643D01*
X173809800Y-109626061D01*
X174225000Y-109626061D01*
X174225000Y-109829939D01*
X174264774Y-110029898D01*
X174342795Y-110218256D01*
X174456063Y-110387774D01*
X174600226Y-110531937D01*
X174769744Y-110645205D01*
X174958102Y-110723226D01*
X175158061Y-110763000D01*
X175361939Y-110763000D01*
X175561898Y-110723226D01*
X175750256Y-110645205D01*
X175798454Y-110613000D01*
X179160622Y-110613000D01*
X179175466Y-110627844D01*
X179203183Y-110661617D01*
X179337941Y-110772211D01*
X179491687Y-110854389D01*
X179658510Y-110904995D01*
X179788523Y-110917800D01*
X179788533Y-110917800D01*
X179831999Y-110922081D01*
X179875465Y-110917800D01*
X180919146Y-110917800D01*
X180967344Y-110950005D01*
X181155702Y-111028026D01*
X181355661Y-111067800D01*
X181559539Y-111067800D01*
X181759498Y-111028026D01*
X181947856Y-110950005D01*
X182117374Y-110836737D01*
X182261537Y-110692574D01*
X182374805Y-110523056D01*
X182452826Y-110334698D01*
X182492600Y-110134739D01*
X182492600Y-109930861D01*
X182452826Y-109730902D01*
X182374805Y-109542544D01*
X182261537Y-109373026D01*
X182117374Y-109228863D01*
X181947856Y-109115595D01*
X181759498Y-109037574D01*
X181559539Y-108997800D01*
X181355661Y-108997800D01*
X181155702Y-109037574D01*
X180967344Y-109115595D01*
X180919146Y-109147800D01*
X180198578Y-109147800D01*
X180183734Y-109132956D01*
X180156017Y-109099183D01*
X180021259Y-108988589D01*
X179867513Y-108906411D01*
X179700690Y-108855805D01*
X179570677Y-108843000D01*
X179570669Y-108843000D01*
X179527200Y-108838719D01*
X179483731Y-108843000D01*
X175798454Y-108843000D01*
X175750256Y-108810795D01*
X175561898Y-108732774D01*
X175361939Y-108693000D01*
X175158061Y-108693000D01*
X174958102Y-108732774D01*
X174769744Y-108810795D01*
X174600226Y-108924063D01*
X174456063Y-109068226D01*
X174342795Y-109237744D01*
X174264774Y-109426102D01*
X174225000Y-109626061D01*
X173809800Y-109626061D01*
X173809800Y-107563957D01*
X174010357Y-107363400D01*
X179102489Y-107363400D01*
X179121426Y-107382337D01*
X179290944Y-107495605D01*
X179479302Y-107573626D01*
X179679261Y-107613400D01*
X179883139Y-107613400D01*
X180083098Y-107573626D01*
X180271456Y-107495605D01*
X180440974Y-107382337D01*
X180585137Y-107238174D01*
X180698405Y-107068656D01*
X180776426Y-106880298D01*
X180816200Y-106680339D01*
X180816200Y-106476461D01*
X180776426Y-106276502D01*
X180698405Y-106088144D01*
X180585137Y-105918626D01*
X180504723Y-105838212D01*
X193065000Y-105838212D01*
X193065000Y-106061788D01*
X193108617Y-106281067D01*
X193194176Y-106487624D01*
X193318388Y-106673520D01*
X193476480Y-106831612D01*
X193662376Y-106955824D01*
X193868933Y-107041383D01*
X194088212Y-107085000D01*
X194311788Y-107085000D01*
X194531067Y-107041383D01*
X194737624Y-106955824D01*
X194923520Y-106831612D01*
X195081612Y-106673520D01*
X195205824Y-106487624D01*
X195291383Y-106281067D01*
X195335000Y-106061788D01*
X195335000Y-105838212D01*
X195291383Y-105618933D01*
X195205824Y-105412376D01*
X195081612Y-105226480D01*
X194923520Y-105068388D01*
X194737624Y-104944176D01*
X194531067Y-104858617D01*
X194311788Y-104815000D01*
X194088212Y-104815000D01*
X193868933Y-104858617D01*
X193662376Y-104944176D01*
X193476480Y-105068388D01*
X193318388Y-105226480D01*
X193194176Y-105412376D01*
X193108617Y-105618933D01*
X193065000Y-105838212D01*
X180504723Y-105838212D01*
X180440974Y-105774463D01*
X180271456Y-105661195D01*
X180083098Y-105583174D01*
X179883139Y-105543400D01*
X179679261Y-105543400D01*
X179479302Y-105583174D01*
X179290944Y-105661195D01*
X179121426Y-105774463D01*
X179102489Y-105793400D01*
X173723756Y-105793400D01*
X173685200Y-105789603D01*
X173646644Y-105793400D01*
X173646639Y-105793400D01*
X173606226Y-105797380D01*
X173531313Y-105804758D01*
X173383340Y-105849646D01*
X173246967Y-105922538D01*
X173127436Y-106020636D01*
X173102853Y-106050590D01*
X172496990Y-106656453D01*
X172467036Y-106681036D01*
X172368938Y-106800568D01*
X172296046Y-106936941D01*
X172251159Y-107084914D01*
X172239800Y-107200240D01*
X172239800Y-107200247D01*
X172236003Y-107238800D01*
X172239800Y-107277353D01*
X172239801Y-113296237D01*
X172236003Y-113334800D01*
X172251159Y-113488686D01*
X172296046Y-113636659D01*
X172322847Y-113686800D01*
X172368939Y-113773033D01*
X172392286Y-113801481D01*
X172442455Y-113862612D01*
X172442459Y-113862616D01*
X172467037Y-113892564D01*
X172496985Y-113917142D01*
X176449633Y-117869791D01*
X176426359Y-117946514D01*
X176420420Y-118006820D01*
X176358026Y-118058025D01*
X176209943Y-118238464D01*
X176200000Y-118257065D01*
X176190058Y-118238464D01*
X176041975Y-118058025D01*
X175861536Y-117909942D01*
X175655674Y-117799906D01*
X175432300Y-117732147D01*
X175200000Y-117709267D01*
X174967701Y-117732147D01*
X174744327Y-117799906D01*
X174538465Y-117909942D01*
X174358026Y-118058025D01*
X174209943Y-118238464D01*
X174099906Y-118444326D01*
X174032147Y-118667700D01*
X174015000Y-118841793D01*
X174015000Y-120358206D01*
X174020595Y-120415010D01*
X169886767Y-120415010D01*
X168776600Y-119304843D01*
X168776600Y-119278061D01*
X168736826Y-119078102D01*
X168658805Y-118889744D01*
X168545537Y-118720226D01*
X168526600Y-118701289D01*
X168526600Y-112913279D01*
X168628359Y-113126920D01*
X168802412Y-113360269D01*
X169018645Y-113555178D01*
X169268748Y-113704157D01*
X169543109Y-113801481D01*
X169773000Y-113680814D01*
X169773000Y-112487000D01*
X170027000Y-112487000D01*
X170027000Y-113680814D01*
X170256891Y-113801481D01*
X170531252Y-113704157D01*
X170781355Y-113555178D01*
X170997588Y-113360269D01*
X171171641Y-113126920D01*
X171296825Y-112864099D01*
X171341476Y-112716890D01*
X171220155Y-112487000D01*
X170027000Y-112487000D01*
X169773000Y-112487000D01*
X169753000Y-112487000D01*
X169753000Y-112233000D01*
X169773000Y-112233000D01*
X169773000Y-112213000D01*
X170027000Y-112213000D01*
X170027000Y-112233000D01*
X171220155Y-112233000D01*
X171341476Y-112003110D01*
X171296825Y-111855901D01*
X171171641Y-111593080D01*
X170997588Y-111359731D01*
X170781355Y-111164822D01*
X170664466Y-111095195D01*
X170846632Y-110973475D01*
X171053475Y-110766632D01*
X171215990Y-110523411D01*
X171327932Y-110253158D01*
X171385000Y-109966260D01*
X171385000Y-109673740D01*
X171327932Y-109386842D01*
X171215990Y-109116589D01*
X171053475Y-108873368D01*
X170846632Y-108666525D01*
X170672240Y-108550000D01*
X170846632Y-108433475D01*
X171053475Y-108226632D01*
X171215990Y-107983411D01*
X171327932Y-107713158D01*
X171385000Y-107426260D01*
X171385000Y-107133740D01*
X171327932Y-106846842D01*
X171215990Y-106576589D01*
X171053475Y-106333368D01*
X170846632Y-106126525D01*
X170672240Y-106010000D01*
X170846632Y-105893475D01*
X171053475Y-105686632D01*
X171215990Y-105443411D01*
X171327932Y-105173158D01*
X171385000Y-104886260D01*
X171385000Y-104593740D01*
X171327932Y-104306842D01*
X171215990Y-104036589D01*
X171053475Y-103793368D01*
X170921620Y-103661513D01*
X170994180Y-103639502D01*
X171104494Y-103580537D01*
X171201185Y-103501185D01*
X171280537Y-103404494D01*
X171339502Y-103294180D01*
X171375812Y-103174482D01*
X171388072Y-103050000D01*
X171388072Y-101350000D01*
X171375812Y-101225518D01*
X171339502Y-101105820D01*
X171280537Y-100995506D01*
X171201185Y-100898815D01*
X171104494Y-100819463D01*
X170994180Y-100760498D01*
X170874482Y-100724188D01*
X170750000Y-100711928D01*
X169050000Y-100711928D01*
X168925518Y-100724188D01*
X168805820Y-100760498D01*
X168695506Y-100819463D01*
X168598815Y-100898815D01*
X168519463Y-100995506D01*
X168460498Y-101105820D01*
X168424188Y-101225518D01*
X168411928Y-101350000D01*
X168411928Y-103050000D01*
X168424188Y-103174482D01*
X168460498Y-103294180D01*
X168519463Y-103404494D01*
X168598815Y-103501185D01*
X168695506Y-103580537D01*
X168805820Y-103639502D01*
X168878380Y-103661513D01*
X168746525Y-103793368D01*
X168638526Y-103955000D01*
X168551756Y-103955000D01*
X168513200Y-103951203D01*
X168474645Y-103955000D01*
X168474639Y-103955000D01*
X168430249Y-103959372D01*
X168359314Y-103966358D01*
X168256228Y-103997629D01*
X168211340Y-104011246D01*
X168074967Y-104084138D01*
X167955436Y-104182236D01*
X167930853Y-104212190D01*
X167213785Y-104929258D01*
X167183837Y-104953836D01*
X167159259Y-104983784D01*
X167159255Y-104983788D01*
X167147751Y-104997806D01*
X167085739Y-105073367D01*
X167055153Y-105130590D01*
X167012846Y-105209741D01*
X166996699Y-105262972D01*
X166978818Y-105241184D01*
X166945050Y-105213471D01*
X165408230Y-103676652D01*
X165653158Y-103627932D01*
X165923411Y-103515990D01*
X166166632Y-103353475D01*
X166373475Y-103146632D01*
X166535990Y-102903411D01*
X166647932Y-102633158D01*
X166705000Y-102346260D01*
X166705000Y-102053740D01*
X166647932Y-101766842D01*
X166535990Y-101496589D01*
X166373475Y-101253368D01*
X166166632Y-101046525D01*
X165923411Y-100884010D01*
X165653158Y-100772068D01*
X165366260Y-100715000D01*
X165073740Y-100715000D01*
X164786842Y-100772068D01*
X164516589Y-100884010D01*
X164273368Y-101046525D01*
X164066525Y-101253368D01*
X163950000Y-101427760D01*
X163833475Y-101253368D01*
X163626632Y-101046525D01*
X163383411Y-100884010D01*
X163113158Y-100772068D01*
X162826260Y-100715000D01*
X162533740Y-100715000D01*
X162246842Y-100772068D01*
X161976589Y-100884010D01*
X161733368Y-101046525D01*
X161526525Y-101253368D01*
X161404805Y-101435534D01*
X161335178Y-101318645D01*
X161140269Y-101102412D01*
X160906920Y-100928359D01*
X160644099Y-100803175D01*
X160496890Y-100758524D01*
X160267000Y-100879845D01*
X160267000Y-102073000D01*
X160287000Y-102073000D01*
X160287000Y-102327000D01*
X160267000Y-102327000D01*
X160267000Y-103520155D01*
X160496890Y-103641476D01*
X160644099Y-103596825D01*
X160906920Y-103471641D01*
X161140269Y-103297588D01*
X161335178Y-103081355D01*
X161404805Y-102964466D01*
X161526525Y-103146632D01*
X161733368Y-103353475D01*
X161976589Y-103515990D01*
X162246842Y-103627932D01*
X162533740Y-103685000D01*
X162826260Y-103685000D01*
X162898960Y-103670539D01*
X162934952Y-103706531D01*
X162934957Y-103706535D01*
X165465002Y-106236581D01*
X165465001Y-116611928D01*
X164150000Y-116611928D01*
X164025518Y-116624188D01*
X163905820Y-116660498D01*
X163795506Y-116719463D01*
X163698815Y-116798815D01*
X163619463Y-116895506D01*
X163560498Y-117005820D01*
X163524188Y-117125518D01*
X163515375Y-117215000D01*
X154545372Y-117215000D01*
X154453089Y-117187006D01*
X154279599Y-117169919D01*
X154106109Y-117187006D01*
X153939287Y-117237612D01*
X153785541Y-117319790D01*
X153684554Y-117402668D01*
X153643756Y-117443466D01*
X153609983Y-117471183D01*
X153582266Y-117504956D01*
X153455959Y-117631263D01*
X153455953Y-117631268D01*
X136672221Y-134415001D01*
X130209721Y-134415001D01*
X130219400Y-134366339D01*
X130219400Y-134162461D01*
X130179626Y-133962502D01*
X130101605Y-133774144D01*
X129988337Y-133604626D01*
X129844174Y-133460463D01*
X129674656Y-133347195D01*
X129486298Y-133269174D01*
X129286339Y-133229400D01*
X129259558Y-133229400D01*
X124530612Y-128500455D01*
X124322347Y-128292190D01*
X124297764Y-128262236D01*
X124178233Y-128164138D01*
X124041860Y-128091246D01*
X123893887Y-128046359D01*
X123778561Y-128035000D01*
X123778553Y-128035000D01*
X123740000Y-128031203D01*
X123701447Y-128035000D01*
X121448072Y-128035000D01*
X121448072Y-127920000D01*
X121435812Y-127795518D01*
X121399502Y-127675820D01*
X121340537Y-127565506D01*
X121327812Y-127550000D01*
X121340537Y-127534494D01*
X121399502Y-127424180D01*
X121435812Y-127304482D01*
X121448072Y-127180000D01*
X121448072Y-127065000D01*
X133421847Y-127065000D01*
X133460400Y-127068797D01*
X133498953Y-127065000D01*
X133498961Y-127065000D01*
X133614287Y-127053641D01*
X133762260Y-127008754D01*
X133898633Y-126935862D01*
X134018164Y-126837764D01*
X134042747Y-126807810D01*
X147695958Y-113154600D01*
X155986328Y-113154600D01*
X155986328Y-114139600D01*
X155998588Y-114264082D01*
X156034898Y-114383780D01*
X156093863Y-114494094D01*
X156173215Y-114590785D01*
X156269906Y-114670137D01*
X156380220Y-114729102D01*
X156499918Y-114765412D01*
X156624400Y-114777672D01*
X157624400Y-114777672D01*
X157748882Y-114765412D01*
X157868580Y-114729102D01*
X157978894Y-114670137D01*
X158075585Y-114590785D01*
X158154937Y-114494094D01*
X158213902Y-114383780D01*
X158250212Y-114264082D01*
X158262472Y-114139600D01*
X158262472Y-113139600D01*
X158250212Y-113015118D01*
X158213902Y-112895420D01*
X158169512Y-112812374D01*
X158215783Y-112700667D01*
X158259400Y-112481388D01*
X158259400Y-112257812D01*
X158215783Y-112038533D01*
X158130224Y-111831976D01*
X158065159Y-111734600D01*
X158130224Y-111637224D01*
X158215783Y-111430667D01*
X158259400Y-111211388D01*
X158259400Y-110987812D01*
X158215783Y-110768533D01*
X158130224Y-110561976D01*
X158065159Y-110464600D01*
X158130224Y-110367224D01*
X158215783Y-110160667D01*
X158259400Y-109941388D01*
X158259400Y-109717812D01*
X158215783Y-109498533D01*
X158130224Y-109291976D01*
X158006012Y-109106080D01*
X157847920Y-108947988D01*
X157662024Y-108823776D01*
X157455467Y-108738217D01*
X157236188Y-108694600D01*
X157012612Y-108694600D01*
X156793333Y-108738217D01*
X156586776Y-108823776D01*
X156400880Y-108947988D01*
X156242788Y-109106080D01*
X156118576Y-109291976D01*
X156033017Y-109498533D01*
X155989400Y-109717812D01*
X155989400Y-109941388D01*
X156033017Y-110160667D01*
X156117820Y-110365400D01*
X125278152Y-110365400D01*
X125239599Y-110361603D01*
X125201046Y-110365400D01*
X125201039Y-110365400D01*
X125100090Y-110375343D01*
X125085712Y-110376759D01*
X125051272Y-110387206D01*
X124937740Y-110421646D01*
X124801367Y-110494538D01*
X124755797Y-110531937D01*
X124711787Y-110568055D01*
X124711784Y-110568058D01*
X124681836Y-110592636D01*
X124657258Y-110622584D01*
X110782185Y-124497658D01*
X110752237Y-124522236D01*
X110727659Y-124552184D01*
X110727655Y-124552188D01*
X110694690Y-124592356D01*
X110654139Y-124641767D01*
X110643219Y-124662198D01*
X110600602Y-124741928D01*
X109310000Y-124741928D01*
X109185518Y-124754188D01*
X109065820Y-124790498D01*
X108955506Y-124849463D01*
X108858815Y-124928815D01*
X108779463Y-125025506D01*
X108720498Y-125135820D01*
X108684188Y-125255518D01*
X108671928Y-125380000D01*
X108671928Y-127180000D01*
X108684188Y-127304482D01*
X108720498Y-127424180D01*
X108779463Y-127534494D01*
X108792188Y-127550000D01*
X108779463Y-127565506D01*
X108720498Y-127675820D01*
X108684188Y-127795518D01*
X108671928Y-127920000D01*
X108671928Y-128110601D01*
X108571767Y-128164138D01*
X108531400Y-128197267D01*
X108482187Y-128237655D01*
X108482184Y-128237658D01*
X108452236Y-128262236D01*
X108427658Y-128292184D01*
X106824588Y-129895255D01*
X106794634Y-129919838D01*
X106696536Y-130039370D01*
X106623644Y-130175743D01*
X106578757Y-130323716D01*
X106567398Y-130439042D01*
X106567398Y-130439049D01*
X106563601Y-130477602D01*
X106567398Y-130516155D01*
X106567399Y-134487757D01*
X106563601Y-134526320D01*
X106578757Y-134680206D01*
X106623644Y-134828179D01*
X106623645Y-134828180D01*
X106696537Y-134964553D01*
X106720010Y-134993154D01*
X106770053Y-135054132D01*
X106770057Y-135054136D01*
X106794635Y-135084084D01*
X106824583Y-135108662D01*
X108997331Y-137281410D01*
X109021914Y-137311364D01*
X109141445Y-137409462D01*
X109277818Y-137482354D01*
X109425791Y-137527242D01*
X109500704Y-137534620D01*
X109541117Y-137538600D01*
X109541122Y-137538600D01*
X109579678Y-137542397D01*
X109618234Y-137538600D01*
X128454889Y-137538600D01*
X128473826Y-137557537D01*
X128643344Y-137670805D01*
X128831702Y-137748826D01*
X129031661Y-137788600D01*
X129235539Y-137788600D01*
X129435498Y-137748826D01*
X129623856Y-137670805D01*
X129793374Y-137557537D01*
X129937537Y-137413374D01*
X130050805Y-137243856D01*
X130128826Y-137055498D01*
X130168600Y-136855539D01*
X130168600Y-136651661D01*
X130128826Y-136451702D01*
X130050805Y-136263344D01*
X129998458Y-136185001D01*
X136770842Y-136185001D01*
X125340843Y-147615000D01*
X105735000Y-147615000D01*
X105735000Y-146069678D01*
X105711343Y-145829484D01*
X105617852Y-145521285D01*
X105466031Y-145237248D01*
X105261714Y-144988286D01*
X105012751Y-144783969D01*
X104728714Y-144632148D01*
X104420515Y-144538657D01*
X104100000Y-144507089D01*
X103779484Y-144538657D01*
X103471285Y-144632148D01*
X103187248Y-144783969D01*
X102938286Y-144988286D01*
X102733969Y-145237249D01*
X102582148Y-145521286D01*
X102488657Y-145829485D01*
X102465000Y-146069679D01*
X102465000Y-147615000D01*
X101163000Y-147615000D01*
X101163000Y-146069678D01*
X101139343Y-145829484D01*
X101045852Y-145521285D01*
X100894031Y-145237248D01*
X100689714Y-144988286D01*
X100491255Y-144825416D01*
X100537474Y-144738493D01*
X100560263Y-144683201D01*
X100583835Y-144628205D01*
X100586559Y-144619402D01*
X100620404Y-144507300D01*
X100632020Y-144448635D01*
X100644460Y-144390111D01*
X100645423Y-144380946D01*
X100656850Y-144264405D01*
X100656850Y-144264402D01*
X100660000Y-144232419D01*
X100660000Y-101532277D01*
X100677872Y-101350000D01*
X156111928Y-101350000D01*
X156111928Y-103050000D01*
X156124188Y-103174482D01*
X156160498Y-103294180D01*
X156219463Y-103404494D01*
X156298815Y-103501185D01*
X156395506Y-103580537D01*
X156505820Y-103639502D01*
X156625518Y-103675812D01*
X156750000Y-103688072D01*
X158450000Y-103688072D01*
X158574482Y-103675812D01*
X158694180Y-103639502D01*
X158804494Y-103580537D01*
X158901185Y-103501185D01*
X158980537Y-103404494D01*
X159039502Y-103294180D01*
X159063966Y-103213534D01*
X159139731Y-103297588D01*
X159373080Y-103471641D01*
X159635901Y-103596825D01*
X159783110Y-103641476D01*
X160013000Y-103520155D01*
X160013000Y-102327000D01*
X159993000Y-102327000D01*
X159993000Y-102073000D01*
X160013000Y-102073000D01*
X160013000Y-100879845D01*
X159783110Y-100758524D01*
X159635901Y-100803175D01*
X159373080Y-100928359D01*
X159139731Y-101102412D01*
X159063966Y-101186466D01*
X159039502Y-101105820D01*
X158980537Y-100995506D01*
X158901185Y-100898815D01*
X158804494Y-100819463D01*
X158694180Y-100760498D01*
X158574482Y-100724188D01*
X158450000Y-100711928D01*
X156750000Y-100711928D01*
X156625518Y-100724188D01*
X156505820Y-100760498D01*
X156395506Y-100819463D01*
X156298815Y-100898815D01*
X156219463Y-100995506D01*
X156160498Y-101105820D01*
X156124188Y-101225518D01*
X156111928Y-101350000D01*
X100677872Y-101350000D01*
X100679102Y-101337460D01*
X100726308Y-101181106D01*
X100802982Y-101036904D01*
X100906207Y-100910337D01*
X101032051Y-100806231D01*
X101175711Y-100728553D01*
X101331729Y-100680258D01*
X101524473Y-100660000D01*
X196467723Y-100660000D01*
X196662540Y-100679102D01*
G04 #@! TA.AperFunction,Conductor*
D26*
G36*
X196662540Y-100679102D02*
G01*
X196818894Y-100726308D01*
X196963096Y-100802982D01*
X197089663Y-100906207D01*
X197193769Y-101032051D01*
X197271447Y-101175711D01*
X197319742Y-101331729D01*
X197340000Y-101524473D01*
X197340000Y-117273000D01*
X189995182Y-117273000D01*
X189970406Y-117275440D01*
X189946581Y-117282667D01*
X189924625Y-117294403D01*
X189905379Y-117310197D01*
X189889585Y-117329443D01*
X189877849Y-117351399D01*
X189870622Y-117375224D01*
X189868182Y-117400000D01*
X189868182Y-117723568D01*
X189750000Y-117711928D01*
X188650000Y-117711928D01*
X188525518Y-117724188D01*
X188405820Y-117760498D01*
X188295506Y-117819463D01*
X188198815Y-117898815D01*
X188119463Y-117995506D01*
X188068663Y-118090544D01*
X188041975Y-118058025D01*
X187861536Y-117909942D01*
X187655674Y-117799906D01*
X187432300Y-117732147D01*
X187200000Y-117709267D01*
X186967701Y-117732147D01*
X186744327Y-117799906D01*
X186538465Y-117909942D01*
X186358026Y-118058025D01*
X186209943Y-118238464D01*
X186200000Y-118257065D01*
X186190058Y-118238464D01*
X186041975Y-118058025D01*
X185861536Y-117909942D01*
X185655674Y-117799906D01*
X185432300Y-117732147D01*
X185200000Y-117709267D01*
X184967701Y-117732147D01*
X184744327Y-117799906D01*
X184538465Y-117909942D01*
X184358026Y-118058025D01*
X184209943Y-118238464D01*
X184200000Y-118257065D01*
X184190058Y-118238464D01*
X184041975Y-118058025D01*
X183861536Y-117909942D01*
X183655674Y-117799906D01*
X183432300Y-117732147D01*
X183200000Y-117709267D01*
X182967701Y-117732147D01*
X182744327Y-117799906D01*
X182538465Y-117909942D01*
X182358026Y-118058025D01*
X182209943Y-118238464D01*
X182200000Y-118257065D01*
X182190058Y-118238464D01*
X182041975Y-118058025D01*
X181985000Y-118011267D01*
X181985000Y-113838212D01*
X193065000Y-113838212D01*
X193065000Y-114061788D01*
X193108617Y-114281067D01*
X193194176Y-114487624D01*
X193318388Y-114673520D01*
X193476480Y-114831612D01*
X193662376Y-114955824D01*
X193868933Y-115041383D01*
X194088212Y-115085000D01*
X194311788Y-115085000D01*
X194531067Y-115041383D01*
X194737624Y-114955824D01*
X194923520Y-114831612D01*
X195081612Y-114673520D01*
X195205824Y-114487624D01*
X195291383Y-114281067D01*
X195335000Y-114061788D01*
X195335000Y-113838212D01*
X195291383Y-113618933D01*
X195205824Y-113412376D01*
X195081612Y-113226480D01*
X194923520Y-113068388D01*
X194737624Y-112944176D01*
X194531067Y-112858617D01*
X194311788Y-112815000D01*
X194088212Y-112815000D01*
X193868933Y-112858617D01*
X193662376Y-112944176D01*
X193476480Y-113068388D01*
X193318388Y-113226480D01*
X193194176Y-113412376D01*
X193108617Y-113618933D01*
X193065000Y-113838212D01*
X181985000Y-113838212D01*
X181985000Y-113725356D01*
X181988797Y-113686800D01*
X181985000Y-113648244D01*
X181985000Y-113648239D01*
X181981020Y-113607826D01*
X181973642Y-113532913D01*
X181928754Y-113384940D01*
X181901954Y-113334800D01*
X181855862Y-113248567D01*
X181757764Y-113129036D01*
X181727810Y-113104453D01*
X181171800Y-112548443D01*
X181171800Y-112521661D01*
X181132026Y-112321702D01*
X181054005Y-112133344D01*
X180940737Y-111963826D01*
X180796574Y-111819663D01*
X180627056Y-111706395D01*
X180438698Y-111628374D01*
X180238739Y-111588600D01*
X180034861Y-111588600D01*
X179834902Y-111628374D01*
X179646544Y-111706395D01*
X179477026Y-111819663D01*
X179332863Y-111963826D01*
X179219595Y-112133344D01*
X179141574Y-112321702D01*
X179101800Y-112521661D01*
X179101800Y-112725539D01*
X179141574Y-112925498D01*
X179219595Y-113113856D01*
X179332863Y-113283374D01*
X179477026Y-113427537D01*
X179646544Y-113540805D01*
X179834902Y-113618826D01*
X180034861Y-113658600D01*
X180061643Y-113658600D01*
X180415001Y-114011958D01*
X180415000Y-118011267D01*
X180358026Y-118058025D01*
X180209943Y-118238464D01*
X180200000Y-118257065D01*
X180190058Y-118238464D01*
X180041975Y-118058025D01*
X179861536Y-117909942D01*
X179655674Y-117799906D01*
X179432300Y-117732147D01*
X179200000Y-117709267D01*
X178967701Y-117732147D01*
X178744327Y-117799906D01*
X178538465Y-117909942D01*
X178358026Y-118058025D01*
X178209943Y-118238464D01*
X178200000Y-118257065D01*
X178190058Y-118238464D01*
X178077000Y-118100703D01*
X178077000Y-118046955D01*
X178080797Y-118008400D01*
X178077000Y-117969840D01*
X178077000Y-117640552D01*
X178080797Y-117601999D01*
X178077000Y-117563446D01*
X178077000Y-117563439D01*
X178065641Y-117448113D01*
X178051856Y-117402668D01*
X178020754Y-117300140D01*
X177987332Y-117237612D01*
X177947862Y-117163767D01*
X177849764Y-117044236D01*
X177819817Y-117019659D01*
X173809800Y-113009643D01*
X173809800Y-109626061D01*
X174225000Y-109626061D01*
X174225000Y-109829939D01*
X174264774Y-110029898D01*
X174342795Y-110218256D01*
X174456063Y-110387774D01*
X174600226Y-110531937D01*
X174769744Y-110645205D01*
X174958102Y-110723226D01*
X175158061Y-110763000D01*
X175361939Y-110763000D01*
X175561898Y-110723226D01*
X175750256Y-110645205D01*
X175798454Y-110613000D01*
X179160622Y-110613000D01*
X179175466Y-110627844D01*
X179203183Y-110661617D01*
X179337941Y-110772211D01*
X179491687Y-110854389D01*
X179658510Y-110904995D01*
X179788523Y-110917800D01*
X179788533Y-110917800D01*
X179831999Y-110922081D01*
X179875465Y-110917800D01*
X180919146Y-110917800D01*
X180967344Y-110950005D01*
X181155702Y-111028026D01*
X181355661Y-111067800D01*
X181559539Y-111067800D01*
X181759498Y-111028026D01*
X181947856Y-110950005D01*
X182117374Y-110836737D01*
X182261537Y-110692574D01*
X182374805Y-110523056D01*
X182452826Y-110334698D01*
X182492600Y-110134739D01*
X182492600Y-109930861D01*
X182452826Y-109730902D01*
X182374805Y-109542544D01*
X182261537Y-109373026D01*
X182117374Y-109228863D01*
X181947856Y-109115595D01*
X181759498Y-109037574D01*
X181559539Y-108997800D01*
X181355661Y-108997800D01*
X181155702Y-109037574D01*
X180967344Y-109115595D01*
X180919146Y-109147800D01*
X180198578Y-109147800D01*
X180183734Y-109132956D01*
X180156017Y-109099183D01*
X180021259Y-108988589D01*
X179867513Y-108906411D01*
X179700690Y-108855805D01*
X179570677Y-108843000D01*
X179570669Y-108843000D01*
X179527200Y-108838719D01*
X179483731Y-108843000D01*
X175798454Y-108843000D01*
X175750256Y-108810795D01*
X175561898Y-108732774D01*
X175361939Y-108693000D01*
X175158061Y-108693000D01*
X174958102Y-108732774D01*
X174769744Y-108810795D01*
X174600226Y-108924063D01*
X174456063Y-109068226D01*
X174342795Y-109237744D01*
X174264774Y-109426102D01*
X174225000Y-109626061D01*
X173809800Y-109626061D01*
X173809800Y-107563957D01*
X174010357Y-107363400D01*
X179102489Y-107363400D01*
X179121426Y-107382337D01*
X179290944Y-107495605D01*
X179479302Y-107573626D01*
X179679261Y-107613400D01*
X179883139Y-107613400D01*
X180083098Y-107573626D01*
X180271456Y-107495605D01*
X180440974Y-107382337D01*
X180585137Y-107238174D01*
X180698405Y-107068656D01*
X180776426Y-106880298D01*
X180816200Y-106680339D01*
X180816200Y-106476461D01*
X180776426Y-106276502D01*
X180698405Y-106088144D01*
X180585137Y-105918626D01*
X180504723Y-105838212D01*
X193065000Y-105838212D01*
X193065000Y-106061788D01*
X193108617Y-106281067D01*
X193194176Y-106487624D01*
X193318388Y-106673520D01*
X193476480Y-106831612D01*
X193662376Y-106955824D01*
X193868933Y-107041383D01*
X194088212Y-107085000D01*
X194311788Y-107085000D01*
X194531067Y-107041383D01*
X194737624Y-106955824D01*
X194923520Y-106831612D01*
X195081612Y-106673520D01*
X195205824Y-106487624D01*
X195291383Y-106281067D01*
X195335000Y-106061788D01*
X195335000Y-105838212D01*
X195291383Y-105618933D01*
X195205824Y-105412376D01*
X195081612Y-105226480D01*
X194923520Y-105068388D01*
X194737624Y-104944176D01*
X194531067Y-104858617D01*
X194311788Y-104815000D01*
X194088212Y-104815000D01*
X193868933Y-104858617D01*
X193662376Y-104944176D01*
X193476480Y-105068388D01*
X193318388Y-105226480D01*
X193194176Y-105412376D01*
X193108617Y-105618933D01*
X193065000Y-105838212D01*
X180504723Y-105838212D01*
X180440974Y-105774463D01*
X180271456Y-105661195D01*
X180083098Y-105583174D01*
X179883139Y-105543400D01*
X179679261Y-105543400D01*
X179479302Y-105583174D01*
X179290944Y-105661195D01*
X179121426Y-105774463D01*
X179102489Y-105793400D01*
X173723756Y-105793400D01*
X173685200Y-105789603D01*
X173646644Y-105793400D01*
X173646639Y-105793400D01*
X173606226Y-105797380D01*
X173531313Y-105804758D01*
X173383340Y-105849646D01*
X173246967Y-105922538D01*
X173127436Y-106020636D01*
X173102853Y-106050590D01*
X172496990Y-106656453D01*
X172467036Y-106681036D01*
X172368938Y-106800568D01*
X172296046Y-106936941D01*
X172251159Y-107084914D01*
X172239800Y-107200240D01*
X172239800Y-107200247D01*
X172236003Y-107238800D01*
X172239800Y-107277353D01*
X172239801Y-113296237D01*
X172236003Y-113334800D01*
X172251159Y-113488686D01*
X172296046Y-113636659D01*
X172322847Y-113686800D01*
X172368939Y-113773033D01*
X172392286Y-113801481D01*
X172442455Y-113862612D01*
X172442459Y-113862616D01*
X172467037Y-113892564D01*
X172496985Y-113917142D01*
X176449633Y-117869791D01*
X176426359Y-117946514D01*
X176420420Y-118006820D01*
X176358026Y-118058025D01*
X176209943Y-118238464D01*
X176200000Y-118257065D01*
X176190058Y-118238464D01*
X176041975Y-118058025D01*
X175861536Y-117909942D01*
X175655674Y-117799906D01*
X175432300Y-117732147D01*
X175200000Y-117709267D01*
X174967701Y-117732147D01*
X174744327Y-117799906D01*
X174538465Y-117909942D01*
X174358026Y-118058025D01*
X174209943Y-118238464D01*
X174099906Y-118444326D01*
X174032147Y-118667700D01*
X174015000Y-118841793D01*
X174015000Y-120358206D01*
X174020595Y-120415010D01*
X169886767Y-120415010D01*
X168776600Y-119304843D01*
X168776600Y-119278061D01*
X168736826Y-119078102D01*
X168658805Y-118889744D01*
X168545537Y-118720226D01*
X168526600Y-118701289D01*
X168526600Y-112913279D01*
X168628359Y-113126920D01*
X168802412Y-113360269D01*
X169018645Y-113555178D01*
X169268748Y-113704157D01*
X169543109Y-113801481D01*
X169773000Y-113680814D01*
X169773000Y-112487000D01*
X170027000Y-112487000D01*
X170027000Y-113680814D01*
X170256891Y-113801481D01*
X170531252Y-113704157D01*
X170781355Y-113555178D01*
X170997588Y-113360269D01*
X171171641Y-113126920D01*
X171296825Y-112864099D01*
X171341476Y-112716890D01*
X171220155Y-112487000D01*
X170027000Y-112487000D01*
X169773000Y-112487000D01*
X169753000Y-112487000D01*
X169753000Y-112233000D01*
X169773000Y-112233000D01*
X169773000Y-112213000D01*
X170027000Y-112213000D01*
X170027000Y-112233000D01*
X171220155Y-112233000D01*
X171341476Y-112003110D01*
X171296825Y-111855901D01*
X171171641Y-111593080D01*
X170997588Y-111359731D01*
X170781355Y-111164822D01*
X170664466Y-111095195D01*
X170846632Y-110973475D01*
X171053475Y-110766632D01*
X171215990Y-110523411D01*
X171327932Y-110253158D01*
X171385000Y-109966260D01*
X171385000Y-109673740D01*
X171327932Y-109386842D01*
X171215990Y-109116589D01*
X171053475Y-108873368D01*
X170846632Y-108666525D01*
X170672240Y-108550000D01*
X170846632Y-108433475D01*
X171053475Y-108226632D01*
X171215990Y-107983411D01*
X171327932Y-107713158D01*
X171385000Y-107426260D01*
X171385000Y-107133740D01*
X171327932Y-106846842D01*
X171215990Y-106576589D01*
X171053475Y-106333368D01*
X170846632Y-106126525D01*
X170672240Y-106010000D01*
X170846632Y-105893475D01*
X171053475Y-105686632D01*
X171215990Y-105443411D01*
X171327932Y-105173158D01*
X171385000Y-104886260D01*
X171385000Y-104593740D01*
X171327932Y-104306842D01*
X171215990Y-104036589D01*
X171053475Y-103793368D01*
X170921620Y-103661513D01*
X170994180Y-103639502D01*
X171104494Y-103580537D01*
X171201185Y-103501185D01*
X171280537Y-103404494D01*
X171339502Y-103294180D01*
X171375812Y-103174482D01*
X171388072Y-103050000D01*
X171388072Y-101350000D01*
X171375812Y-101225518D01*
X171339502Y-101105820D01*
X171280537Y-100995506D01*
X171201185Y-100898815D01*
X171104494Y-100819463D01*
X170994180Y-100760498D01*
X170874482Y-100724188D01*
X170750000Y-100711928D01*
X169050000Y-100711928D01*
X168925518Y-100724188D01*
X168805820Y-100760498D01*
X168695506Y-100819463D01*
X168598815Y-100898815D01*
X168519463Y-100995506D01*
X168460498Y-101105820D01*
X168424188Y-101225518D01*
X168411928Y-101350000D01*
X168411928Y-103050000D01*
X168424188Y-103174482D01*
X168460498Y-103294180D01*
X168519463Y-103404494D01*
X168598815Y-103501185D01*
X168695506Y-103580537D01*
X168805820Y-103639502D01*
X168878380Y-103661513D01*
X168746525Y-103793368D01*
X168638526Y-103955000D01*
X168551756Y-103955000D01*
X168513200Y-103951203D01*
X168474645Y-103955000D01*
X168474639Y-103955000D01*
X168430249Y-103959372D01*
X168359314Y-103966358D01*
X168256228Y-103997629D01*
X168211340Y-104011246D01*
X168074967Y-104084138D01*
X167955436Y-104182236D01*
X167930853Y-104212190D01*
X167213785Y-104929258D01*
X167183837Y-104953836D01*
X167159259Y-104983784D01*
X167159255Y-104983788D01*
X167147751Y-104997806D01*
X167085739Y-105073367D01*
X167055153Y-105130590D01*
X167012846Y-105209741D01*
X166996699Y-105262972D01*
X166978818Y-105241184D01*
X166945050Y-105213471D01*
X165408230Y-103676652D01*
X165653158Y-103627932D01*
X165923411Y-103515990D01*
X166166632Y-103353475D01*
X166373475Y-103146632D01*
X166535990Y-102903411D01*
X166647932Y-102633158D01*
X166705000Y-102346260D01*
X166705000Y-102053740D01*
X166647932Y-101766842D01*
X166535990Y-101496589D01*
X166373475Y-101253368D01*
X166166632Y-101046525D01*
X165923411Y-100884010D01*
X165653158Y-100772068D01*
X165366260Y-100715000D01*
X165073740Y-100715000D01*
X164786842Y-100772068D01*
X164516589Y-100884010D01*
X164273368Y-101046525D01*
X164066525Y-101253368D01*
X163950000Y-101427760D01*
X163833475Y-101253368D01*
X163626632Y-101046525D01*
X163383411Y-100884010D01*
X163113158Y-100772068D01*
X162826260Y-100715000D01*
X162533740Y-100715000D01*
X162246842Y-100772068D01*
X161976589Y-100884010D01*
X161733368Y-101046525D01*
X161526525Y-101253368D01*
X161404805Y-101435534D01*
X161335178Y-101318645D01*
X161140269Y-101102412D01*
X160906920Y-100928359D01*
X160644099Y-100803175D01*
X160496890Y-100758524D01*
X160267000Y-100879845D01*
X160267000Y-102073000D01*
X160287000Y-102073000D01*
X160287000Y-102327000D01*
X160267000Y-102327000D01*
X160267000Y-103520155D01*
X160496890Y-103641476D01*
X160644099Y-103596825D01*
X160906920Y-103471641D01*
X161140269Y-103297588D01*
X161335178Y-103081355D01*
X161404805Y-102964466D01*
X161526525Y-103146632D01*
X161733368Y-103353475D01*
X161976589Y-103515990D01*
X162246842Y-103627932D01*
X162533740Y-103685000D01*
X162826260Y-103685000D01*
X162898960Y-103670539D01*
X162934952Y-103706531D01*
X162934957Y-103706535D01*
X165465002Y-106236581D01*
X165465001Y-116611928D01*
X164150000Y-116611928D01*
X164025518Y-116624188D01*
X163905820Y-116660498D01*
X163795506Y-116719463D01*
X163698815Y-116798815D01*
X163619463Y-116895506D01*
X163560498Y-117005820D01*
X163524188Y-117125518D01*
X163515375Y-117215000D01*
X154545372Y-117215000D01*
X154453089Y-117187006D01*
X154279599Y-117169919D01*
X154106109Y-117187006D01*
X153939287Y-117237612D01*
X153785541Y-117319790D01*
X153684554Y-117402668D01*
X153643756Y-117443466D01*
X153609983Y-117471183D01*
X153582266Y-117504956D01*
X153455959Y-117631263D01*
X153455953Y-117631268D01*
X136672221Y-134415001D01*
X130209721Y-134415001D01*
X130219400Y-134366339D01*
X130219400Y-134162461D01*
X130179626Y-133962502D01*
X130101605Y-133774144D01*
X129988337Y-133604626D01*
X129844174Y-133460463D01*
X129674656Y-133347195D01*
X129486298Y-133269174D01*
X129286339Y-133229400D01*
X129259558Y-133229400D01*
X124530612Y-128500455D01*
X124322347Y-128292190D01*
X124297764Y-128262236D01*
X124178233Y-128164138D01*
X124041860Y-128091246D01*
X123893887Y-128046359D01*
X123778561Y-128035000D01*
X123778553Y-128035000D01*
X123740000Y-128031203D01*
X123701447Y-128035000D01*
X121448072Y-128035000D01*
X121448072Y-127920000D01*
X121435812Y-127795518D01*
X121399502Y-127675820D01*
X121340537Y-127565506D01*
X121327812Y-127550000D01*
X121340537Y-127534494D01*
X121399502Y-127424180D01*
X121435812Y-127304482D01*
X121448072Y-127180000D01*
X121448072Y-127065000D01*
X133421847Y-127065000D01*
X133460400Y-127068797D01*
X133498953Y-127065000D01*
X133498961Y-127065000D01*
X133614287Y-127053641D01*
X133762260Y-127008754D01*
X133898633Y-126935862D01*
X134018164Y-126837764D01*
X134042747Y-126807810D01*
X147695958Y-113154600D01*
X155986328Y-113154600D01*
X155986328Y-114139600D01*
X155998588Y-114264082D01*
X156034898Y-114383780D01*
X156093863Y-114494094D01*
X156173215Y-114590785D01*
X156269906Y-114670137D01*
X156380220Y-114729102D01*
X156499918Y-114765412D01*
X156624400Y-114777672D01*
X157624400Y-114777672D01*
X157748882Y-114765412D01*
X157868580Y-114729102D01*
X157978894Y-114670137D01*
X158075585Y-114590785D01*
X158154937Y-114494094D01*
X158213902Y-114383780D01*
X158250212Y-114264082D01*
X158262472Y-114139600D01*
X158262472Y-113139600D01*
X158250212Y-113015118D01*
X158213902Y-112895420D01*
X158169512Y-112812374D01*
X158215783Y-112700667D01*
X158259400Y-112481388D01*
X158259400Y-112257812D01*
X158215783Y-112038533D01*
X158130224Y-111831976D01*
X158065159Y-111734600D01*
X158130224Y-111637224D01*
X158215783Y-111430667D01*
X158259400Y-111211388D01*
X158259400Y-110987812D01*
X158215783Y-110768533D01*
X158130224Y-110561976D01*
X158065159Y-110464600D01*
X158130224Y-110367224D01*
X158215783Y-110160667D01*
X158259400Y-109941388D01*
X158259400Y-109717812D01*
X158215783Y-109498533D01*
X158130224Y-109291976D01*
X158006012Y-109106080D01*
X157847920Y-108947988D01*
X157662024Y-108823776D01*
X157455467Y-108738217D01*
X157236188Y-108694600D01*
X157012612Y-108694600D01*
X156793333Y-108738217D01*
X156586776Y-108823776D01*
X156400880Y-108947988D01*
X156242788Y-109106080D01*
X156118576Y-109291976D01*
X156033017Y-109498533D01*
X155989400Y-109717812D01*
X155989400Y-109941388D01*
X156033017Y-110160667D01*
X156117820Y-110365400D01*
X125278152Y-110365400D01*
X125239599Y-110361603D01*
X125201046Y-110365400D01*
X125201039Y-110365400D01*
X125100090Y-110375343D01*
X125085712Y-110376759D01*
X125051272Y-110387206D01*
X124937740Y-110421646D01*
X124801367Y-110494538D01*
X124755797Y-110531937D01*
X124711787Y-110568055D01*
X124711784Y-110568058D01*
X124681836Y-110592636D01*
X124657258Y-110622584D01*
X110782185Y-124497658D01*
X110752237Y-124522236D01*
X110727659Y-124552184D01*
X110727655Y-124552188D01*
X110694690Y-124592356D01*
X110654139Y-124641767D01*
X110643219Y-124662198D01*
X110600602Y-124741928D01*
X109310000Y-124741928D01*
X109185518Y-124754188D01*
X109065820Y-124790498D01*
X108955506Y-124849463D01*
X108858815Y-124928815D01*
X108779463Y-125025506D01*
X108720498Y-125135820D01*
X108684188Y-125255518D01*
X108671928Y-125380000D01*
X108671928Y-127180000D01*
X108684188Y-127304482D01*
X108720498Y-127424180D01*
X108779463Y-127534494D01*
X108792188Y-127550000D01*
X108779463Y-127565506D01*
X108720498Y-127675820D01*
X108684188Y-127795518D01*
X108671928Y-127920000D01*
X108671928Y-128110601D01*
X108571767Y-128164138D01*
X108531400Y-128197267D01*
X108482187Y-128237655D01*
X108482184Y-128237658D01*
X108452236Y-128262236D01*
X108427658Y-128292184D01*
X106824588Y-129895255D01*
X106794634Y-129919838D01*
X106696536Y-130039370D01*
X106623644Y-130175743D01*
X106578757Y-130323716D01*
X106567398Y-130439042D01*
X106567398Y-130439049D01*
X106563601Y-130477602D01*
X106567398Y-130516155D01*
X106567399Y-134487757D01*
X106563601Y-134526320D01*
X106578757Y-134680206D01*
X106623644Y-134828179D01*
X106623645Y-134828180D01*
X106696537Y-134964553D01*
X106720010Y-134993154D01*
X106770053Y-135054132D01*
X106770057Y-135054136D01*
X106794635Y-135084084D01*
X106824583Y-135108662D01*
X108997331Y-137281410D01*
X109021914Y-137311364D01*
X109141445Y-137409462D01*
X109277818Y-137482354D01*
X109425791Y-137527242D01*
X109500704Y-137534620D01*
X109541117Y-137538600D01*
X109541122Y-137538600D01*
X109579678Y-137542397D01*
X109618234Y-137538600D01*
X128454889Y-137538600D01*
X128473826Y-137557537D01*
X128643344Y-137670805D01*
X128831702Y-137748826D01*
X129031661Y-137788600D01*
X129235539Y-137788600D01*
X129435498Y-137748826D01*
X129623856Y-137670805D01*
X129793374Y-137557537D01*
X129937537Y-137413374D01*
X130050805Y-137243856D01*
X130128826Y-137055498D01*
X130168600Y-136855539D01*
X130168600Y-136651661D01*
X130128826Y-136451702D01*
X130050805Y-136263344D01*
X129998458Y-136185001D01*
X136770842Y-136185001D01*
X125340843Y-147615000D01*
X105735000Y-147615000D01*
X105735000Y-146069678D01*
X105711343Y-145829484D01*
X105617852Y-145521285D01*
X105466031Y-145237248D01*
X105261714Y-144988286D01*
X105012751Y-144783969D01*
X104728714Y-144632148D01*
X104420515Y-144538657D01*
X104100000Y-144507089D01*
X103779484Y-144538657D01*
X103471285Y-144632148D01*
X103187248Y-144783969D01*
X102938286Y-144988286D01*
X102733969Y-145237249D01*
X102582148Y-145521286D01*
X102488657Y-145829485D01*
X102465000Y-146069679D01*
X102465000Y-147615000D01*
X101163000Y-147615000D01*
X101163000Y-146069678D01*
X101139343Y-145829484D01*
X101045852Y-145521285D01*
X100894031Y-145237248D01*
X100689714Y-144988286D01*
X100491255Y-144825416D01*
X100537474Y-144738493D01*
X100560263Y-144683201D01*
X100583835Y-144628205D01*
X100586559Y-144619402D01*
X100620404Y-144507300D01*
X100632020Y-144448635D01*
X100644460Y-144390111D01*
X100645423Y-144380946D01*
X100656850Y-144264405D01*
X100656850Y-144264402D01*
X100660000Y-144232419D01*
X100660000Y-101532277D01*
X100677872Y-101350000D01*
X156111928Y-101350000D01*
X156111928Y-103050000D01*
X156124188Y-103174482D01*
X156160498Y-103294180D01*
X156219463Y-103404494D01*
X156298815Y-103501185D01*
X156395506Y-103580537D01*
X156505820Y-103639502D01*
X156625518Y-103675812D01*
X156750000Y-103688072D01*
X158450000Y-103688072D01*
X158574482Y-103675812D01*
X158694180Y-103639502D01*
X158804494Y-103580537D01*
X158901185Y-103501185D01*
X158980537Y-103404494D01*
X159039502Y-103294180D01*
X159063966Y-103213534D01*
X159139731Y-103297588D01*
X159373080Y-103471641D01*
X159635901Y-103596825D01*
X159783110Y-103641476D01*
X160013000Y-103520155D01*
X160013000Y-102327000D01*
X159993000Y-102327000D01*
X159993000Y-102073000D01*
X160013000Y-102073000D01*
X160013000Y-100879845D01*
X159783110Y-100758524D01*
X159635901Y-100803175D01*
X159373080Y-100928359D01*
X159139731Y-101102412D01*
X159063966Y-101186466D01*
X159039502Y-101105820D01*
X158980537Y-100995506D01*
X158901185Y-100898815D01*
X158804494Y-100819463D01*
X158694180Y-100760498D01*
X158574482Y-100724188D01*
X158450000Y-100711928D01*
X156750000Y-100711928D01*
X156625518Y-100724188D01*
X156505820Y-100760498D01*
X156395506Y-100819463D01*
X156298815Y-100898815D01*
X156219463Y-100995506D01*
X156160498Y-101105820D01*
X156124188Y-101225518D01*
X156111928Y-101350000D01*
X100677872Y-101350000D01*
X100679102Y-101337460D01*
X100726308Y-101181106D01*
X100802982Y-101036904D01*
X100906207Y-100910337D01*
X101032051Y-100806231D01*
X101175711Y-100728553D01*
X101331729Y-100680258D01*
X101524473Y-100660000D01*
X196467723Y-100660000D01*
X196662540Y-100679102D01*
G37*
G04 #@! TD.AperFunction*
D25*
X133135243Y-125495000D02*
X121448072Y-125495000D01*
X121448072Y-125380000D01*
X121435812Y-125255518D01*
X121399502Y-125135820D01*
X121340537Y-125025506D01*
X121261185Y-124928815D01*
X121164494Y-124849463D01*
X121054180Y-124790498D01*
X120934482Y-124754188D01*
X120810000Y-124741928D01*
X116810000Y-124741928D01*
X116685518Y-124754188D01*
X116565820Y-124790498D01*
X116455506Y-124849463D01*
X116358815Y-124928815D01*
X116279463Y-125025506D01*
X116220498Y-125135820D01*
X116184188Y-125255518D01*
X116171928Y-125380000D01*
X116171928Y-127180000D01*
X116184188Y-127304482D01*
X116220498Y-127424180D01*
X116279463Y-127534494D01*
X116292188Y-127550000D01*
X116279463Y-127565506D01*
X116220498Y-127675820D01*
X116184188Y-127795518D01*
X116171928Y-127920000D01*
X116171928Y-129720000D01*
X116184188Y-129844482D01*
X116220498Y-129964180D01*
X116279463Y-130074494D01*
X116292188Y-130090000D01*
X116279463Y-130105506D01*
X116220498Y-130215820D01*
X116184188Y-130335518D01*
X116171928Y-130460000D01*
X116171928Y-132260000D01*
X116184188Y-132384482D01*
X116220498Y-132504180D01*
X116279463Y-132614494D01*
X116292188Y-132630000D01*
X116279463Y-132645506D01*
X116220498Y-132755820D01*
X116184188Y-132875518D01*
X116171928Y-133000000D01*
X116175000Y-133614250D01*
X116333750Y-133773000D01*
X118683000Y-133773000D01*
X118683000Y-133753000D01*
X118937000Y-133753000D01*
X118937000Y-133773000D01*
X121286250Y-133773000D01*
X121445000Y-133614250D01*
X121448072Y-133000000D01*
X121435812Y-132875518D01*
X121399502Y-132755820D01*
X121340537Y-132645506D01*
X121327812Y-132630000D01*
X121340537Y-132614494D01*
X121399502Y-132504180D01*
X121435812Y-132384482D01*
X121448072Y-132260000D01*
X121448072Y-132145000D01*
X123467689Y-132145000D01*
X123495426Y-132172737D01*
X123664944Y-132286005D01*
X123853302Y-132364026D01*
X124053261Y-132403800D01*
X124257139Y-132403800D01*
X124457098Y-132364026D01*
X124645456Y-132286005D01*
X124814974Y-132172737D01*
X124959137Y-132028574D01*
X125072405Y-131859056D01*
X125150426Y-131670698D01*
X125190200Y-131470739D01*
X125190200Y-131380357D01*
X128149400Y-134339558D01*
X128149400Y-134366339D01*
X128159079Y-134415001D01*
X126297611Y-134415001D01*
X126254142Y-134410720D01*
X126210673Y-134415001D01*
X126210665Y-134415001D01*
X126080652Y-134427806D01*
X125913829Y-134478412D01*
X125760083Y-134560590D01*
X125625325Y-134671184D01*
X125597610Y-134704955D01*
X125307154Y-134995411D01*
X121414296Y-134995411D01*
X121435812Y-134924482D01*
X121448072Y-134800000D01*
X121445000Y-134185750D01*
X121286250Y-134027000D01*
X118937000Y-134027000D01*
X118937000Y-134047000D01*
X118683000Y-134047000D01*
X118683000Y-134027000D01*
X116333750Y-134027000D01*
X116175000Y-134185750D01*
X116171928Y-134800000D01*
X116184188Y-134924482D01*
X116205704Y-134995411D01*
X113914296Y-134995411D01*
X113935812Y-134924482D01*
X113948072Y-134800000D01*
X113948072Y-133000000D01*
X113935812Y-132875518D01*
X113899502Y-132755820D01*
X113840537Y-132645506D01*
X113827812Y-132630000D01*
X113840537Y-132614494D01*
X113899502Y-132504180D01*
X113935812Y-132384482D01*
X113948072Y-132260000D01*
X113948072Y-130460000D01*
X113935812Y-130335518D01*
X113899502Y-130215820D01*
X113840537Y-130105506D01*
X113827812Y-130090000D01*
X113840537Y-130074494D01*
X113899502Y-129964180D01*
X113935812Y-129844482D01*
X113948072Y-129720000D01*
X113948072Y-127920000D01*
X113935812Y-127795518D01*
X113899502Y-127675820D01*
X113840537Y-127565506D01*
X113827812Y-127550000D01*
X113840537Y-127534494D01*
X113899502Y-127424180D01*
X113935812Y-127304482D01*
X113948072Y-127180000D01*
X113948072Y-125380000D01*
X113935812Y-125255518D01*
X113899502Y-125135820D01*
X113840537Y-125025506D01*
X113761185Y-124928815D01*
X113664494Y-124849463D01*
X113554180Y-124790498D01*
X113434482Y-124754188D01*
X113310000Y-124741928D01*
X112758229Y-124741928D01*
X125564758Y-111935400D01*
X146694842Y-111935400D01*
X133135243Y-125495000D01*
G04 #@! TA.AperFunction,Conductor*
D26*
G36*
X133135243Y-125495000D02*
G01*
X121448072Y-125495000D01*
X121448072Y-125380000D01*
X121435812Y-125255518D01*
X121399502Y-125135820D01*
X121340537Y-125025506D01*
X121261185Y-124928815D01*
X121164494Y-124849463D01*
X121054180Y-124790498D01*
X120934482Y-124754188D01*
X120810000Y-124741928D01*
X116810000Y-124741928D01*
X116685518Y-124754188D01*
X116565820Y-124790498D01*
X116455506Y-124849463D01*
X116358815Y-124928815D01*
X116279463Y-125025506D01*
X116220498Y-125135820D01*
X116184188Y-125255518D01*
X116171928Y-125380000D01*
X116171928Y-127180000D01*
X116184188Y-127304482D01*
X116220498Y-127424180D01*
X116279463Y-127534494D01*
X116292188Y-127550000D01*
X116279463Y-127565506D01*
X116220498Y-127675820D01*
X116184188Y-127795518D01*
X116171928Y-127920000D01*
X116171928Y-129720000D01*
X116184188Y-129844482D01*
X116220498Y-129964180D01*
X116279463Y-130074494D01*
X116292188Y-130090000D01*
X116279463Y-130105506D01*
X116220498Y-130215820D01*
X116184188Y-130335518D01*
X116171928Y-130460000D01*
X116171928Y-132260000D01*
X116184188Y-132384482D01*
X116220498Y-132504180D01*
X116279463Y-132614494D01*
X116292188Y-132630000D01*
X116279463Y-132645506D01*
X116220498Y-132755820D01*
X116184188Y-132875518D01*
X116171928Y-133000000D01*
X116175000Y-133614250D01*
X116333750Y-133773000D01*
X118683000Y-133773000D01*
X118683000Y-133753000D01*
X118937000Y-133753000D01*
X118937000Y-133773000D01*
X121286250Y-133773000D01*
X121445000Y-133614250D01*
X121448072Y-133000000D01*
X121435812Y-132875518D01*
X121399502Y-132755820D01*
X121340537Y-132645506D01*
X121327812Y-132630000D01*
X121340537Y-132614494D01*
X121399502Y-132504180D01*
X121435812Y-132384482D01*
X121448072Y-132260000D01*
X121448072Y-132145000D01*
X123467689Y-132145000D01*
X123495426Y-132172737D01*
X123664944Y-132286005D01*
X123853302Y-132364026D01*
X124053261Y-132403800D01*
X124257139Y-132403800D01*
X124457098Y-132364026D01*
X124645456Y-132286005D01*
X124814974Y-132172737D01*
X124959137Y-132028574D01*
X125072405Y-131859056D01*
X125150426Y-131670698D01*
X125190200Y-131470739D01*
X125190200Y-131380357D01*
X128149400Y-134339558D01*
X128149400Y-134366339D01*
X128159079Y-134415001D01*
X126297611Y-134415001D01*
X126254142Y-134410720D01*
X126210673Y-134415001D01*
X126210665Y-134415001D01*
X126080652Y-134427806D01*
X125913829Y-134478412D01*
X125760083Y-134560590D01*
X125625325Y-134671184D01*
X125597610Y-134704955D01*
X125307154Y-134995411D01*
X121414296Y-134995411D01*
X121435812Y-134924482D01*
X121448072Y-134800000D01*
X121445000Y-134185750D01*
X121286250Y-134027000D01*
X118937000Y-134027000D01*
X118937000Y-134047000D01*
X118683000Y-134047000D01*
X118683000Y-134027000D01*
X116333750Y-134027000D01*
X116175000Y-134185750D01*
X116171928Y-134800000D01*
X116184188Y-134924482D01*
X116205704Y-134995411D01*
X113914296Y-134995411D01*
X113935812Y-134924482D01*
X113948072Y-134800000D01*
X113948072Y-133000000D01*
X113935812Y-132875518D01*
X113899502Y-132755820D01*
X113840537Y-132645506D01*
X113827812Y-132630000D01*
X113840537Y-132614494D01*
X113899502Y-132504180D01*
X113935812Y-132384482D01*
X113948072Y-132260000D01*
X113948072Y-130460000D01*
X113935812Y-130335518D01*
X113899502Y-130215820D01*
X113840537Y-130105506D01*
X113827812Y-130090000D01*
X113840537Y-130074494D01*
X113899502Y-129964180D01*
X113935812Y-129844482D01*
X113948072Y-129720000D01*
X113948072Y-127920000D01*
X113935812Y-127795518D01*
X113899502Y-127675820D01*
X113840537Y-127565506D01*
X113827812Y-127550000D01*
X113840537Y-127534494D01*
X113899502Y-127424180D01*
X113935812Y-127304482D01*
X113948072Y-127180000D01*
X113948072Y-125380000D01*
X113935812Y-125255518D01*
X113899502Y-125135820D01*
X113840537Y-125025506D01*
X113761185Y-124928815D01*
X113664494Y-124849463D01*
X113554180Y-124790498D01*
X113434482Y-124754188D01*
X113310000Y-124741928D01*
X112758229Y-124741928D01*
X125564758Y-111935400D01*
X146694842Y-111935400D01*
X133135243Y-125495000D01*
G37*
G04 #@! TD.AperFunction*
D25*
X171632147Y-126057700D02*
X171609267Y-126290000D01*
X171632147Y-126522300D01*
X171699906Y-126745674D01*
X171809942Y-126951536D01*
X171958025Y-127131975D01*
X172138464Y-127280058D01*
X172157064Y-127290000D01*
X172138464Y-127299942D01*
X171958025Y-127448025D01*
X171809942Y-127628464D01*
X171699906Y-127834326D01*
X171632147Y-128057700D01*
X171609267Y-128290000D01*
X171632147Y-128522300D01*
X171699906Y-128745674D01*
X171809942Y-128951536D01*
X171958025Y-129131975D01*
X172138464Y-129280058D01*
X172157064Y-129290000D01*
X172138464Y-129299942D01*
X171958025Y-129448025D01*
X171809942Y-129628464D01*
X171699906Y-129834326D01*
X171632147Y-130057700D01*
X171609267Y-130290000D01*
X171632147Y-130522300D01*
X171699906Y-130745674D01*
X171809942Y-130951536D01*
X171958025Y-131131975D01*
X172138464Y-131280058D01*
X172157064Y-131290000D01*
X172138464Y-131299942D01*
X171958025Y-131448025D01*
X171809942Y-131628464D01*
X171699906Y-131834326D01*
X171632147Y-132057700D01*
X171609267Y-132290000D01*
X171632147Y-132522300D01*
X171699906Y-132745674D01*
X171809942Y-132951536D01*
X171958025Y-133131975D01*
X172138464Y-133280058D01*
X172158509Y-133290772D01*
X172011702Y-133319974D01*
X171823344Y-133397995D01*
X171653826Y-133511263D01*
X171634889Y-133530200D01*
X168711721Y-133530200D01*
X168553475Y-133293368D01*
X168421620Y-133161513D01*
X168494180Y-133139502D01*
X168604494Y-133080537D01*
X168701185Y-133001185D01*
X168780537Y-132904494D01*
X168839502Y-132794180D01*
X168875812Y-132674482D01*
X168888072Y-132550000D01*
X168885000Y-131985750D01*
X168726250Y-131827000D01*
X167527000Y-131827000D01*
X167527000Y-131847000D01*
X167273000Y-131847000D01*
X167273000Y-131827000D01*
X166073750Y-131827000D01*
X165915000Y-131985750D01*
X165911928Y-132550000D01*
X165924188Y-132674482D01*
X165960498Y-132794180D01*
X166019463Y-132904494D01*
X166098815Y-133001185D01*
X166195506Y-133080537D01*
X166305820Y-133139502D01*
X166378380Y-133161513D01*
X166246525Y-133293368D01*
X166084010Y-133536589D01*
X165972068Y-133806842D01*
X165915000Y-134093740D01*
X165915000Y-134386260D01*
X165968456Y-134655001D01*
X164591509Y-134655001D01*
X164792367Y-134520792D01*
X165020032Y-134293127D01*
X165198907Y-134025422D01*
X165322118Y-133727963D01*
X165384930Y-133412183D01*
X165384930Y-133090217D01*
X165322118Y-132774437D01*
X165198907Y-132476978D01*
X165020032Y-132209273D01*
X164792367Y-131981608D01*
X164747006Y-131951299D01*
X165918879Y-130779426D01*
X165911928Y-130850000D01*
X165915000Y-131414250D01*
X166073750Y-131573000D01*
X167273000Y-131573000D01*
X167273000Y-130373750D01*
X167527000Y-130373750D01*
X167527000Y-131573000D01*
X168726250Y-131573000D01*
X168885000Y-131414250D01*
X168888072Y-130850000D01*
X168875812Y-130725518D01*
X168839502Y-130605820D01*
X168780537Y-130495506D01*
X168701185Y-130398815D01*
X168604494Y-130319463D01*
X168494180Y-130260498D01*
X168374482Y-130224188D01*
X168250000Y-130211928D01*
X167685750Y-130215000D01*
X167527000Y-130373750D01*
X167273000Y-130373750D01*
X167114250Y-130215000D01*
X166550000Y-130211928D01*
X166479426Y-130218879D01*
X170723295Y-125975010D01*
X171657230Y-125975010D01*
X171632147Y-126057700D01*
G04 #@! TA.AperFunction,Conductor*
D26*
G36*
X171632147Y-126057700D02*
G01*
X171609267Y-126290000D01*
X171632147Y-126522300D01*
X171699906Y-126745674D01*
X171809942Y-126951536D01*
X171958025Y-127131975D01*
X172138464Y-127280058D01*
X172157064Y-127290000D01*
X172138464Y-127299942D01*
X171958025Y-127448025D01*
X171809942Y-127628464D01*
X171699906Y-127834326D01*
X171632147Y-128057700D01*
X171609267Y-128290000D01*
X171632147Y-128522300D01*
X171699906Y-128745674D01*
X171809942Y-128951536D01*
X171958025Y-129131975D01*
X172138464Y-129280058D01*
X172157064Y-129290000D01*
X172138464Y-129299942D01*
X171958025Y-129448025D01*
X171809942Y-129628464D01*
X171699906Y-129834326D01*
X171632147Y-130057700D01*
X171609267Y-130290000D01*
X171632147Y-130522300D01*
X171699906Y-130745674D01*
X171809942Y-130951536D01*
X171958025Y-131131975D01*
X172138464Y-131280058D01*
X172157064Y-131290000D01*
X172138464Y-131299942D01*
X171958025Y-131448025D01*
X171809942Y-131628464D01*
X171699906Y-131834326D01*
X171632147Y-132057700D01*
X171609267Y-132290000D01*
X171632147Y-132522300D01*
X171699906Y-132745674D01*
X171809942Y-132951536D01*
X171958025Y-133131975D01*
X172138464Y-133280058D01*
X172158509Y-133290772D01*
X172011702Y-133319974D01*
X171823344Y-133397995D01*
X171653826Y-133511263D01*
X171634889Y-133530200D01*
X168711721Y-133530200D01*
X168553475Y-133293368D01*
X168421620Y-133161513D01*
X168494180Y-133139502D01*
X168604494Y-133080537D01*
X168701185Y-133001185D01*
X168780537Y-132904494D01*
X168839502Y-132794180D01*
X168875812Y-132674482D01*
X168888072Y-132550000D01*
X168885000Y-131985750D01*
X168726250Y-131827000D01*
X167527000Y-131827000D01*
X167527000Y-131847000D01*
X167273000Y-131847000D01*
X167273000Y-131827000D01*
X166073750Y-131827000D01*
X165915000Y-131985750D01*
X165911928Y-132550000D01*
X165924188Y-132674482D01*
X165960498Y-132794180D01*
X166019463Y-132904494D01*
X166098815Y-133001185D01*
X166195506Y-133080537D01*
X166305820Y-133139502D01*
X166378380Y-133161513D01*
X166246525Y-133293368D01*
X166084010Y-133536589D01*
X165972068Y-133806842D01*
X165915000Y-134093740D01*
X165915000Y-134386260D01*
X165968456Y-134655001D01*
X164591509Y-134655001D01*
X164792367Y-134520792D01*
X165020032Y-134293127D01*
X165198907Y-134025422D01*
X165322118Y-133727963D01*
X165384930Y-133412183D01*
X165384930Y-133090217D01*
X165322118Y-132774437D01*
X165198907Y-132476978D01*
X165020032Y-132209273D01*
X164792367Y-131981608D01*
X164747006Y-131951299D01*
X165918879Y-130779426D01*
X165911928Y-130850000D01*
X165915000Y-131414250D01*
X166073750Y-131573000D01*
X167273000Y-131573000D01*
X167273000Y-130373750D01*
X167527000Y-130373750D01*
X167527000Y-131573000D01*
X168726250Y-131573000D01*
X168885000Y-131414250D01*
X168888072Y-130850000D01*
X168875812Y-130725518D01*
X168839502Y-130605820D01*
X168780537Y-130495506D01*
X168701185Y-130398815D01*
X168604494Y-130319463D01*
X168494180Y-130260498D01*
X168374482Y-130224188D01*
X168250000Y-130211928D01*
X167685750Y-130215000D01*
X167527000Y-130373750D01*
X167273000Y-130373750D01*
X167114250Y-130215000D01*
X166550000Y-130211928D01*
X166479426Y-130218879D01*
X170723295Y-125975010D01*
X171657230Y-125975010D01*
X171632147Y-126057700D01*
G37*
G04 #@! TD.AperFunction*
D25*
X177173000Y-153340000D02*
X176451398Y-153340000D01*
X176480537Y-153304494D01*
X176539502Y-153194180D01*
X176575812Y-153074482D01*
X176588072Y-152950000D01*
X176588072Y-151250000D01*
X176575812Y-151125518D01*
X176539502Y-151005820D01*
X176480537Y-150895506D01*
X176401185Y-150798815D01*
X176304494Y-150719463D01*
X176194180Y-150660498D01*
X176074482Y-150624188D01*
X175950000Y-150611928D01*
X174250000Y-150611928D01*
X174125518Y-150624188D01*
X174056486Y-150645129D01*
X171672200Y-148260843D01*
X171672200Y-148234061D01*
X171632426Y-148034102D01*
X171554405Y-147845744D01*
X171441137Y-147676226D01*
X171296974Y-147532063D01*
X171127456Y-147418795D01*
X170939098Y-147340774D01*
X170739139Y-147301000D01*
X170535261Y-147301000D01*
X170335302Y-147340774D01*
X170146944Y-147418795D01*
X169977426Y-147532063D01*
X169833263Y-147676226D01*
X169719995Y-147845744D01*
X169641974Y-148034102D01*
X169602200Y-148234061D01*
X169602200Y-148437939D01*
X169641974Y-148637898D01*
X169719995Y-148826256D01*
X169833263Y-148995774D01*
X169977426Y-149139937D01*
X170146944Y-149253205D01*
X170335302Y-149331226D01*
X170535261Y-149371000D01*
X170562043Y-149371000D01*
X171802971Y-150611928D01*
X171263507Y-150611928D01*
X170272132Y-149620554D01*
X170244417Y-149586783D01*
X170109659Y-149476189D01*
X169955913Y-149394011D01*
X169789090Y-149343405D01*
X169659077Y-149330600D01*
X169659069Y-149330600D01*
X169615600Y-149326319D01*
X169572131Y-149330600D01*
X165765282Y-149330600D01*
X165641056Y-149247595D01*
X165452698Y-149169574D01*
X165252739Y-149129800D01*
X165048861Y-149129800D01*
X164848902Y-149169574D01*
X164660544Y-149247595D01*
X164606560Y-149283666D01*
X158571527Y-149326773D01*
X158529056Y-149298395D01*
X158340698Y-149220374D01*
X158140739Y-149180600D01*
X157936861Y-149180600D01*
X157736902Y-149220374D01*
X157548544Y-149298395D01*
X157379026Y-149411663D01*
X157234863Y-149555826D01*
X157227000Y-149567594D01*
X157227000Y-144727000D01*
X177173000Y-144727000D01*
X177173000Y-153340000D01*
G04 #@! TA.AperFunction,Conductor*
D26*
G36*
X177173000Y-153340000D02*
G01*
X176451398Y-153340000D01*
X176480537Y-153304494D01*
X176539502Y-153194180D01*
X176575812Y-153074482D01*
X176588072Y-152950000D01*
X176588072Y-151250000D01*
X176575812Y-151125518D01*
X176539502Y-151005820D01*
X176480537Y-150895506D01*
X176401185Y-150798815D01*
X176304494Y-150719463D01*
X176194180Y-150660498D01*
X176074482Y-150624188D01*
X175950000Y-150611928D01*
X174250000Y-150611928D01*
X174125518Y-150624188D01*
X174056486Y-150645129D01*
X171672200Y-148260843D01*
X171672200Y-148234061D01*
X171632426Y-148034102D01*
X171554405Y-147845744D01*
X171441137Y-147676226D01*
X171296974Y-147532063D01*
X171127456Y-147418795D01*
X170939098Y-147340774D01*
X170739139Y-147301000D01*
X170535261Y-147301000D01*
X170335302Y-147340774D01*
X170146944Y-147418795D01*
X169977426Y-147532063D01*
X169833263Y-147676226D01*
X169719995Y-147845744D01*
X169641974Y-148034102D01*
X169602200Y-148234061D01*
X169602200Y-148437939D01*
X169641974Y-148637898D01*
X169719995Y-148826256D01*
X169833263Y-148995774D01*
X169977426Y-149139937D01*
X170146944Y-149253205D01*
X170335302Y-149331226D01*
X170535261Y-149371000D01*
X170562043Y-149371000D01*
X171802971Y-150611928D01*
X171263507Y-150611928D01*
X170272132Y-149620554D01*
X170244417Y-149586783D01*
X170109659Y-149476189D01*
X169955913Y-149394011D01*
X169789090Y-149343405D01*
X169659077Y-149330600D01*
X169659069Y-149330600D01*
X169615600Y-149326319D01*
X169572131Y-149330600D01*
X165765282Y-149330600D01*
X165641056Y-149247595D01*
X165452698Y-149169574D01*
X165252739Y-149129800D01*
X165048861Y-149129800D01*
X164848902Y-149169574D01*
X164660544Y-149247595D01*
X164606560Y-149283666D01*
X158571527Y-149326773D01*
X158529056Y-149298395D01*
X158340698Y-149220374D01*
X158140739Y-149180600D01*
X157936861Y-149180600D01*
X157736902Y-149220374D01*
X157548544Y-149298395D01*
X157379026Y-149411663D01*
X157234863Y-149555826D01*
X157227000Y-149567594D01*
X157227000Y-144727000D01*
X177173000Y-144727000D01*
X177173000Y-153340000D01*
G37*
G04 #@! TD.AperFunction*
D25*
X157234863Y-150875374D02*
X157379026Y-151019537D01*
X157548544Y-151132805D01*
X157736902Y-151210826D01*
X157936861Y-151250600D01*
X158140739Y-151250600D01*
X158340698Y-151210826D01*
X158529056Y-151132805D01*
X158583040Y-151096734D01*
X160265543Y-151084716D01*
X160144822Y-151218645D01*
X159995843Y-151468748D01*
X159898519Y-151743109D01*
X160019186Y-151973000D01*
X161213000Y-151973000D01*
X161213000Y-151953000D01*
X161467000Y-151953000D01*
X161467000Y-151973000D01*
X161487000Y-151973000D01*
X161487000Y-152227000D01*
X161467000Y-152227000D01*
X161467000Y-152247000D01*
X161213000Y-152247000D01*
X161213000Y-152227000D01*
X160019186Y-152227000D01*
X159898519Y-152456891D01*
X159995843Y-152731252D01*
X160144822Y-152981355D01*
X160339731Y-153197588D01*
X160530660Y-153340000D01*
X157227000Y-153340000D01*
X157227000Y-150863606D01*
X157234863Y-150875374D01*
G04 #@! TA.AperFunction,Conductor*
D26*
G36*
X157234863Y-150875374D02*
G01*
X157379026Y-151019537D01*
X157548544Y-151132805D01*
X157736902Y-151210826D01*
X157936861Y-151250600D01*
X158140739Y-151250600D01*
X158340698Y-151210826D01*
X158529056Y-151132805D01*
X158583040Y-151096734D01*
X160265543Y-151084716D01*
X160144822Y-151218645D01*
X159995843Y-151468748D01*
X159898519Y-151743109D01*
X160019186Y-151973000D01*
X161213000Y-151973000D01*
X161213000Y-151953000D01*
X161467000Y-151953000D01*
X161467000Y-151973000D01*
X161487000Y-151973000D01*
X161487000Y-152227000D01*
X161467000Y-152227000D01*
X161467000Y-152247000D01*
X161213000Y-152247000D01*
X161213000Y-152227000D01*
X160019186Y-152227000D01*
X159898519Y-152456891D01*
X159995843Y-152731252D01*
X160144822Y-152981355D01*
X160339731Y-153197588D01*
X160530660Y-153340000D01*
X157227000Y-153340000D01*
X157227000Y-150863606D01*
X157234863Y-150875374D01*
G37*
G04 #@! TD.AperFunction*
M02*
