M48
; DRILL file {KiCad 5.1.12-84ad8e8a86~92~ubuntu20.04.1} date Mo 04 Apr 2022 08:20:04 CEST
; FORMAT={-:-/ absolute / metric / decimal}
; #@! TF.CreationDate,2022-04-04T08:20:04+02:00
; #@! TF.GenerationSoftware,Kicad,Pcbnew,5.1.12-84ad8e8a86~92~ubuntu20.04.1
; #@! TF.FileFunction,Plated,1,2,PTH
FMAT,2
METRIC
T1C0.400
T2C0.500
T3C0.900
T4C1.000
T5C1.001
T6C1.600
%
G90
G05
T1
X112.674Y-93.218
X116.129Y-110.592
X117.754Y-117.805
X121.31Y-110.846
X121.31Y-111.76
X123.342Y-119.177
X134.823Y-119.837
X135.026Y-100.127
X137.973Y-111.633
X137.998Y-110.642
X139.446Y-104.394
X143.002Y-116.078
X143.459Y-113.538
X143.916Y-110.998
X145.034Y-104.648
X150.571Y-110.998
X155.6Y-103.53
X158.75Y-111.354
T2
X114.452Y-89.56
X119.786Y-109.22
X119.786Y-117.5
X139.04Y-109.576
X139.09Y-87.122
X139.395Y-117.577
X151.333Y-118.008
T3
X112.269Y-108.704
X112.269Y-111.244
X112.269Y-113.784
X112.269Y-116.324
X114.809Y-109.974
X114.809Y-112.514
X114.809Y-115.054
X114.809Y-117.594
X155.153Y-108.788
X155.153Y-111.328
X155.153Y-113.868
X155.153Y-116.408
X157.693Y-110.058
X157.693Y-112.598
X157.693Y-115.138
X157.693Y-117.678
T4
X113.944Y-86.36
X116.484Y-86.36
X120.015Y-90.551
X120.015Y-93.091
X120.015Y-95.631
X120.015Y-98.171
X139.92Y-100.5
X142.46Y-100.5
X145.0Y-100.5
X159.512Y-89.3
X159.512Y-91.84
X159.512Y-94.38
X159.512Y-96.92
X159.512Y-99.46
X159.512Y-102.0
T6
X108.979Y-105.399
X108.979Y-120.899
X160.983Y-105.483
X160.983Y-120.983
T5
X141.308Y-89.437G85X141.308Y-87.438
G05
X147.608Y-85.187G85X145.609Y-85.187
G05
X147.858Y-91.189G85X145.359Y-91.189
G05
T6
X103.0Y-105.399G85X101.6Y-105.399
G05
X103.0Y-120.899G85X101.6Y-120.899
G05
X167.0Y-105.483G85X168.4Y-105.483
G05
X167.0Y-120.983G85X168.4Y-120.983
G05
T0
M30
