G04 #@! TF.GenerationSoftware,KiCad,Pcbnew,5.1.12-84ad8e8a86~92~ubuntu20.04.1*
G04 #@! TF.CreationDate,2022-04-03T12:43:19+02:00*
G04 #@! TF.ProjectId,s88iso,73383869-736f-42e6-9b69-6361645f7063,2020/08*
G04 #@! TF.SameCoordinates,Original*
G04 #@! TF.FileFunction,Legend,Top*
G04 #@! TF.FilePolarity,Positive*
%FSLAX46Y46*%
G04 Gerber Fmt 4.6, Leading zero omitted, Abs format (unit mm)*
G04 Created by KiCad (PCBNEW 5.1.12-84ad8e8a86~92~ubuntu20.04.1) date 2022-04-03 12:43:19*
%MOMM*%
%LPD*%
G01*
G04 APERTURE LIST*
%ADD10C,0.200000*%
%ADD11C,0.150000*%
%ADD12C,0.254000*%
%ADD13C,0.300000*%
G04 #@! TA.AperFunction,Profile*
%ADD14C,0.050000*%
G04 #@! TD*
%ADD15C,0.120000*%
%ADD16C,0.381000*%
%ADD17C,0.100000*%
%ADD18C,0.304800*%
G04 APERTURE END LIST*
D10*
X108773980Y-118157047D02*
X109488266Y-118157047D01*
X109631123Y-118204666D01*
X109726361Y-118299904D01*
X109773980Y-118442761D01*
X109773980Y-118538000D01*
X109773980Y-117204666D02*
X109773980Y-117680857D01*
X108773980Y-117680857D01*
X109678742Y-116299904D02*
X109726361Y-116347523D01*
X109773980Y-116490380D01*
X109773980Y-116585619D01*
X109726361Y-116728476D01*
X109631123Y-116823714D01*
X109535885Y-116871333D01*
X109345409Y-116918952D01*
X109202552Y-116918952D01*
X109012076Y-116871333D01*
X108916838Y-116823714D01*
X108821600Y-116728476D01*
X108773980Y-116585619D01*
X108773980Y-116490380D01*
X108821600Y-116347523D01*
X108869219Y-116299904D01*
X108773980Y-115585619D02*
X109488266Y-115585619D01*
X109631123Y-115633238D01*
X109726361Y-115728476D01*
X109773980Y-115871333D01*
X109773980Y-115966571D01*
X109773980Y-114633238D02*
X109773980Y-115109428D01*
X108773980Y-115109428D01*
X109678742Y-113728476D02*
X109726361Y-113776095D01*
X109773980Y-113918952D01*
X109773980Y-114014190D01*
X109726361Y-114157047D01*
X109631123Y-114252285D01*
X109535885Y-114299904D01*
X109345409Y-114347523D01*
X109202552Y-114347523D01*
X109012076Y-114299904D01*
X108916838Y-114252285D01*
X108821600Y-114157047D01*
X108773980Y-114014190D01*
X108773980Y-113918952D01*
X108821600Y-113776095D01*
X108869219Y-113728476D01*
X108773980Y-113014190D02*
X109488266Y-113014190D01*
X109631123Y-113061809D01*
X109726361Y-113157047D01*
X109773980Y-113299904D01*
X109773980Y-113395142D01*
X109773980Y-112061809D02*
X109773980Y-112538000D01*
X108773980Y-112538000D01*
X109678742Y-111157047D02*
X109726361Y-111204666D01*
X109773980Y-111347523D01*
X109773980Y-111442761D01*
X109726361Y-111585619D01*
X109631123Y-111680857D01*
X109535885Y-111728476D01*
X109345409Y-111776095D01*
X109202552Y-111776095D01*
X109012076Y-111728476D01*
X108916838Y-111680857D01*
X108821600Y-111585619D01*
X108773980Y-111442761D01*
X108773980Y-111347523D01*
X108821600Y-111204666D01*
X108869219Y-111157047D01*
X108773980Y-110442761D02*
X109488266Y-110442761D01*
X109631123Y-110490380D01*
X109726361Y-110585619D01*
X109773980Y-110728476D01*
X109773980Y-110823714D01*
X109773980Y-109490380D02*
X109773980Y-109966571D01*
X108773980Y-109966571D01*
X109678742Y-108585619D02*
X109726361Y-108633238D01*
X109773980Y-108776095D01*
X109773980Y-108871333D01*
X109726361Y-109014190D01*
X109631123Y-109109428D01*
X109535885Y-109157047D01*
X109345409Y-109204666D01*
X109202552Y-109204666D01*
X109012076Y-109157047D01*
X108916838Y-109109428D01*
X108821600Y-109014190D01*
X108773980Y-108871333D01*
X108773980Y-108776095D01*
X108821600Y-108633238D01*
X108869219Y-108585619D01*
D11*
X100956504Y-99147761D02*
X101099361Y-99195380D01*
X101337457Y-99195380D01*
X101432695Y-99147761D01*
X101480314Y-99100142D01*
X101527933Y-99004904D01*
X101527933Y-98909666D01*
X101480314Y-98814428D01*
X101432695Y-98766809D01*
X101337457Y-98719190D01*
X101146980Y-98671571D01*
X101051742Y-98623952D01*
X101004123Y-98576333D01*
X100956504Y-98481095D01*
X100956504Y-98385857D01*
X101004123Y-98290619D01*
X101051742Y-98243000D01*
X101146980Y-98195380D01*
X101385076Y-98195380D01*
X101527933Y-98243000D01*
X102099361Y-98623952D02*
X102004123Y-98576333D01*
X101956504Y-98528714D01*
X101908885Y-98433476D01*
X101908885Y-98385857D01*
X101956504Y-98290619D01*
X102004123Y-98243000D01*
X102099361Y-98195380D01*
X102289838Y-98195380D01*
X102385076Y-98243000D01*
X102432695Y-98290619D01*
X102480314Y-98385857D01*
X102480314Y-98433476D01*
X102432695Y-98528714D01*
X102385076Y-98576333D01*
X102289838Y-98623952D01*
X102099361Y-98623952D01*
X102004123Y-98671571D01*
X101956504Y-98719190D01*
X101908885Y-98814428D01*
X101908885Y-99004904D01*
X101956504Y-99100142D01*
X102004123Y-99147761D01*
X102099361Y-99195380D01*
X102289838Y-99195380D01*
X102385076Y-99147761D01*
X102432695Y-99100142D01*
X102480314Y-99004904D01*
X102480314Y-98814428D01*
X102432695Y-98719190D01*
X102385076Y-98671571D01*
X102289838Y-98623952D01*
X103051742Y-98623952D02*
X102956504Y-98576333D01*
X102908885Y-98528714D01*
X102861266Y-98433476D01*
X102861266Y-98385857D01*
X102908885Y-98290619D01*
X102956504Y-98243000D01*
X103051742Y-98195380D01*
X103242219Y-98195380D01*
X103337457Y-98243000D01*
X103385076Y-98290619D01*
X103432695Y-98385857D01*
X103432695Y-98433476D01*
X103385076Y-98528714D01*
X103337457Y-98576333D01*
X103242219Y-98623952D01*
X103051742Y-98623952D01*
X102956504Y-98671571D01*
X102908885Y-98719190D01*
X102861266Y-98814428D01*
X102861266Y-99004904D01*
X102908885Y-99100142D01*
X102956504Y-99147761D01*
X103051742Y-99195380D01*
X103242219Y-99195380D01*
X103337457Y-99147761D01*
X103385076Y-99100142D01*
X103432695Y-99004904D01*
X103432695Y-98814428D01*
X103385076Y-98719190D01*
X103337457Y-98671571D01*
X103242219Y-98623952D01*
X104623171Y-99195380D02*
X104623171Y-98195380D01*
X105051742Y-99147761D02*
X105146980Y-99195380D01*
X105337457Y-99195380D01*
X105432695Y-99147761D01*
X105480314Y-99052523D01*
X105480314Y-99004904D01*
X105432695Y-98909666D01*
X105337457Y-98862047D01*
X105194600Y-98862047D01*
X105099361Y-98814428D01*
X105051742Y-98719190D01*
X105051742Y-98671571D01*
X105099361Y-98576333D01*
X105194600Y-98528714D01*
X105337457Y-98528714D01*
X105432695Y-98576333D01*
X106051742Y-99195380D02*
X105956504Y-99147761D01*
X105908885Y-99100142D01*
X105861266Y-99004904D01*
X105861266Y-98719190D01*
X105908885Y-98623952D01*
X105956504Y-98576333D01*
X106051742Y-98528714D01*
X106194600Y-98528714D01*
X106289838Y-98576333D01*
X106337457Y-98623952D01*
X106385076Y-98719190D01*
X106385076Y-99004904D01*
X106337457Y-99100142D01*
X106289838Y-99147761D01*
X106194600Y-99195380D01*
X106051742Y-99195380D01*
X106956504Y-99195380D02*
X106861266Y-99147761D01*
X106813647Y-99052523D01*
X106813647Y-98195380D01*
X107766028Y-99195380D02*
X107766028Y-98671571D01*
X107718409Y-98576333D01*
X107623171Y-98528714D01*
X107432695Y-98528714D01*
X107337457Y-98576333D01*
X107766028Y-99147761D02*
X107670790Y-99195380D01*
X107432695Y-99195380D01*
X107337457Y-99147761D01*
X107289838Y-99052523D01*
X107289838Y-98957285D01*
X107337457Y-98862047D01*
X107432695Y-98814428D01*
X107670790Y-98814428D01*
X107766028Y-98766809D01*
X108099361Y-98528714D02*
X108480314Y-98528714D01*
X108242219Y-98195380D02*
X108242219Y-99052523D01*
X108289838Y-99147761D01*
X108385076Y-99195380D01*
X108480314Y-99195380D01*
X108956504Y-99195380D02*
X108861266Y-99147761D01*
X108813647Y-99100142D01*
X108766028Y-99004904D01*
X108766028Y-98719190D01*
X108813647Y-98623952D01*
X108861266Y-98576333D01*
X108956504Y-98528714D01*
X109099361Y-98528714D01*
X109194600Y-98576333D01*
X109242219Y-98623952D01*
X109289838Y-98719190D01*
X109289838Y-99004904D01*
X109242219Y-99100142D01*
X109194600Y-99147761D01*
X109099361Y-99195380D01*
X108956504Y-99195380D01*
X109718409Y-99195380D02*
X109718409Y-98528714D01*
X109718409Y-98719190D02*
X109766028Y-98623952D01*
X109813647Y-98576333D01*
X109908885Y-98528714D01*
X110004123Y-98528714D01*
X111051742Y-98290619D02*
X111099361Y-98243000D01*
X111194600Y-98195380D01*
X111432695Y-98195380D01*
X111527933Y-98243000D01*
X111575552Y-98290619D01*
X111623171Y-98385857D01*
X111623171Y-98481095D01*
X111575552Y-98623952D01*
X111004123Y-99195380D01*
X111623171Y-99195380D01*
X112242219Y-98195380D02*
X112337457Y-98195380D01*
X112432695Y-98243000D01*
X112480314Y-98290619D01*
X112527933Y-98385857D01*
X112575552Y-98576333D01*
X112575552Y-98814428D01*
X112527933Y-99004904D01*
X112480314Y-99100142D01*
X112432695Y-99147761D01*
X112337457Y-99195380D01*
X112242219Y-99195380D01*
X112146980Y-99147761D01*
X112099361Y-99100142D01*
X112051742Y-99004904D01*
X112004123Y-98814428D01*
X112004123Y-98576333D01*
X112051742Y-98385857D01*
X112099361Y-98290619D01*
X112146980Y-98243000D01*
X112242219Y-98195380D01*
X112956504Y-98290619D02*
X113004123Y-98243000D01*
X113099361Y-98195380D01*
X113337457Y-98195380D01*
X113432695Y-98243000D01*
X113480314Y-98290619D01*
X113527933Y-98385857D01*
X113527933Y-98481095D01*
X113480314Y-98623952D01*
X112908885Y-99195380D01*
X113527933Y-99195380D01*
X113908885Y-98290619D02*
X113956504Y-98243000D01*
X114051742Y-98195380D01*
X114289838Y-98195380D01*
X114385076Y-98243000D01*
X114432695Y-98290619D01*
X114480314Y-98385857D01*
X114480314Y-98481095D01*
X114432695Y-98623952D01*
X113861266Y-99195380D01*
X114480314Y-99195380D01*
X115623171Y-98147761D02*
X114766028Y-99433476D01*
X116146980Y-98195380D02*
X116242219Y-98195380D01*
X116337457Y-98243000D01*
X116385076Y-98290619D01*
X116432695Y-98385857D01*
X116480314Y-98576333D01*
X116480314Y-98814428D01*
X116432695Y-99004904D01*
X116385076Y-99100142D01*
X116337457Y-99147761D01*
X116242219Y-99195380D01*
X116146980Y-99195380D01*
X116051742Y-99147761D01*
X116004123Y-99100142D01*
X115956504Y-99004904D01*
X115908885Y-98814428D01*
X115908885Y-98576333D01*
X115956504Y-98385857D01*
X116004123Y-98290619D01*
X116051742Y-98243000D01*
X116146980Y-98195380D01*
X117337457Y-98528714D02*
X117337457Y-99195380D01*
X117099361Y-98147761D02*
X116861266Y-98862047D01*
X117480314Y-98862047D01*
X101646980Y-99893000D02*
X101551742Y-99845380D01*
X101408885Y-99845380D01*
X101266028Y-99893000D01*
X101170790Y-99988238D01*
X101123171Y-100083476D01*
X101075552Y-100273952D01*
X101075552Y-100416809D01*
X101123171Y-100607285D01*
X101170790Y-100702523D01*
X101266028Y-100797761D01*
X101408885Y-100845380D01*
X101504123Y-100845380D01*
X101646980Y-100797761D01*
X101694600Y-100750142D01*
X101694600Y-100416809D01*
X101504123Y-100416809D01*
X102504123Y-100797761D02*
X102408885Y-100845380D01*
X102218409Y-100845380D01*
X102123171Y-100797761D01*
X102075552Y-100702523D01*
X102075552Y-100321571D01*
X102123171Y-100226333D01*
X102218409Y-100178714D01*
X102408885Y-100178714D01*
X102504123Y-100226333D01*
X102551742Y-100321571D01*
X102551742Y-100416809D01*
X102075552Y-100512047D01*
X102980314Y-100845380D02*
X102980314Y-100178714D01*
X102980314Y-100369190D02*
X103027933Y-100273952D01*
X103075552Y-100226333D01*
X103170790Y-100178714D01*
X103266028Y-100178714D01*
X103599361Y-100845380D02*
X103599361Y-99845380D01*
X104027933Y-100845380D02*
X104027933Y-100321571D01*
X103980314Y-100226333D01*
X103885076Y-100178714D01*
X103742219Y-100178714D01*
X103646980Y-100226333D01*
X103599361Y-100273952D01*
X104932695Y-100845380D02*
X104932695Y-100321571D01*
X104885076Y-100226333D01*
X104789838Y-100178714D01*
X104599361Y-100178714D01*
X104504123Y-100226333D01*
X104932695Y-100797761D02*
X104837457Y-100845380D01*
X104599361Y-100845380D01*
X104504123Y-100797761D01*
X104456504Y-100702523D01*
X104456504Y-100607285D01*
X104504123Y-100512047D01*
X104599361Y-100464428D01*
X104837457Y-100464428D01*
X104932695Y-100416809D01*
X105408885Y-100845380D02*
X105408885Y-100178714D01*
X105408885Y-100369190D02*
X105456504Y-100273952D01*
X105504123Y-100226333D01*
X105599361Y-100178714D01*
X105694600Y-100178714D01*
X106456504Y-100845380D02*
X106456504Y-99845380D01*
X106456504Y-100797761D02*
X106361266Y-100845380D01*
X106170790Y-100845380D01*
X106075552Y-100797761D01*
X106027933Y-100750142D01*
X105980314Y-100654904D01*
X105980314Y-100369190D01*
X106027933Y-100273952D01*
X106075552Y-100226333D01*
X106170790Y-100178714D01*
X106361266Y-100178714D01*
X106456504Y-100226333D01*
X108027933Y-100321571D02*
X108170790Y-100369190D01*
X108218409Y-100416809D01*
X108266028Y-100512047D01*
X108266028Y-100654904D01*
X108218409Y-100750142D01*
X108170790Y-100797761D01*
X108075552Y-100845380D01*
X107694600Y-100845380D01*
X107694600Y-99845380D01*
X108027933Y-99845380D01*
X108123171Y-99893000D01*
X108170790Y-99940619D01*
X108218409Y-100035857D01*
X108218409Y-100131095D01*
X108170790Y-100226333D01*
X108123171Y-100273952D01*
X108027933Y-100321571D01*
X107694600Y-100321571D01*
X109075552Y-100797761D02*
X108980314Y-100845380D01*
X108789838Y-100845380D01*
X108694600Y-100797761D01*
X108646980Y-100702523D01*
X108646980Y-100321571D01*
X108694600Y-100226333D01*
X108789838Y-100178714D01*
X108980314Y-100178714D01*
X109075552Y-100226333D01*
X109123171Y-100321571D01*
X109123171Y-100416809D01*
X108646980Y-100512047D01*
X109551742Y-100845380D02*
X109551742Y-100178714D01*
X109551742Y-100369190D02*
X109599361Y-100273952D01*
X109646980Y-100226333D01*
X109742219Y-100178714D01*
X109837457Y-100178714D01*
X110027933Y-100178714D02*
X110408885Y-100178714D01*
X110170790Y-99845380D02*
X110170790Y-100702523D01*
X110218409Y-100797761D01*
X110313647Y-100845380D01*
X110408885Y-100845380D01*
X111123171Y-100797761D02*
X111027933Y-100845380D01*
X110837457Y-100845380D01*
X110742219Y-100797761D01*
X110694600Y-100702523D01*
X110694600Y-100321571D01*
X110742219Y-100226333D01*
X110837457Y-100178714D01*
X111027933Y-100178714D01*
X111123171Y-100226333D01*
X111170790Y-100321571D01*
X111170790Y-100416809D01*
X110694600Y-100512047D01*
X111742219Y-100845380D02*
X111646980Y-100797761D01*
X111599361Y-100702523D01*
X111599361Y-99845380D01*
X112075552Y-100797761D02*
X112170790Y-100845380D01*
X112361266Y-100845380D01*
X112456504Y-100797761D01*
X112504123Y-100702523D01*
X112504123Y-100654904D01*
X112456504Y-100559666D01*
X112361266Y-100512047D01*
X112218409Y-100512047D01*
X112123171Y-100464428D01*
X112075552Y-100369190D01*
X112075552Y-100321571D01*
X112123171Y-100226333D01*
X112218409Y-100178714D01*
X112361266Y-100178714D01*
X112456504Y-100226333D01*
X112932695Y-100845380D02*
X112932695Y-100178714D01*
X112932695Y-100273952D02*
X112980314Y-100226333D01*
X113075552Y-100178714D01*
X113218409Y-100178714D01*
X113313647Y-100226333D01*
X113361266Y-100321571D01*
X113361266Y-100845380D01*
X113361266Y-100321571D02*
X113408885Y-100226333D01*
X113504123Y-100178714D01*
X113646980Y-100178714D01*
X113742219Y-100226333D01*
X113789838Y-100321571D01*
X113789838Y-100845380D01*
X114694600Y-100845380D02*
X114694600Y-100321571D01*
X114646980Y-100226333D01*
X114551742Y-100178714D01*
X114361266Y-100178714D01*
X114266028Y-100226333D01*
X114694600Y-100797761D02*
X114599361Y-100845380D01*
X114361266Y-100845380D01*
X114266028Y-100797761D01*
X114218409Y-100702523D01*
X114218409Y-100607285D01*
X114266028Y-100512047D01*
X114361266Y-100464428D01*
X114599361Y-100464428D01*
X114694600Y-100416809D01*
X115170790Y-100178714D02*
X115170790Y-100845380D01*
X115170790Y-100273952D02*
X115218409Y-100226333D01*
X115313647Y-100178714D01*
X115456504Y-100178714D01*
X115551742Y-100226333D01*
X115599361Y-100321571D01*
X115599361Y-100845380D01*
X116075552Y-100178714D02*
X116075552Y-100845380D01*
X116075552Y-100273952D02*
X116123171Y-100226333D01*
X116218409Y-100178714D01*
X116361266Y-100178714D01*
X116456504Y-100226333D01*
X116504123Y-100321571D01*
X116504123Y-100845380D01*
D12*
X152703590Y-82514923D02*
X151977876Y-82514923D01*
X152340733Y-82514923D02*
X152340733Y-81244923D01*
X152219780Y-81426352D01*
X152098828Y-81547304D01*
X151977876Y-81607780D01*
X153187400Y-81365876D02*
X153247876Y-81305400D01*
X153368828Y-81244923D01*
X153671209Y-81244923D01*
X153792161Y-81305400D01*
X153852638Y-81365876D01*
X153913114Y-81486828D01*
X153913114Y-81607780D01*
X153852638Y-81789209D01*
X153126923Y-82514923D01*
X153913114Y-82514923D01*
X154275971Y-81244923D02*
X154699304Y-82514923D01*
X155122638Y-81244923D01*
X156513590Y-82514923D02*
X156513590Y-81244923D01*
X157118352Y-81668257D02*
X157118352Y-82514923D01*
X157118352Y-81789209D02*
X157178828Y-81728733D01*
X157299780Y-81668257D01*
X157481209Y-81668257D01*
X157602161Y-81728733D01*
X157662638Y-81849685D01*
X157662638Y-82514923D01*
X158267400Y-81668257D02*
X158267400Y-82938257D01*
X158267400Y-81728733D02*
X158388352Y-81668257D01*
X158630257Y-81668257D01*
X158751209Y-81728733D01*
X158811685Y-81789209D01*
X158872161Y-81910161D01*
X158872161Y-82273019D01*
X158811685Y-82393971D01*
X158751209Y-82454447D01*
X158630257Y-82514923D01*
X158388352Y-82514923D01*
X158267400Y-82454447D01*
X159960733Y-81668257D02*
X159960733Y-82514923D01*
X159416447Y-81668257D02*
X159416447Y-82333495D01*
X159476923Y-82454447D01*
X159597876Y-82514923D01*
X159779304Y-82514923D01*
X159900257Y-82454447D01*
X159960733Y-82393971D01*
X160384066Y-81668257D02*
X160867876Y-81668257D01*
X160565495Y-81244923D02*
X160565495Y-82333495D01*
X160625971Y-82454447D01*
X160746923Y-82514923D01*
X160867876Y-82514923D01*
X154988380Y-98933000D02*
X154867428Y-98872523D01*
X154686000Y-98872523D01*
X154504571Y-98933000D01*
X154383619Y-99053952D01*
X154323142Y-99174904D01*
X154262666Y-99416809D01*
X154262666Y-99598238D01*
X154323142Y-99840142D01*
X154383619Y-99961095D01*
X154504571Y-100082047D01*
X154686000Y-100142523D01*
X154806952Y-100142523D01*
X154988380Y-100082047D01*
X155048857Y-100021571D01*
X155048857Y-99598238D01*
X154806952Y-99598238D01*
X155593142Y-100142523D02*
X155593142Y-98872523D01*
X156318857Y-100142523D01*
X156318857Y-98872523D01*
X156923619Y-100142523D02*
X156923619Y-98872523D01*
X157226000Y-98872523D01*
X157407428Y-98933000D01*
X157528380Y-99053952D01*
X157588857Y-99174904D01*
X157649333Y-99416809D01*
X157649333Y-99598238D01*
X157588857Y-99840142D01*
X157528380Y-99961095D01*
X157407428Y-100082047D01*
X157226000Y-100142523D01*
X156923619Y-100142523D01*
X153857476Y-102428523D02*
X153857476Y-101158523D01*
X154159857Y-101158523D01*
X154341285Y-101219000D01*
X154462238Y-101339952D01*
X154522714Y-101460904D01*
X154583190Y-101702809D01*
X154583190Y-101884238D01*
X154522714Y-102126142D01*
X154462238Y-102247095D01*
X154341285Y-102368047D01*
X154159857Y-102428523D01*
X153857476Y-102428523D01*
X155671761Y-102428523D02*
X155671761Y-101763285D01*
X155611285Y-101642333D01*
X155490333Y-101581857D01*
X155248428Y-101581857D01*
X155127476Y-101642333D01*
X155671761Y-102368047D02*
X155550809Y-102428523D01*
X155248428Y-102428523D01*
X155127476Y-102368047D01*
X155067000Y-102247095D01*
X155067000Y-102126142D01*
X155127476Y-102005190D01*
X155248428Y-101944714D01*
X155550809Y-101944714D01*
X155671761Y-101884238D01*
X156095095Y-101581857D02*
X156578904Y-101581857D01*
X156276523Y-101158523D02*
X156276523Y-102247095D01*
X156337000Y-102368047D01*
X156457952Y-102428523D01*
X156578904Y-102428523D01*
X157546523Y-102428523D02*
X157546523Y-101763285D01*
X157486047Y-101642333D01*
X157365095Y-101581857D01*
X157123190Y-101581857D01*
X157002238Y-101642333D01*
X157546523Y-102368047D02*
X157425571Y-102428523D01*
X157123190Y-102428523D01*
X157002238Y-102368047D01*
X156941761Y-102247095D01*
X156941761Y-102126142D01*
X157002238Y-102005190D01*
X157123190Y-101944714D01*
X157425571Y-101944714D01*
X157546523Y-101884238D01*
X153621619Y-97227571D02*
X153561142Y-97288047D01*
X153379714Y-97348523D01*
X153258761Y-97348523D01*
X153077333Y-97288047D01*
X152956380Y-97167095D01*
X152895904Y-97046142D01*
X152835428Y-96804238D01*
X152835428Y-96622809D01*
X152895904Y-96380904D01*
X152956380Y-96259952D01*
X153077333Y-96139000D01*
X153258761Y-96078523D01*
X153379714Y-96078523D01*
X153561142Y-96139000D01*
X153621619Y-96199476D01*
X154347333Y-97348523D02*
X154226380Y-97288047D01*
X154165904Y-97167095D01*
X154165904Y-96078523D01*
X155012571Y-97348523D02*
X154891619Y-97288047D01*
X154831142Y-97227571D01*
X154770666Y-97106619D01*
X154770666Y-96743761D01*
X154831142Y-96622809D01*
X154891619Y-96562333D01*
X155012571Y-96501857D01*
X155194000Y-96501857D01*
X155314952Y-96562333D01*
X155375428Y-96622809D01*
X155435904Y-96743761D01*
X155435904Y-97106619D01*
X155375428Y-97227571D01*
X155314952Y-97288047D01*
X155194000Y-97348523D01*
X155012571Y-97348523D01*
X156524476Y-97288047D02*
X156403523Y-97348523D01*
X156161619Y-97348523D01*
X156040666Y-97288047D01*
X155980190Y-97227571D01*
X155919714Y-97106619D01*
X155919714Y-96743761D01*
X155980190Y-96622809D01*
X156040666Y-96562333D01*
X156161619Y-96501857D01*
X156403523Y-96501857D01*
X156524476Y-96562333D01*
X157068761Y-97348523D02*
X157068761Y-96078523D01*
X157189714Y-96864714D02*
X157552571Y-97348523D01*
X157552571Y-96501857D02*
X157068761Y-96985666D01*
X153875619Y-92268523D02*
X153452285Y-91663761D01*
X153149904Y-92268523D02*
X153149904Y-90998523D01*
X153633714Y-90998523D01*
X153754666Y-91059000D01*
X153815142Y-91119476D01*
X153875619Y-91240428D01*
X153875619Y-91421857D01*
X153815142Y-91542809D01*
X153754666Y-91603285D01*
X153633714Y-91663761D01*
X153149904Y-91663761D01*
X154903714Y-92208047D02*
X154782761Y-92268523D01*
X154540857Y-92268523D01*
X154419904Y-92208047D01*
X154359428Y-92087095D01*
X154359428Y-91603285D01*
X154419904Y-91482333D01*
X154540857Y-91421857D01*
X154782761Y-91421857D01*
X154903714Y-91482333D01*
X154964190Y-91603285D01*
X154964190Y-91724238D01*
X154359428Y-91845190D01*
X155448000Y-92208047D02*
X155568952Y-92268523D01*
X155810857Y-92268523D01*
X155931809Y-92208047D01*
X155992285Y-92087095D01*
X155992285Y-92026619D01*
X155931809Y-91905666D01*
X155810857Y-91845190D01*
X155629428Y-91845190D01*
X155508476Y-91784714D01*
X155448000Y-91663761D01*
X155448000Y-91603285D01*
X155508476Y-91482333D01*
X155629428Y-91421857D01*
X155810857Y-91421857D01*
X155931809Y-91482333D01*
X157020380Y-92208047D02*
X156899428Y-92268523D01*
X156657523Y-92268523D01*
X156536571Y-92208047D01*
X156476095Y-92087095D01*
X156476095Y-91603285D01*
X156536571Y-91482333D01*
X156657523Y-91421857D01*
X156899428Y-91421857D01*
X157020380Y-91482333D01*
X157080857Y-91603285D01*
X157080857Y-91724238D01*
X156476095Y-91845190D01*
X157443714Y-91421857D02*
X157927523Y-91421857D01*
X157625142Y-90998523D02*
X157625142Y-92087095D01*
X157685619Y-92208047D01*
X157806571Y-92268523D01*
X157927523Y-92268523D01*
X154244523Y-94808523D02*
X153639761Y-94808523D01*
X153639761Y-93538523D01*
X154849285Y-94808523D02*
X154728333Y-94748047D01*
X154667857Y-94687571D01*
X154607380Y-94566619D01*
X154607380Y-94203761D01*
X154667857Y-94082809D01*
X154728333Y-94022333D01*
X154849285Y-93961857D01*
X155030714Y-93961857D01*
X155151666Y-94022333D01*
X155212142Y-94082809D01*
X155272619Y-94203761D01*
X155272619Y-94566619D01*
X155212142Y-94687571D01*
X155151666Y-94748047D01*
X155030714Y-94808523D01*
X154849285Y-94808523D01*
X156361190Y-94808523D02*
X156361190Y-94143285D01*
X156300714Y-94022333D01*
X156179761Y-93961857D01*
X155937857Y-93961857D01*
X155816904Y-94022333D01*
X156361190Y-94748047D02*
X156240238Y-94808523D01*
X155937857Y-94808523D01*
X155816904Y-94748047D01*
X155756428Y-94627095D01*
X155756428Y-94506142D01*
X155816904Y-94385190D01*
X155937857Y-94324714D01*
X156240238Y-94324714D01*
X156361190Y-94264238D01*
X157510238Y-94808523D02*
X157510238Y-93538523D01*
X157510238Y-94748047D02*
X157389285Y-94808523D01*
X157147380Y-94808523D01*
X157026428Y-94748047D01*
X156965952Y-94687571D01*
X156905476Y-94566619D01*
X156905476Y-94203761D01*
X156965952Y-94082809D01*
X157026428Y-94022333D01*
X157147380Y-93961857D01*
X157389285Y-93961857D01*
X157510238Y-94022333D01*
X154637619Y-88458523D02*
X155060952Y-89728523D01*
X155484285Y-88458523D01*
X156451904Y-89728523D02*
X156451904Y-88458523D01*
X156451904Y-89668047D02*
X156330952Y-89728523D01*
X156089047Y-89728523D01*
X155968095Y-89668047D01*
X155907619Y-89607571D01*
X155847142Y-89486619D01*
X155847142Y-89123761D01*
X155907619Y-89002809D01*
X155968095Y-88942333D01*
X156089047Y-88881857D01*
X156330952Y-88881857D01*
X156451904Y-88942333D01*
X157600952Y-89728523D02*
X157600952Y-88458523D01*
X157600952Y-89668047D02*
X157480000Y-89728523D01*
X157238095Y-89728523D01*
X157117142Y-89668047D01*
X157056666Y-89607571D01*
X156996190Y-89486619D01*
X156996190Y-89123761D01*
X157056666Y-89002809D01*
X157117142Y-88942333D01*
X157238095Y-88881857D01*
X157480000Y-88881857D01*
X157600952Y-88942333D01*
X139536666Y-97304523D02*
X138931904Y-97304523D01*
X138871428Y-97909285D01*
X138931904Y-97848809D01*
X139052857Y-97788333D01*
X139355238Y-97788333D01*
X139476190Y-97848809D01*
X139536666Y-97909285D01*
X139597142Y-98030238D01*
X139597142Y-98332619D01*
X139536666Y-98453571D01*
X139476190Y-98514047D01*
X139355238Y-98574523D01*
X139052857Y-98574523D01*
X138931904Y-98514047D01*
X138871428Y-98453571D01*
X139960000Y-97304523D02*
X140383333Y-98574523D01*
X140806666Y-97304523D01*
X143830476Y-98574523D02*
X143104761Y-98574523D01*
X143467619Y-98574523D02*
X143467619Y-97304523D01*
X143346666Y-97485952D01*
X143225714Y-97606904D01*
X143104761Y-97667380D01*
X144314285Y-97425476D02*
X144374761Y-97365000D01*
X144495714Y-97304523D01*
X144798095Y-97304523D01*
X144919047Y-97365000D01*
X144979523Y-97425476D01*
X145040000Y-97546428D01*
X145040000Y-97667380D01*
X144979523Y-97848809D01*
X144253809Y-98574523D01*
X145040000Y-98574523D01*
X145402857Y-97304523D02*
X145826190Y-98574523D01*
X146249523Y-97304523D01*
D13*
X150338200Y-123891800D02*
X150338200Y-126891800D01*
X148338200Y-125391800D02*
X150338200Y-123891800D01*
X150338200Y-126891800D02*
X148338200Y-125391800D01*
X123912000Y-125036200D02*
X125912000Y-123536200D01*
X125912000Y-126536200D02*
X123912000Y-125036200D01*
X125912000Y-123536200D02*
X125912000Y-126536200D01*
D14*
X100000000Y-128000000D02*
X100000000Y-82000000D01*
X168000000Y-130000000D02*
X102000000Y-130000000D01*
X170000000Y-82000000D02*
X170000000Y-128000000D01*
X168000000Y-80000000D02*
X102000000Y-80000000D01*
X100000000Y-82000000D02*
G75*
G02*
X102000000Y-80000000I2000000J0D01*
G01*
X168000000Y-80000000D02*
G75*
G02*
X170000000Y-82000000I0J-2000000D01*
G01*
X170000000Y-128000000D02*
G75*
G02*
X168000000Y-130000000I-2000000J0D01*
G01*
X102000000Y-130000000D02*
G75*
G02*
X100000000Y-128000000I0J2000000D01*
G01*
D15*
X143967200Y-119258400D02*
X145917200Y-119258400D01*
X143967200Y-119258400D02*
X142017200Y-119258400D01*
X143967200Y-109138400D02*
X145917200Y-109138400D01*
X143967200Y-109138400D02*
X140517200Y-109138400D01*
X129641600Y-119585400D02*
X133501600Y-119585400D01*
X133501600Y-119585400D02*
X133501600Y-119330400D01*
X129641600Y-119585400D02*
X125781600Y-119585400D01*
X125781600Y-119585400D02*
X125781600Y-119330400D01*
X129641600Y-109065400D02*
X133501600Y-109065400D01*
X133501600Y-109065400D02*
X133501600Y-109320400D01*
X129641600Y-109065400D02*
X125781600Y-109065400D01*
X125781600Y-109065400D02*
X125781600Y-109320400D01*
X125781600Y-109320400D02*
X123966600Y-109320400D01*
X135408400Y-92198400D02*
X138708400Y-92198400D01*
X138708400Y-92198400D02*
X138708400Y-86798400D01*
X135408400Y-92198400D02*
X135408400Y-86798400D01*
D16*
X153111200Y-121615200D02*
X167335200Y-121615200D01*
X167335200Y-121615200D02*
X167335200Y-119329200D01*
X153111200Y-104851200D02*
X167335200Y-104851200D01*
X167335200Y-104851200D02*
X167335200Y-107137200D01*
X153138200Y-121488200D02*
X153138200Y-104978200D01*
X167362200Y-119329200D02*
X167362200Y-107137200D01*
D15*
X137541724Y-116977900D02*
X137032276Y-116977900D01*
X137541724Y-118022900D02*
X137032276Y-118022900D01*
X122073124Y-116977900D02*
X121563676Y-116977900D01*
X122073124Y-118022900D02*
X121563676Y-118022900D01*
X123239600Y-109977422D02*
X123239600Y-110494578D01*
X121819600Y-109977422D02*
X121819600Y-110494578D01*
X135967400Y-109924322D02*
X135967400Y-110441478D01*
X137387400Y-109924322D02*
X137387400Y-110441478D01*
X150137864Y-120169000D02*
X149683736Y-120169000D01*
X150137864Y-121639000D02*
X149683736Y-121639000D01*
X134700200Y-92963400D02*
X134700200Y-94063400D01*
X134970200Y-92963400D02*
X134700200Y-92963400D01*
X134970200Y-91463400D02*
X134970200Y-92963400D01*
X128340200Y-92963400D02*
X128340200Y-95793400D01*
X128070200Y-92963400D02*
X128340200Y-92963400D01*
X128070200Y-91463400D02*
X128070200Y-92963400D01*
X119380724Y-114895100D02*
X118871276Y-114895100D01*
X119380724Y-115940100D02*
X118871276Y-115940100D01*
X119380724Y-113269500D02*
X118871276Y-113269500D01*
X119380724Y-114314500D02*
X118871276Y-114314500D01*
X119380724Y-111593100D02*
X118871276Y-111593100D01*
X119380724Y-112638100D02*
X118871276Y-112638100D01*
X110082876Y-93740500D02*
X110592324Y-93740500D01*
X110082876Y-92695500D02*
X110592324Y-92695500D01*
X125679924Y-93863900D02*
X125170476Y-93863900D01*
X125679924Y-94908900D02*
X125170476Y-94908900D01*
X125170476Y-97067900D02*
X125679924Y-97067900D01*
X125170476Y-96022900D02*
X125679924Y-96022900D01*
X136606400Y-120060000D02*
X136606400Y-122920000D01*
X138526400Y-120060000D02*
X136606400Y-120060000D01*
X138526400Y-122920000D02*
X138526400Y-120060000D01*
X108677600Y-90498600D02*
X111137600Y-90498600D01*
X108677600Y-89028600D02*
X108677600Y-90498600D01*
X111137600Y-89028600D02*
X108677600Y-89028600D01*
X125686452Y-87707800D02*
X125163948Y-87707800D01*
X125686452Y-89177800D02*
X125163948Y-89177800D01*
X138590000Y-99170000D02*
X138590000Y-101830000D01*
X143730000Y-99170000D02*
X138590000Y-99170000D01*
X143730000Y-101830000D02*
X138590000Y-101830000D01*
X143730000Y-99170000D02*
X143730000Y-101830000D01*
X145000000Y-99170000D02*
X146330000Y-99170000D01*
X146330000Y-99170000D02*
X146330000Y-100500000D01*
D16*
X102600000Y-107053000D02*
X102600000Y-119245000D01*
X116824000Y-104894000D02*
X116824000Y-121404000D01*
X102627000Y-121531000D02*
X102627000Y-119245000D01*
X116851000Y-121531000D02*
X102627000Y-121531000D01*
X102627000Y-104767000D02*
X102627000Y-107053000D01*
X116851000Y-104767000D02*
X102627000Y-104767000D01*
D15*
X120015000Y-99501000D02*
X118685000Y-99501000D01*
X118685000Y-99501000D02*
X118685000Y-98171000D01*
X118685000Y-96901000D02*
X118685000Y-89221000D01*
X121345000Y-89221000D02*
X118685000Y-89221000D01*
X121345000Y-96901000D02*
X121345000Y-89221000D01*
X121345000Y-96901000D02*
X118685000Y-96901000D01*
X137053822Y-95401200D02*
X137570978Y-95401200D01*
X137053822Y-93981200D02*
X137570978Y-93981200D01*
X140564800Y-107497378D02*
X140564800Y-106980222D01*
X141984800Y-107497378D02*
X141984800Y-106980222D01*
D16*
X151109680Y-82138520D02*
X142107920Y-82138520D01*
X151109680Y-77637640D02*
X142107920Y-77637640D01*
X142107920Y-77637640D02*
X142107920Y-92237560D01*
X142107920Y-92237560D02*
X151109680Y-92237560D01*
X151109680Y-92237560D02*
X151109680Y-77637640D01*
D15*
X150366800Y-117250978D02*
X150366800Y-116733822D01*
X148946800Y-117250978D02*
X148946800Y-116733822D01*
X169602000Y-103210000D02*
X160972000Y-103210000D01*
X169602000Y-103091905D02*
X160972000Y-103091905D01*
X169602000Y-102973810D02*
X160972000Y-102973810D01*
X169602000Y-102855715D02*
X160972000Y-102855715D01*
X169602000Y-102737620D02*
X160972000Y-102737620D01*
X169602000Y-102619525D02*
X160972000Y-102619525D01*
X169602000Y-102501430D02*
X160972000Y-102501430D01*
X169602000Y-102383335D02*
X160972000Y-102383335D01*
X169602000Y-102265240D02*
X160972000Y-102265240D01*
X169602000Y-102147145D02*
X160972000Y-102147145D01*
X169602000Y-102029050D02*
X160972000Y-102029050D01*
X169602000Y-101910955D02*
X160972000Y-101910955D01*
X169602000Y-101792860D02*
X160972000Y-101792860D01*
X169602000Y-101674765D02*
X160972000Y-101674765D01*
X169602000Y-101556670D02*
X160972000Y-101556670D01*
X169602000Y-101438575D02*
X160972000Y-101438575D01*
X169602000Y-101320480D02*
X160972000Y-101320480D01*
X169602000Y-101202385D02*
X160972000Y-101202385D01*
X169602000Y-101084290D02*
X160972000Y-101084290D01*
X169602000Y-100966195D02*
X160972000Y-100966195D01*
X169602000Y-100848100D02*
X160972000Y-100848100D01*
X160972000Y-102360000D02*
X160622000Y-102360000D01*
X160972000Y-101640000D02*
X160622000Y-101640000D01*
X160972000Y-99820000D02*
X160562000Y-99820000D01*
X160972000Y-99100000D02*
X160562000Y-99100000D01*
X160972000Y-97280000D02*
X160562000Y-97280000D01*
X160972000Y-96560000D02*
X160562000Y-96560000D01*
X160972000Y-94740000D02*
X160562000Y-94740000D01*
X160972000Y-94020000D02*
X160562000Y-94020000D01*
X160972000Y-92200000D02*
X160562000Y-92200000D01*
X160972000Y-91480000D02*
X160562000Y-91480000D01*
X160972000Y-89660000D02*
X160562000Y-89660000D01*
X160972000Y-88940000D02*
X160562000Y-88940000D01*
X169602000Y-100730000D02*
X160972000Y-100730000D01*
X169602000Y-98190000D02*
X160972000Y-98190000D01*
X169602000Y-95650000D02*
X160972000Y-95650000D01*
X169602000Y-93110000D02*
X160972000Y-93110000D01*
X169602000Y-90570000D02*
X160972000Y-90570000D01*
X169602000Y-103330000D02*
X160972000Y-103330000D01*
X160972000Y-103330000D02*
X160972000Y-87970000D01*
X169602000Y-87970000D02*
X160972000Y-87970000D01*
X169602000Y-103330000D02*
X169602000Y-87970000D01*
X158402000Y-103330000D02*
X158402000Y-102000000D01*
X159512000Y-103330000D02*
X158402000Y-103330000D01*
X146152800Y-107548178D02*
X146152800Y-107031022D01*
X147572800Y-107548178D02*
X147572800Y-107031022D01*
X112614400Y-85030000D02*
X112614400Y-87690000D01*
X115214400Y-85030000D02*
X112614400Y-85030000D01*
X115214400Y-87690000D02*
X112614400Y-87690000D01*
X115214400Y-85030000D02*
X115214400Y-87690000D01*
X116484400Y-85030000D02*
X117814400Y-85030000D01*
X117814400Y-85030000D02*
X117814400Y-86360000D01*
D17*
X142257310Y-89438480D02*
X142257310Y-87436960D01*
X140358330Y-89438480D02*
X140358330Y-87436960D01*
X142257310Y-87436960D02*
G75*
G03*
X140358330Y-87436960I-949490J0D01*
G01*
X140358330Y-89438480D02*
G75*
G03*
X142257310Y-89438480I949490J0D01*
G01*
X147609560Y-84237030D02*
X145608040Y-84237030D01*
X147609560Y-86136010D02*
X145608040Y-86136010D01*
X145608040Y-84237030D02*
G75*
G03*
X145608040Y-86136010I0J-949490D01*
G01*
X147609560Y-86136010D02*
G75*
G03*
X147609560Y-84237030I0J949490D01*
G01*
X147859750Y-90239050D02*
X145357850Y-90239050D01*
X147859750Y-92138030D02*
X145357850Y-92138030D01*
X145357850Y-90239050D02*
G75*
G03*
X145357850Y-92138030I0J-949490D01*
G01*
X147859750Y-92138030D02*
G75*
G03*
X147859750Y-90239050I0J949490D01*
G01*
D11*
X143205295Y-107750780D02*
X143205295Y-108560304D01*
X143252914Y-108655542D01*
X143300533Y-108703161D01*
X143395771Y-108750780D01*
X143586247Y-108750780D01*
X143681485Y-108703161D01*
X143729104Y-108655542D01*
X143776723Y-108560304D01*
X143776723Y-107750780D01*
X144205295Y-107846019D02*
X144252914Y-107798400D01*
X144348152Y-107750780D01*
X144586247Y-107750780D01*
X144681485Y-107798400D01*
X144729104Y-107846019D01*
X144776723Y-107941257D01*
X144776723Y-108036495D01*
X144729104Y-108179352D01*
X144157676Y-108750780D01*
X144776723Y-108750780D01*
X128879695Y-107677780D02*
X128879695Y-108487304D01*
X128927314Y-108582542D01*
X128974933Y-108630161D01*
X129070171Y-108677780D01*
X129260647Y-108677780D01*
X129355885Y-108630161D01*
X129403504Y-108582542D01*
X129451123Y-108487304D01*
X129451123Y-107677780D01*
X129832076Y-107677780D02*
X130451123Y-107677780D01*
X130117790Y-108058733D01*
X130260647Y-108058733D01*
X130355885Y-108106352D01*
X130403504Y-108153971D01*
X130451123Y-108249209D01*
X130451123Y-108487304D01*
X130403504Y-108582542D01*
X130355885Y-108630161D01*
X130260647Y-108677780D01*
X129974933Y-108677780D01*
X129879695Y-108630161D01*
X129832076Y-108582542D01*
X135010780Y-89536495D02*
X134010780Y-89536495D01*
X134010780Y-89298400D01*
X134058400Y-89155542D01*
X134153638Y-89060304D01*
X134248876Y-89012685D01*
X134439352Y-88965066D01*
X134582209Y-88965066D01*
X134772685Y-89012685D01*
X134867923Y-89060304D01*
X134963161Y-89155542D01*
X135010780Y-89298400D01*
X135010780Y-89536495D01*
X135010780Y-88012685D02*
X135010780Y-88584114D01*
X135010780Y-88298400D02*
X134010780Y-88298400D01*
X134153638Y-88393638D01*
X134248876Y-88488876D01*
X134296495Y-88584114D01*
D18*
X150984971Y-126097228D02*
X150984971Y-124573228D01*
X151710685Y-125081228D02*
X151710685Y-126097228D01*
X151710685Y-125226371D02*
X151783257Y-125153800D01*
X151928400Y-125081228D01*
X152146114Y-125081228D01*
X152291257Y-125153800D01*
X152363828Y-125298942D01*
X152363828Y-126097228D01*
X153089542Y-125081228D02*
X153089542Y-126605228D01*
X153089542Y-125153800D02*
X153234685Y-125081228D01*
X153524971Y-125081228D01*
X153670114Y-125153800D01*
X153742685Y-125226371D01*
X153815257Y-125371514D01*
X153815257Y-125806942D01*
X153742685Y-125952085D01*
X153670114Y-126024657D01*
X153524971Y-126097228D01*
X153234685Y-126097228D01*
X153089542Y-126024657D01*
X155121542Y-125081228D02*
X155121542Y-126097228D01*
X154468400Y-125081228D02*
X154468400Y-125879514D01*
X154540971Y-126024657D01*
X154686114Y-126097228D01*
X154903828Y-126097228D01*
X155048971Y-126024657D01*
X155121542Y-125952085D01*
X155629542Y-125081228D02*
X156210114Y-125081228D01*
X155847257Y-124573228D02*
X155847257Y-125879514D01*
X155919828Y-126024657D01*
X156064971Y-126097228D01*
X156210114Y-126097228D01*
X156355257Y-126242371D02*
X157516400Y-126242371D01*
X157806685Y-126024657D02*
X158024400Y-126097228D01*
X158387257Y-126097228D01*
X158532400Y-126024657D01*
X158604971Y-125952085D01*
X158677542Y-125806942D01*
X158677542Y-125661800D01*
X158604971Y-125516657D01*
X158532400Y-125444085D01*
X158387257Y-125371514D01*
X158096971Y-125298942D01*
X157951828Y-125226371D01*
X157879257Y-125153800D01*
X157806685Y-125008657D01*
X157806685Y-124863514D01*
X157879257Y-124718371D01*
X157951828Y-124645800D01*
X158096971Y-124573228D01*
X158459828Y-124573228D01*
X158677542Y-124645800D01*
X159548400Y-125226371D02*
X159403257Y-125153800D01*
X159330685Y-125081228D01*
X159258114Y-124936085D01*
X159258114Y-124863514D01*
X159330685Y-124718371D01*
X159403257Y-124645800D01*
X159548400Y-124573228D01*
X159838685Y-124573228D01*
X159983828Y-124645800D01*
X160056400Y-124718371D01*
X160128971Y-124863514D01*
X160128971Y-124936085D01*
X160056400Y-125081228D01*
X159983828Y-125153800D01*
X159838685Y-125226371D01*
X159548400Y-125226371D01*
X159403257Y-125298942D01*
X159330685Y-125371514D01*
X159258114Y-125516657D01*
X159258114Y-125806942D01*
X159330685Y-125952085D01*
X159403257Y-126024657D01*
X159548400Y-126097228D01*
X159838685Y-126097228D01*
X159983828Y-126024657D01*
X160056400Y-125952085D01*
X160128971Y-125806942D01*
X160128971Y-125516657D01*
X160056400Y-125371514D01*
X159983828Y-125298942D01*
X159838685Y-125226371D01*
X160999828Y-125226371D02*
X160854685Y-125153800D01*
X160782114Y-125081228D01*
X160709542Y-124936085D01*
X160709542Y-124863514D01*
X160782114Y-124718371D01*
X160854685Y-124645800D01*
X160999828Y-124573228D01*
X161290114Y-124573228D01*
X161435257Y-124645800D01*
X161507828Y-124718371D01*
X161580400Y-124863514D01*
X161580400Y-124936085D01*
X161507828Y-125081228D01*
X161435257Y-125153800D01*
X161290114Y-125226371D01*
X160999828Y-125226371D01*
X160854685Y-125298942D01*
X160782114Y-125371514D01*
X160709542Y-125516657D01*
X160709542Y-125806942D01*
X160782114Y-125952085D01*
X160854685Y-126024657D01*
X160999828Y-126097228D01*
X161290114Y-126097228D01*
X161435257Y-126024657D01*
X161507828Y-125952085D01*
X161580400Y-125806942D01*
X161580400Y-125516657D01*
X161507828Y-125371514D01*
X161435257Y-125298942D01*
X161290114Y-125226371D01*
X162320628Y-114793485D02*
X161594914Y-115301485D01*
X162320628Y-115664342D02*
X160796628Y-115664342D01*
X160796628Y-115083771D01*
X160869200Y-114938628D01*
X160941771Y-114866057D01*
X161086914Y-114793485D01*
X161304628Y-114793485D01*
X161449771Y-114866057D01*
X161522342Y-114938628D01*
X161594914Y-115083771D01*
X161594914Y-115664342D01*
X160796628Y-113704914D02*
X161885200Y-113704914D01*
X162102914Y-113777485D01*
X162248057Y-113922628D01*
X162320628Y-114140342D01*
X162320628Y-114285485D01*
X161304628Y-112326057D02*
X162320628Y-112326057D01*
X160724057Y-112688914D02*
X161812628Y-113051771D01*
X161812628Y-112108342D01*
X160796628Y-110802057D02*
X160796628Y-111527771D01*
X161522342Y-111600342D01*
X161449771Y-111527771D01*
X161377200Y-111382628D01*
X161377200Y-111019771D01*
X161449771Y-110874628D01*
X161522342Y-110802057D01*
X161667485Y-110729485D01*
X162030342Y-110729485D01*
X162175485Y-110802057D01*
X162248057Y-110874628D01*
X162320628Y-111019771D01*
X162320628Y-111382628D01*
X162248057Y-111527771D01*
X162175485Y-111600342D01*
D11*
X136693042Y-116327180D02*
X136359709Y-115850990D01*
X136121614Y-116327180D02*
X136121614Y-115327180D01*
X136502566Y-115327180D01*
X136597804Y-115374800D01*
X136645423Y-115422419D01*
X136693042Y-115517657D01*
X136693042Y-115660514D01*
X136645423Y-115755752D01*
X136597804Y-115803371D01*
X136502566Y-115850990D01*
X136121614Y-115850990D01*
X137645423Y-116327180D02*
X137073995Y-116327180D01*
X137359709Y-116327180D02*
X137359709Y-115327180D01*
X137264471Y-115470038D01*
X137169233Y-115565276D01*
X137073995Y-115612895D01*
X138264471Y-115327180D02*
X138359709Y-115327180D01*
X138454947Y-115374800D01*
X138502566Y-115422419D01*
X138550185Y-115517657D01*
X138597804Y-115708133D01*
X138597804Y-115946228D01*
X138550185Y-116136704D01*
X138502566Y-116231942D01*
X138454947Y-116279561D01*
X138359709Y-116327180D01*
X138264471Y-116327180D01*
X138169233Y-116279561D01*
X138121614Y-116231942D01*
X138073995Y-116136704D01*
X138026376Y-115946228D01*
X138026376Y-115708133D01*
X138073995Y-115517657D01*
X138121614Y-115422419D01*
X138169233Y-115374800D01*
X138264471Y-115327180D01*
X121956533Y-119476780D02*
X121623200Y-119000590D01*
X121385104Y-119476780D02*
X121385104Y-118476780D01*
X121766057Y-118476780D01*
X121861295Y-118524400D01*
X121908914Y-118572019D01*
X121956533Y-118667257D01*
X121956533Y-118810114D01*
X121908914Y-118905352D01*
X121861295Y-118952971D01*
X121766057Y-119000590D01*
X121385104Y-119000590D01*
X122432723Y-119476780D02*
X122623200Y-119476780D01*
X122718438Y-119429161D01*
X122766057Y-119381542D01*
X122861295Y-119238685D01*
X122908914Y-119048209D01*
X122908914Y-118667257D01*
X122861295Y-118572019D01*
X122813676Y-118524400D01*
X122718438Y-118476780D01*
X122527961Y-118476780D01*
X122432723Y-118524400D01*
X122385104Y-118572019D01*
X122337485Y-118667257D01*
X122337485Y-118905352D01*
X122385104Y-119000590D01*
X122432723Y-119048209D01*
X122527961Y-119095828D01*
X122718438Y-119095828D01*
X122813676Y-119048209D01*
X122861295Y-119000590D01*
X122908914Y-118905352D01*
X122413733Y-108256342D02*
X122366114Y-108303961D01*
X122223257Y-108351580D01*
X122128019Y-108351580D01*
X121985161Y-108303961D01*
X121889923Y-108208723D01*
X121842304Y-108113485D01*
X121794685Y-107923009D01*
X121794685Y-107780152D01*
X121842304Y-107589676D01*
X121889923Y-107494438D01*
X121985161Y-107399200D01*
X122128019Y-107351580D01*
X122223257Y-107351580D01*
X122366114Y-107399200D01*
X122413733Y-107446819D01*
X122747066Y-107351580D02*
X123413733Y-107351580D01*
X122985161Y-108351580D01*
X136510733Y-108101642D02*
X136463114Y-108149261D01*
X136320257Y-108196880D01*
X136225019Y-108196880D01*
X136082161Y-108149261D01*
X135986923Y-108054023D01*
X135939304Y-107958785D01*
X135891685Y-107768309D01*
X135891685Y-107625452D01*
X135939304Y-107434976D01*
X135986923Y-107339738D01*
X136082161Y-107244500D01*
X136225019Y-107196880D01*
X136320257Y-107196880D01*
X136463114Y-107244500D01*
X136510733Y-107292119D01*
X137367876Y-107196880D02*
X137177400Y-107196880D01*
X137082161Y-107244500D01*
X137034542Y-107292119D01*
X136939304Y-107434976D01*
X136891685Y-107625452D01*
X136891685Y-108006404D01*
X136939304Y-108101642D01*
X136986923Y-108149261D01*
X137082161Y-108196880D01*
X137272638Y-108196880D01*
X137367876Y-108149261D01*
X137415495Y-108101642D01*
X137463114Y-108006404D01*
X137463114Y-107768309D01*
X137415495Y-107673071D01*
X137367876Y-107625452D01*
X137272638Y-107577833D01*
X137082161Y-107577833D01*
X136986923Y-107625452D01*
X136939304Y-107673071D01*
X136891685Y-107768309D01*
X149744133Y-123006380D02*
X149410800Y-122530190D01*
X149172704Y-123006380D02*
X149172704Y-122006380D01*
X149553657Y-122006380D01*
X149648895Y-122054000D01*
X149696514Y-122101619D01*
X149744133Y-122196857D01*
X149744133Y-122339714D01*
X149696514Y-122434952D01*
X149648895Y-122482571D01*
X149553657Y-122530190D01*
X149172704Y-122530190D01*
X150601276Y-122339714D02*
X150601276Y-123006380D01*
X150363180Y-121958761D02*
X150125085Y-122673047D01*
X150744133Y-122673047D01*
X130708495Y-83577180D02*
X130708495Y-84386704D01*
X130756114Y-84481942D01*
X130803733Y-84529561D01*
X130898971Y-84577180D01*
X131089447Y-84577180D01*
X131184685Y-84529561D01*
X131232304Y-84481942D01*
X131279923Y-84386704D01*
X131279923Y-83577180D01*
X132279923Y-84577180D02*
X131708495Y-84577180D01*
X131994209Y-84577180D02*
X131994209Y-83577180D01*
X131898971Y-83720038D01*
X131803733Y-83815276D01*
X131708495Y-83862895D01*
X118349733Y-117343180D02*
X118016400Y-116866990D01*
X117778304Y-117343180D02*
X117778304Y-116343180D01*
X118159257Y-116343180D01*
X118254495Y-116390800D01*
X118302114Y-116438419D01*
X118349733Y-116533657D01*
X118349733Y-116676514D01*
X118302114Y-116771752D01*
X118254495Y-116819371D01*
X118159257Y-116866990D01*
X117778304Y-116866990D01*
X118921161Y-116771752D02*
X118825923Y-116724133D01*
X118778304Y-116676514D01*
X118730685Y-116581276D01*
X118730685Y-116533657D01*
X118778304Y-116438419D01*
X118825923Y-116390800D01*
X118921161Y-116343180D01*
X119111638Y-116343180D01*
X119206876Y-116390800D01*
X119254495Y-116438419D01*
X119302114Y-116533657D01*
X119302114Y-116581276D01*
X119254495Y-116676514D01*
X119206876Y-116724133D01*
X119111638Y-116771752D01*
X118921161Y-116771752D01*
X118825923Y-116819371D01*
X118778304Y-116866990D01*
X118730685Y-116962228D01*
X118730685Y-117152704D01*
X118778304Y-117247942D01*
X118825923Y-117295561D01*
X118921161Y-117343180D01*
X119111638Y-117343180D01*
X119206876Y-117295561D01*
X119254495Y-117247942D01*
X119302114Y-117152704D01*
X119302114Y-116962228D01*
X119254495Y-116866990D01*
X119206876Y-116819371D01*
X119111638Y-116771752D01*
X121550133Y-114345980D02*
X121216800Y-113869790D01*
X120978704Y-114345980D02*
X120978704Y-113345980D01*
X121359657Y-113345980D01*
X121454895Y-113393600D01*
X121502514Y-113441219D01*
X121550133Y-113536457D01*
X121550133Y-113679314D01*
X121502514Y-113774552D01*
X121454895Y-113822171D01*
X121359657Y-113869790D01*
X120978704Y-113869790D01*
X121883466Y-113345980D02*
X122550133Y-113345980D01*
X122121561Y-114345980D01*
X118349733Y-111196380D02*
X118016400Y-110720190D01*
X117778304Y-111196380D02*
X117778304Y-110196380D01*
X118159257Y-110196380D01*
X118254495Y-110244000D01*
X118302114Y-110291619D01*
X118349733Y-110386857D01*
X118349733Y-110529714D01*
X118302114Y-110624952D01*
X118254495Y-110672571D01*
X118159257Y-110720190D01*
X117778304Y-110720190D01*
X119206876Y-110196380D02*
X119016400Y-110196380D01*
X118921161Y-110244000D01*
X118873542Y-110291619D01*
X118778304Y-110434476D01*
X118730685Y-110624952D01*
X118730685Y-111005904D01*
X118778304Y-111101142D01*
X118825923Y-111148761D01*
X118921161Y-111196380D01*
X119111638Y-111196380D01*
X119206876Y-111148761D01*
X119254495Y-111101142D01*
X119302114Y-111005904D01*
X119302114Y-110767809D01*
X119254495Y-110672571D01*
X119206876Y-110624952D01*
X119111638Y-110577333D01*
X118921161Y-110577333D01*
X118825923Y-110624952D01*
X118778304Y-110672571D01*
X118730685Y-110767809D01*
X110170933Y-95092780D02*
X109837600Y-94616590D01*
X109599504Y-95092780D02*
X109599504Y-94092780D01*
X109980457Y-94092780D01*
X110075695Y-94140400D01*
X110123314Y-94188019D01*
X110170933Y-94283257D01*
X110170933Y-94426114D01*
X110123314Y-94521352D01*
X110075695Y-94568971D01*
X109980457Y-94616590D01*
X109599504Y-94616590D01*
X110504266Y-94092780D02*
X111123314Y-94092780D01*
X110789980Y-94473733D01*
X110932838Y-94473733D01*
X111028076Y-94521352D01*
X111075695Y-94568971D01*
X111123314Y-94664209D01*
X111123314Y-94902304D01*
X111075695Y-94997542D01*
X111028076Y-95045161D01*
X110932838Y-95092780D01*
X110647123Y-95092780D01*
X110551885Y-95045161D01*
X110504266Y-94997542D01*
X125309333Y-93467180D02*
X124976000Y-92990990D01*
X124737904Y-93467180D02*
X124737904Y-92467180D01*
X125118857Y-92467180D01*
X125214095Y-92514800D01*
X125261714Y-92562419D01*
X125309333Y-92657657D01*
X125309333Y-92800514D01*
X125261714Y-92895752D01*
X125214095Y-92943371D01*
X125118857Y-92990990D01*
X124737904Y-92990990D01*
X125690285Y-92562419D02*
X125737904Y-92514800D01*
X125833142Y-92467180D01*
X126071238Y-92467180D01*
X126166476Y-92514800D01*
X126214095Y-92562419D01*
X126261714Y-92657657D01*
X126261714Y-92752895D01*
X126214095Y-92895752D01*
X125642666Y-93467180D01*
X126261714Y-93467180D01*
X125156933Y-98470980D02*
X124823600Y-97994790D01*
X124585504Y-98470980D02*
X124585504Y-97470980D01*
X124966457Y-97470980D01*
X125061695Y-97518600D01*
X125109314Y-97566219D01*
X125156933Y-97661457D01*
X125156933Y-97804314D01*
X125109314Y-97899552D01*
X125061695Y-97947171D01*
X124966457Y-97994790D01*
X124585504Y-97994790D01*
X126109314Y-98470980D02*
X125537885Y-98470980D01*
X125823600Y-98470980D02*
X125823600Y-97470980D01*
X125728361Y-97613838D01*
X125633123Y-97709076D01*
X125537885Y-97756695D01*
X136828304Y-124963180D02*
X136828304Y-123963180D01*
X137066400Y-123963180D01*
X137209257Y-124010800D01*
X137304495Y-124106038D01*
X137352114Y-124201276D01*
X137399733Y-124391752D01*
X137399733Y-124534609D01*
X137352114Y-124725085D01*
X137304495Y-124820323D01*
X137209257Y-124915561D01*
X137066400Y-124963180D01*
X136828304Y-124963180D01*
X137733066Y-123963180D02*
X138352114Y-123963180D01*
X138018780Y-124344133D01*
X138161638Y-124344133D01*
X138256876Y-124391752D01*
X138304495Y-124439371D01*
X138352114Y-124534609D01*
X138352114Y-124772704D01*
X138304495Y-124867942D01*
X138256876Y-124915561D01*
X138161638Y-124963180D01*
X137875923Y-124963180D01*
X137780685Y-124915561D01*
X137733066Y-124867942D01*
X109599504Y-88785980D02*
X109599504Y-87785980D01*
X109837600Y-87785980D01*
X109980457Y-87833600D01*
X110075695Y-87928838D01*
X110123314Y-88024076D01*
X110170933Y-88214552D01*
X110170933Y-88357409D01*
X110123314Y-88547885D01*
X110075695Y-88643123D01*
X109980457Y-88738361D01*
X109837600Y-88785980D01*
X109599504Y-88785980D01*
X110551885Y-87881219D02*
X110599504Y-87833600D01*
X110694742Y-87785980D01*
X110932838Y-87785980D01*
X111028076Y-87833600D01*
X111075695Y-87881219D01*
X111123314Y-87976457D01*
X111123314Y-88071695D01*
X111075695Y-88214552D01*
X110504266Y-88785980D01*
X111123314Y-88785980D01*
X106623314Y-91645980D02*
X106623314Y-90645980D01*
X107004266Y-90645980D01*
X107099504Y-90693600D01*
X107147123Y-90741219D01*
X107194742Y-90836457D01*
X107194742Y-90979314D01*
X107147123Y-91074552D01*
X107099504Y-91122171D01*
X107004266Y-91169790D01*
X106623314Y-91169790D01*
X107766171Y-91645980D02*
X107670933Y-91598361D01*
X107623314Y-91550742D01*
X107575695Y-91455504D01*
X107575695Y-91169790D01*
X107623314Y-91074552D01*
X107670933Y-91026933D01*
X107766171Y-90979314D01*
X107909028Y-90979314D01*
X108004266Y-91026933D01*
X108051885Y-91074552D01*
X108099504Y-91169790D01*
X108099504Y-91455504D01*
X108051885Y-91550742D01*
X108004266Y-91598361D01*
X107909028Y-91645980D01*
X107766171Y-91645980D01*
X108432838Y-90979314D02*
X108623314Y-91645980D01*
X108813790Y-91169790D01*
X109004266Y-91645980D01*
X109194742Y-90979314D01*
X109956647Y-91598361D02*
X109861409Y-91645980D01*
X109670933Y-91645980D01*
X109575695Y-91598361D01*
X109528076Y-91503123D01*
X109528076Y-91122171D01*
X109575695Y-91026933D01*
X109670933Y-90979314D01*
X109861409Y-90979314D01*
X109956647Y-91026933D01*
X110004266Y-91122171D01*
X110004266Y-91217409D01*
X109528076Y-91312647D01*
X110432838Y-91645980D02*
X110432838Y-90979314D01*
X110432838Y-91169790D02*
X110480457Y-91074552D01*
X110528076Y-91026933D01*
X110623314Y-90979314D01*
X110718552Y-90979314D01*
X112289980Y-91645980D02*
X111813790Y-91645980D01*
X111813790Y-90645980D01*
X112623314Y-91122171D02*
X112956647Y-91122171D01*
X113099504Y-91645980D02*
X112623314Y-91645980D01*
X112623314Y-90645980D01*
X113099504Y-90645980D01*
X113528076Y-91645980D02*
X113528076Y-90645980D01*
X113766171Y-90645980D01*
X113909028Y-90693600D01*
X114004266Y-90788838D01*
X114051885Y-90884076D01*
X114099504Y-91074552D01*
X114099504Y-91217409D01*
X114051885Y-91407885D01*
X114004266Y-91503123D01*
X113909028Y-91598361D01*
X113766171Y-91645980D01*
X113528076Y-91645980D01*
X125258533Y-87123542D02*
X125210914Y-87171161D01*
X125068057Y-87218780D01*
X124972819Y-87218780D01*
X124829961Y-87171161D01*
X124734723Y-87075923D01*
X124687104Y-86980685D01*
X124639485Y-86790209D01*
X124639485Y-86647352D01*
X124687104Y-86456876D01*
X124734723Y-86361638D01*
X124829961Y-86266400D01*
X124972819Y-86218780D01*
X125068057Y-86218780D01*
X125210914Y-86266400D01*
X125258533Y-86314019D01*
X125639485Y-86314019D02*
X125687104Y-86266400D01*
X125782342Y-86218780D01*
X126020438Y-86218780D01*
X126115676Y-86266400D01*
X126163295Y-86314019D01*
X126210914Y-86409257D01*
X126210914Y-86504495D01*
X126163295Y-86647352D01*
X125591866Y-87218780D01*
X126210914Y-87218780D01*
X147436666Y-99952380D02*
X147436666Y-100666666D01*
X147389047Y-100809523D01*
X147293809Y-100904761D01*
X147150952Y-100952380D01*
X147055714Y-100952380D01*
X147817619Y-99952380D02*
X148436666Y-99952380D01*
X148103333Y-100333333D01*
X148246190Y-100333333D01*
X148341428Y-100380952D01*
X148389047Y-100428571D01*
X148436666Y-100523809D01*
X148436666Y-100761904D01*
X148389047Y-100857142D01*
X148341428Y-100904761D01*
X148246190Y-100952380D01*
X147960476Y-100952380D01*
X147865238Y-100904761D01*
X147817619Y-100857142D01*
D18*
X108312857Y-124184228D02*
X109328857Y-124184228D01*
X108312857Y-125708228D01*
X109328857Y-125708228D01*
X110490000Y-125635657D02*
X110344857Y-125708228D01*
X110054571Y-125708228D01*
X109909428Y-125635657D01*
X109836857Y-125490514D01*
X109836857Y-124909942D01*
X109909428Y-124764800D01*
X110054571Y-124692228D01*
X110344857Y-124692228D01*
X110490000Y-124764800D01*
X110562571Y-124909942D01*
X110562571Y-125055085D01*
X109836857Y-125200228D01*
X111215714Y-124692228D02*
X111215714Y-125708228D01*
X111215714Y-124837371D02*
X111288285Y-124764800D01*
X111433428Y-124692228D01*
X111651142Y-124692228D01*
X111796285Y-124764800D01*
X111868857Y-124909942D01*
X111868857Y-125708228D01*
X112376857Y-124692228D02*
X112957428Y-124692228D01*
X112594571Y-124184228D02*
X112594571Y-125490514D01*
X112667142Y-125635657D01*
X112812285Y-125708228D01*
X112957428Y-125708228D01*
X113465428Y-125708228D02*
X113465428Y-124692228D01*
X113465428Y-124982514D02*
X113538000Y-124837371D01*
X113610571Y-124764800D01*
X113755714Y-124692228D01*
X113900857Y-124692228D01*
X115062000Y-125708228D02*
X115062000Y-124909942D01*
X114989428Y-124764800D01*
X114844285Y-124692228D01*
X114554000Y-124692228D01*
X114408857Y-124764800D01*
X115062000Y-125635657D02*
X114916857Y-125708228D01*
X114554000Y-125708228D01*
X114408857Y-125635657D01*
X114336285Y-125490514D01*
X114336285Y-125345371D01*
X114408857Y-125200228D01*
X114554000Y-125127657D01*
X114916857Y-125127657D01*
X115062000Y-125055085D01*
X116005428Y-125708228D02*
X115860285Y-125635657D01*
X115787714Y-125490514D01*
X115787714Y-124184228D01*
X117166571Y-125635657D02*
X117021428Y-125708228D01*
X116731142Y-125708228D01*
X116586000Y-125635657D01*
X116513428Y-125490514D01*
X116513428Y-124909942D01*
X116586000Y-124764800D01*
X116731142Y-124692228D01*
X117021428Y-124692228D01*
X117166571Y-124764800D01*
X117239142Y-124909942D01*
X117239142Y-125055085D01*
X116513428Y-125200228D01*
X117529428Y-125853371D02*
X118690571Y-125853371D01*
X118980857Y-125635657D02*
X119198571Y-125708228D01*
X119561428Y-125708228D01*
X119706571Y-125635657D01*
X119779142Y-125563085D01*
X119851714Y-125417942D01*
X119851714Y-125272800D01*
X119779142Y-125127657D01*
X119706571Y-125055085D01*
X119561428Y-124982514D01*
X119271142Y-124909942D01*
X119126000Y-124837371D01*
X119053428Y-124764800D01*
X118980857Y-124619657D01*
X118980857Y-124474514D01*
X119053428Y-124329371D01*
X119126000Y-124256800D01*
X119271142Y-124184228D01*
X119634000Y-124184228D01*
X119851714Y-124256800D01*
X120722571Y-124837371D02*
X120577428Y-124764800D01*
X120504857Y-124692228D01*
X120432285Y-124547085D01*
X120432285Y-124474514D01*
X120504857Y-124329371D01*
X120577428Y-124256800D01*
X120722571Y-124184228D01*
X121012857Y-124184228D01*
X121158000Y-124256800D01*
X121230571Y-124329371D01*
X121303142Y-124474514D01*
X121303142Y-124547085D01*
X121230571Y-124692228D01*
X121158000Y-124764800D01*
X121012857Y-124837371D01*
X120722571Y-124837371D01*
X120577428Y-124909942D01*
X120504857Y-124982514D01*
X120432285Y-125127657D01*
X120432285Y-125417942D01*
X120504857Y-125563085D01*
X120577428Y-125635657D01*
X120722571Y-125708228D01*
X121012857Y-125708228D01*
X121158000Y-125635657D01*
X121230571Y-125563085D01*
X121303142Y-125417942D01*
X121303142Y-125127657D01*
X121230571Y-124982514D01*
X121158000Y-124909942D01*
X121012857Y-124837371D01*
X122174000Y-124837371D02*
X122028857Y-124764800D01*
X121956285Y-124692228D01*
X121883714Y-124547085D01*
X121883714Y-124474514D01*
X121956285Y-124329371D01*
X122028857Y-124256800D01*
X122174000Y-124184228D01*
X122464285Y-124184228D01*
X122609428Y-124256800D01*
X122682000Y-124329371D01*
X122754571Y-124474514D01*
X122754571Y-124547085D01*
X122682000Y-124692228D01*
X122609428Y-124764800D01*
X122464285Y-124837371D01*
X122174000Y-124837371D01*
X122028857Y-124909942D01*
X121956285Y-124982514D01*
X121883714Y-125127657D01*
X121883714Y-125417942D01*
X121956285Y-125563085D01*
X122028857Y-125635657D01*
X122174000Y-125708228D01*
X122464285Y-125708228D01*
X122609428Y-125635657D01*
X122682000Y-125563085D01*
X122754571Y-125417942D01*
X122754571Y-125127657D01*
X122682000Y-124982514D01*
X122609428Y-124909942D01*
X122464285Y-124837371D01*
X106505828Y-114793485D02*
X105780114Y-115301485D01*
X106505828Y-115664342D02*
X104981828Y-115664342D01*
X104981828Y-115083771D01*
X105054400Y-114938628D01*
X105126971Y-114866057D01*
X105272114Y-114793485D01*
X105489828Y-114793485D01*
X105634971Y-114866057D01*
X105707542Y-114938628D01*
X105780114Y-115083771D01*
X105780114Y-115664342D01*
X104981828Y-113704914D02*
X106070400Y-113704914D01*
X106288114Y-113777485D01*
X106433257Y-113922628D01*
X106505828Y-114140342D01*
X106505828Y-114285485D01*
X105489828Y-112326057D02*
X106505828Y-112326057D01*
X104909257Y-112688914D02*
X105997828Y-113051771D01*
X105997828Y-112108342D01*
X104981828Y-110802057D02*
X104981828Y-111527771D01*
X105707542Y-111600342D01*
X105634971Y-111527771D01*
X105562400Y-111382628D01*
X105562400Y-111019771D01*
X105634971Y-110874628D01*
X105707542Y-110802057D01*
X105852685Y-110729485D01*
X106215542Y-110729485D01*
X106360685Y-110802057D01*
X106433257Y-110874628D01*
X106505828Y-111019771D01*
X106505828Y-111382628D01*
X106433257Y-111527771D01*
X106360685Y-111600342D01*
D11*
X119554666Y-87590380D02*
X119554666Y-88304666D01*
X119507047Y-88447523D01*
X119411809Y-88542761D01*
X119268952Y-88590380D01*
X119173714Y-88590380D01*
X120459428Y-87923714D02*
X120459428Y-88590380D01*
X120221333Y-87542761D02*
X119983238Y-88257047D01*
X120602285Y-88257047D01*
X137067233Y-93473542D02*
X137019614Y-93521161D01*
X136876757Y-93568780D01*
X136781519Y-93568780D01*
X136638661Y-93521161D01*
X136543423Y-93425923D01*
X136495804Y-93330685D01*
X136448185Y-93140209D01*
X136448185Y-92997352D01*
X136495804Y-92806876D01*
X136543423Y-92711638D01*
X136638661Y-92616400D01*
X136781519Y-92568780D01*
X136876757Y-92568780D01*
X137019614Y-92616400D01*
X137067233Y-92664019D01*
X138019614Y-93568780D02*
X137448185Y-93568780D01*
X137733900Y-93568780D02*
X137733900Y-92568780D01*
X137638661Y-92711638D01*
X137543423Y-92806876D01*
X137448185Y-92854495D01*
X139981942Y-107405466D02*
X140029561Y-107453085D01*
X140077180Y-107595942D01*
X140077180Y-107691180D01*
X140029561Y-107834038D01*
X139934323Y-107929276D01*
X139839085Y-107976895D01*
X139648609Y-108024514D01*
X139505752Y-108024514D01*
X139315276Y-107976895D01*
X139220038Y-107929276D01*
X139124800Y-107834038D01*
X139077180Y-107691180D01*
X139077180Y-107595942D01*
X139124800Y-107453085D01*
X139172419Y-107405466D01*
X139410514Y-106548323D02*
X140077180Y-106548323D01*
X139029561Y-106786419D02*
X139743847Y-107024514D01*
X139743847Y-106405466D01*
D18*
X146202400Y-87354228D02*
X146202400Y-88442800D01*
X146129828Y-88660514D01*
X145984685Y-88805657D01*
X145766971Y-88878228D01*
X145621828Y-88878228D01*
X147726400Y-88878228D02*
X146855542Y-88878228D01*
X147290971Y-88878228D02*
X147290971Y-87354228D01*
X147145828Y-87571942D01*
X147000685Y-87717085D01*
X146855542Y-87789657D01*
D11*
X151937980Y-116651066D02*
X151461790Y-116984400D01*
X151937980Y-117222495D02*
X150937980Y-117222495D01*
X150937980Y-116841542D01*
X150985600Y-116746304D01*
X151033219Y-116698685D01*
X151128457Y-116651066D01*
X151271314Y-116651066D01*
X151366552Y-116698685D01*
X151414171Y-116746304D01*
X151461790Y-116841542D01*
X151461790Y-117222495D01*
X150937980Y-115746304D02*
X150937980Y-116222495D01*
X151414171Y-116270114D01*
X151366552Y-116222495D01*
X151318933Y-116127257D01*
X151318933Y-115889161D01*
X151366552Y-115793923D01*
X151414171Y-115746304D01*
X151509409Y-115698685D01*
X151747504Y-115698685D01*
X151842742Y-115746304D01*
X151890361Y-115793923D01*
X151937980Y-115889161D01*
X151937980Y-116127257D01*
X151890361Y-116222495D01*
X151842742Y-116270114D01*
X159543904Y-86764761D02*
X159686761Y-86812380D01*
X159924857Y-86812380D01*
X160020095Y-86764761D01*
X160067714Y-86717142D01*
X160115333Y-86621904D01*
X160115333Y-86526666D01*
X160067714Y-86431428D01*
X160020095Y-86383809D01*
X159924857Y-86336190D01*
X159734380Y-86288571D01*
X159639142Y-86240952D01*
X159591523Y-86193333D01*
X159543904Y-86098095D01*
X159543904Y-86002857D01*
X159591523Y-85907619D01*
X159639142Y-85860000D01*
X159734380Y-85812380D01*
X159972476Y-85812380D01*
X160115333Y-85860000D01*
X160686761Y-86240952D02*
X160591523Y-86193333D01*
X160543904Y-86145714D01*
X160496285Y-86050476D01*
X160496285Y-86002857D01*
X160543904Y-85907619D01*
X160591523Y-85860000D01*
X160686761Y-85812380D01*
X160877238Y-85812380D01*
X160972476Y-85860000D01*
X161020095Y-85907619D01*
X161067714Y-86002857D01*
X161067714Y-86050476D01*
X161020095Y-86145714D01*
X160972476Y-86193333D01*
X160877238Y-86240952D01*
X160686761Y-86240952D01*
X160591523Y-86288571D01*
X160543904Y-86336190D01*
X160496285Y-86431428D01*
X160496285Y-86621904D01*
X160543904Y-86717142D01*
X160591523Y-86764761D01*
X160686761Y-86812380D01*
X160877238Y-86812380D01*
X160972476Y-86764761D01*
X161020095Y-86717142D01*
X161067714Y-86621904D01*
X161067714Y-86431428D01*
X161020095Y-86336190D01*
X160972476Y-86288571D01*
X160877238Y-86240952D01*
X161639142Y-86240952D02*
X161543904Y-86193333D01*
X161496285Y-86145714D01*
X161448666Y-86050476D01*
X161448666Y-86002857D01*
X161496285Y-85907619D01*
X161543904Y-85860000D01*
X161639142Y-85812380D01*
X161829619Y-85812380D01*
X161924857Y-85860000D01*
X161972476Y-85907619D01*
X162020095Y-86002857D01*
X162020095Y-86050476D01*
X161972476Y-86145714D01*
X161924857Y-86193333D01*
X161829619Y-86240952D01*
X161639142Y-86240952D01*
X161543904Y-86288571D01*
X161496285Y-86336190D01*
X161448666Y-86431428D01*
X161448666Y-86621904D01*
X161496285Y-86717142D01*
X161543904Y-86764761D01*
X161639142Y-86812380D01*
X161829619Y-86812380D01*
X161924857Y-86764761D01*
X161972476Y-86717142D01*
X162020095Y-86621904D01*
X162020095Y-86431428D01*
X161972476Y-86336190D01*
X161924857Y-86288571D01*
X161829619Y-86240952D01*
X145569942Y-107456266D02*
X145617561Y-107503885D01*
X145665180Y-107646742D01*
X145665180Y-107741980D01*
X145617561Y-107884838D01*
X145522323Y-107980076D01*
X145427085Y-108027695D01*
X145236609Y-108075314D01*
X145093752Y-108075314D01*
X144903276Y-108027695D01*
X144808038Y-107980076D01*
X144712800Y-107884838D01*
X144665180Y-107741980D01*
X144665180Y-107646742D01*
X144712800Y-107503885D01*
X144760419Y-107456266D01*
X144665180Y-107122933D02*
X144665180Y-106503885D01*
X145046133Y-106837219D01*
X145046133Y-106694361D01*
X145093752Y-106599123D01*
X145141371Y-106551504D01*
X145236609Y-106503885D01*
X145474704Y-106503885D01*
X145569942Y-106551504D01*
X145617561Y-106599123D01*
X145665180Y-106694361D01*
X145665180Y-106980076D01*
X145617561Y-107075314D01*
X145569942Y-107122933D01*
X111946133Y-83018380D02*
X111469942Y-83018380D01*
X111422323Y-83494571D01*
X111469942Y-83446952D01*
X111565180Y-83399333D01*
X111803276Y-83399333D01*
X111898514Y-83446952D01*
X111946133Y-83494571D01*
X111993752Y-83589809D01*
X111993752Y-83827904D01*
X111946133Y-83923142D01*
X111898514Y-83970761D01*
X111803276Y-84018380D01*
X111565180Y-84018380D01*
X111469942Y-83970761D01*
X111422323Y-83923142D01*
X112279466Y-83018380D02*
X112612800Y-84018380D01*
X112946133Y-83018380D01*
X114374704Y-83494571D02*
X114517561Y-83542190D01*
X114565180Y-83589809D01*
X114612800Y-83685047D01*
X114612800Y-83827904D01*
X114565180Y-83923142D01*
X114517561Y-83970761D01*
X114422323Y-84018380D01*
X114041371Y-84018380D01*
X114041371Y-83018380D01*
X114374704Y-83018380D01*
X114469942Y-83066000D01*
X114517561Y-83113619D01*
X114565180Y-83208857D01*
X114565180Y-83304095D01*
X114517561Y-83399333D01*
X114469942Y-83446952D01*
X114374704Y-83494571D01*
X114041371Y-83494571D01*
X114946133Y-83351714D02*
X115184228Y-84018380D01*
X115422323Y-83351714D02*
X115184228Y-84018380D01*
X115088990Y-84256476D01*
X115041371Y-84304095D01*
X114946133Y-84351714D01*
X115803276Y-83351714D02*
X115803276Y-84351714D01*
X115803276Y-83399333D02*
X115898514Y-83351714D01*
X116088990Y-83351714D01*
X116184228Y-83399333D01*
X116231847Y-83446952D01*
X116279466Y-83542190D01*
X116279466Y-83827904D01*
X116231847Y-83923142D01*
X116184228Y-83970761D01*
X116088990Y-84018380D01*
X115898514Y-84018380D01*
X115803276Y-83970761D01*
X117136609Y-84018380D02*
X117136609Y-83494571D01*
X117088990Y-83399333D01*
X116993752Y-83351714D01*
X116803276Y-83351714D01*
X116708038Y-83399333D01*
X117136609Y-83970761D02*
X117041371Y-84018380D01*
X116803276Y-84018380D01*
X116708038Y-83970761D01*
X116660419Y-83875523D01*
X116660419Y-83780285D01*
X116708038Y-83685047D01*
X116803276Y-83637428D01*
X117041371Y-83637428D01*
X117136609Y-83589809D01*
X117565180Y-83970761D02*
X117660419Y-84018380D01*
X117850895Y-84018380D01*
X117946133Y-83970761D01*
X117993752Y-83875523D01*
X117993752Y-83827904D01*
X117946133Y-83732666D01*
X117850895Y-83685047D01*
X117708038Y-83685047D01*
X117612800Y-83637428D01*
X117565180Y-83542190D01*
X117565180Y-83494571D01*
X117612800Y-83399333D01*
X117708038Y-83351714D01*
X117850895Y-83351714D01*
X117946133Y-83399333D01*
X118374704Y-83970761D02*
X118469942Y-84018380D01*
X118660419Y-84018380D01*
X118755657Y-83970761D01*
X118803276Y-83875523D01*
X118803276Y-83827904D01*
X118755657Y-83732666D01*
X118660419Y-83685047D01*
X118517561Y-83685047D01*
X118422323Y-83637428D01*
X118374704Y-83542190D01*
X118374704Y-83494571D01*
X118422323Y-83399333D01*
X118517561Y-83351714D01*
X118660419Y-83351714D01*
X118755657Y-83399333D01*
M02*
